G75*
%MOIN*%
%OFA0B0*%
%FSLAX24Y24*%
%IPPOS*%
%LPD*%
%AMOC8*
5,1,8,0,0,1.08239X$1,22.5*
%
%ADD10C,0.0000*%
%ADD11C,0.1536*%
%ADD12C,0.0050*%
%ADD13R,0.0631X0.0158*%
%ADD14R,0.0158X0.0631*%
%ADD15R,0.2166X0.2166*%
%ADD16R,0.0237X0.0237*%
%ADD17R,0.1489X0.0540*%
%ADD18C,0.0670*%
%ADD19C,0.0004*%
%ADD20R,0.0276X0.0394*%
%ADD21R,0.0394X0.0276*%
%ADD22R,0.0473X0.0827*%
%ADD23R,0.1339X0.0827*%
%ADD24R,0.0827X0.0237*%
%ADD25R,0.0296X0.0375*%
%ADD26R,0.0434X0.1123*%
%ADD27C,0.0434*%
%ADD28R,0.0453X0.0296*%
%ADD29R,0.2040X0.0540*%
%ADD30R,0.1300X0.0670*%
%ADD31C,0.0631*%
%ADD32R,0.0473X0.0532*%
%ADD33C,0.0540*%
%ADD34C,0.0237*%
%ADD35C,0.1045*%
%ADD36R,0.0434X0.2481*%
%ADD37R,0.0670X0.1221*%
%ADD38C,0.0008*%
%ADD39R,0.0237X0.0276*%
%ADD40R,0.0276X0.0237*%
D10*
X000702Y003000D02*
X000704Y003055D01*
X000710Y003109D01*
X000720Y003163D01*
X000734Y003215D01*
X000751Y003267D01*
X000773Y003317D01*
X000798Y003366D01*
X000826Y003413D01*
X000858Y003457D01*
X000893Y003499D01*
X000931Y003538D01*
X000972Y003575D01*
X001015Y003608D01*
X001060Y003638D01*
X001108Y003665D01*
X001157Y003688D01*
X001208Y003708D01*
X001261Y003724D01*
X001314Y003736D01*
X001368Y003744D01*
X001423Y003748D01*
X001477Y003748D01*
X001532Y003744D01*
X001586Y003736D01*
X001639Y003724D01*
X001692Y003708D01*
X001743Y003688D01*
X001792Y003665D01*
X001840Y003638D01*
X001885Y003608D01*
X001928Y003575D01*
X001969Y003538D01*
X002007Y003499D01*
X002042Y003457D01*
X002074Y003413D01*
X002102Y003366D01*
X002127Y003317D01*
X002149Y003267D01*
X002166Y003215D01*
X002180Y003163D01*
X002190Y003109D01*
X002196Y003055D01*
X002198Y003000D01*
X002196Y002945D01*
X002190Y002891D01*
X002180Y002837D01*
X002166Y002785D01*
X002149Y002733D01*
X002127Y002683D01*
X002102Y002634D01*
X002074Y002587D01*
X002042Y002543D01*
X002007Y002501D01*
X001969Y002462D01*
X001928Y002425D01*
X001885Y002392D01*
X001840Y002362D01*
X001792Y002335D01*
X001743Y002312D01*
X001692Y002292D01*
X001639Y002276D01*
X001586Y002264D01*
X001532Y002256D01*
X001477Y002252D01*
X001423Y002252D01*
X001368Y002256D01*
X001314Y002264D01*
X001261Y002276D01*
X001208Y002292D01*
X001157Y002312D01*
X001108Y002335D01*
X001060Y002362D01*
X001015Y002392D01*
X000972Y002425D01*
X000931Y002462D01*
X000893Y002501D01*
X000858Y002543D01*
X000826Y002587D01*
X000798Y002634D01*
X000773Y002683D01*
X000751Y002733D01*
X000734Y002785D01*
X000720Y002837D01*
X000710Y002891D01*
X000704Y002945D01*
X000702Y003000D01*
X027035Y009100D02*
X027037Y009135D01*
X027043Y009170D01*
X027053Y009204D01*
X027066Y009237D01*
X027083Y009268D01*
X027104Y009296D01*
X027127Y009323D01*
X027154Y009346D01*
X027182Y009367D01*
X027213Y009384D01*
X027246Y009397D01*
X027280Y009407D01*
X027315Y009413D01*
X027350Y009415D01*
X027385Y009413D01*
X027420Y009407D01*
X027454Y009397D01*
X027487Y009384D01*
X027518Y009367D01*
X027546Y009346D01*
X027573Y009323D01*
X027596Y009296D01*
X027617Y009268D01*
X027634Y009237D01*
X027647Y009204D01*
X027657Y009170D01*
X027663Y009135D01*
X027665Y009100D01*
X027663Y009065D01*
X027657Y009030D01*
X027647Y008996D01*
X027634Y008963D01*
X027617Y008932D01*
X027596Y008904D01*
X027573Y008877D01*
X027546Y008854D01*
X027518Y008833D01*
X027487Y008816D01*
X027454Y008803D01*
X027420Y008793D01*
X027385Y008787D01*
X027350Y008785D01*
X027315Y008787D01*
X027280Y008793D01*
X027246Y008803D01*
X027213Y008816D01*
X027182Y008833D01*
X027154Y008854D01*
X027127Y008877D01*
X027104Y008904D01*
X027083Y008932D01*
X027066Y008963D01*
X027053Y008996D01*
X027043Y009030D01*
X027037Y009065D01*
X027035Y009100D01*
X027035Y012100D02*
X027037Y012135D01*
X027043Y012170D01*
X027053Y012204D01*
X027066Y012237D01*
X027083Y012268D01*
X027104Y012296D01*
X027127Y012323D01*
X027154Y012346D01*
X027182Y012367D01*
X027213Y012384D01*
X027246Y012397D01*
X027280Y012407D01*
X027315Y012413D01*
X027350Y012415D01*
X027385Y012413D01*
X027420Y012407D01*
X027454Y012397D01*
X027487Y012384D01*
X027518Y012367D01*
X027546Y012346D01*
X027573Y012323D01*
X027596Y012296D01*
X027617Y012268D01*
X027634Y012237D01*
X027647Y012204D01*
X027657Y012170D01*
X027663Y012135D01*
X027665Y012100D01*
X027663Y012065D01*
X027657Y012030D01*
X027647Y011996D01*
X027634Y011963D01*
X027617Y011932D01*
X027596Y011904D01*
X027573Y011877D01*
X027546Y011854D01*
X027518Y011833D01*
X027487Y011816D01*
X027454Y011803D01*
X027420Y011793D01*
X027385Y011787D01*
X027350Y011785D01*
X027315Y011787D01*
X027280Y011793D01*
X027246Y011803D01*
X027213Y011816D01*
X027182Y011833D01*
X027154Y011854D01*
X027127Y011877D01*
X027104Y011904D01*
X027083Y011932D01*
X027066Y011963D01*
X027053Y011996D01*
X027043Y012030D01*
X027037Y012065D01*
X027035Y012100D01*
X035566Y016041D02*
X035568Y016076D01*
X035574Y016111D01*
X035584Y016145D01*
X035597Y016178D01*
X035614Y016209D01*
X035635Y016237D01*
X035658Y016264D01*
X035685Y016287D01*
X035713Y016308D01*
X035744Y016325D01*
X035777Y016338D01*
X035811Y016348D01*
X035846Y016354D01*
X035881Y016356D01*
X035916Y016354D01*
X035951Y016348D01*
X035985Y016338D01*
X036018Y016325D01*
X036049Y016308D01*
X036077Y016287D01*
X036104Y016264D01*
X036127Y016237D01*
X036148Y016209D01*
X036165Y016178D01*
X036178Y016145D01*
X036188Y016111D01*
X036194Y016076D01*
X036196Y016041D01*
X036194Y016006D01*
X036188Y015971D01*
X036178Y015937D01*
X036165Y015904D01*
X036148Y015873D01*
X036127Y015845D01*
X036104Y015818D01*
X036077Y015795D01*
X036049Y015774D01*
X036018Y015757D01*
X035985Y015744D01*
X035951Y015734D01*
X035916Y015728D01*
X035881Y015726D01*
X035846Y015728D01*
X035811Y015734D01*
X035777Y015744D01*
X035744Y015757D01*
X035713Y015774D01*
X035685Y015795D01*
X035658Y015818D01*
X035635Y015845D01*
X035614Y015873D01*
X035597Y015904D01*
X035584Y015937D01*
X035574Y015971D01*
X035568Y016006D01*
X035566Y016041D01*
X035566Y019159D02*
X035568Y019194D01*
X035574Y019229D01*
X035584Y019263D01*
X035597Y019296D01*
X035614Y019327D01*
X035635Y019355D01*
X035658Y019382D01*
X035685Y019405D01*
X035713Y019426D01*
X035744Y019443D01*
X035777Y019456D01*
X035811Y019466D01*
X035846Y019472D01*
X035881Y019474D01*
X035916Y019472D01*
X035951Y019466D01*
X035985Y019456D01*
X036018Y019443D01*
X036049Y019426D01*
X036077Y019405D01*
X036104Y019382D01*
X036127Y019355D01*
X036148Y019327D01*
X036165Y019296D01*
X036178Y019263D01*
X036188Y019229D01*
X036194Y019194D01*
X036196Y019159D01*
X036194Y019124D01*
X036188Y019089D01*
X036178Y019055D01*
X036165Y019022D01*
X036148Y018991D01*
X036127Y018963D01*
X036104Y018936D01*
X036077Y018913D01*
X036049Y018892D01*
X036018Y018875D01*
X035985Y018862D01*
X035951Y018852D01*
X035916Y018846D01*
X035881Y018844D01*
X035846Y018846D01*
X035811Y018852D01*
X035777Y018862D01*
X035744Y018875D01*
X035713Y018892D01*
X035685Y018913D01*
X035658Y018936D01*
X035635Y018963D01*
X035614Y018991D01*
X035597Y019022D01*
X035584Y019055D01*
X035574Y019089D01*
X035568Y019124D01*
X035566Y019159D01*
X040002Y020300D02*
X040004Y020355D01*
X040010Y020409D01*
X040020Y020463D01*
X040034Y020515D01*
X040051Y020567D01*
X040073Y020617D01*
X040098Y020666D01*
X040126Y020713D01*
X040158Y020757D01*
X040193Y020799D01*
X040231Y020838D01*
X040272Y020875D01*
X040315Y020908D01*
X040360Y020938D01*
X040408Y020965D01*
X040457Y020988D01*
X040508Y021008D01*
X040561Y021024D01*
X040614Y021036D01*
X040668Y021044D01*
X040723Y021048D01*
X040777Y021048D01*
X040832Y021044D01*
X040886Y021036D01*
X040939Y021024D01*
X040992Y021008D01*
X041043Y020988D01*
X041092Y020965D01*
X041140Y020938D01*
X041185Y020908D01*
X041228Y020875D01*
X041269Y020838D01*
X041307Y020799D01*
X041342Y020757D01*
X041374Y020713D01*
X041402Y020666D01*
X041427Y020617D01*
X041449Y020567D01*
X041466Y020515D01*
X041480Y020463D01*
X041490Y020409D01*
X041496Y020355D01*
X041498Y020300D01*
X041496Y020245D01*
X041490Y020191D01*
X041480Y020137D01*
X041466Y020085D01*
X041449Y020033D01*
X041427Y019983D01*
X041402Y019934D01*
X041374Y019887D01*
X041342Y019843D01*
X041307Y019801D01*
X041269Y019762D01*
X041228Y019725D01*
X041185Y019692D01*
X041140Y019662D01*
X041092Y019635D01*
X041043Y019612D01*
X040992Y019592D01*
X040939Y019576D01*
X040886Y019564D01*
X040832Y019556D01*
X040777Y019552D01*
X040723Y019552D01*
X040668Y019556D01*
X040614Y019564D01*
X040561Y019576D01*
X040508Y019592D01*
X040457Y019612D01*
X040408Y019635D01*
X040360Y019662D01*
X040315Y019692D01*
X040272Y019725D01*
X040231Y019762D01*
X040193Y019801D01*
X040158Y019843D01*
X040126Y019887D01*
X040098Y019934D01*
X040073Y019983D01*
X040051Y020033D01*
X040034Y020085D01*
X040020Y020137D01*
X040010Y020191D01*
X040004Y020245D01*
X040002Y020300D01*
X013871Y019200D02*
X013873Y019227D01*
X013879Y019254D01*
X013888Y019280D01*
X013901Y019304D01*
X013917Y019327D01*
X013936Y019346D01*
X013958Y019363D01*
X013982Y019377D01*
X014007Y019387D01*
X014034Y019394D01*
X014061Y019397D01*
X014089Y019396D01*
X014116Y019391D01*
X014142Y019383D01*
X014166Y019371D01*
X014189Y019355D01*
X014210Y019337D01*
X014227Y019316D01*
X014242Y019292D01*
X014253Y019267D01*
X014261Y019241D01*
X014265Y019214D01*
X014265Y019186D01*
X014261Y019159D01*
X014253Y019133D01*
X014242Y019108D01*
X014227Y019084D01*
X014210Y019063D01*
X014189Y019045D01*
X014167Y019029D01*
X014142Y019017D01*
X014116Y019009D01*
X014089Y019004D01*
X014061Y019003D01*
X014034Y019006D01*
X014007Y019013D01*
X013982Y019023D01*
X013958Y019037D01*
X013936Y019054D01*
X013917Y019073D01*
X013901Y019096D01*
X013888Y019120D01*
X013879Y019146D01*
X013873Y019173D01*
X013871Y019200D01*
X003635Y019200D02*
X003637Y019227D01*
X003643Y019254D01*
X003652Y019280D01*
X003665Y019304D01*
X003681Y019327D01*
X003700Y019346D01*
X003722Y019363D01*
X003746Y019377D01*
X003771Y019387D01*
X003798Y019394D01*
X003825Y019397D01*
X003853Y019396D01*
X003880Y019391D01*
X003906Y019383D01*
X003930Y019371D01*
X003953Y019355D01*
X003974Y019337D01*
X003991Y019316D01*
X004006Y019292D01*
X004017Y019267D01*
X004025Y019241D01*
X004029Y019214D01*
X004029Y019186D01*
X004025Y019159D01*
X004017Y019133D01*
X004006Y019108D01*
X003991Y019084D01*
X003974Y019063D01*
X003953Y019045D01*
X003931Y019029D01*
X003906Y019017D01*
X003880Y019009D01*
X003853Y019004D01*
X003825Y019003D01*
X003798Y019006D01*
X003771Y019013D01*
X003746Y019023D01*
X003722Y019037D01*
X003700Y019054D01*
X003681Y019073D01*
X003665Y019096D01*
X003652Y019120D01*
X003643Y019146D01*
X003637Y019173D01*
X003635Y019200D01*
X000702Y020300D02*
X000704Y020355D01*
X000710Y020409D01*
X000720Y020463D01*
X000734Y020515D01*
X000751Y020567D01*
X000773Y020617D01*
X000798Y020666D01*
X000826Y020713D01*
X000858Y020757D01*
X000893Y020799D01*
X000931Y020838D01*
X000972Y020875D01*
X001015Y020908D01*
X001060Y020938D01*
X001108Y020965D01*
X001157Y020988D01*
X001208Y021008D01*
X001261Y021024D01*
X001314Y021036D01*
X001368Y021044D01*
X001423Y021048D01*
X001477Y021048D01*
X001532Y021044D01*
X001586Y021036D01*
X001639Y021024D01*
X001692Y021008D01*
X001743Y020988D01*
X001792Y020965D01*
X001840Y020938D01*
X001885Y020908D01*
X001928Y020875D01*
X001969Y020838D01*
X002007Y020799D01*
X002042Y020757D01*
X002074Y020713D01*
X002102Y020666D01*
X002127Y020617D01*
X002149Y020567D01*
X002166Y020515D01*
X002180Y020463D01*
X002190Y020409D01*
X002196Y020355D01*
X002198Y020300D01*
X002196Y020245D01*
X002190Y020191D01*
X002180Y020137D01*
X002166Y020085D01*
X002149Y020033D01*
X002127Y019983D01*
X002102Y019934D01*
X002074Y019887D01*
X002042Y019843D01*
X002007Y019801D01*
X001969Y019762D01*
X001928Y019725D01*
X001885Y019692D01*
X001840Y019662D01*
X001792Y019635D01*
X001743Y019612D01*
X001692Y019592D01*
X001639Y019576D01*
X001586Y019564D01*
X001532Y019556D01*
X001477Y019552D01*
X001423Y019552D01*
X001368Y019556D01*
X001314Y019564D01*
X001261Y019576D01*
X001208Y019592D01*
X001157Y019612D01*
X001108Y019635D01*
X001060Y019662D01*
X001015Y019692D01*
X000972Y019725D01*
X000931Y019762D01*
X000893Y019801D01*
X000858Y019843D01*
X000826Y019887D01*
X000798Y019934D01*
X000773Y019983D01*
X000751Y020033D01*
X000734Y020085D01*
X000720Y020137D01*
X000710Y020191D01*
X000704Y020245D01*
X000702Y020300D01*
X040002Y003000D02*
X040004Y003055D01*
X040010Y003109D01*
X040020Y003163D01*
X040034Y003215D01*
X040051Y003267D01*
X040073Y003317D01*
X040098Y003366D01*
X040126Y003413D01*
X040158Y003457D01*
X040193Y003499D01*
X040231Y003538D01*
X040272Y003575D01*
X040315Y003608D01*
X040360Y003638D01*
X040408Y003665D01*
X040457Y003688D01*
X040508Y003708D01*
X040561Y003724D01*
X040614Y003736D01*
X040668Y003744D01*
X040723Y003748D01*
X040777Y003748D01*
X040832Y003744D01*
X040886Y003736D01*
X040939Y003724D01*
X040992Y003708D01*
X041043Y003688D01*
X041092Y003665D01*
X041140Y003638D01*
X041185Y003608D01*
X041228Y003575D01*
X041269Y003538D01*
X041307Y003499D01*
X041342Y003457D01*
X041374Y003413D01*
X041402Y003366D01*
X041427Y003317D01*
X041449Y003267D01*
X041466Y003215D01*
X041480Y003163D01*
X041490Y003109D01*
X041496Y003055D01*
X041498Y003000D01*
X041496Y002945D01*
X041490Y002891D01*
X041480Y002837D01*
X041466Y002785D01*
X041449Y002733D01*
X041427Y002683D01*
X041402Y002634D01*
X041374Y002587D01*
X041342Y002543D01*
X041307Y002501D01*
X041269Y002462D01*
X041228Y002425D01*
X041185Y002392D01*
X041140Y002362D01*
X041092Y002335D01*
X041043Y002312D01*
X040992Y002292D01*
X040939Y002276D01*
X040886Y002264D01*
X040832Y002256D01*
X040777Y002252D01*
X040723Y002252D01*
X040668Y002256D01*
X040614Y002264D01*
X040561Y002276D01*
X040508Y002292D01*
X040457Y002312D01*
X040408Y002335D01*
X040360Y002362D01*
X040315Y002392D01*
X040272Y002425D01*
X040231Y002462D01*
X040193Y002501D01*
X040158Y002543D01*
X040126Y002587D01*
X040098Y002634D01*
X040073Y002683D01*
X040051Y002733D01*
X040034Y002785D01*
X040020Y002837D01*
X040010Y002891D01*
X040004Y002945D01*
X040002Y003000D01*
D11*
X040750Y003000D03*
X040750Y020300D03*
X001450Y020300D03*
X001450Y003000D03*
D12*
X000150Y001700D02*
X042150Y001700D01*
X042150Y021600D01*
X000150Y021600D01*
X000150Y001700D01*
X001450Y018100D02*
X001363Y018108D01*
X001279Y018130D01*
X001200Y018167D01*
X001129Y018217D01*
X001067Y018279D01*
X001017Y018350D01*
X000980Y018429D01*
X000958Y018513D01*
X000950Y018600D01*
X000958Y018687D01*
X000980Y018771D01*
X001017Y018850D01*
X001067Y018921D01*
X001129Y018983D01*
X001200Y019033D01*
X001279Y019070D01*
X001363Y019092D01*
X001450Y019100D01*
X001537Y019092D01*
X001621Y019070D01*
X001700Y019033D01*
X001771Y018983D01*
X001833Y018921D01*
X001883Y018850D01*
X001920Y018771D01*
X001942Y018687D01*
X001950Y018600D01*
X001942Y018513D01*
X001920Y018429D01*
X001883Y018350D01*
X001833Y018279D01*
X001771Y018217D01*
X001700Y018167D01*
X001621Y018130D01*
X001537Y018108D01*
X001450Y018100D01*
X001254Y018142D02*
X001646Y018142D01*
X001733Y018190D02*
X001167Y018190D01*
X001107Y018239D02*
X001793Y018239D01*
X001839Y018287D02*
X001061Y018287D01*
X001027Y018336D02*
X001873Y018336D01*
X001899Y018384D02*
X001001Y018384D01*
X000979Y018433D02*
X001921Y018433D01*
X001934Y018481D02*
X000966Y018481D01*
X000956Y018530D02*
X001944Y018530D01*
X001948Y018578D02*
X000952Y018578D01*
X000952Y018627D02*
X001948Y018627D01*
X001943Y018675D02*
X000957Y018675D01*
X000967Y018724D02*
X001933Y018724D01*
X001919Y018772D02*
X000981Y018772D01*
X001003Y018821D02*
X001897Y018821D01*
X001870Y018869D02*
X001030Y018869D01*
X001064Y018918D02*
X001836Y018918D01*
X001788Y018966D02*
X001112Y018966D01*
X001174Y019015D02*
X001726Y019015D01*
X001636Y019063D02*
X001264Y019063D01*
X040280Y004871D02*
X040317Y004950D01*
X040367Y005021D01*
X040429Y005083D01*
X040500Y005133D01*
X040579Y005170D01*
X040663Y005192D01*
X040750Y005200D01*
X040837Y005192D01*
X040921Y005170D01*
X041000Y005133D01*
X041071Y005083D01*
X041133Y005021D01*
X041183Y004950D01*
X041220Y004871D01*
X041242Y004787D01*
X041250Y004700D01*
X041242Y004613D01*
X041220Y004529D01*
X041183Y004450D01*
X041133Y004379D01*
X041071Y004317D01*
X041000Y004267D01*
X040921Y004230D01*
X040837Y004208D01*
X040750Y004200D01*
X040663Y004208D01*
X040579Y004230D01*
X040500Y004267D01*
X040429Y004317D01*
X040367Y004379D01*
X040317Y004450D01*
X040280Y004529D01*
X040258Y004613D01*
X040250Y004700D01*
X040258Y004787D01*
X040280Y004871D01*
X040275Y004853D02*
X041225Y004853D01*
X041238Y004804D02*
X040262Y004804D01*
X040255Y004756D02*
X041245Y004756D01*
X041249Y004707D02*
X040251Y004707D01*
X040254Y004659D02*
X041246Y004659D01*
X041242Y004610D02*
X040258Y004610D01*
X040271Y004562D02*
X041229Y004562D01*
X041212Y004513D02*
X040288Y004513D01*
X040310Y004465D02*
X041190Y004465D01*
X041159Y004416D02*
X040341Y004416D01*
X040378Y004368D02*
X041122Y004368D01*
X041073Y004319D02*
X040427Y004319D01*
X040495Y004271D02*
X041005Y004271D01*
X040891Y004222D02*
X040609Y004222D01*
X040294Y004901D02*
X041206Y004901D01*
X041183Y004950D02*
X040317Y004950D01*
X040351Y004998D02*
X041149Y004998D01*
X041108Y005047D02*
X040392Y005047D01*
X040446Y005095D02*
X041054Y005095D01*
X040977Y005144D02*
X040523Y005144D01*
X040662Y005192D02*
X040838Y005192D01*
D13*
X022281Y005255D03*
X022281Y005452D03*
X022281Y005649D03*
X022281Y005846D03*
X022281Y006043D03*
X022281Y006239D03*
X022281Y006436D03*
X022281Y006633D03*
X022281Y006830D03*
X022281Y007027D03*
X022281Y007224D03*
X022281Y007420D03*
X022281Y007617D03*
X022281Y007814D03*
X022281Y008011D03*
X022281Y008208D03*
X022281Y008405D03*
X022281Y008602D03*
X022281Y008798D03*
X022281Y008995D03*
X022281Y009192D03*
X022281Y009389D03*
X022281Y009586D03*
X022281Y009783D03*
X022281Y009980D03*
X022281Y010176D03*
X022281Y010373D03*
X022281Y010570D03*
X022281Y010767D03*
X022281Y010964D03*
X022281Y011161D03*
X022281Y011357D03*
X022281Y011554D03*
X022281Y011751D03*
X022281Y011948D03*
X022281Y012145D03*
X013619Y012145D03*
X013619Y011948D03*
X013619Y011751D03*
X013619Y011554D03*
X013619Y011357D03*
X013619Y011161D03*
X013619Y010964D03*
X013619Y010767D03*
X013619Y010570D03*
X013619Y010373D03*
X013619Y010176D03*
X013619Y009980D03*
X013619Y009783D03*
X013619Y009586D03*
X013619Y009389D03*
X013619Y009192D03*
X013619Y008995D03*
X013619Y008798D03*
X013619Y008602D03*
X013619Y008405D03*
X013619Y008208D03*
X013619Y008011D03*
X013619Y007814D03*
X013619Y007617D03*
X013619Y007420D03*
X013619Y007224D03*
X013619Y007027D03*
X013619Y006830D03*
X013619Y006633D03*
X013619Y006436D03*
X013619Y006239D03*
X013619Y006043D03*
X013619Y005846D03*
X013619Y005649D03*
X013619Y005452D03*
X013619Y005255D03*
D14*
X014505Y004369D03*
X014702Y004369D03*
X014899Y004369D03*
X015096Y004369D03*
X015293Y004369D03*
X015489Y004369D03*
X015686Y004369D03*
X015883Y004369D03*
X016080Y004369D03*
X016277Y004369D03*
X016474Y004369D03*
X016670Y004369D03*
X016867Y004369D03*
X017064Y004369D03*
X017261Y004369D03*
X017458Y004369D03*
X017655Y004369D03*
X017852Y004369D03*
X018048Y004369D03*
X018245Y004369D03*
X018442Y004369D03*
X018639Y004369D03*
X018836Y004369D03*
X019033Y004369D03*
X019230Y004369D03*
X019426Y004369D03*
X019623Y004369D03*
X019820Y004369D03*
X020017Y004369D03*
X020214Y004369D03*
X020411Y004369D03*
X020607Y004369D03*
X020804Y004369D03*
X021001Y004369D03*
X021198Y004369D03*
X021395Y004369D03*
X021395Y013031D03*
X021198Y013031D03*
X021001Y013031D03*
X020804Y013031D03*
X020607Y013031D03*
X020411Y013031D03*
X020214Y013031D03*
X020017Y013031D03*
X019820Y013031D03*
X019623Y013031D03*
X019426Y013031D03*
X019230Y013031D03*
X019033Y013031D03*
X018836Y013031D03*
X018639Y013031D03*
X018442Y013031D03*
X018245Y013031D03*
X018048Y013031D03*
X017852Y013031D03*
X017655Y013031D03*
X017458Y013031D03*
X017261Y013031D03*
X017064Y013031D03*
X016867Y013031D03*
X016670Y013031D03*
X016474Y013031D03*
X016277Y013031D03*
X016080Y013031D03*
X015883Y013031D03*
X015686Y013031D03*
X015489Y013031D03*
X015293Y013031D03*
X015096Y013031D03*
X014899Y013031D03*
X014702Y013031D03*
X014505Y013031D03*
D15*
X017950Y008700D03*
D16*
X026476Y008600D03*
X028224Y008600D03*
X028224Y009600D03*
X026476Y009600D03*
X026476Y011600D03*
X026476Y012600D03*
X028224Y012600D03*
X028224Y011600D03*
D17*
X028224Y010600D03*
X026476Y010600D03*
D18*
X027350Y009100D03*
X027350Y012100D03*
X035881Y016041D03*
X035881Y019159D03*
D19*
X028988Y012889D02*
X027460Y012889D01*
X027460Y012619D01*
X027769Y012311D01*
X028988Y012311D01*
X028988Y012889D01*
X028988Y012887D02*
X027460Y012887D01*
X027460Y012885D02*
X028988Y012885D01*
X028988Y012882D02*
X027460Y012882D01*
X027460Y012880D02*
X028988Y012880D01*
X028988Y012877D02*
X027460Y012877D01*
X027460Y012875D02*
X028988Y012875D01*
X028988Y012872D02*
X027460Y012872D01*
X027460Y012870D02*
X028988Y012870D01*
X028988Y012867D02*
X027460Y012867D01*
X027460Y012865D02*
X028988Y012865D01*
X028988Y012863D02*
X027460Y012863D01*
X027460Y012860D02*
X028988Y012860D01*
X028988Y012858D02*
X027460Y012858D01*
X027460Y012855D02*
X028988Y012855D01*
X028988Y012853D02*
X027460Y012853D01*
X027460Y012850D02*
X028988Y012850D01*
X028988Y012848D02*
X027460Y012848D01*
X027460Y012846D02*
X028988Y012846D01*
X028988Y012843D02*
X027460Y012843D01*
X027460Y012841D02*
X028988Y012841D01*
X028988Y012838D02*
X027460Y012838D01*
X027460Y012836D02*
X028988Y012836D01*
X028988Y012833D02*
X027460Y012833D01*
X027460Y012831D02*
X028988Y012831D01*
X028988Y012829D02*
X027460Y012829D01*
X027460Y012826D02*
X028988Y012826D01*
X028988Y012824D02*
X027460Y012824D01*
X027460Y012821D02*
X028988Y012821D01*
X028988Y012819D02*
X027460Y012819D01*
X027460Y012816D02*
X028988Y012816D01*
X028988Y012814D02*
X027460Y012814D01*
X027460Y012811D02*
X028988Y012811D01*
X028988Y012809D02*
X027460Y012809D01*
X027460Y012807D02*
X028988Y012807D01*
X028988Y012804D02*
X027460Y012804D01*
X027460Y012802D02*
X028988Y012802D01*
X028988Y012799D02*
X027460Y012799D01*
X027460Y012797D02*
X028988Y012797D01*
X028988Y012794D02*
X027460Y012794D01*
X027460Y012792D02*
X028988Y012792D01*
X028988Y012790D02*
X027460Y012790D01*
X027460Y012787D02*
X028988Y012787D01*
X028988Y012785D02*
X027460Y012785D01*
X027460Y012782D02*
X028988Y012782D01*
X028988Y012780D02*
X027460Y012780D01*
X027460Y012777D02*
X028988Y012777D01*
X028988Y012775D02*
X027460Y012775D01*
X027460Y012772D02*
X028988Y012772D01*
X028988Y012770D02*
X027460Y012770D01*
X027460Y012768D02*
X028988Y012768D01*
X028988Y012765D02*
X027460Y012765D01*
X027460Y012763D02*
X028988Y012763D01*
X028988Y012760D02*
X027460Y012760D01*
X027460Y012758D02*
X028988Y012758D01*
X028988Y012755D02*
X027460Y012755D01*
X027460Y012753D02*
X028988Y012753D01*
X028988Y012751D02*
X027460Y012751D01*
X027460Y012748D02*
X028988Y012748D01*
X028988Y012746D02*
X027460Y012746D01*
X027460Y012743D02*
X028988Y012743D01*
X028988Y012741D02*
X027460Y012741D01*
X027460Y012738D02*
X028988Y012738D01*
X028988Y012736D02*
X027460Y012736D01*
X027460Y012733D02*
X028988Y012733D01*
X028988Y012731D02*
X027460Y012731D01*
X027460Y012729D02*
X028988Y012729D01*
X028988Y012726D02*
X027460Y012726D01*
X027460Y012724D02*
X028988Y012724D01*
X028988Y012721D02*
X027460Y012721D01*
X027460Y012719D02*
X028988Y012719D01*
X028988Y012716D02*
X027460Y012716D01*
X027460Y012714D02*
X028988Y012714D01*
X028988Y012712D02*
X027460Y012712D01*
X027460Y012709D02*
X028988Y012709D01*
X028988Y012707D02*
X027460Y012707D01*
X027460Y012704D02*
X028988Y012704D01*
X028988Y012702D02*
X027460Y012702D01*
X027460Y012699D02*
X028988Y012699D01*
X028988Y012697D02*
X027460Y012697D01*
X027460Y012694D02*
X028988Y012694D01*
X028988Y012692D02*
X027460Y012692D01*
X027460Y012690D02*
X028988Y012690D01*
X028988Y012687D02*
X027460Y012687D01*
X027460Y012685D02*
X028988Y012685D01*
X028988Y012682D02*
X027460Y012682D01*
X027460Y012680D02*
X028988Y012680D01*
X028988Y012677D02*
X027460Y012677D01*
X027460Y012675D02*
X028988Y012675D01*
X028988Y012673D02*
X027460Y012673D01*
X027460Y012670D02*
X028988Y012670D01*
X028988Y012668D02*
X027460Y012668D01*
X027460Y012665D02*
X028988Y012665D01*
X028988Y012663D02*
X027460Y012663D01*
X027460Y012660D02*
X028988Y012660D01*
X028988Y012658D02*
X027460Y012658D01*
X027460Y012655D02*
X028988Y012655D01*
X028988Y012653D02*
X027460Y012653D01*
X027460Y012651D02*
X028988Y012651D01*
X028988Y012648D02*
X027460Y012648D01*
X027460Y012646D02*
X028988Y012646D01*
X028988Y012643D02*
X027460Y012643D01*
X027460Y012641D02*
X028988Y012641D01*
X028988Y012638D02*
X027460Y012638D01*
X027460Y012636D02*
X028988Y012636D01*
X028988Y012634D02*
X027460Y012634D01*
X027460Y012631D02*
X028988Y012631D01*
X028988Y012629D02*
X027460Y012629D01*
X027460Y012626D02*
X028988Y012626D01*
X028988Y012624D02*
X027460Y012624D01*
X027460Y012621D02*
X028988Y012621D01*
X028988Y012619D02*
X027461Y012619D01*
X027463Y012616D02*
X028988Y012616D01*
X028988Y012614D02*
X027466Y012614D01*
X027468Y012612D02*
X028988Y012612D01*
X028988Y012609D02*
X027470Y012609D01*
X027473Y012607D02*
X028988Y012607D01*
X028988Y012604D02*
X027475Y012604D01*
X027478Y012602D02*
X028988Y012602D01*
X028988Y012599D02*
X027480Y012599D01*
X027483Y012597D02*
X028988Y012597D01*
X028988Y012595D02*
X027485Y012595D01*
X027488Y012592D02*
X028988Y012592D01*
X028988Y012590D02*
X027490Y012590D01*
X027492Y012587D02*
X028988Y012587D01*
X028988Y012585D02*
X027495Y012585D01*
X027497Y012582D02*
X028988Y012582D01*
X028988Y012580D02*
X027500Y012580D01*
X027502Y012577D02*
X028988Y012577D01*
X028988Y012575D02*
X027505Y012575D01*
X027507Y012573D02*
X028988Y012573D01*
X028988Y012570D02*
X027509Y012570D01*
X027512Y012568D02*
X028988Y012568D01*
X028988Y012565D02*
X027514Y012565D01*
X027517Y012563D02*
X028988Y012563D01*
X028988Y012560D02*
X027519Y012560D01*
X027522Y012558D02*
X028988Y012558D01*
X028988Y012556D02*
X027524Y012556D01*
X027527Y012553D02*
X028988Y012553D01*
X028988Y012551D02*
X027529Y012551D01*
X027531Y012548D02*
X028988Y012548D01*
X028988Y012546D02*
X027534Y012546D01*
X027536Y012543D02*
X028988Y012543D01*
X028988Y012541D02*
X027539Y012541D01*
X027541Y012538D02*
X028988Y012538D01*
X028988Y012536D02*
X027544Y012536D01*
X027546Y012534D02*
X028988Y012534D01*
X028988Y012531D02*
X027548Y012531D01*
X027551Y012529D02*
X028988Y012529D01*
X028988Y012526D02*
X027553Y012526D01*
X027556Y012524D02*
X028988Y012524D01*
X028988Y012521D02*
X027558Y012521D01*
X027561Y012519D02*
X028988Y012519D01*
X028988Y012517D02*
X027563Y012517D01*
X027566Y012514D02*
X028988Y012514D01*
X028988Y012512D02*
X027568Y012512D01*
X027570Y012509D02*
X028988Y012509D01*
X028988Y012507D02*
X027573Y012507D01*
X027575Y012504D02*
X028988Y012504D01*
X028988Y012502D02*
X027578Y012502D01*
X027580Y012499D02*
X028988Y012499D01*
X028988Y012497D02*
X027583Y012497D01*
X027585Y012495D02*
X028988Y012495D01*
X028988Y012492D02*
X027587Y012492D01*
X027590Y012490D02*
X028988Y012490D01*
X028988Y012487D02*
X027592Y012487D01*
X027595Y012485D02*
X028988Y012485D01*
X028988Y012482D02*
X027597Y012482D01*
X027600Y012480D02*
X028988Y012480D01*
X028988Y012478D02*
X027602Y012478D01*
X027605Y012475D02*
X028988Y012475D01*
X028988Y012473D02*
X027607Y012473D01*
X027609Y012470D02*
X028988Y012470D01*
X028988Y012468D02*
X027612Y012468D01*
X027614Y012465D02*
X028988Y012465D01*
X028988Y012463D02*
X027617Y012463D01*
X027619Y012460D02*
X028988Y012460D01*
X028988Y012458D02*
X027622Y012458D01*
X027624Y012456D02*
X028988Y012456D01*
X028988Y012453D02*
X027626Y012453D01*
X027629Y012451D02*
X028988Y012451D01*
X028988Y012448D02*
X027631Y012448D01*
X027634Y012446D02*
X028988Y012446D01*
X028988Y012443D02*
X027636Y012443D01*
X027639Y012441D02*
X028988Y012441D01*
X028988Y012439D02*
X027641Y012439D01*
X027644Y012436D02*
X028988Y012436D01*
X028988Y012434D02*
X027646Y012434D01*
X027648Y012431D02*
X028988Y012431D01*
X028988Y012429D02*
X027651Y012429D01*
X027653Y012426D02*
X028988Y012426D01*
X028988Y012424D02*
X027656Y012424D01*
X027658Y012421D02*
X028988Y012421D01*
X028988Y012419D02*
X027661Y012419D01*
X027663Y012417D02*
X028988Y012417D01*
X028988Y012414D02*
X027665Y012414D01*
X027668Y012412D02*
X028988Y012412D01*
X028988Y012409D02*
X027670Y012409D01*
X027673Y012407D02*
X028988Y012407D01*
X028988Y012404D02*
X027675Y012404D01*
X027678Y012402D02*
X028988Y012402D01*
X028988Y012400D02*
X027680Y012400D01*
X027683Y012397D02*
X028988Y012397D01*
X028988Y012395D02*
X027685Y012395D01*
X027687Y012392D02*
X028988Y012392D01*
X028988Y012390D02*
X027690Y012390D01*
X027692Y012387D02*
X028988Y012387D01*
X028988Y012385D02*
X027695Y012385D01*
X027697Y012382D02*
X028988Y012382D01*
X028988Y012380D02*
X027700Y012380D01*
X027702Y012378D02*
X028988Y012378D01*
X028988Y012375D02*
X027704Y012375D01*
X027707Y012373D02*
X028988Y012373D01*
X028988Y012370D02*
X027709Y012370D01*
X027712Y012368D02*
X028988Y012368D01*
X028988Y012365D02*
X027714Y012365D01*
X027717Y012363D02*
X028988Y012363D01*
X028988Y012361D02*
X027719Y012361D01*
X027722Y012358D02*
X028988Y012358D01*
X028988Y012356D02*
X027724Y012356D01*
X027726Y012353D02*
X028988Y012353D01*
X028988Y012351D02*
X027729Y012351D01*
X027731Y012348D02*
X028988Y012348D01*
X028988Y012346D02*
X027734Y012346D01*
X027736Y012343D02*
X028988Y012343D01*
X028988Y012341D02*
X027739Y012341D01*
X027741Y012339D02*
X028988Y012339D01*
X028988Y012336D02*
X027743Y012336D01*
X027746Y012334D02*
X028988Y012334D01*
X028988Y012331D02*
X027748Y012331D01*
X027751Y012329D02*
X028988Y012329D01*
X028988Y012326D02*
X027753Y012326D01*
X027756Y012324D02*
X028988Y012324D01*
X028988Y012322D02*
X027758Y012322D01*
X027761Y012319D02*
X028988Y012319D01*
X028988Y012317D02*
X027763Y012317D01*
X027765Y012314D02*
X028988Y012314D01*
X028988Y012312D02*
X027768Y012312D01*
X027234Y012614D02*
X025712Y012614D01*
X025712Y012612D02*
X027232Y012612D01*
X027230Y012609D02*
X025712Y012609D01*
X025712Y012607D02*
X027227Y012607D01*
X027225Y012604D02*
X025712Y012604D01*
X025712Y012602D02*
X027222Y012602D01*
X027220Y012599D02*
X025712Y012599D01*
X025712Y012597D02*
X027217Y012597D01*
X027215Y012595D02*
X025712Y012595D01*
X025712Y012592D02*
X027212Y012592D01*
X027210Y012590D02*
X025712Y012590D01*
X025712Y012587D02*
X027208Y012587D01*
X027205Y012585D02*
X025712Y012585D01*
X025712Y012582D02*
X027203Y012582D01*
X027200Y012580D02*
X025712Y012580D01*
X025712Y012577D02*
X027198Y012577D01*
X027195Y012575D02*
X025712Y012575D01*
X025712Y012573D02*
X027193Y012573D01*
X027191Y012570D02*
X025712Y012570D01*
X025712Y012568D02*
X027188Y012568D01*
X027186Y012565D02*
X025712Y012565D01*
X025712Y012563D02*
X027183Y012563D01*
X027181Y012560D02*
X025712Y012560D01*
X025712Y012558D02*
X027178Y012558D01*
X027176Y012556D02*
X025712Y012556D01*
X025712Y012553D02*
X027173Y012553D01*
X027171Y012551D02*
X025712Y012551D01*
X025712Y012548D02*
X027169Y012548D01*
X027166Y012546D02*
X025712Y012546D01*
X025712Y012543D02*
X027164Y012543D01*
X027161Y012541D02*
X025712Y012541D01*
X025712Y012538D02*
X027159Y012538D01*
X027156Y012536D02*
X025712Y012536D01*
X025712Y012534D02*
X027154Y012534D01*
X027152Y012531D02*
X025712Y012531D01*
X025712Y012529D02*
X027149Y012529D01*
X027147Y012526D02*
X025712Y012526D01*
X025712Y012524D02*
X027144Y012524D01*
X027142Y012521D02*
X025712Y012521D01*
X025712Y012519D02*
X027139Y012519D01*
X027137Y012517D02*
X025712Y012517D01*
X025712Y012514D02*
X027134Y012514D01*
X027132Y012512D02*
X025712Y012512D01*
X025712Y012509D02*
X027130Y012509D01*
X027127Y012507D02*
X025712Y012507D01*
X025712Y012504D02*
X027125Y012504D01*
X027122Y012502D02*
X025712Y012502D01*
X025712Y012499D02*
X027120Y012499D01*
X027117Y012497D02*
X025712Y012497D01*
X025712Y012495D02*
X027115Y012495D01*
X027113Y012492D02*
X025712Y012492D01*
X025712Y012490D02*
X027110Y012490D01*
X027108Y012487D02*
X025712Y012487D01*
X025712Y012485D02*
X027105Y012485D01*
X027103Y012482D02*
X025712Y012482D01*
X025712Y012480D02*
X027100Y012480D01*
X027098Y012478D02*
X025712Y012478D01*
X025712Y012475D02*
X027095Y012475D01*
X027093Y012473D02*
X025712Y012473D01*
X025712Y012470D02*
X027091Y012470D01*
X027088Y012468D02*
X025712Y012468D01*
X025712Y012465D02*
X027086Y012465D01*
X027083Y012463D02*
X025712Y012463D01*
X025712Y012460D02*
X027081Y012460D01*
X027078Y012458D02*
X025712Y012458D01*
X025712Y012456D02*
X027076Y012456D01*
X027074Y012453D02*
X025712Y012453D01*
X025712Y012451D02*
X027071Y012451D01*
X027069Y012448D02*
X025712Y012448D01*
X025712Y012446D02*
X027066Y012446D01*
X027064Y012443D02*
X025712Y012443D01*
X025712Y012441D02*
X027061Y012441D01*
X027059Y012439D02*
X025712Y012439D01*
X025712Y012436D02*
X027056Y012436D01*
X027054Y012434D02*
X025712Y012434D01*
X025712Y012431D02*
X027052Y012431D01*
X027049Y012429D02*
X025712Y012429D01*
X025712Y012426D02*
X027047Y012426D01*
X027044Y012424D02*
X025712Y012424D01*
X025712Y012421D02*
X027042Y012421D01*
X027039Y012419D02*
X025712Y012419D01*
X025712Y012417D02*
X027037Y012417D01*
X027035Y012414D02*
X025712Y012414D01*
X025712Y012412D02*
X027032Y012412D01*
X027030Y012409D02*
X025712Y012409D01*
X025712Y012407D02*
X027027Y012407D01*
X027025Y012404D02*
X025712Y012404D01*
X025712Y012402D02*
X027022Y012402D01*
X027020Y012400D02*
X025712Y012400D01*
X025712Y012397D02*
X027017Y012397D01*
X027015Y012395D02*
X025712Y012395D01*
X025712Y012392D02*
X027013Y012392D01*
X027010Y012390D02*
X025712Y012390D01*
X025712Y012387D02*
X027008Y012387D01*
X027005Y012385D02*
X025712Y012385D01*
X025712Y012382D02*
X027003Y012382D01*
X027000Y012380D02*
X025712Y012380D01*
X025712Y012378D02*
X026998Y012378D01*
X026996Y012375D02*
X025712Y012375D01*
X025712Y012373D02*
X026993Y012373D01*
X026991Y012370D02*
X025712Y012370D01*
X025712Y012368D02*
X026988Y012368D01*
X026986Y012365D02*
X025712Y012365D01*
X025712Y012363D02*
X026983Y012363D01*
X026981Y012361D02*
X025712Y012361D01*
X025712Y012358D02*
X026978Y012358D01*
X026976Y012356D02*
X025712Y012356D01*
X025712Y012353D02*
X026974Y012353D01*
X026971Y012351D02*
X025712Y012351D01*
X025712Y012348D02*
X026969Y012348D01*
X026966Y012346D02*
X025712Y012346D01*
X025712Y012343D02*
X026964Y012343D01*
X026961Y012341D02*
X025712Y012341D01*
X025712Y012339D02*
X026959Y012339D01*
X026957Y012336D02*
X025712Y012336D01*
X025712Y012334D02*
X026954Y012334D01*
X026952Y012331D02*
X025712Y012331D01*
X025712Y012329D02*
X026949Y012329D01*
X026947Y012326D02*
X025712Y012326D01*
X025712Y012324D02*
X026944Y012324D01*
X026942Y012322D02*
X025712Y012322D01*
X025712Y012319D02*
X026939Y012319D01*
X026937Y012317D02*
X025712Y012317D01*
X025712Y012314D02*
X026935Y012314D01*
X026932Y012312D02*
X025712Y012312D01*
X025712Y012311D02*
X026931Y012311D01*
X027240Y012619D01*
X027240Y012889D01*
X025712Y012889D01*
X025712Y012311D01*
X025712Y012616D02*
X027237Y012616D01*
X027239Y012619D02*
X025712Y012619D01*
X025712Y012621D02*
X027240Y012621D01*
X027240Y012624D02*
X025712Y012624D01*
X025712Y012626D02*
X027240Y012626D01*
X027240Y012629D02*
X025712Y012629D01*
X025712Y012631D02*
X027240Y012631D01*
X027240Y012634D02*
X025712Y012634D01*
X025712Y012636D02*
X027240Y012636D01*
X027240Y012638D02*
X025712Y012638D01*
X025712Y012641D02*
X027240Y012641D01*
X027240Y012643D02*
X025712Y012643D01*
X025712Y012646D02*
X027240Y012646D01*
X027240Y012648D02*
X025712Y012648D01*
X025712Y012651D02*
X027240Y012651D01*
X027240Y012653D02*
X025712Y012653D01*
X025712Y012655D02*
X027240Y012655D01*
X027240Y012658D02*
X025712Y012658D01*
X025712Y012660D02*
X027240Y012660D01*
X027240Y012663D02*
X025712Y012663D01*
X025712Y012665D02*
X027240Y012665D01*
X027240Y012668D02*
X025712Y012668D01*
X025712Y012670D02*
X027240Y012670D01*
X027240Y012673D02*
X025712Y012673D01*
X025712Y012675D02*
X027240Y012675D01*
X027240Y012677D02*
X025712Y012677D01*
X025712Y012680D02*
X027240Y012680D01*
X027240Y012682D02*
X025712Y012682D01*
X025712Y012685D02*
X027240Y012685D01*
X027240Y012687D02*
X025712Y012687D01*
X025712Y012690D02*
X027240Y012690D01*
X027240Y012692D02*
X025712Y012692D01*
X025712Y012694D02*
X027240Y012694D01*
X027240Y012697D02*
X025712Y012697D01*
X025712Y012699D02*
X027240Y012699D01*
X027240Y012702D02*
X025712Y012702D01*
X025712Y012704D02*
X027240Y012704D01*
X027240Y012707D02*
X025712Y012707D01*
X025712Y012709D02*
X027240Y012709D01*
X027240Y012712D02*
X025712Y012712D01*
X025712Y012714D02*
X027240Y012714D01*
X027240Y012716D02*
X025712Y012716D01*
X025712Y012719D02*
X027240Y012719D01*
X027240Y012721D02*
X025712Y012721D01*
X025712Y012724D02*
X027240Y012724D01*
X027240Y012726D02*
X025712Y012726D01*
X025712Y012729D02*
X027240Y012729D01*
X027240Y012731D02*
X025712Y012731D01*
X025712Y012733D02*
X027240Y012733D01*
X027240Y012736D02*
X025712Y012736D01*
X025712Y012738D02*
X027240Y012738D01*
X027240Y012741D02*
X025712Y012741D01*
X025712Y012743D02*
X027240Y012743D01*
X027240Y012746D02*
X025712Y012746D01*
X025712Y012748D02*
X027240Y012748D01*
X027240Y012751D02*
X025712Y012751D01*
X025712Y012753D02*
X027240Y012753D01*
X027240Y012755D02*
X025712Y012755D01*
X025712Y012758D02*
X027240Y012758D01*
X027240Y012760D02*
X025712Y012760D01*
X025712Y012763D02*
X027240Y012763D01*
X027240Y012765D02*
X025712Y012765D01*
X025712Y012768D02*
X027240Y012768D01*
X027240Y012770D02*
X025712Y012770D01*
X025712Y012772D02*
X027240Y012772D01*
X027240Y012775D02*
X025712Y012775D01*
X025712Y012777D02*
X027240Y012777D01*
X027240Y012780D02*
X025712Y012780D01*
X025712Y012782D02*
X027240Y012782D01*
X027240Y012785D02*
X025712Y012785D01*
X025712Y012787D02*
X027240Y012787D01*
X027240Y012790D02*
X025712Y012790D01*
X025712Y012792D02*
X027240Y012792D01*
X027240Y012794D02*
X025712Y012794D01*
X025712Y012797D02*
X027240Y012797D01*
X027240Y012799D02*
X025712Y012799D01*
X025712Y012802D02*
X027240Y012802D01*
X027240Y012804D02*
X025712Y012804D01*
X025712Y012807D02*
X027240Y012807D01*
X027240Y012809D02*
X025712Y012809D01*
X025712Y012811D02*
X027240Y012811D01*
X027240Y012814D02*
X025712Y012814D01*
X025712Y012816D02*
X027240Y012816D01*
X027240Y012819D02*
X025712Y012819D01*
X025712Y012821D02*
X027240Y012821D01*
X027240Y012824D02*
X025712Y012824D01*
X025712Y012826D02*
X027240Y012826D01*
X027240Y012829D02*
X025712Y012829D01*
X025712Y012831D02*
X027240Y012831D01*
X027240Y012833D02*
X025712Y012833D01*
X025712Y012836D02*
X027240Y012836D01*
X027240Y012838D02*
X025712Y012838D01*
X025712Y012841D02*
X027240Y012841D01*
X027240Y012843D02*
X025712Y012843D01*
X025712Y012846D02*
X027240Y012846D01*
X027240Y012848D02*
X025712Y012848D01*
X025712Y012850D02*
X027240Y012850D01*
X027240Y012853D02*
X025712Y012853D01*
X025712Y012855D02*
X027240Y012855D01*
X027240Y012858D02*
X025712Y012858D01*
X025712Y012860D02*
X027240Y012860D01*
X027240Y012863D02*
X025712Y012863D01*
X025712Y012865D02*
X027240Y012865D01*
X027240Y012867D02*
X025712Y012867D01*
X025712Y012870D02*
X027240Y012870D01*
X027240Y012872D02*
X025712Y012872D01*
X025712Y012875D02*
X027240Y012875D01*
X027240Y012877D02*
X025712Y012877D01*
X025712Y012880D02*
X027240Y012880D01*
X027240Y012882D02*
X025712Y012882D01*
X025712Y012885D02*
X027240Y012885D01*
X027240Y012887D02*
X025712Y012887D01*
X025712Y011889D02*
X026931Y011889D01*
X027240Y011581D01*
X025712Y011581D01*
X025712Y011583D02*
X027237Y011583D01*
X027235Y011586D02*
X025712Y011586D01*
X025712Y011588D02*
X027232Y011588D01*
X027230Y011590D02*
X025712Y011590D01*
X025712Y011593D02*
X027228Y011593D01*
X027225Y011595D02*
X025712Y011595D01*
X025712Y011598D02*
X027223Y011598D01*
X027220Y011600D02*
X025712Y011600D01*
X025712Y011603D02*
X027218Y011603D01*
X027215Y011605D02*
X025712Y011605D01*
X025712Y011607D02*
X027213Y011607D01*
X027210Y011610D02*
X025712Y011610D01*
X025712Y011612D02*
X027208Y011612D01*
X027206Y011615D02*
X025712Y011615D01*
X025712Y011617D02*
X027203Y011617D01*
X027201Y011620D02*
X025712Y011620D01*
X025712Y011622D02*
X027198Y011622D01*
X027196Y011624D02*
X025712Y011624D01*
X025712Y011627D02*
X027193Y011627D01*
X027191Y011629D02*
X025712Y011629D01*
X025712Y011632D02*
X027189Y011632D01*
X027186Y011634D02*
X025712Y011634D01*
X025712Y011637D02*
X027184Y011637D01*
X027181Y011639D02*
X025712Y011639D01*
X025712Y011642D02*
X027179Y011642D01*
X027176Y011644D02*
X025712Y011644D01*
X025712Y011646D02*
X027174Y011646D01*
X027171Y011649D02*
X025712Y011649D01*
X025712Y011651D02*
X027169Y011651D01*
X027167Y011654D02*
X025712Y011654D01*
X025712Y011656D02*
X027164Y011656D01*
X027162Y011659D02*
X025712Y011659D01*
X025712Y011661D02*
X027159Y011661D01*
X027157Y011663D02*
X025712Y011663D01*
X025712Y011666D02*
X027154Y011666D01*
X027152Y011668D02*
X025712Y011668D01*
X025712Y011671D02*
X027150Y011671D01*
X027147Y011673D02*
X025712Y011673D01*
X025712Y011676D02*
X027145Y011676D01*
X027142Y011678D02*
X025712Y011678D01*
X025712Y011681D02*
X027140Y011681D01*
X027137Y011683D02*
X025712Y011683D01*
X025712Y011685D02*
X027135Y011685D01*
X027132Y011688D02*
X025712Y011688D01*
X025712Y011690D02*
X027130Y011690D01*
X027128Y011693D02*
X025712Y011693D01*
X025712Y011695D02*
X027125Y011695D01*
X027123Y011698D02*
X025712Y011698D01*
X025712Y011700D02*
X027120Y011700D01*
X027118Y011702D02*
X025712Y011702D01*
X025712Y011705D02*
X027115Y011705D01*
X027113Y011707D02*
X025712Y011707D01*
X025712Y011710D02*
X027111Y011710D01*
X027108Y011712D02*
X025712Y011712D01*
X025712Y011715D02*
X027106Y011715D01*
X027103Y011717D02*
X025712Y011717D01*
X025712Y011720D02*
X027101Y011720D01*
X027098Y011722D02*
X025712Y011722D01*
X025712Y011724D02*
X027096Y011724D01*
X027093Y011727D02*
X025712Y011727D01*
X025712Y011729D02*
X027091Y011729D01*
X027089Y011732D02*
X025712Y011732D01*
X025712Y011734D02*
X027086Y011734D01*
X027084Y011737D02*
X025712Y011737D01*
X025712Y011739D02*
X027081Y011739D01*
X027079Y011741D02*
X025712Y011741D01*
X025712Y011744D02*
X027076Y011744D01*
X027074Y011746D02*
X025712Y011746D01*
X025712Y011749D02*
X027072Y011749D01*
X027069Y011751D02*
X025712Y011751D01*
X025712Y011754D02*
X027067Y011754D01*
X027064Y011756D02*
X025712Y011756D01*
X025712Y011759D02*
X027062Y011759D01*
X027059Y011761D02*
X025712Y011761D01*
X025712Y011763D02*
X027057Y011763D01*
X027055Y011766D02*
X025712Y011766D01*
X025712Y011768D02*
X027052Y011768D01*
X027050Y011771D02*
X025712Y011771D01*
X025712Y011773D02*
X027047Y011773D01*
X027045Y011776D02*
X025712Y011776D01*
X025712Y011778D02*
X027042Y011778D01*
X027040Y011780D02*
X025712Y011780D01*
X025712Y011783D02*
X027037Y011783D01*
X027035Y011785D02*
X025712Y011785D01*
X025712Y011788D02*
X027033Y011788D01*
X027030Y011790D02*
X025712Y011790D01*
X025712Y011793D02*
X027028Y011793D01*
X027025Y011795D02*
X025712Y011795D01*
X025712Y011798D02*
X027023Y011798D01*
X027020Y011800D02*
X025712Y011800D01*
X025712Y011802D02*
X027018Y011802D01*
X027016Y011805D02*
X025712Y011805D01*
X025712Y011807D02*
X027013Y011807D01*
X027011Y011810D02*
X025712Y011810D01*
X025712Y011812D02*
X027008Y011812D01*
X027006Y011815D02*
X025712Y011815D01*
X025712Y011817D02*
X027003Y011817D01*
X027001Y011819D02*
X025712Y011819D01*
X025712Y011822D02*
X026998Y011822D01*
X026996Y011824D02*
X025712Y011824D01*
X025712Y011827D02*
X026994Y011827D01*
X026991Y011829D02*
X025712Y011829D01*
X025712Y011832D02*
X026989Y011832D01*
X026986Y011834D02*
X025712Y011834D01*
X025712Y011837D02*
X026984Y011837D01*
X026981Y011839D02*
X025712Y011839D01*
X025712Y011841D02*
X026979Y011841D01*
X026977Y011844D02*
X025712Y011844D01*
X025712Y011846D02*
X026974Y011846D01*
X026972Y011849D02*
X025712Y011849D01*
X025712Y011851D02*
X026969Y011851D01*
X026967Y011854D02*
X025712Y011854D01*
X025712Y011856D02*
X026964Y011856D01*
X026962Y011858D02*
X025712Y011858D01*
X025712Y011861D02*
X026959Y011861D01*
X026957Y011863D02*
X025712Y011863D01*
X025712Y011866D02*
X026955Y011866D01*
X026952Y011868D02*
X025712Y011868D01*
X025712Y011871D02*
X026950Y011871D01*
X026947Y011873D02*
X025712Y011873D01*
X025712Y011876D02*
X026945Y011876D01*
X026942Y011878D02*
X025712Y011878D01*
X025712Y011880D02*
X026940Y011880D01*
X026938Y011883D02*
X025712Y011883D01*
X025712Y011885D02*
X026935Y011885D01*
X026933Y011888D02*
X025712Y011888D01*
X025712Y011889D02*
X025712Y011311D01*
X027240Y011311D01*
X027240Y011581D01*
X027240Y011578D02*
X025712Y011578D01*
X025712Y011576D02*
X027240Y011576D01*
X027240Y011573D02*
X025712Y011573D01*
X025712Y011571D02*
X027240Y011571D01*
X027240Y011568D02*
X025712Y011568D01*
X025712Y011566D02*
X027240Y011566D01*
X027240Y011564D02*
X025712Y011564D01*
X025712Y011561D02*
X027240Y011561D01*
X027240Y011559D02*
X025712Y011559D01*
X025712Y011556D02*
X027240Y011556D01*
X027240Y011554D02*
X025712Y011554D01*
X025712Y011551D02*
X027240Y011551D01*
X027240Y011549D02*
X025712Y011549D01*
X025712Y011547D02*
X027240Y011547D01*
X027240Y011544D02*
X025712Y011544D01*
X025712Y011542D02*
X027240Y011542D01*
X027240Y011539D02*
X025712Y011539D01*
X025712Y011537D02*
X027240Y011537D01*
X027240Y011534D02*
X025712Y011534D01*
X025712Y011532D02*
X027240Y011532D01*
X027240Y011529D02*
X025712Y011529D01*
X025712Y011527D02*
X027240Y011527D01*
X027240Y011525D02*
X025712Y011525D01*
X025712Y011522D02*
X027240Y011522D01*
X027240Y011520D02*
X025712Y011520D01*
X025712Y011517D02*
X027240Y011517D01*
X027240Y011515D02*
X025712Y011515D01*
X025712Y011512D02*
X027240Y011512D01*
X027240Y011510D02*
X025712Y011510D01*
X025712Y011508D02*
X027240Y011508D01*
X027240Y011505D02*
X025712Y011505D01*
X025712Y011503D02*
X027240Y011503D01*
X027240Y011500D02*
X025712Y011500D01*
X025712Y011498D02*
X027240Y011498D01*
X027240Y011495D02*
X025712Y011495D01*
X025712Y011493D02*
X027240Y011493D01*
X027240Y011490D02*
X025712Y011490D01*
X025712Y011488D02*
X027240Y011488D01*
X027240Y011486D02*
X025712Y011486D01*
X025712Y011483D02*
X027240Y011483D01*
X027240Y011481D02*
X025712Y011481D01*
X025712Y011478D02*
X027240Y011478D01*
X027240Y011476D02*
X025712Y011476D01*
X025712Y011473D02*
X027240Y011473D01*
X027240Y011471D02*
X025712Y011471D01*
X025712Y011469D02*
X027240Y011469D01*
X027240Y011466D02*
X025712Y011466D01*
X025712Y011464D02*
X027240Y011464D01*
X027240Y011461D02*
X025712Y011461D01*
X025712Y011459D02*
X027240Y011459D01*
X027240Y011456D02*
X025712Y011456D01*
X025712Y011454D02*
X027240Y011454D01*
X027240Y011451D02*
X025712Y011451D01*
X025712Y011449D02*
X027240Y011449D01*
X027240Y011447D02*
X025712Y011447D01*
X025712Y011444D02*
X027240Y011444D01*
X027240Y011442D02*
X025712Y011442D01*
X025712Y011439D02*
X027240Y011439D01*
X027240Y011437D02*
X025712Y011437D01*
X025712Y011434D02*
X027240Y011434D01*
X027240Y011432D02*
X025712Y011432D01*
X025712Y011430D02*
X027240Y011430D01*
X027240Y011427D02*
X025712Y011427D01*
X025712Y011425D02*
X027240Y011425D01*
X027240Y011422D02*
X025712Y011422D01*
X025712Y011420D02*
X027240Y011420D01*
X027240Y011417D02*
X025712Y011417D01*
X025712Y011415D02*
X027240Y011415D01*
X027240Y011412D02*
X025712Y011412D01*
X025712Y011410D02*
X027240Y011410D01*
X027240Y011408D02*
X025712Y011408D01*
X025712Y011405D02*
X027240Y011405D01*
X027240Y011403D02*
X025712Y011403D01*
X025712Y011400D02*
X027240Y011400D01*
X027240Y011398D02*
X025712Y011398D01*
X025712Y011395D02*
X027240Y011395D01*
X027240Y011393D02*
X025712Y011393D01*
X025712Y011391D02*
X027240Y011391D01*
X027240Y011388D02*
X025712Y011388D01*
X025712Y011386D02*
X027240Y011386D01*
X027240Y011383D02*
X025712Y011383D01*
X025712Y011381D02*
X027240Y011381D01*
X027240Y011378D02*
X025712Y011378D01*
X025712Y011376D02*
X027240Y011376D01*
X027240Y011373D02*
X025712Y011373D01*
X025712Y011371D02*
X027240Y011371D01*
X027240Y011369D02*
X025712Y011369D01*
X025712Y011366D02*
X027240Y011366D01*
X027240Y011364D02*
X025712Y011364D01*
X025712Y011361D02*
X027240Y011361D01*
X027240Y011359D02*
X025712Y011359D01*
X025712Y011356D02*
X027240Y011356D01*
X027240Y011354D02*
X025712Y011354D01*
X025712Y011352D02*
X027240Y011352D01*
X027240Y011349D02*
X025712Y011349D01*
X025712Y011347D02*
X027240Y011347D01*
X027240Y011344D02*
X025712Y011344D01*
X025712Y011342D02*
X027240Y011342D01*
X027240Y011339D02*
X025712Y011339D01*
X025712Y011337D02*
X027240Y011337D01*
X027240Y011334D02*
X025712Y011334D01*
X025712Y011332D02*
X027240Y011332D01*
X027240Y011330D02*
X025712Y011330D01*
X025712Y011327D02*
X027240Y011327D01*
X027240Y011325D02*
X025712Y011325D01*
X025712Y011322D02*
X027240Y011322D01*
X027240Y011320D02*
X025712Y011320D01*
X025712Y011317D02*
X027240Y011317D01*
X027240Y011315D02*
X025712Y011315D01*
X025712Y011313D02*
X027240Y011313D01*
X027460Y011313D02*
X028988Y011313D01*
X028988Y011315D02*
X027460Y011315D01*
X027460Y011317D02*
X028988Y011317D01*
X028988Y011320D02*
X027460Y011320D01*
X027460Y011322D02*
X028988Y011322D01*
X028988Y011325D02*
X027460Y011325D01*
X027460Y011327D02*
X028988Y011327D01*
X028988Y011330D02*
X027460Y011330D01*
X027460Y011332D02*
X028988Y011332D01*
X028988Y011334D02*
X027460Y011334D01*
X027460Y011337D02*
X028988Y011337D01*
X028988Y011339D02*
X027460Y011339D01*
X027460Y011342D02*
X028988Y011342D01*
X028988Y011344D02*
X027460Y011344D01*
X027460Y011347D02*
X028988Y011347D01*
X028988Y011349D02*
X027460Y011349D01*
X027460Y011352D02*
X028988Y011352D01*
X028988Y011354D02*
X027460Y011354D01*
X027460Y011356D02*
X028988Y011356D01*
X028988Y011359D02*
X027460Y011359D01*
X027460Y011361D02*
X028988Y011361D01*
X028988Y011364D02*
X027460Y011364D01*
X027460Y011366D02*
X028988Y011366D01*
X028988Y011369D02*
X027460Y011369D01*
X027460Y011371D02*
X028988Y011371D01*
X028988Y011373D02*
X027460Y011373D01*
X027460Y011376D02*
X028988Y011376D01*
X028988Y011378D02*
X027460Y011378D01*
X027460Y011381D02*
X028988Y011381D01*
X028988Y011383D02*
X027460Y011383D01*
X027460Y011386D02*
X028988Y011386D01*
X028988Y011388D02*
X027460Y011388D01*
X027460Y011391D02*
X028988Y011391D01*
X028988Y011393D02*
X027460Y011393D01*
X027460Y011395D02*
X028988Y011395D01*
X028988Y011398D02*
X027460Y011398D01*
X027460Y011400D02*
X028988Y011400D01*
X028988Y011403D02*
X027460Y011403D01*
X027460Y011405D02*
X028988Y011405D01*
X028988Y011408D02*
X027460Y011408D01*
X027460Y011410D02*
X028988Y011410D01*
X028988Y011412D02*
X027460Y011412D01*
X027460Y011415D02*
X028988Y011415D01*
X028988Y011417D02*
X027460Y011417D01*
X027460Y011420D02*
X028988Y011420D01*
X028988Y011422D02*
X027460Y011422D01*
X027460Y011425D02*
X028988Y011425D01*
X028988Y011427D02*
X027460Y011427D01*
X027460Y011430D02*
X028988Y011430D01*
X028988Y011432D02*
X027460Y011432D01*
X027460Y011434D02*
X028988Y011434D01*
X028988Y011437D02*
X027460Y011437D01*
X027460Y011439D02*
X028988Y011439D01*
X028988Y011442D02*
X027460Y011442D01*
X027460Y011444D02*
X028988Y011444D01*
X028988Y011447D02*
X027460Y011447D01*
X027460Y011449D02*
X028988Y011449D01*
X028988Y011451D02*
X027460Y011451D01*
X027460Y011454D02*
X028988Y011454D01*
X028988Y011456D02*
X027460Y011456D01*
X027460Y011459D02*
X028988Y011459D01*
X028988Y011461D02*
X027460Y011461D01*
X027460Y011464D02*
X028988Y011464D01*
X028988Y011466D02*
X027460Y011466D01*
X027460Y011469D02*
X028988Y011469D01*
X028988Y011471D02*
X027460Y011471D01*
X027460Y011473D02*
X028988Y011473D01*
X028988Y011476D02*
X027460Y011476D01*
X027460Y011478D02*
X028988Y011478D01*
X028988Y011481D02*
X027460Y011481D01*
X027460Y011483D02*
X028988Y011483D01*
X028988Y011486D02*
X027460Y011486D01*
X027460Y011488D02*
X028988Y011488D01*
X028988Y011490D02*
X027460Y011490D01*
X027460Y011493D02*
X028988Y011493D01*
X028988Y011495D02*
X027460Y011495D01*
X027460Y011498D02*
X028988Y011498D01*
X028988Y011500D02*
X027460Y011500D01*
X027460Y011503D02*
X028988Y011503D01*
X028988Y011505D02*
X027460Y011505D01*
X027460Y011508D02*
X028988Y011508D01*
X028988Y011510D02*
X027460Y011510D01*
X027460Y011512D02*
X028988Y011512D01*
X028988Y011515D02*
X027460Y011515D01*
X027460Y011517D02*
X028988Y011517D01*
X028988Y011520D02*
X027460Y011520D01*
X027460Y011522D02*
X028988Y011522D01*
X028988Y011525D02*
X027460Y011525D01*
X027460Y011527D02*
X028988Y011527D01*
X028988Y011529D02*
X027460Y011529D01*
X027460Y011532D02*
X028988Y011532D01*
X028988Y011534D02*
X027460Y011534D01*
X027460Y011537D02*
X028988Y011537D01*
X028988Y011539D02*
X027460Y011539D01*
X027460Y011542D02*
X028988Y011542D01*
X028988Y011544D02*
X027460Y011544D01*
X027460Y011547D02*
X028988Y011547D01*
X028988Y011549D02*
X027460Y011549D01*
X027460Y011551D02*
X028988Y011551D01*
X028988Y011554D02*
X027460Y011554D01*
X027460Y011556D02*
X028988Y011556D01*
X028988Y011559D02*
X027460Y011559D01*
X027460Y011561D02*
X028988Y011561D01*
X028988Y011564D02*
X027460Y011564D01*
X027460Y011566D02*
X028988Y011566D01*
X028988Y011568D02*
X027460Y011568D01*
X027460Y011571D02*
X028988Y011571D01*
X028988Y011573D02*
X027460Y011573D01*
X027460Y011576D02*
X028988Y011576D01*
X028988Y011578D02*
X027460Y011578D01*
X027460Y011581D02*
X027460Y011311D01*
X028988Y011311D01*
X028988Y011889D01*
X027769Y011889D01*
X027460Y011581D01*
X028988Y011581D01*
X028988Y011583D02*
X027463Y011583D01*
X027465Y011586D02*
X028988Y011586D01*
X028988Y011588D02*
X027468Y011588D01*
X027470Y011590D02*
X028988Y011590D01*
X028988Y011593D02*
X027472Y011593D01*
X027475Y011595D02*
X028988Y011595D01*
X028988Y011598D02*
X027477Y011598D01*
X027480Y011600D02*
X028988Y011600D01*
X028988Y011603D02*
X027482Y011603D01*
X027485Y011605D02*
X028988Y011605D01*
X028988Y011607D02*
X027487Y011607D01*
X027490Y011610D02*
X028988Y011610D01*
X028988Y011612D02*
X027492Y011612D01*
X027494Y011615D02*
X028988Y011615D01*
X028988Y011617D02*
X027497Y011617D01*
X027499Y011620D02*
X028988Y011620D01*
X028988Y011622D02*
X027502Y011622D01*
X027504Y011624D02*
X028988Y011624D01*
X028988Y011627D02*
X027507Y011627D01*
X027509Y011629D02*
X028988Y011629D01*
X028988Y011632D02*
X027511Y011632D01*
X027514Y011634D02*
X028988Y011634D01*
X028988Y011637D02*
X027516Y011637D01*
X027519Y011639D02*
X028988Y011639D01*
X028988Y011642D02*
X027521Y011642D01*
X027524Y011644D02*
X028988Y011644D01*
X028988Y011646D02*
X027526Y011646D01*
X027529Y011649D02*
X028988Y011649D01*
X028988Y011651D02*
X027531Y011651D01*
X027533Y011654D02*
X028988Y011654D01*
X028988Y011656D02*
X027536Y011656D01*
X027538Y011659D02*
X028988Y011659D01*
X028988Y011661D02*
X027541Y011661D01*
X027543Y011663D02*
X028988Y011663D01*
X028988Y011666D02*
X027546Y011666D01*
X027548Y011668D02*
X028988Y011668D01*
X028988Y011671D02*
X027550Y011671D01*
X027553Y011673D02*
X028988Y011673D01*
X028988Y011676D02*
X027555Y011676D01*
X027558Y011678D02*
X028988Y011678D01*
X028988Y011681D02*
X027560Y011681D01*
X027563Y011683D02*
X028988Y011683D01*
X028988Y011685D02*
X027565Y011685D01*
X027568Y011688D02*
X028988Y011688D01*
X028988Y011690D02*
X027570Y011690D01*
X027572Y011693D02*
X028988Y011693D01*
X028988Y011695D02*
X027575Y011695D01*
X027577Y011698D02*
X028988Y011698D01*
X028988Y011700D02*
X027580Y011700D01*
X027582Y011702D02*
X028988Y011702D01*
X028988Y011705D02*
X027585Y011705D01*
X027587Y011707D02*
X028988Y011707D01*
X028988Y011710D02*
X027589Y011710D01*
X027592Y011712D02*
X028988Y011712D01*
X028988Y011715D02*
X027594Y011715D01*
X027597Y011717D02*
X028988Y011717D01*
X028988Y011720D02*
X027599Y011720D01*
X027602Y011722D02*
X028988Y011722D01*
X028988Y011724D02*
X027604Y011724D01*
X027607Y011727D02*
X028988Y011727D01*
X028988Y011729D02*
X027609Y011729D01*
X027611Y011732D02*
X028988Y011732D01*
X028988Y011734D02*
X027614Y011734D01*
X027616Y011737D02*
X028988Y011737D01*
X028988Y011739D02*
X027619Y011739D01*
X027621Y011741D02*
X028988Y011741D01*
X028988Y011744D02*
X027624Y011744D01*
X027626Y011746D02*
X028988Y011746D01*
X028988Y011749D02*
X027628Y011749D01*
X027631Y011751D02*
X028988Y011751D01*
X028988Y011754D02*
X027633Y011754D01*
X027636Y011756D02*
X028988Y011756D01*
X028988Y011759D02*
X027638Y011759D01*
X027641Y011761D02*
X028988Y011761D01*
X028988Y011763D02*
X027643Y011763D01*
X027645Y011766D02*
X028988Y011766D01*
X028988Y011768D02*
X027648Y011768D01*
X027650Y011771D02*
X028988Y011771D01*
X028988Y011773D02*
X027653Y011773D01*
X027655Y011776D02*
X028988Y011776D01*
X028988Y011778D02*
X027658Y011778D01*
X027660Y011780D02*
X028988Y011780D01*
X028988Y011783D02*
X027663Y011783D01*
X027665Y011785D02*
X028988Y011785D01*
X028988Y011788D02*
X027667Y011788D01*
X027670Y011790D02*
X028988Y011790D01*
X028988Y011793D02*
X027672Y011793D01*
X027675Y011795D02*
X028988Y011795D01*
X028988Y011798D02*
X027677Y011798D01*
X027680Y011800D02*
X028988Y011800D01*
X028988Y011802D02*
X027682Y011802D01*
X027684Y011805D02*
X028988Y011805D01*
X028988Y011807D02*
X027687Y011807D01*
X027689Y011810D02*
X028988Y011810D01*
X028988Y011812D02*
X027692Y011812D01*
X027694Y011815D02*
X028988Y011815D01*
X028988Y011817D02*
X027697Y011817D01*
X027699Y011819D02*
X028988Y011819D01*
X028988Y011822D02*
X027702Y011822D01*
X027704Y011824D02*
X028988Y011824D01*
X028988Y011827D02*
X027706Y011827D01*
X027709Y011829D02*
X028988Y011829D01*
X028988Y011832D02*
X027711Y011832D01*
X027714Y011834D02*
X028988Y011834D01*
X028988Y011837D02*
X027716Y011837D01*
X027719Y011839D02*
X028988Y011839D01*
X028988Y011841D02*
X027721Y011841D01*
X027723Y011844D02*
X028988Y011844D01*
X028988Y011846D02*
X027726Y011846D01*
X027728Y011849D02*
X028988Y011849D01*
X028988Y011851D02*
X027731Y011851D01*
X027733Y011854D02*
X028988Y011854D01*
X028988Y011856D02*
X027736Y011856D01*
X027738Y011858D02*
X028988Y011858D01*
X028988Y011861D02*
X027741Y011861D01*
X027743Y011863D02*
X028988Y011863D01*
X028988Y011866D02*
X027745Y011866D01*
X027748Y011868D02*
X028988Y011868D01*
X028988Y011871D02*
X027750Y011871D01*
X027753Y011873D02*
X028988Y011873D01*
X028988Y011876D02*
X027755Y011876D01*
X027758Y011878D02*
X028988Y011878D01*
X028988Y011880D02*
X027760Y011880D01*
X027762Y011883D02*
X028988Y011883D01*
X028988Y011885D02*
X027765Y011885D01*
X027767Y011888D02*
X028988Y011888D01*
X028988Y009889D02*
X027460Y009889D01*
X028988Y009889D01*
X028988Y009311D01*
X027769Y009311D01*
X027460Y009619D01*
X027460Y009889D01*
X027460Y009887D02*
X028988Y009887D01*
X028988Y009884D02*
X027460Y009884D01*
X027460Y009882D02*
X028988Y009882D01*
X028988Y009879D02*
X027460Y009879D01*
X027460Y009877D02*
X028988Y009877D01*
X028988Y009875D02*
X027460Y009875D01*
X027460Y009872D02*
X028988Y009872D01*
X028988Y009870D02*
X027460Y009870D01*
X027460Y009867D02*
X028988Y009867D01*
X028988Y009865D02*
X027460Y009865D01*
X027460Y009862D02*
X028988Y009862D01*
X028988Y009860D02*
X027460Y009860D01*
X027460Y009857D02*
X028988Y009857D01*
X028988Y009855D02*
X027460Y009855D01*
X027460Y009853D02*
X028988Y009853D01*
X028988Y009850D02*
X027460Y009850D01*
X027460Y009848D02*
X028988Y009848D01*
X028988Y009845D02*
X027460Y009845D01*
X027460Y009843D02*
X028988Y009843D01*
X028988Y009840D02*
X027460Y009840D01*
X027460Y009838D02*
X028988Y009838D01*
X028988Y009836D02*
X027460Y009836D01*
X027460Y009833D02*
X028988Y009833D01*
X028988Y009831D02*
X027460Y009831D01*
X027460Y009828D02*
X028988Y009828D01*
X028988Y009826D02*
X027460Y009826D01*
X027460Y009823D02*
X028988Y009823D01*
X028988Y009821D02*
X027460Y009821D01*
X027460Y009818D02*
X028988Y009818D01*
X028988Y009816D02*
X027460Y009816D01*
X027460Y009814D02*
X028988Y009814D01*
X028988Y009811D02*
X027460Y009811D01*
X027460Y009809D02*
X028988Y009809D01*
X028988Y009806D02*
X027460Y009806D01*
X027460Y009804D02*
X028988Y009804D01*
X028988Y009801D02*
X027460Y009801D01*
X027460Y009799D02*
X028988Y009799D01*
X028988Y009797D02*
X027460Y009797D01*
X027460Y009794D02*
X028988Y009794D01*
X028988Y009792D02*
X027460Y009792D01*
X027460Y009789D02*
X028988Y009789D01*
X028988Y009787D02*
X027460Y009787D01*
X027460Y009784D02*
X028988Y009784D01*
X028988Y009782D02*
X027460Y009782D01*
X027460Y009779D02*
X028988Y009779D01*
X028988Y009777D02*
X027460Y009777D01*
X027460Y009775D02*
X028988Y009775D01*
X028988Y009772D02*
X027460Y009772D01*
X027460Y009770D02*
X028988Y009770D01*
X028988Y009767D02*
X027460Y009767D01*
X027460Y009765D02*
X028988Y009765D01*
X028988Y009762D02*
X027460Y009762D01*
X027460Y009760D02*
X028988Y009760D01*
X028988Y009758D02*
X027460Y009758D01*
X027460Y009755D02*
X028988Y009755D01*
X028988Y009753D02*
X027460Y009753D01*
X027460Y009750D02*
X028988Y009750D01*
X028988Y009748D02*
X027460Y009748D01*
X027460Y009745D02*
X028988Y009745D01*
X028988Y009743D02*
X027460Y009743D01*
X027460Y009741D02*
X028988Y009741D01*
X028988Y009738D02*
X027460Y009738D01*
X027460Y009736D02*
X028988Y009736D01*
X028988Y009733D02*
X027460Y009733D01*
X027460Y009731D02*
X028988Y009731D01*
X028988Y009728D02*
X027460Y009728D01*
X027460Y009726D02*
X028988Y009726D01*
X028988Y009723D02*
X027460Y009723D01*
X027460Y009721D02*
X028988Y009721D01*
X028988Y009719D02*
X027460Y009719D01*
X027460Y009716D02*
X028988Y009716D01*
X028988Y009714D02*
X027460Y009714D01*
X027460Y009711D02*
X028988Y009711D01*
X028988Y009709D02*
X027460Y009709D01*
X027460Y009706D02*
X028988Y009706D01*
X028988Y009704D02*
X027460Y009704D01*
X027460Y009702D02*
X028988Y009702D01*
X028988Y009699D02*
X027460Y009699D01*
X027460Y009697D02*
X028988Y009697D01*
X028988Y009694D02*
X027460Y009694D01*
X027460Y009692D02*
X028988Y009692D01*
X028988Y009689D02*
X027460Y009689D01*
X027460Y009687D02*
X028988Y009687D01*
X028988Y009684D02*
X027460Y009684D01*
X027460Y009682D02*
X028988Y009682D01*
X028988Y009680D02*
X027460Y009680D01*
X027460Y009677D02*
X028988Y009677D01*
X028988Y009675D02*
X027460Y009675D01*
X027460Y009672D02*
X028988Y009672D01*
X028988Y009670D02*
X027460Y009670D01*
X027460Y009667D02*
X028988Y009667D01*
X028988Y009665D02*
X027460Y009665D01*
X027460Y009663D02*
X028988Y009663D01*
X028988Y009660D02*
X027460Y009660D01*
X027460Y009658D02*
X028988Y009658D01*
X028988Y009655D02*
X027460Y009655D01*
X027460Y009653D02*
X028988Y009653D01*
X028988Y009650D02*
X027460Y009650D01*
X027460Y009648D02*
X028988Y009648D01*
X028988Y009645D02*
X027460Y009645D01*
X027460Y009643D02*
X028988Y009643D01*
X028988Y009641D02*
X027460Y009641D01*
X027460Y009638D02*
X028988Y009638D01*
X028988Y009636D02*
X027460Y009636D01*
X027460Y009633D02*
X028988Y009633D01*
X028988Y009631D02*
X027460Y009631D01*
X027460Y009628D02*
X028988Y009628D01*
X028988Y009626D02*
X027460Y009626D01*
X027460Y009624D02*
X028988Y009624D01*
X028988Y009621D02*
X027460Y009621D01*
X027461Y009619D02*
X028988Y009619D01*
X028988Y009616D02*
X027463Y009616D01*
X027466Y009614D02*
X028988Y009614D01*
X028988Y009611D02*
X027468Y009611D01*
X027471Y009609D02*
X028988Y009609D01*
X028988Y009606D02*
X027473Y009606D01*
X027476Y009604D02*
X028988Y009604D01*
X028988Y009602D02*
X027478Y009602D01*
X027481Y009599D02*
X028988Y009599D01*
X028988Y009597D02*
X027483Y009597D01*
X027485Y009594D02*
X028988Y009594D01*
X028988Y009592D02*
X027488Y009592D01*
X027490Y009589D02*
X028988Y009589D01*
X028988Y009587D02*
X027493Y009587D01*
X027495Y009585D02*
X028988Y009585D01*
X028988Y009582D02*
X027498Y009582D01*
X027500Y009580D02*
X028988Y009580D01*
X028988Y009577D02*
X027502Y009577D01*
X027505Y009575D02*
X028988Y009575D01*
X028988Y009572D02*
X027507Y009572D01*
X027510Y009570D02*
X028988Y009570D01*
X028988Y009567D02*
X027512Y009567D01*
X027515Y009565D02*
X028988Y009565D01*
X028988Y009563D02*
X027517Y009563D01*
X027519Y009560D02*
X028988Y009560D01*
X028988Y009558D02*
X027522Y009558D01*
X027524Y009555D02*
X028988Y009555D01*
X028988Y009553D02*
X027527Y009553D01*
X027529Y009550D02*
X028988Y009550D01*
X028988Y009548D02*
X027532Y009548D01*
X027534Y009546D02*
X028988Y009546D01*
X028988Y009543D02*
X027537Y009543D01*
X027539Y009541D02*
X028988Y009541D01*
X028988Y009538D02*
X027541Y009538D01*
X027544Y009536D02*
X028988Y009536D01*
X028988Y009533D02*
X027546Y009533D01*
X027549Y009531D02*
X028988Y009531D01*
X028988Y009528D02*
X027551Y009528D01*
X027554Y009526D02*
X028988Y009526D01*
X028988Y009524D02*
X027556Y009524D01*
X027558Y009521D02*
X028988Y009521D01*
X028988Y009519D02*
X027561Y009519D01*
X027563Y009516D02*
X028988Y009516D01*
X028988Y009514D02*
X027566Y009514D01*
X027568Y009511D02*
X028988Y009511D01*
X028988Y009509D02*
X027571Y009509D01*
X027573Y009507D02*
X028988Y009507D01*
X028988Y009504D02*
X027576Y009504D01*
X027578Y009502D02*
X028988Y009502D01*
X028988Y009499D02*
X027580Y009499D01*
X027583Y009497D02*
X028988Y009497D01*
X028988Y009494D02*
X027585Y009494D01*
X027588Y009492D02*
X028988Y009492D01*
X028988Y009489D02*
X027590Y009489D01*
X027593Y009487D02*
X028988Y009487D01*
X028988Y009485D02*
X027595Y009485D01*
X027597Y009482D02*
X028988Y009482D01*
X028988Y009480D02*
X027600Y009480D01*
X027602Y009477D02*
X028988Y009477D01*
X028988Y009475D02*
X027605Y009475D01*
X027607Y009472D02*
X028988Y009472D01*
X028988Y009470D02*
X027610Y009470D01*
X027612Y009468D02*
X028988Y009468D01*
X028988Y009465D02*
X027615Y009465D01*
X027617Y009463D02*
X028988Y009463D01*
X028988Y009460D02*
X027619Y009460D01*
X027622Y009458D02*
X028988Y009458D01*
X028988Y009455D02*
X027624Y009455D01*
X027627Y009453D02*
X028988Y009453D01*
X028988Y009450D02*
X027629Y009450D01*
X027632Y009448D02*
X028988Y009448D01*
X028988Y009446D02*
X027634Y009446D01*
X027636Y009443D02*
X028988Y009443D01*
X028988Y009441D02*
X027639Y009441D01*
X027641Y009438D02*
X028988Y009438D01*
X028988Y009436D02*
X027644Y009436D01*
X027646Y009433D02*
X028988Y009433D01*
X028988Y009431D02*
X027649Y009431D01*
X027651Y009429D02*
X028988Y009429D01*
X028988Y009426D02*
X027654Y009426D01*
X027656Y009424D02*
X028988Y009424D01*
X028988Y009421D02*
X027658Y009421D01*
X027661Y009419D02*
X028988Y009419D01*
X028988Y009416D02*
X027663Y009416D01*
X027666Y009414D02*
X028988Y009414D01*
X028988Y009411D02*
X027668Y009411D01*
X027671Y009409D02*
X028988Y009409D01*
X028988Y009407D02*
X027673Y009407D01*
X027675Y009404D02*
X028988Y009404D01*
X028988Y009402D02*
X027678Y009402D01*
X027680Y009399D02*
X028988Y009399D01*
X028988Y009397D02*
X027683Y009397D01*
X027685Y009394D02*
X028988Y009394D01*
X028988Y009392D02*
X027688Y009392D01*
X027690Y009390D02*
X028988Y009390D01*
X028988Y009387D02*
X027693Y009387D01*
X027695Y009385D02*
X028988Y009385D01*
X028988Y009382D02*
X027697Y009382D01*
X027700Y009380D02*
X028988Y009380D01*
X028988Y009377D02*
X027702Y009377D01*
X027705Y009375D02*
X028988Y009375D01*
X028988Y009372D02*
X027707Y009372D01*
X027710Y009370D02*
X028988Y009370D01*
X028988Y009368D02*
X027712Y009368D01*
X027714Y009365D02*
X028988Y009365D01*
X028988Y009363D02*
X027717Y009363D01*
X027719Y009360D02*
X028988Y009360D01*
X028988Y009358D02*
X027722Y009358D01*
X027724Y009355D02*
X028988Y009355D01*
X028988Y009353D02*
X027727Y009353D01*
X027729Y009351D02*
X028988Y009351D01*
X028988Y009348D02*
X027732Y009348D01*
X027734Y009346D02*
X028988Y009346D01*
X028988Y009343D02*
X027736Y009343D01*
X027739Y009341D02*
X028988Y009341D01*
X028988Y009338D02*
X027741Y009338D01*
X027744Y009336D02*
X028988Y009336D01*
X028988Y009333D02*
X027746Y009333D01*
X027749Y009331D02*
X028988Y009331D01*
X028988Y009329D02*
X027751Y009329D01*
X027753Y009326D02*
X028988Y009326D01*
X028988Y009324D02*
X027756Y009324D01*
X027758Y009321D02*
X028988Y009321D01*
X028988Y009319D02*
X027761Y009319D01*
X027763Y009316D02*
X028988Y009316D01*
X028988Y009314D02*
X027766Y009314D01*
X027768Y009312D02*
X028988Y009312D01*
X028988Y008889D02*
X027769Y008889D01*
X027460Y008581D01*
X027460Y008311D01*
X028988Y008311D01*
X028988Y008889D01*
X028988Y008887D02*
X027767Y008887D01*
X027765Y008885D02*
X028988Y008885D01*
X028988Y008883D02*
X027762Y008883D01*
X027760Y008880D02*
X028988Y008880D01*
X028988Y008878D02*
X027757Y008878D01*
X027755Y008875D02*
X028988Y008875D01*
X028988Y008873D02*
X027752Y008873D01*
X027750Y008870D02*
X028988Y008870D01*
X028988Y008868D02*
X027748Y008868D01*
X027745Y008866D02*
X028988Y008866D01*
X028988Y008863D02*
X027743Y008863D01*
X027740Y008861D02*
X028988Y008861D01*
X028988Y008858D02*
X027738Y008858D01*
X027735Y008856D02*
X028988Y008856D01*
X028988Y008853D02*
X027733Y008853D01*
X027731Y008851D02*
X028988Y008851D01*
X028988Y008848D02*
X027728Y008848D01*
X027726Y008846D02*
X028988Y008846D01*
X028988Y008844D02*
X027723Y008844D01*
X027721Y008841D02*
X028988Y008841D01*
X028988Y008839D02*
X027718Y008839D01*
X027716Y008836D02*
X028988Y008836D01*
X028988Y008834D02*
X027713Y008834D01*
X027711Y008831D02*
X028988Y008831D01*
X028988Y008829D02*
X027709Y008829D01*
X027706Y008827D02*
X028988Y008827D01*
X028988Y008824D02*
X027704Y008824D01*
X027701Y008822D02*
X028988Y008822D01*
X028988Y008819D02*
X027699Y008819D01*
X027696Y008817D02*
X028988Y008817D01*
X028988Y008814D02*
X027694Y008814D01*
X027692Y008812D02*
X028988Y008812D01*
X028988Y008809D02*
X027689Y008809D01*
X027687Y008807D02*
X028988Y008807D01*
X028988Y008805D02*
X027684Y008805D01*
X027682Y008802D02*
X028988Y008802D01*
X028988Y008800D02*
X027679Y008800D01*
X027677Y008797D02*
X028988Y008797D01*
X028988Y008795D02*
X027674Y008795D01*
X027672Y008792D02*
X028988Y008792D01*
X028988Y008790D02*
X027670Y008790D01*
X027667Y008788D02*
X028988Y008788D01*
X028988Y008785D02*
X027665Y008785D01*
X027662Y008783D02*
X028988Y008783D01*
X028988Y008780D02*
X027660Y008780D01*
X027657Y008778D02*
X028988Y008778D01*
X028988Y008775D02*
X027655Y008775D01*
X027653Y008773D02*
X028988Y008773D01*
X028988Y008770D02*
X027650Y008770D01*
X027648Y008768D02*
X028988Y008768D01*
X028988Y008766D02*
X027645Y008766D01*
X027643Y008763D02*
X028988Y008763D01*
X028988Y008761D02*
X027640Y008761D01*
X027638Y008758D02*
X028988Y008758D01*
X028988Y008756D02*
X027635Y008756D01*
X027633Y008753D02*
X028988Y008753D01*
X028988Y008751D02*
X027631Y008751D01*
X027628Y008749D02*
X028988Y008749D01*
X028988Y008746D02*
X027626Y008746D01*
X027623Y008744D02*
X028988Y008744D01*
X028988Y008741D02*
X027621Y008741D01*
X027618Y008739D02*
X028988Y008739D01*
X028988Y008736D02*
X027616Y008736D01*
X027614Y008734D02*
X028988Y008734D01*
X028988Y008731D02*
X027611Y008731D01*
X027609Y008729D02*
X028988Y008729D01*
X028988Y008727D02*
X027606Y008727D01*
X027604Y008724D02*
X028988Y008724D01*
X028988Y008722D02*
X027601Y008722D01*
X027599Y008719D02*
X028988Y008719D01*
X028988Y008717D02*
X027596Y008717D01*
X027594Y008714D02*
X028988Y008714D01*
X028988Y008712D02*
X027592Y008712D01*
X027589Y008710D02*
X028988Y008710D01*
X028988Y008707D02*
X027587Y008707D01*
X027584Y008705D02*
X028988Y008705D01*
X028988Y008702D02*
X027582Y008702D01*
X027579Y008700D02*
X028988Y008700D01*
X028988Y008697D02*
X027577Y008697D01*
X027575Y008695D02*
X028988Y008695D01*
X028988Y008692D02*
X027572Y008692D01*
X027570Y008690D02*
X028988Y008690D01*
X028988Y008688D02*
X027567Y008688D01*
X027565Y008685D02*
X028988Y008685D01*
X028988Y008683D02*
X027562Y008683D01*
X027560Y008680D02*
X028988Y008680D01*
X028988Y008678D02*
X027557Y008678D01*
X027555Y008675D02*
X028988Y008675D01*
X028988Y008673D02*
X027553Y008673D01*
X027550Y008671D02*
X028988Y008671D01*
X028988Y008668D02*
X027548Y008668D01*
X027545Y008666D02*
X028988Y008666D01*
X028988Y008663D02*
X027543Y008663D01*
X027540Y008661D02*
X028988Y008661D01*
X028988Y008658D02*
X027538Y008658D01*
X027536Y008656D02*
X028988Y008656D01*
X028988Y008653D02*
X027533Y008653D01*
X027531Y008651D02*
X028988Y008651D01*
X028988Y008649D02*
X027528Y008649D01*
X027526Y008646D02*
X028988Y008646D01*
X028988Y008644D02*
X027523Y008644D01*
X027521Y008641D02*
X028988Y008641D01*
X028988Y008639D02*
X027519Y008639D01*
X027516Y008636D02*
X028988Y008636D01*
X028988Y008634D02*
X027514Y008634D01*
X027511Y008632D02*
X028988Y008632D01*
X028988Y008629D02*
X027509Y008629D01*
X027506Y008627D02*
X028988Y008627D01*
X028988Y008624D02*
X027504Y008624D01*
X027501Y008622D02*
X028988Y008622D01*
X028988Y008619D02*
X027499Y008619D01*
X027497Y008617D02*
X028988Y008617D01*
X028988Y008614D02*
X027494Y008614D01*
X027492Y008612D02*
X028988Y008612D01*
X028988Y008610D02*
X027489Y008610D01*
X027487Y008607D02*
X028988Y008607D01*
X028988Y008605D02*
X027484Y008605D01*
X027482Y008602D02*
X028988Y008602D01*
X028988Y008600D02*
X027480Y008600D01*
X027477Y008597D02*
X028988Y008597D01*
X028988Y008595D02*
X027475Y008595D01*
X027472Y008593D02*
X028988Y008593D01*
X028988Y008590D02*
X027470Y008590D01*
X027467Y008588D02*
X028988Y008588D01*
X028988Y008585D02*
X027465Y008585D01*
X027462Y008583D02*
X028988Y008583D01*
X028988Y008580D02*
X027460Y008580D01*
X027460Y008578D02*
X028988Y008578D01*
X028988Y008575D02*
X027460Y008575D01*
X027460Y008573D02*
X028988Y008573D01*
X028988Y008571D02*
X027460Y008571D01*
X027460Y008568D02*
X028988Y008568D01*
X028988Y008566D02*
X027460Y008566D01*
X027460Y008563D02*
X028988Y008563D01*
X028988Y008561D02*
X027460Y008561D01*
X027460Y008558D02*
X028988Y008558D01*
X028988Y008556D02*
X027460Y008556D01*
X027460Y008554D02*
X028988Y008554D01*
X028988Y008551D02*
X027460Y008551D01*
X027460Y008549D02*
X028988Y008549D01*
X028988Y008546D02*
X027460Y008546D01*
X027460Y008544D02*
X028988Y008544D01*
X028988Y008541D02*
X027460Y008541D01*
X027460Y008539D02*
X028988Y008539D01*
X028988Y008536D02*
X027460Y008536D01*
X027460Y008534D02*
X028988Y008534D01*
X028988Y008532D02*
X027460Y008532D01*
X027460Y008529D02*
X028988Y008529D01*
X028988Y008527D02*
X027460Y008527D01*
X027460Y008524D02*
X028988Y008524D01*
X028988Y008522D02*
X027460Y008522D01*
X027460Y008519D02*
X028988Y008519D01*
X028988Y008517D02*
X027460Y008517D01*
X027460Y008515D02*
X028988Y008515D01*
X028988Y008512D02*
X027460Y008512D01*
X027460Y008510D02*
X028988Y008510D01*
X028988Y008507D02*
X027460Y008507D01*
X027460Y008505D02*
X028988Y008505D01*
X028988Y008502D02*
X027460Y008502D01*
X027460Y008500D02*
X028988Y008500D01*
X028988Y008498D02*
X027460Y008498D01*
X027460Y008495D02*
X028988Y008495D01*
X028988Y008493D02*
X027460Y008493D01*
X027460Y008490D02*
X028988Y008490D01*
X028988Y008488D02*
X027460Y008488D01*
X027460Y008485D02*
X028988Y008485D01*
X028988Y008483D02*
X027460Y008483D01*
X027460Y008480D02*
X028988Y008480D01*
X028988Y008478D02*
X027460Y008478D01*
X027460Y008476D02*
X028988Y008476D01*
X028988Y008473D02*
X027460Y008473D01*
X027460Y008471D02*
X028988Y008471D01*
X028988Y008468D02*
X027460Y008468D01*
X027460Y008466D02*
X028988Y008466D01*
X028988Y008463D02*
X027460Y008463D01*
X027460Y008461D02*
X028988Y008461D01*
X028988Y008459D02*
X027460Y008459D01*
X027460Y008456D02*
X028988Y008456D01*
X028988Y008454D02*
X027460Y008454D01*
X027460Y008451D02*
X028988Y008451D01*
X028988Y008449D02*
X027460Y008449D01*
X027460Y008446D02*
X028988Y008446D01*
X028988Y008444D02*
X027460Y008444D01*
X027460Y008441D02*
X028988Y008441D01*
X028988Y008439D02*
X027460Y008439D01*
X027460Y008437D02*
X028988Y008437D01*
X028988Y008434D02*
X027460Y008434D01*
X027460Y008432D02*
X028988Y008432D01*
X028988Y008429D02*
X027460Y008429D01*
X027460Y008427D02*
X028988Y008427D01*
X028988Y008424D02*
X027460Y008424D01*
X027460Y008422D02*
X028988Y008422D01*
X028988Y008420D02*
X027460Y008420D01*
X027460Y008417D02*
X028988Y008417D01*
X028988Y008415D02*
X027460Y008415D01*
X027460Y008412D02*
X028988Y008412D01*
X028988Y008410D02*
X027460Y008410D01*
X027460Y008407D02*
X028988Y008407D01*
X028988Y008405D02*
X027460Y008405D01*
X027460Y008402D02*
X028988Y008402D01*
X028988Y008400D02*
X027460Y008400D01*
X027460Y008398D02*
X028988Y008398D01*
X028988Y008395D02*
X027460Y008395D01*
X027460Y008393D02*
X028988Y008393D01*
X028988Y008390D02*
X027460Y008390D01*
X027460Y008388D02*
X028988Y008388D01*
X028988Y008385D02*
X027460Y008385D01*
X027460Y008383D02*
X028988Y008383D01*
X028988Y008381D02*
X027460Y008381D01*
X027460Y008378D02*
X028988Y008378D01*
X028988Y008376D02*
X027460Y008376D01*
X027460Y008373D02*
X028988Y008373D01*
X028988Y008371D02*
X027460Y008371D01*
X027460Y008368D02*
X028988Y008368D01*
X028988Y008366D02*
X027460Y008366D01*
X027460Y008363D02*
X028988Y008363D01*
X028988Y008361D02*
X027460Y008361D01*
X027460Y008359D02*
X028988Y008359D01*
X028988Y008356D02*
X027460Y008356D01*
X027460Y008354D02*
X028988Y008354D01*
X028988Y008351D02*
X027460Y008351D01*
X027460Y008349D02*
X028988Y008349D01*
X028988Y008346D02*
X027460Y008346D01*
X027460Y008344D02*
X028988Y008344D01*
X028988Y008342D02*
X027460Y008342D01*
X027460Y008339D02*
X028988Y008339D01*
X028988Y008337D02*
X027460Y008337D01*
X027460Y008334D02*
X028988Y008334D01*
X028988Y008332D02*
X027460Y008332D01*
X027460Y008329D02*
X028988Y008329D01*
X028988Y008327D02*
X027460Y008327D01*
X027460Y008324D02*
X028988Y008324D01*
X028988Y008322D02*
X027460Y008322D01*
X027460Y008320D02*
X028988Y008320D01*
X028988Y008317D02*
X027460Y008317D01*
X027460Y008315D02*
X028988Y008315D01*
X028988Y008312D02*
X027460Y008312D01*
X027240Y008312D02*
X025712Y008312D01*
X025712Y008311D02*
X027240Y008311D01*
X027240Y008581D01*
X026931Y008889D01*
X025712Y008889D01*
X025712Y008311D01*
X025712Y008315D02*
X027240Y008315D01*
X027240Y008317D02*
X025712Y008317D01*
X025712Y008320D02*
X027240Y008320D01*
X027240Y008322D02*
X025712Y008322D01*
X025712Y008324D02*
X027240Y008324D01*
X027240Y008327D02*
X025712Y008327D01*
X025712Y008329D02*
X027240Y008329D01*
X027240Y008332D02*
X025712Y008332D01*
X025712Y008334D02*
X027240Y008334D01*
X027240Y008337D02*
X025712Y008337D01*
X025712Y008339D02*
X027240Y008339D01*
X027240Y008342D02*
X025712Y008342D01*
X025712Y008344D02*
X027240Y008344D01*
X027240Y008346D02*
X025712Y008346D01*
X025712Y008349D02*
X027240Y008349D01*
X027240Y008351D02*
X025712Y008351D01*
X025712Y008354D02*
X027240Y008354D01*
X027240Y008356D02*
X025712Y008356D01*
X025712Y008359D02*
X027240Y008359D01*
X027240Y008361D02*
X025712Y008361D01*
X025712Y008363D02*
X027240Y008363D01*
X027240Y008366D02*
X025712Y008366D01*
X025712Y008368D02*
X027240Y008368D01*
X027240Y008371D02*
X025712Y008371D01*
X025712Y008373D02*
X027240Y008373D01*
X027240Y008376D02*
X025712Y008376D01*
X025712Y008378D02*
X027240Y008378D01*
X027240Y008381D02*
X025712Y008381D01*
X025712Y008383D02*
X027240Y008383D01*
X027240Y008385D02*
X025712Y008385D01*
X025712Y008388D02*
X027240Y008388D01*
X027240Y008390D02*
X025712Y008390D01*
X025712Y008393D02*
X027240Y008393D01*
X027240Y008395D02*
X025712Y008395D01*
X025712Y008398D02*
X027240Y008398D01*
X027240Y008400D02*
X025712Y008400D01*
X025712Y008402D02*
X027240Y008402D01*
X027240Y008405D02*
X025712Y008405D01*
X025712Y008407D02*
X027240Y008407D01*
X027240Y008410D02*
X025712Y008410D01*
X025712Y008412D02*
X027240Y008412D01*
X027240Y008415D02*
X025712Y008415D01*
X025712Y008417D02*
X027240Y008417D01*
X027240Y008420D02*
X025712Y008420D01*
X025712Y008422D02*
X027240Y008422D01*
X027240Y008424D02*
X025712Y008424D01*
X025712Y008427D02*
X027240Y008427D01*
X027240Y008429D02*
X025712Y008429D01*
X025712Y008432D02*
X027240Y008432D01*
X027240Y008434D02*
X025712Y008434D01*
X025712Y008437D02*
X027240Y008437D01*
X027240Y008439D02*
X025712Y008439D01*
X025712Y008441D02*
X027240Y008441D01*
X027240Y008444D02*
X025712Y008444D01*
X025712Y008446D02*
X027240Y008446D01*
X027240Y008449D02*
X025712Y008449D01*
X025712Y008451D02*
X027240Y008451D01*
X027240Y008454D02*
X025712Y008454D01*
X025712Y008456D02*
X027240Y008456D01*
X027240Y008459D02*
X025712Y008459D01*
X025712Y008461D02*
X027240Y008461D01*
X027240Y008463D02*
X025712Y008463D01*
X025712Y008466D02*
X027240Y008466D01*
X027240Y008468D02*
X025712Y008468D01*
X025712Y008471D02*
X027240Y008471D01*
X027240Y008473D02*
X025712Y008473D01*
X025712Y008476D02*
X027240Y008476D01*
X027240Y008478D02*
X025712Y008478D01*
X025712Y008480D02*
X027240Y008480D01*
X027240Y008483D02*
X025712Y008483D01*
X025712Y008485D02*
X027240Y008485D01*
X027240Y008488D02*
X025712Y008488D01*
X025712Y008490D02*
X027240Y008490D01*
X027240Y008493D02*
X025712Y008493D01*
X025712Y008495D02*
X027240Y008495D01*
X027240Y008498D02*
X025712Y008498D01*
X025712Y008500D02*
X027240Y008500D01*
X027240Y008502D02*
X025712Y008502D01*
X025712Y008505D02*
X027240Y008505D01*
X027240Y008507D02*
X025712Y008507D01*
X025712Y008510D02*
X027240Y008510D01*
X027240Y008512D02*
X025712Y008512D01*
X025712Y008515D02*
X027240Y008515D01*
X027240Y008517D02*
X025712Y008517D01*
X025712Y008519D02*
X027240Y008519D01*
X027240Y008522D02*
X025712Y008522D01*
X025712Y008524D02*
X027240Y008524D01*
X027240Y008527D02*
X025712Y008527D01*
X025712Y008529D02*
X027240Y008529D01*
X027240Y008532D02*
X025712Y008532D01*
X025712Y008534D02*
X027240Y008534D01*
X027240Y008536D02*
X025712Y008536D01*
X025712Y008539D02*
X027240Y008539D01*
X027240Y008541D02*
X025712Y008541D01*
X025712Y008544D02*
X027240Y008544D01*
X027240Y008546D02*
X025712Y008546D01*
X025712Y008549D02*
X027240Y008549D01*
X027240Y008551D02*
X025712Y008551D01*
X025712Y008554D02*
X027240Y008554D01*
X027240Y008556D02*
X025712Y008556D01*
X025712Y008558D02*
X027240Y008558D01*
X027240Y008561D02*
X025712Y008561D01*
X025712Y008563D02*
X027240Y008563D01*
X027240Y008566D02*
X025712Y008566D01*
X025712Y008568D02*
X027240Y008568D01*
X027240Y008571D02*
X025712Y008571D01*
X025712Y008573D02*
X027240Y008573D01*
X027240Y008575D02*
X025712Y008575D01*
X025712Y008578D02*
X027240Y008578D01*
X027240Y008580D02*
X025712Y008580D01*
X025712Y008583D02*
X027238Y008583D01*
X027235Y008585D02*
X025712Y008585D01*
X025712Y008588D02*
X027233Y008588D01*
X027230Y008590D02*
X025712Y008590D01*
X025712Y008593D02*
X027228Y008593D01*
X027225Y008595D02*
X025712Y008595D01*
X025712Y008597D02*
X027223Y008597D01*
X027220Y008600D02*
X025712Y008600D01*
X025712Y008602D02*
X027218Y008602D01*
X027216Y008605D02*
X025712Y008605D01*
X025712Y008607D02*
X027213Y008607D01*
X027211Y008610D02*
X025712Y008610D01*
X025712Y008612D02*
X027208Y008612D01*
X027206Y008614D02*
X025712Y008614D01*
X025712Y008617D02*
X027203Y008617D01*
X027201Y008619D02*
X025712Y008619D01*
X025712Y008622D02*
X027199Y008622D01*
X027196Y008624D02*
X025712Y008624D01*
X025712Y008627D02*
X027194Y008627D01*
X027191Y008629D02*
X025712Y008629D01*
X025712Y008632D02*
X027189Y008632D01*
X027186Y008634D02*
X025712Y008634D01*
X025712Y008636D02*
X027184Y008636D01*
X027181Y008639D02*
X025712Y008639D01*
X025712Y008641D02*
X027179Y008641D01*
X027177Y008644D02*
X025712Y008644D01*
X025712Y008646D02*
X027174Y008646D01*
X027172Y008649D02*
X025712Y008649D01*
X025712Y008651D02*
X027169Y008651D01*
X027167Y008653D02*
X025712Y008653D01*
X025712Y008656D02*
X027164Y008656D01*
X027162Y008658D02*
X025712Y008658D01*
X025712Y008661D02*
X027160Y008661D01*
X027157Y008663D02*
X025712Y008663D01*
X025712Y008666D02*
X027155Y008666D01*
X027152Y008668D02*
X025712Y008668D01*
X025712Y008671D02*
X027150Y008671D01*
X027147Y008673D02*
X025712Y008673D01*
X025712Y008675D02*
X027145Y008675D01*
X027143Y008678D02*
X025712Y008678D01*
X025712Y008680D02*
X027140Y008680D01*
X027138Y008683D02*
X025712Y008683D01*
X025712Y008685D02*
X027135Y008685D01*
X027133Y008688D02*
X025712Y008688D01*
X025712Y008690D02*
X027130Y008690D01*
X027128Y008692D02*
X025712Y008692D01*
X025712Y008695D02*
X027125Y008695D01*
X027123Y008697D02*
X025712Y008697D01*
X025712Y008700D02*
X027121Y008700D01*
X027118Y008702D02*
X025712Y008702D01*
X025712Y008705D02*
X027116Y008705D01*
X027113Y008707D02*
X025712Y008707D01*
X025712Y008710D02*
X027111Y008710D01*
X027108Y008712D02*
X025712Y008712D01*
X025712Y008714D02*
X027106Y008714D01*
X027104Y008717D02*
X025712Y008717D01*
X025712Y008719D02*
X027101Y008719D01*
X027099Y008722D02*
X025712Y008722D01*
X025712Y008724D02*
X027096Y008724D01*
X027094Y008727D02*
X025712Y008727D01*
X025712Y008729D02*
X027091Y008729D01*
X027089Y008731D02*
X025712Y008731D01*
X025712Y008734D02*
X027086Y008734D01*
X027084Y008736D02*
X025712Y008736D01*
X025712Y008739D02*
X027082Y008739D01*
X027079Y008741D02*
X025712Y008741D01*
X025712Y008744D02*
X027077Y008744D01*
X027074Y008746D02*
X025712Y008746D01*
X025712Y008749D02*
X027072Y008749D01*
X027069Y008751D02*
X025712Y008751D01*
X025712Y008753D02*
X027067Y008753D01*
X027065Y008756D02*
X025712Y008756D01*
X025712Y008758D02*
X027062Y008758D01*
X027060Y008761D02*
X025712Y008761D01*
X025712Y008763D02*
X027057Y008763D01*
X027055Y008766D02*
X025712Y008766D01*
X025712Y008768D02*
X027052Y008768D01*
X027050Y008770D02*
X025712Y008770D01*
X025712Y008773D02*
X027047Y008773D01*
X027045Y008775D02*
X025712Y008775D01*
X025712Y008778D02*
X027043Y008778D01*
X027040Y008780D02*
X025712Y008780D01*
X025712Y008783D02*
X027038Y008783D01*
X027035Y008785D02*
X025712Y008785D01*
X025712Y008788D02*
X027033Y008788D01*
X027030Y008790D02*
X025712Y008790D01*
X025712Y008792D02*
X027028Y008792D01*
X027026Y008795D02*
X025712Y008795D01*
X025712Y008797D02*
X027023Y008797D01*
X027021Y008800D02*
X025712Y008800D01*
X025712Y008802D02*
X027018Y008802D01*
X027016Y008805D02*
X025712Y008805D01*
X025712Y008807D02*
X027013Y008807D01*
X027011Y008809D02*
X025712Y008809D01*
X025712Y008812D02*
X027008Y008812D01*
X027006Y008814D02*
X025712Y008814D01*
X025712Y008817D02*
X027004Y008817D01*
X027001Y008819D02*
X025712Y008819D01*
X025712Y008822D02*
X026999Y008822D01*
X026996Y008824D02*
X025712Y008824D01*
X025712Y008827D02*
X026994Y008827D01*
X026991Y008829D02*
X025712Y008829D01*
X025712Y008831D02*
X026989Y008831D01*
X026987Y008834D02*
X025712Y008834D01*
X025712Y008836D02*
X026984Y008836D01*
X026982Y008839D02*
X025712Y008839D01*
X025712Y008841D02*
X026979Y008841D01*
X026977Y008844D02*
X025712Y008844D01*
X025712Y008846D02*
X026974Y008846D01*
X026972Y008848D02*
X025712Y008848D01*
X025712Y008851D02*
X026969Y008851D01*
X026967Y008853D02*
X025712Y008853D01*
X025712Y008856D02*
X026965Y008856D01*
X026962Y008858D02*
X025712Y008858D01*
X025712Y008861D02*
X026960Y008861D01*
X026957Y008863D02*
X025712Y008863D01*
X025712Y008866D02*
X026955Y008866D01*
X026952Y008868D02*
X025712Y008868D01*
X025712Y008870D02*
X026950Y008870D01*
X026948Y008873D02*
X025712Y008873D01*
X025712Y008875D02*
X026945Y008875D01*
X026943Y008878D02*
X025712Y008878D01*
X025712Y008880D02*
X026940Y008880D01*
X026938Y008883D02*
X025712Y008883D01*
X025712Y008885D02*
X026935Y008885D01*
X026933Y008887D02*
X025712Y008887D01*
X025712Y009311D02*
X026931Y009311D01*
X027240Y009619D01*
X027240Y009889D01*
X025712Y009889D01*
X027240Y009889D01*
X027240Y009887D02*
X025712Y009887D01*
X025712Y009889D02*
X025712Y009311D01*
X025712Y009312D02*
X026932Y009312D01*
X026934Y009314D02*
X025712Y009314D01*
X025712Y009316D02*
X026937Y009316D01*
X026939Y009319D02*
X025712Y009319D01*
X025712Y009321D02*
X026942Y009321D01*
X026944Y009324D02*
X025712Y009324D01*
X025712Y009326D02*
X026947Y009326D01*
X026949Y009329D02*
X025712Y009329D01*
X025712Y009331D02*
X026951Y009331D01*
X026954Y009333D02*
X025712Y009333D01*
X025712Y009336D02*
X026956Y009336D01*
X026959Y009338D02*
X025712Y009338D01*
X025712Y009341D02*
X026961Y009341D01*
X026964Y009343D02*
X025712Y009343D01*
X025712Y009346D02*
X026966Y009346D01*
X026968Y009348D02*
X025712Y009348D01*
X025712Y009351D02*
X026971Y009351D01*
X026973Y009353D02*
X025712Y009353D01*
X025712Y009355D02*
X026976Y009355D01*
X026978Y009358D02*
X025712Y009358D01*
X025712Y009360D02*
X026981Y009360D01*
X026983Y009363D02*
X025712Y009363D01*
X025712Y009365D02*
X026986Y009365D01*
X026988Y009368D02*
X025712Y009368D01*
X025712Y009370D02*
X026990Y009370D01*
X026993Y009372D02*
X025712Y009372D01*
X025712Y009375D02*
X026995Y009375D01*
X026998Y009377D02*
X025712Y009377D01*
X025712Y009380D02*
X027000Y009380D01*
X027003Y009382D02*
X025712Y009382D01*
X025712Y009385D02*
X027005Y009385D01*
X027007Y009387D02*
X025712Y009387D01*
X025712Y009390D02*
X027010Y009390D01*
X027012Y009392D02*
X025712Y009392D01*
X025712Y009394D02*
X027015Y009394D01*
X027017Y009397D02*
X025712Y009397D01*
X025712Y009399D02*
X027020Y009399D01*
X027022Y009402D02*
X025712Y009402D01*
X025712Y009404D02*
X027025Y009404D01*
X027027Y009407D02*
X025712Y009407D01*
X025712Y009409D02*
X027029Y009409D01*
X027032Y009411D02*
X025712Y009411D01*
X025712Y009414D02*
X027034Y009414D01*
X027037Y009416D02*
X025712Y009416D01*
X025712Y009419D02*
X027039Y009419D01*
X027042Y009421D02*
X025712Y009421D01*
X025712Y009424D02*
X027044Y009424D01*
X027046Y009426D02*
X025712Y009426D01*
X025712Y009429D02*
X027049Y009429D01*
X027051Y009431D02*
X025712Y009431D01*
X025712Y009433D02*
X027054Y009433D01*
X027056Y009436D02*
X025712Y009436D01*
X025712Y009438D02*
X027059Y009438D01*
X027061Y009441D02*
X025712Y009441D01*
X025712Y009443D02*
X027064Y009443D01*
X027066Y009446D02*
X025712Y009446D01*
X025712Y009448D02*
X027068Y009448D01*
X027071Y009450D02*
X025712Y009450D01*
X025712Y009453D02*
X027073Y009453D01*
X027076Y009455D02*
X025712Y009455D01*
X025712Y009458D02*
X027078Y009458D01*
X027081Y009460D02*
X025712Y009460D01*
X025712Y009463D02*
X027083Y009463D01*
X027085Y009465D02*
X025712Y009465D01*
X025712Y009468D02*
X027088Y009468D01*
X027090Y009470D02*
X025712Y009470D01*
X025712Y009472D02*
X027093Y009472D01*
X027095Y009475D02*
X025712Y009475D01*
X025712Y009477D02*
X027098Y009477D01*
X027100Y009480D02*
X025712Y009480D01*
X025712Y009482D02*
X027103Y009482D01*
X027105Y009485D02*
X025712Y009485D01*
X025712Y009487D02*
X027107Y009487D01*
X027110Y009489D02*
X025712Y009489D01*
X025712Y009492D02*
X027112Y009492D01*
X027115Y009494D02*
X025712Y009494D01*
X025712Y009497D02*
X027117Y009497D01*
X027120Y009499D02*
X025712Y009499D01*
X025712Y009502D02*
X027122Y009502D01*
X027124Y009504D02*
X025712Y009504D01*
X025712Y009507D02*
X027127Y009507D01*
X027129Y009509D02*
X025712Y009509D01*
X025712Y009511D02*
X027132Y009511D01*
X027134Y009514D02*
X025712Y009514D01*
X025712Y009516D02*
X027137Y009516D01*
X027139Y009519D02*
X025712Y009519D01*
X025712Y009521D02*
X027142Y009521D01*
X027144Y009524D02*
X025712Y009524D01*
X025712Y009526D02*
X027146Y009526D01*
X027149Y009528D02*
X025712Y009528D01*
X025712Y009531D02*
X027151Y009531D01*
X027154Y009533D02*
X025712Y009533D01*
X025712Y009536D02*
X027156Y009536D01*
X027159Y009538D02*
X025712Y009538D01*
X025712Y009541D02*
X027161Y009541D01*
X027163Y009543D02*
X025712Y009543D01*
X025712Y009546D02*
X027166Y009546D01*
X027168Y009548D02*
X025712Y009548D01*
X025712Y009550D02*
X027171Y009550D01*
X027173Y009553D02*
X025712Y009553D01*
X025712Y009555D02*
X027176Y009555D01*
X027178Y009558D02*
X025712Y009558D01*
X025712Y009560D02*
X027181Y009560D01*
X027183Y009563D02*
X025712Y009563D01*
X025712Y009565D02*
X027185Y009565D01*
X027188Y009567D02*
X025712Y009567D01*
X025712Y009570D02*
X027190Y009570D01*
X027193Y009572D02*
X025712Y009572D01*
X025712Y009575D02*
X027195Y009575D01*
X027198Y009577D02*
X025712Y009577D01*
X025712Y009580D02*
X027200Y009580D01*
X027202Y009582D02*
X025712Y009582D01*
X025712Y009585D02*
X027205Y009585D01*
X027207Y009587D02*
X025712Y009587D01*
X025712Y009589D02*
X027210Y009589D01*
X027212Y009592D02*
X025712Y009592D01*
X025712Y009594D02*
X027215Y009594D01*
X027217Y009597D02*
X025712Y009597D01*
X025712Y009599D02*
X027219Y009599D01*
X027222Y009602D02*
X025712Y009602D01*
X025712Y009604D02*
X027224Y009604D01*
X027227Y009606D02*
X025712Y009606D01*
X025712Y009609D02*
X027229Y009609D01*
X027232Y009611D02*
X025712Y009611D01*
X025712Y009614D02*
X027234Y009614D01*
X027237Y009616D02*
X025712Y009616D01*
X025712Y009619D02*
X027239Y009619D01*
X027240Y009621D02*
X025712Y009621D01*
X025712Y009624D02*
X027240Y009624D01*
X027240Y009626D02*
X025712Y009626D01*
X025712Y009628D02*
X027240Y009628D01*
X027240Y009631D02*
X025712Y009631D01*
X025712Y009633D02*
X027240Y009633D01*
X027240Y009636D02*
X025712Y009636D01*
X025712Y009638D02*
X027240Y009638D01*
X027240Y009641D02*
X025712Y009641D01*
X025712Y009643D02*
X027240Y009643D01*
X027240Y009645D02*
X025712Y009645D01*
X025712Y009648D02*
X027240Y009648D01*
X027240Y009650D02*
X025712Y009650D01*
X025712Y009653D02*
X027240Y009653D01*
X027240Y009655D02*
X025712Y009655D01*
X025712Y009658D02*
X027240Y009658D01*
X027240Y009660D02*
X025712Y009660D01*
X025712Y009663D02*
X027240Y009663D01*
X027240Y009665D02*
X025712Y009665D01*
X025712Y009667D02*
X027240Y009667D01*
X027240Y009670D02*
X025712Y009670D01*
X025712Y009672D02*
X027240Y009672D01*
X027240Y009675D02*
X025712Y009675D01*
X025712Y009677D02*
X027240Y009677D01*
X027240Y009680D02*
X025712Y009680D01*
X025712Y009682D02*
X027240Y009682D01*
X027240Y009684D02*
X025712Y009684D01*
X025712Y009687D02*
X027240Y009687D01*
X027240Y009689D02*
X025712Y009689D01*
X025712Y009692D02*
X027240Y009692D01*
X027240Y009694D02*
X025712Y009694D01*
X025712Y009697D02*
X027240Y009697D01*
X027240Y009699D02*
X025712Y009699D01*
X025712Y009702D02*
X027240Y009702D01*
X027240Y009704D02*
X025712Y009704D01*
X025712Y009706D02*
X027240Y009706D01*
X027240Y009709D02*
X025712Y009709D01*
X025712Y009711D02*
X027240Y009711D01*
X027240Y009714D02*
X025712Y009714D01*
X025712Y009716D02*
X027240Y009716D01*
X027240Y009719D02*
X025712Y009719D01*
X025712Y009721D02*
X027240Y009721D01*
X027240Y009723D02*
X025712Y009723D01*
X025712Y009726D02*
X027240Y009726D01*
X027240Y009728D02*
X025712Y009728D01*
X025712Y009731D02*
X027240Y009731D01*
X027240Y009733D02*
X025712Y009733D01*
X025712Y009736D02*
X027240Y009736D01*
X027240Y009738D02*
X025712Y009738D01*
X025712Y009741D02*
X027240Y009741D01*
X027240Y009743D02*
X025712Y009743D01*
X025712Y009745D02*
X027240Y009745D01*
X027240Y009748D02*
X025712Y009748D01*
X025712Y009750D02*
X027240Y009750D01*
X027240Y009753D02*
X025712Y009753D01*
X025712Y009755D02*
X027240Y009755D01*
X027240Y009758D02*
X025712Y009758D01*
X025712Y009760D02*
X027240Y009760D01*
X027240Y009762D02*
X025712Y009762D01*
X025712Y009765D02*
X027240Y009765D01*
X027240Y009767D02*
X025712Y009767D01*
X025712Y009770D02*
X027240Y009770D01*
X027240Y009772D02*
X025712Y009772D01*
X025712Y009775D02*
X027240Y009775D01*
X027240Y009777D02*
X025712Y009777D01*
X025712Y009779D02*
X027240Y009779D01*
X027240Y009782D02*
X025712Y009782D01*
X025712Y009784D02*
X027240Y009784D01*
X027240Y009787D02*
X025712Y009787D01*
X025712Y009789D02*
X027240Y009789D01*
X027240Y009792D02*
X025712Y009792D01*
X025712Y009794D02*
X027240Y009794D01*
X027240Y009797D02*
X025712Y009797D01*
X025712Y009799D02*
X027240Y009799D01*
X027240Y009801D02*
X025712Y009801D01*
X025712Y009804D02*
X027240Y009804D01*
X027240Y009806D02*
X025712Y009806D01*
X025712Y009809D02*
X027240Y009809D01*
X027240Y009811D02*
X025712Y009811D01*
X025712Y009814D02*
X027240Y009814D01*
X027240Y009816D02*
X025712Y009816D01*
X025712Y009818D02*
X027240Y009818D01*
X027240Y009821D02*
X025712Y009821D01*
X025712Y009823D02*
X027240Y009823D01*
X027240Y009826D02*
X025712Y009826D01*
X025712Y009828D02*
X027240Y009828D01*
X027240Y009831D02*
X025712Y009831D01*
X025712Y009833D02*
X027240Y009833D01*
X027240Y009836D02*
X025712Y009836D01*
X025712Y009838D02*
X027240Y009838D01*
X027240Y009840D02*
X025712Y009840D01*
X025712Y009843D02*
X027240Y009843D01*
X027240Y009845D02*
X025712Y009845D01*
X025712Y009848D02*
X027240Y009848D01*
X027240Y009850D02*
X025712Y009850D01*
X025712Y009853D02*
X027240Y009853D01*
X027240Y009855D02*
X025712Y009855D01*
X025712Y009857D02*
X027240Y009857D01*
X027240Y009860D02*
X025712Y009860D01*
X025712Y009862D02*
X027240Y009862D01*
X027240Y009865D02*
X025712Y009865D01*
X025712Y009867D02*
X027240Y009867D01*
X027240Y009870D02*
X025712Y009870D01*
X025712Y009872D02*
X027240Y009872D01*
X027240Y009875D02*
X025712Y009875D01*
X025712Y009877D02*
X027240Y009877D01*
X027240Y009879D02*
X025712Y009879D01*
X025712Y009882D02*
X027240Y009882D01*
X027240Y009884D02*
X025712Y009884D01*
D20*
X023945Y010500D03*
X023355Y010500D03*
X023355Y011100D03*
X023945Y011100D03*
X024455Y011100D03*
X025045Y011100D03*
X024045Y012400D03*
X023455Y012400D03*
X025255Y015100D03*
X025845Y015100D03*
X026955Y015100D03*
X027545Y015100D03*
X027545Y015800D03*
X026955Y015800D03*
X025845Y015800D03*
X025255Y015800D03*
X029055Y015800D03*
X029645Y015800D03*
X030655Y015800D03*
X031245Y015800D03*
X031245Y015100D03*
X030655Y015100D03*
X029645Y015100D03*
X029055Y015100D03*
X029655Y013200D03*
X030245Y013200D03*
X033555Y011800D03*
X034145Y011800D03*
X034755Y011800D03*
X035345Y011800D03*
X035345Y010800D03*
X034755Y010800D03*
X034145Y010800D03*
X033555Y010800D03*
X033555Y009800D03*
X034145Y009800D03*
X034755Y009800D03*
X035345Y009800D03*
X035345Y008800D03*
X034755Y008800D03*
X034145Y008800D03*
X033555Y008800D03*
X033555Y007800D03*
X034145Y007800D03*
X034755Y007800D03*
X035345Y007800D03*
X035345Y006800D03*
X034755Y006800D03*
X034145Y006800D03*
X033555Y006800D03*
X033555Y005800D03*
X034145Y005800D03*
X034755Y005800D03*
X035345Y005800D03*
X030545Y006100D03*
X029955Y006100D03*
X029955Y006900D03*
X030545Y006900D03*
X030545Y008600D03*
X029955Y008600D03*
X029955Y009600D03*
X030545Y009600D03*
X024845Y007000D03*
X024255Y007000D03*
X026755Y005200D03*
X027345Y005200D03*
X027345Y004400D03*
X026755Y004400D03*
X029555Y003600D03*
X030145Y003600D03*
X020645Y003200D03*
X020055Y003200D03*
X017245Y003200D03*
X016655Y003200D03*
X015845Y003200D03*
X015255Y003200D03*
X012545Y003900D03*
X011955Y003900D03*
X011955Y004900D03*
X012545Y004900D03*
X012545Y006400D03*
X011955Y006400D03*
X011955Y008000D03*
X012545Y008000D03*
X012545Y008600D03*
X011955Y008600D03*
X011955Y010600D03*
X012545Y010600D03*
X012545Y011300D03*
X011955Y011300D03*
X032755Y015100D03*
X033345Y015100D03*
X033345Y015800D03*
X032755Y015800D03*
X034355Y015800D03*
X034945Y015800D03*
X034945Y015100D03*
X034355Y015100D03*
D21*
X023450Y009095D03*
X023450Y008505D03*
X024450Y006095D03*
X025150Y006095D03*
X025150Y005505D03*
X024450Y005505D03*
X023450Y005305D03*
X023450Y005895D03*
X018750Y003295D03*
X018150Y003295D03*
X018150Y002705D03*
X018750Y002705D03*
X004250Y005005D03*
X004250Y005595D03*
X004250Y006805D03*
X004250Y007395D03*
X004250Y008605D03*
X004250Y009195D03*
X004250Y010505D03*
X004250Y011095D03*
X004250Y012405D03*
X004250Y012995D03*
X015850Y014005D03*
X016450Y014005D03*
X016450Y014595D03*
X015850Y014595D03*
X017650Y014595D03*
X017650Y014005D03*
X019550Y014005D03*
X020150Y014005D03*
X020750Y014005D03*
X021650Y014005D03*
X021650Y014595D03*
X020750Y014595D03*
X020150Y014595D03*
X019550Y014595D03*
D22*
X025144Y017100D03*
X026050Y017100D03*
X026956Y017100D03*
X028844Y017100D03*
X029750Y017100D03*
X030656Y017100D03*
X032544Y017100D03*
X033450Y017100D03*
X034356Y017100D03*
D23*
X033450Y019423D03*
X029750Y019423D03*
X026050Y019423D03*
D24*
X026546Y007550D03*
X026546Y007050D03*
X026546Y006550D03*
X026546Y006050D03*
X028554Y006050D03*
X028554Y006550D03*
X028554Y007050D03*
X028554Y007550D03*
D25*
X025075Y009795D03*
X025075Y010405D03*
X024425Y010405D03*
X024425Y009795D03*
D26*
X014462Y018363D03*
X013674Y018363D03*
X012887Y018363D03*
X012100Y018363D03*
X011312Y018363D03*
X010525Y018363D03*
X009737Y018363D03*
X008950Y018363D03*
X008163Y018363D03*
X007375Y018363D03*
X006588Y018363D03*
X005800Y018363D03*
X005013Y018363D03*
X004226Y018363D03*
X003438Y018363D03*
X003438Y020037D03*
X004226Y020037D03*
X005013Y020037D03*
X005800Y020037D03*
X006588Y020037D03*
X007375Y020037D03*
X008163Y020037D03*
X008950Y020037D03*
X009737Y020037D03*
X010525Y020037D03*
X011312Y020037D03*
X012100Y020037D03*
X012887Y020037D03*
X013674Y020037D03*
X014462Y020037D03*
D27*
X014068Y019200D03*
X003832Y019200D03*
D28*
X003367Y013123D03*
X001733Y013123D03*
X001733Y012277D03*
X003367Y012277D03*
X003367Y011223D03*
X001733Y011223D03*
X001733Y010377D03*
X003367Y010377D03*
X003367Y009323D03*
X001733Y009323D03*
X001733Y008477D03*
X003367Y008477D03*
X003367Y007523D03*
X001733Y007523D03*
X001733Y006677D03*
X003367Y006677D03*
X003367Y005723D03*
X001733Y005723D03*
X001733Y004877D03*
X003367Y004877D03*
D29*
X037400Y005800D03*
X037400Y006800D03*
X037400Y007800D03*
X037400Y008800D03*
X037400Y009800D03*
X037400Y010800D03*
X037400Y011800D03*
X040100Y011800D03*
X040100Y010800D03*
X040100Y009800D03*
X040100Y008800D03*
X040100Y007800D03*
X040100Y006800D03*
X040100Y005800D03*
D30*
X034413Y013450D03*
X032287Y013450D03*
D31*
X032450Y011550D03*
X031450Y011550D03*
X030450Y011550D03*
X009050Y011900D03*
X008050Y011900D03*
X008050Y010900D03*
X009050Y010900D03*
X009050Y009900D03*
X008050Y009900D03*
X008050Y008900D03*
X009050Y008900D03*
X009050Y007900D03*
X008050Y007900D03*
X008050Y006900D03*
X009050Y006900D03*
X009050Y005900D03*
X008050Y005900D03*
X008050Y004900D03*
X009050Y004900D03*
X009050Y003900D03*
X008050Y003900D03*
X008050Y012900D03*
X009050Y012900D03*
D32*
X028058Y005200D03*
X029042Y005200D03*
X029042Y004400D03*
X028058Y004400D03*
D33*
X040750Y004700D03*
X001450Y018600D03*
D34*
X021950Y004700D03*
D35*
X037048Y015261D02*
X038053Y015261D01*
X038053Y016820D02*
X037048Y016820D01*
X037048Y018380D02*
X038053Y018380D01*
D36*
X022419Y019000D03*
X021631Y019000D03*
X020844Y019000D03*
X020056Y019000D03*
X019269Y019000D03*
X018481Y019000D03*
D37*
X017537Y019945D03*
X023363Y019945D03*
D38*
X031185Y005070D02*
X031343Y005070D01*
X031343Y004767D01*
X031340Y004747D01*
X031188Y004747D01*
X031196Y004728D01*
X031332Y004728D01*
X031340Y004747D01*
X031341Y004753D02*
X031187Y004753D01*
X031188Y004747D02*
X031185Y004767D01*
X031185Y005070D01*
X031185Y005066D02*
X031343Y005066D01*
X031343Y005059D02*
X031185Y005059D01*
X031185Y005053D02*
X031343Y005053D01*
X031343Y005046D02*
X031185Y005046D01*
X031185Y005040D02*
X031343Y005040D01*
X031343Y005034D02*
X031185Y005034D01*
X031185Y005027D02*
X031343Y005027D01*
X031343Y005021D02*
X031185Y005021D01*
X031185Y005015D02*
X031343Y005015D01*
X031343Y005008D02*
X031185Y005008D01*
X031185Y005002D02*
X031343Y005002D01*
X031343Y004995D02*
X031185Y004995D01*
X031185Y004989D02*
X031343Y004989D01*
X031343Y004983D02*
X031185Y004983D01*
X031185Y004976D02*
X031343Y004976D01*
X031343Y004970D02*
X031185Y004970D01*
X031185Y004964D02*
X031343Y004964D01*
X031343Y004957D02*
X031185Y004957D01*
X031185Y004951D02*
X031343Y004951D01*
X031343Y004944D02*
X031185Y004944D01*
X031185Y004938D02*
X031343Y004938D01*
X031343Y004932D02*
X031185Y004932D01*
X031185Y004925D02*
X031343Y004925D01*
X031343Y004919D02*
X031185Y004919D01*
X031185Y004913D02*
X031343Y004913D01*
X031343Y004906D02*
X031185Y004906D01*
X031185Y004900D02*
X031343Y004900D01*
X031343Y004894D02*
X031185Y004894D01*
X031185Y004887D02*
X031343Y004887D01*
X031343Y004881D02*
X031185Y004881D01*
X031185Y004874D02*
X031343Y004874D01*
X031343Y004868D02*
X031185Y004868D01*
X031185Y004862D02*
X031343Y004862D01*
X031343Y004855D02*
X031185Y004855D01*
X031185Y004849D02*
X031343Y004849D01*
X031343Y004843D02*
X031185Y004843D01*
X031185Y004836D02*
X031343Y004836D01*
X031343Y004830D02*
X031185Y004830D01*
X031185Y004823D02*
X031343Y004823D01*
X031343Y004817D02*
X031185Y004817D01*
X031185Y004811D02*
X031343Y004811D01*
X031343Y004804D02*
X031185Y004804D01*
X031185Y004798D02*
X031343Y004798D01*
X031343Y004792D02*
X031185Y004792D01*
X031185Y004785D02*
X031343Y004785D01*
X031343Y004779D02*
X031185Y004779D01*
X031185Y004772D02*
X031343Y004772D01*
X031343Y004766D02*
X031186Y004766D01*
X031186Y004760D02*
X031342Y004760D01*
X031338Y004741D02*
X031191Y004741D01*
X031193Y004734D02*
X031335Y004734D01*
X031332Y004728D02*
X031320Y004711D01*
X031304Y004699D01*
X031285Y004691D01*
X031264Y004688D01*
X031244Y004691D01*
X031225Y004699D01*
X031208Y004711D01*
X031196Y004728D01*
X031201Y004721D02*
X031328Y004721D01*
X031323Y004715D02*
X031206Y004715D01*
X031212Y004709D02*
X031316Y004709D01*
X031308Y004702D02*
X031220Y004702D01*
X031232Y004696D02*
X031297Y004696D01*
X031274Y004690D02*
X031254Y004690D01*
X031329Y004627D02*
X031329Y004377D01*
X030886Y004377D01*
X030886Y004239D01*
X031172Y004239D01*
X031172Y004161D01*
X030886Y004161D01*
X030886Y004023D01*
X031329Y004023D01*
X031329Y003773D01*
X032156Y003773D01*
X032156Y004627D01*
X031329Y004627D01*
X031329Y004626D02*
X032156Y004626D01*
X032156Y004619D02*
X031329Y004619D01*
X031329Y004613D02*
X032156Y004613D01*
X032156Y004607D02*
X031329Y004607D01*
X031329Y004600D02*
X032156Y004600D01*
X032156Y004594D02*
X031329Y004594D01*
X031329Y004588D02*
X032156Y004588D01*
X032156Y004581D02*
X031329Y004581D01*
X031329Y004575D02*
X032156Y004575D01*
X032156Y004568D02*
X031329Y004568D01*
X031329Y004562D02*
X032156Y004562D01*
X032156Y004556D02*
X031329Y004556D01*
X031329Y004549D02*
X032156Y004549D01*
X032156Y004543D02*
X031329Y004543D01*
X031329Y004537D02*
X032156Y004537D01*
X032156Y004530D02*
X031329Y004530D01*
X031329Y004524D02*
X032156Y004524D01*
X032156Y004517D02*
X031329Y004517D01*
X031329Y004511D02*
X032156Y004511D01*
X032156Y004505D02*
X031329Y004505D01*
X031329Y004498D02*
X032156Y004498D01*
X032156Y004492D02*
X031329Y004492D01*
X031329Y004486D02*
X032156Y004486D01*
X032156Y004479D02*
X031329Y004479D01*
X031329Y004473D02*
X032156Y004473D01*
X032156Y004466D02*
X031329Y004466D01*
X031329Y004460D02*
X032156Y004460D01*
X032156Y004454D02*
X031329Y004454D01*
X031329Y004447D02*
X032156Y004447D01*
X032156Y004441D02*
X031329Y004441D01*
X031329Y004435D02*
X032156Y004435D01*
X032156Y004428D02*
X031329Y004428D01*
X031329Y004422D02*
X032156Y004422D01*
X032156Y004415D02*
X031329Y004415D01*
X031329Y004409D02*
X032156Y004409D01*
X032156Y004403D02*
X031329Y004403D01*
X031329Y004396D02*
X032156Y004396D01*
X032156Y004390D02*
X031329Y004390D01*
X031329Y004384D02*
X032156Y004384D01*
X032156Y004377D02*
X031329Y004377D01*
X031246Y004441D02*
X030886Y004441D01*
X030886Y004447D02*
X031251Y004447D01*
X031256Y004454D02*
X030886Y004454D01*
X030886Y004460D02*
X031259Y004460D01*
X031258Y004456D02*
X031265Y004475D01*
X031268Y004495D01*
X031265Y004516D01*
X031258Y004535D01*
X031245Y004551D01*
X031229Y004563D01*
X031210Y004571D01*
X031189Y004574D01*
X030886Y004574D01*
X030886Y004417D01*
X031189Y004417D01*
X031210Y004419D01*
X031229Y004427D01*
X031245Y004440D01*
X031258Y004456D01*
X031262Y004466D02*
X030886Y004466D01*
X030886Y004473D02*
X031265Y004473D01*
X031266Y004479D02*
X030886Y004479D01*
X030886Y004486D02*
X031267Y004486D01*
X031268Y004492D02*
X030886Y004492D01*
X030886Y004498D02*
X031268Y004498D01*
X031267Y004505D02*
X030886Y004505D01*
X030886Y004511D02*
X031266Y004511D01*
X031265Y004517D02*
X030886Y004517D01*
X030886Y004524D02*
X031262Y004524D01*
X031259Y004530D02*
X030886Y004530D01*
X030886Y004537D02*
X031256Y004537D01*
X031251Y004543D02*
X030886Y004543D01*
X030886Y004549D02*
X031246Y004549D01*
X031239Y004556D02*
X030886Y004556D01*
X030886Y004562D02*
X031231Y004562D01*
X031217Y004568D02*
X030886Y004568D01*
X030886Y004435D02*
X031238Y004435D01*
X031230Y004428D02*
X030886Y004428D01*
X030886Y004422D02*
X031216Y004422D01*
X031172Y004237D02*
X032156Y004237D01*
X032156Y004243D02*
X030886Y004243D01*
X030886Y004250D02*
X032156Y004250D01*
X032156Y004256D02*
X030886Y004256D01*
X030886Y004262D02*
X032156Y004262D01*
X032156Y004269D02*
X030886Y004269D01*
X030886Y004275D02*
X032156Y004275D01*
X032156Y004282D02*
X030886Y004282D01*
X030886Y004288D02*
X032156Y004288D01*
X032156Y004294D02*
X030886Y004294D01*
X030886Y004301D02*
X032156Y004301D01*
X032156Y004307D02*
X030886Y004307D01*
X030886Y004313D02*
X032156Y004313D01*
X032156Y004320D02*
X030886Y004320D01*
X030886Y004326D02*
X032156Y004326D01*
X032156Y004333D02*
X030886Y004333D01*
X030886Y004339D02*
X032156Y004339D01*
X032156Y004345D02*
X030886Y004345D01*
X030886Y004352D02*
X032156Y004352D01*
X032156Y004358D02*
X030886Y004358D01*
X030886Y004364D02*
X032156Y004364D01*
X032156Y004371D02*
X030886Y004371D01*
X030886Y004160D02*
X032156Y004160D01*
X032156Y004154D02*
X030886Y004154D01*
X030886Y004148D02*
X032156Y004148D01*
X032156Y004141D02*
X030886Y004141D01*
X030886Y004135D02*
X032156Y004135D01*
X032156Y004129D02*
X030886Y004129D01*
X030886Y004122D02*
X032156Y004122D01*
X032156Y004116D02*
X030886Y004116D01*
X030886Y004109D02*
X032156Y004109D01*
X032156Y004103D02*
X030886Y004103D01*
X030886Y004097D02*
X032156Y004097D01*
X032156Y004090D02*
X030886Y004090D01*
X030886Y004084D02*
X032156Y004084D01*
X032156Y004078D02*
X030886Y004078D01*
X030886Y004071D02*
X032156Y004071D01*
X032156Y004065D02*
X030886Y004065D01*
X030886Y004058D02*
X032156Y004058D01*
X032156Y004052D02*
X030886Y004052D01*
X030886Y004046D02*
X032156Y004046D01*
X032156Y004039D02*
X030886Y004039D01*
X030886Y004033D02*
X032156Y004033D01*
X032156Y004027D02*
X030886Y004027D01*
X030886Y003983D02*
X030886Y003826D01*
X031189Y003826D01*
X031210Y003829D01*
X031229Y003837D01*
X031245Y003849D01*
X031258Y003865D01*
X031265Y003884D01*
X031268Y003905D01*
X031265Y003925D01*
X031258Y003944D01*
X030886Y003944D01*
X030886Y003950D02*
X031253Y003950D01*
X031258Y003944D02*
X031245Y003960D01*
X031229Y003973D01*
X031210Y003981D01*
X031189Y003983D01*
X030886Y003983D01*
X030886Y003982D02*
X031201Y003982D01*
X031222Y003976D02*
X030886Y003976D01*
X030886Y003969D02*
X031234Y003969D01*
X031242Y003963D02*
X030886Y003963D01*
X030886Y003956D02*
X031248Y003956D01*
X031260Y003937D02*
X030886Y003937D01*
X030886Y003931D02*
X031263Y003931D01*
X031265Y003925D02*
X030886Y003925D01*
X030886Y003918D02*
X031266Y003918D01*
X031267Y003912D02*
X030886Y003912D01*
X030886Y003905D02*
X031268Y003905D01*
X031267Y003899D02*
X030886Y003899D01*
X030886Y003893D02*
X031267Y003893D01*
X031266Y003886D02*
X030886Y003886D01*
X030886Y003880D02*
X031264Y003880D01*
X031261Y003874D02*
X030886Y003874D01*
X030886Y003867D02*
X031258Y003867D01*
X031254Y003861D02*
X030886Y003861D01*
X030886Y003855D02*
X031249Y003855D01*
X031244Y003848D02*
X030886Y003848D01*
X030886Y003842D02*
X031236Y003842D01*
X031226Y003835D02*
X030886Y003835D01*
X030886Y003829D02*
X031211Y003829D01*
X031329Y003829D02*
X032156Y003829D01*
X032156Y003823D02*
X031329Y003823D01*
X031329Y003816D02*
X032156Y003816D01*
X032156Y003810D02*
X031329Y003810D01*
X031329Y003804D02*
X032156Y003804D01*
X032156Y003797D02*
X031329Y003797D01*
X031329Y003791D02*
X032156Y003791D01*
X032156Y003784D02*
X031329Y003784D01*
X031329Y003778D02*
X032156Y003778D01*
X032144Y003778D02*
X032971Y003778D01*
X032971Y003773D02*
X032144Y003773D01*
X032144Y004627D01*
X032971Y004627D01*
X032971Y004377D01*
X033414Y004377D01*
X033414Y004239D01*
X033128Y004239D01*
X033128Y004161D01*
X033414Y004161D01*
X033414Y004023D01*
X032971Y004023D01*
X032971Y003773D01*
X032971Y003784D02*
X032144Y003784D01*
X032144Y003791D02*
X032971Y003791D01*
X032971Y003797D02*
X032144Y003797D01*
X032144Y003804D02*
X032971Y003804D01*
X032971Y003810D02*
X032144Y003810D01*
X032144Y003816D02*
X032971Y003816D01*
X032971Y003823D02*
X032144Y003823D01*
X032144Y003829D02*
X032971Y003829D01*
X032971Y003835D02*
X032144Y003835D01*
X032144Y003842D02*
X032971Y003842D01*
X032971Y003848D02*
X032144Y003848D01*
X032144Y003855D02*
X032971Y003855D01*
X032971Y003861D02*
X032144Y003861D01*
X032144Y003867D02*
X032971Y003867D01*
X032971Y003874D02*
X032144Y003874D01*
X032144Y003880D02*
X032971Y003880D01*
X032971Y003886D02*
X032144Y003886D01*
X032144Y003893D02*
X032971Y003893D01*
X032971Y003899D02*
X032144Y003899D01*
X032144Y003905D02*
X032971Y003905D01*
X032971Y003912D02*
X032144Y003912D01*
X032144Y003918D02*
X032971Y003918D01*
X032971Y003925D02*
X032144Y003925D01*
X032144Y003931D02*
X032971Y003931D01*
X032971Y003937D02*
X032144Y003937D01*
X032144Y003944D02*
X032971Y003944D01*
X032971Y003950D02*
X032144Y003950D01*
X032144Y003956D02*
X032971Y003956D01*
X032971Y003963D02*
X032144Y003963D01*
X032144Y003969D02*
X032971Y003969D01*
X032971Y003976D02*
X032144Y003976D01*
X032144Y003982D02*
X032971Y003982D01*
X032971Y003988D02*
X032144Y003988D01*
X032144Y003995D02*
X032971Y003995D01*
X032971Y004001D02*
X032144Y004001D01*
X032144Y004007D02*
X032971Y004007D01*
X032971Y004014D02*
X032144Y004014D01*
X032144Y004020D02*
X032971Y004020D01*
X033052Y003956D02*
X033414Y003956D01*
X033414Y003950D02*
X033047Y003950D01*
X033042Y003944D02*
X033035Y003925D01*
X033032Y003905D01*
X033035Y003884D01*
X033042Y003865D01*
X033055Y003849D01*
X033071Y003837D01*
X033090Y003829D01*
X033111Y003826D01*
X033414Y003826D01*
X033414Y003983D01*
X033111Y003983D01*
X033090Y003981D01*
X033071Y003973D01*
X033055Y003960D01*
X033042Y003944D01*
X033414Y003944D01*
X033414Y003937D02*
X033040Y003937D01*
X033037Y003931D02*
X033414Y003931D01*
X033414Y003925D02*
X033035Y003925D01*
X033034Y003918D02*
X033414Y003918D01*
X033414Y003912D02*
X033033Y003912D01*
X033032Y003905D02*
X033414Y003905D01*
X033414Y003899D02*
X033033Y003899D01*
X033033Y003893D02*
X033414Y003893D01*
X033414Y003886D02*
X033034Y003886D01*
X033036Y003880D02*
X033414Y003880D01*
X033414Y003874D02*
X033039Y003874D01*
X033042Y003867D02*
X033414Y003867D01*
X033414Y003861D02*
X033046Y003861D01*
X033051Y003855D02*
X033414Y003855D01*
X033414Y003848D02*
X033056Y003848D01*
X033064Y003842D02*
X033414Y003842D01*
X033414Y003835D02*
X033074Y003835D01*
X033089Y003829D02*
X033414Y003829D01*
X033414Y003963D02*
X033058Y003963D01*
X033066Y003969D02*
X033414Y003969D01*
X033414Y003976D02*
X033078Y003976D01*
X033099Y003982D02*
X033414Y003982D01*
X033414Y004027D02*
X032144Y004027D01*
X032144Y004033D02*
X033414Y004033D01*
X033414Y004039D02*
X032144Y004039D01*
X032144Y004046D02*
X033414Y004046D01*
X033414Y004052D02*
X032144Y004052D01*
X032144Y004058D02*
X033414Y004058D01*
X033414Y004065D02*
X032144Y004065D01*
X032144Y004071D02*
X033414Y004071D01*
X033414Y004078D02*
X032144Y004078D01*
X032144Y004084D02*
X033414Y004084D01*
X033414Y004090D02*
X032144Y004090D01*
X032144Y004097D02*
X033414Y004097D01*
X033414Y004103D02*
X032144Y004103D01*
X032144Y004109D02*
X033414Y004109D01*
X033414Y004116D02*
X032144Y004116D01*
X032144Y004122D02*
X033414Y004122D01*
X033414Y004129D02*
X032144Y004129D01*
X032144Y004135D02*
X033414Y004135D01*
X033414Y004141D02*
X032144Y004141D01*
X032144Y004148D02*
X033414Y004148D01*
X033414Y004154D02*
X032144Y004154D01*
X032144Y004160D02*
X033414Y004160D01*
X033414Y004243D02*
X032144Y004243D01*
X032144Y004237D02*
X033128Y004237D01*
X033128Y004231D02*
X032144Y004231D01*
X032144Y004224D02*
X033128Y004224D01*
X033128Y004218D02*
X032144Y004218D01*
X032144Y004211D02*
X033128Y004211D01*
X033128Y004205D02*
X032144Y004205D01*
X032144Y004199D02*
X033128Y004199D01*
X033128Y004192D02*
X032144Y004192D01*
X032144Y004186D02*
X033128Y004186D01*
X033128Y004180D02*
X032144Y004180D01*
X032144Y004173D02*
X033128Y004173D01*
X033128Y004167D02*
X032144Y004167D01*
X032156Y004167D02*
X031172Y004167D01*
X031172Y004173D02*
X032156Y004173D01*
X032156Y004180D02*
X031172Y004180D01*
X031172Y004186D02*
X032156Y004186D01*
X032156Y004192D02*
X031172Y004192D01*
X031172Y004199D02*
X032156Y004199D01*
X032156Y004205D02*
X031172Y004205D01*
X031172Y004211D02*
X032156Y004211D01*
X032156Y004218D02*
X031172Y004218D01*
X031172Y004224D02*
X032156Y004224D01*
X032156Y004231D02*
X031172Y004231D01*
X031329Y004020D02*
X032156Y004020D01*
X032156Y004014D02*
X031329Y004014D01*
X031329Y004007D02*
X032156Y004007D01*
X032156Y004001D02*
X031329Y004001D01*
X031329Y003995D02*
X032156Y003995D01*
X032156Y003988D02*
X031329Y003988D01*
X031329Y003982D02*
X032156Y003982D01*
X032156Y003976D02*
X031329Y003976D01*
X031329Y003969D02*
X032156Y003969D01*
X032156Y003963D02*
X031329Y003963D01*
X031329Y003956D02*
X032156Y003956D01*
X032156Y003950D02*
X031329Y003950D01*
X031329Y003944D02*
X032156Y003944D01*
X032156Y003937D02*
X031329Y003937D01*
X031329Y003931D02*
X032156Y003931D01*
X032156Y003925D02*
X031329Y003925D01*
X031329Y003918D02*
X032156Y003918D01*
X032156Y003912D02*
X031329Y003912D01*
X031329Y003905D02*
X032156Y003905D01*
X032156Y003899D02*
X031329Y003899D01*
X031329Y003893D02*
X032156Y003893D01*
X032156Y003886D02*
X031329Y003886D01*
X031329Y003880D02*
X032156Y003880D01*
X032156Y003874D02*
X031329Y003874D01*
X031329Y003867D02*
X032156Y003867D01*
X032156Y003861D02*
X031329Y003861D01*
X031329Y003855D02*
X032156Y003855D01*
X032156Y003848D02*
X031329Y003848D01*
X031329Y003842D02*
X032156Y003842D01*
X032156Y003835D02*
X031329Y003835D01*
X031285Y003709D02*
X031264Y003712D01*
X031244Y003709D01*
X031225Y003701D01*
X031208Y003689D01*
X031196Y003672D01*
X031188Y003653D01*
X031185Y003633D01*
X031185Y003330D01*
X031343Y003330D01*
X031343Y003633D01*
X031340Y003653D01*
X031332Y003672D01*
X031320Y003689D01*
X031209Y003689D01*
X031204Y003682D02*
X031325Y003682D01*
X031330Y003676D02*
X031199Y003676D01*
X031195Y003670D02*
X031334Y003670D01*
X031336Y003663D02*
X031192Y003663D01*
X031190Y003657D02*
X031339Y003657D01*
X031341Y003651D02*
X031188Y003651D01*
X031187Y003644D02*
X031341Y003644D01*
X031342Y003638D02*
X031186Y003638D01*
X031185Y003631D02*
X031343Y003631D01*
X031343Y003625D02*
X031185Y003625D01*
X031185Y003619D02*
X031343Y003619D01*
X031343Y003612D02*
X031185Y003612D01*
X031185Y003606D02*
X031343Y003606D01*
X031343Y003600D02*
X031185Y003600D01*
X031185Y003593D02*
X031343Y003593D01*
X031343Y003587D02*
X031185Y003587D01*
X031185Y003580D02*
X031343Y003580D01*
X031343Y003574D02*
X031185Y003574D01*
X031185Y003568D02*
X031343Y003568D01*
X031343Y003561D02*
X031185Y003561D01*
X031185Y003555D02*
X031343Y003555D01*
X031343Y003549D02*
X031185Y003549D01*
X031185Y003542D02*
X031343Y003542D01*
X031343Y003536D02*
X031185Y003536D01*
X031185Y003529D02*
X031343Y003529D01*
X031343Y003523D02*
X031185Y003523D01*
X031185Y003517D02*
X031343Y003517D01*
X031343Y003510D02*
X031185Y003510D01*
X031185Y003504D02*
X031343Y003504D01*
X031343Y003498D02*
X031185Y003498D01*
X031185Y003491D02*
X031343Y003491D01*
X031343Y003485D02*
X031185Y003485D01*
X031185Y003478D02*
X031343Y003478D01*
X031343Y003472D02*
X031185Y003472D01*
X031185Y003466D02*
X031343Y003466D01*
X031343Y003459D02*
X031185Y003459D01*
X031185Y003453D02*
X031343Y003453D01*
X031343Y003447D02*
X031185Y003447D01*
X031185Y003440D02*
X031343Y003440D01*
X031343Y003434D02*
X031185Y003434D01*
X031185Y003427D02*
X031343Y003427D01*
X031343Y003421D02*
X031185Y003421D01*
X031185Y003415D02*
X031343Y003415D01*
X031343Y003408D02*
X031185Y003408D01*
X031185Y003402D02*
X031343Y003402D01*
X031343Y003396D02*
X031185Y003396D01*
X031185Y003389D02*
X031343Y003389D01*
X031343Y003383D02*
X031185Y003383D01*
X031185Y003376D02*
X031343Y003376D01*
X031343Y003370D02*
X031185Y003370D01*
X031185Y003364D02*
X031343Y003364D01*
X031343Y003357D02*
X031185Y003357D01*
X031185Y003351D02*
X031343Y003351D01*
X031343Y003345D02*
X031185Y003345D01*
X031185Y003338D02*
X031343Y003338D01*
X031343Y003332D02*
X031185Y003332D01*
X031382Y003332D02*
X031540Y003332D01*
X031540Y003330D02*
X031382Y003330D01*
X031382Y003633D01*
X031385Y003653D01*
X031393Y003672D01*
X031405Y003689D01*
X031422Y003701D01*
X031441Y003709D01*
X031461Y003712D01*
X031481Y003709D01*
X031500Y003701D01*
X031517Y003689D01*
X031529Y003672D01*
X031537Y003653D01*
X031540Y003633D01*
X031540Y003330D01*
X031540Y003338D02*
X031382Y003338D01*
X031382Y003345D02*
X031540Y003345D01*
X031540Y003351D02*
X031382Y003351D01*
X031382Y003357D02*
X031540Y003357D01*
X031540Y003364D02*
X031382Y003364D01*
X031382Y003370D02*
X031540Y003370D01*
X031540Y003376D02*
X031382Y003376D01*
X031382Y003383D02*
X031540Y003383D01*
X031540Y003389D02*
X031382Y003389D01*
X031382Y003396D02*
X031540Y003396D01*
X031540Y003402D02*
X031382Y003402D01*
X031382Y003408D02*
X031540Y003408D01*
X031540Y003415D02*
X031382Y003415D01*
X031382Y003421D02*
X031540Y003421D01*
X031540Y003427D02*
X031382Y003427D01*
X031382Y003434D02*
X031540Y003434D01*
X031540Y003440D02*
X031382Y003440D01*
X031382Y003447D02*
X031540Y003447D01*
X031540Y003453D02*
X031382Y003453D01*
X031382Y003459D02*
X031540Y003459D01*
X031540Y003466D02*
X031382Y003466D01*
X031382Y003472D02*
X031540Y003472D01*
X031540Y003478D02*
X031382Y003478D01*
X031382Y003485D02*
X031540Y003485D01*
X031540Y003491D02*
X031382Y003491D01*
X031382Y003498D02*
X031540Y003498D01*
X031540Y003504D02*
X031382Y003504D01*
X031382Y003510D02*
X031540Y003510D01*
X031540Y003517D02*
X031382Y003517D01*
X031382Y003523D02*
X031540Y003523D01*
X031540Y003529D02*
X031382Y003529D01*
X031382Y003536D02*
X031540Y003536D01*
X031540Y003542D02*
X031382Y003542D01*
X031382Y003549D02*
X031540Y003549D01*
X031540Y003555D02*
X031382Y003555D01*
X031382Y003561D02*
X031540Y003561D01*
X031540Y003568D02*
X031382Y003568D01*
X031382Y003574D02*
X031540Y003574D01*
X031540Y003580D02*
X031382Y003580D01*
X031382Y003587D02*
X031540Y003587D01*
X031540Y003593D02*
X031382Y003593D01*
X031382Y003600D02*
X031540Y003600D01*
X031540Y003606D02*
X031382Y003606D01*
X031382Y003612D02*
X031540Y003612D01*
X031540Y003619D02*
X031382Y003619D01*
X031382Y003625D02*
X031540Y003625D01*
X031540Y003631D02*
X031382Y003631D01*
X031383Y003638D02*
X031539Y003638D01*
X031538Y003644D02*
X031384Y003644D01*
X031385Y003651D02*
X031537Y003651D01*
X031536Y003657D02*
X031386Y003657D01*
X031389Y003663D02*
X031533Y003663D01*
X031530Y003670D02*
X031392Y003670D01*
X031396Y003676D02*
X031526Y003676D01*
X031522Y003682D02*
X031400Y003682D01*
X031405Y003689D02*
X031517Y003689D01*
X031508Y003695D02*
X031414Y003695D01*
X031422Y003702D02*
X031500Y003702D01*
X031484Y003708D02*
X031438Y003708D01*
X031320Y003689D02*
X031304Y003701D01*
X031285Y003709D01*
X031288Y003708D02*
X031241Y003708D01*
X031225Y003702D02*
X031303Y003702D01*
X031312Y003695D02*
X031217Y003695D01*
X031581Y003644D02*
X031735Y003644D01*
X031736Y003638D02*
X031580Y003638D01*
X031579Y003633D02*
X031579Y003330D01*
X031737Y003330D01*
X031737Y003633D01*
X031734Y003653D01*
X031726Y003672D01*
X031714Y003689D01*
X031697Y003701D01*
X031678Y003709D01*
X031658Y003712D01*
X031637Y003709D01*
X031619Y003701D01*
X031619Y003702D02*
X031697Y003702D01*
X031705Y003695D02*
X031611Y003695D01*
X031619Y003701D02*
X031602Y003689D01*
X031590Y003672D01*
X031582Y003653D01*
X031579Y003633D01*
X031579Y003631D02*
X031737Y003631D01*
X031737Y003625D02*
X031579Y003625D01*
X031579Y003619D02*
X031737Y003619D01*
X031737Y003612D02*
X031579Y003612D01*
X031579Y003606D02*
X031737Y003606D01*
X031737Y003600D02*
X031579Y003600D01*
X031579Y003593D02*
X031737Y003593D01*
X031737Y003587D02*
X031579Y003587D01*
X031579Y003580D02*
X031737Y003580D01*
X031737Y003574D02*
X031579Y003574D01*
X031579Y003568D02*
X031737Y003568D01*
X031737Y003561D02*
X031579Y003561D01*
X031579Y003555D02*
X031737Y003555D01*
X031737Y003549D02*
X031579Y003549D01*
X031579Y003542D02*
X031737Y003542D01*
X031737Y003536D02*
X031579Y003536D01*
X031579Y003529D02*
X031737Y003529D01*
X031737Y003523D02*
X031579Y003523D01*
X031579Y003517D02*
X031737Y003517D01*
X031737Y003510D02*
X031579Y003510D01*
X031579Y003504D02*
X031737Y003504D01*
X031737Y003498D02*
X031579Y003498D01*
X031579Y003491D02*
X031737Y003491D01*
X031737Y003485D02*
X031579Y003485D01*
X031579Y003478D02*
X031737Y003478D01*
X031737Y003472D02*
X031579Y003472D01*
X031579Y003466D02*
X031737Y003466D01*
X031737Y003459D02*
X031579Y003459D01*
X031579Y003453D02*
X031737Y003453D01*
X031737Y003447D02*
X031579Y003447D01*
X031579Y003440D02*
X031737Y003440D01*
X031737Y003434D02*
X031579Y003434D01*
X031579Y003427D02*
X031737Y003427D01*
X031737Y003421D02*
X031579Y003421D01*
X031579Y003415D02*
X031737Y003415D01*
X031737Y003408D02*
X031579Y003408D01*
X031579Y003402D02*
X031737Y003402D01*
X031737Y003396D02*
X031579Y003396D01*
X031579Y003389D02*
X031737Y003389D01*
X031737Y003383D02*
X031579Y003383D01*
X031579Y003376D02*
X031737Y003376D01*
X031737Y003370D02*
X031579Y003370D01*
X031579Y003364D02*
X031737Y003364D01*
X031737Y003357D02*
X031579Y003357D01*
X031579Y003351D02*
X031737Y003351D01*
X031737Y003345D02*
X031579Y003345D01*
X031579Y003338D02*
X031737Y003338D01*
X031737Y003332D02*
X031579Y003332D01*
X031776Y003332D02*
X031933Y003332D01*
X031933Y003330D02*
X031776Y003330D01*
X031776Y003633D01*
X031779Y003653D01*
X031787Y003672D01*
X031799Y003689D01*
X031910Y003689D01*
X031894Y003701D01*
X031875Y003709D01*
X031855Y003712D01*
X031834Y003709D01*
X031815Y003701D01*
X031799Y003689D01*
X031794Y003682D02*
X031915Y003682D01*
X031920Y003676D02*
X031789Y003676D01*
X031785Y003670D02*
X031924Y003670D01*
X031923Y003672D02*
X031910Y003689D01*
X031902Y003695D02*
X031807Y003695D01*
X031816Y003702D02*
X031893Y003702D01*
X031878Y003708D02*
X031831Y003708D01*
X031783Y003663D02*
X031927Y003663D01*
X031929Y003657D02*
X031780Y003657D01*
X031778Y003651D02*
X031931Y003651D01*
X031931Y003653D02*
X031923Y003672D01*
X031931Y003653D02*
X031933Y003633D01*
X031933Y003330D01*
X031933Y003338D02*
X031776Y003338D01*
X031776Y003345D02*
X031933Y003345D01*
X031933Y003351D02*
X031776Y003351D01*
X031776Y003357D02*
X031933Y003357D01*
X031933Y003364D02*
X031776Y003364D01*
X031776Y003370D02*
X031933Y003370D01*
X031933Y003376D02*
X031776Y003376D01*
X031776Y003383D02*
X031933Y003383D01*
X031933Y003389D02*
X031776Y003389D01*
X031776Y003396D02*
X031933Y003396D01*
X031933Y003402D02*
X031776Y003402D01*
X031776Y003408D02*
X031933Y003408D01*
X031933Y003415D02*
X031776Y003415D01*
X031776Y003421D02*
X031933Y003421D01*
X031933Y003427D02*
X031776Y003427D01*
X031776Y003434D02*
X031933Y003434D01*
X031933Y003440D02*
X031776Y003440D01*
X031776Y003447D02*
X031933Y003447D01*
X031933Y003453D02*
X031776Y003453D01*
X031776Y003459D02*
X031933Y003459D01*
X031933Y003466D02*
X031776Y003466D01*
X031776Y003472D02*
X031933Y003472D01*
X031933Y003478D02*
X031776Y003478D01*
X031776Y003485D02*
X031933Y003485D01*
X031933Y003491D02*
X031776Y003491D01*
X031776Y003498D02*
X031933Y003498D01*
X031933Y003504D02*
X031776Y003504D01*
X031776Y003510D02*
X031933Y003510D01*
X031933Y003517D02*
X031776Y003517D01*
X031776Y003523D02*
X031933Y003523D01*
X031933Y003529D02*
X031776Y003529D01*
X031776Y003536D02*
X031933Y003536D01*
X031933Y003542D02*
X031776Y003542D01*
X031776Y003549D02*
X031933Y003549D01*
X031933Y003555D02*
X031776Y003555D01*
X031776Y003561D02*
X031933Y003561D01*
X031933Y003568D02*
X031776Y003568D01*
X031776Y003574D02*
X031933Y003574D01*
X031933Y003580D02*
X031776Y003580D01*
X031776Y003587D02*
X031933Y003587D01*
X031933Y003593D02*
X031776Y003593D01*
X031776Y003600D02*
X031933Y003600D01*
X031933Y003606D02*
X031776Y003606D01*
X031776Y003612D02*
X031933Y003612D01*
X031933Y003619D02*
X031776Y003619D01*
X031776Y003625D02*
X031933Y003625D01*
X031933Y003631D02*
X031776Y003631D01*
X031777Y003638D02*
X031933Y003638D01*
X031932Y003644D02*
X031777Y003644D01*
X031734Y003651D02*
X031581Y003651D01*
X031583Y003657D02*
X031733Y003657D01*
X031730Y003663D02*
X031586Y003663D01*
X031589Y003670D02*
X031727Y003670D01*
X031723Y003676D02*
X031592Y003676D01*
X031597Y003682D02*
X031718Y003682D01*
X031714Y003689D02*
X031602Y003689D01*
X031635Y003708D02*
X031681Y003708D01*
X031976Y003653D02*
X031973Y003633D01*
X031973Y003330D01*
X032130Y003330D01*
X032130Y003633D01*
X032128Y003653D01*
X032120Y003672D01*
X032107Y003689D01*
X031996Y003689D01*
X031983Y003672D01*
X031976Y003653D01*
X031975Y003651D02*
X032128Y003651D01*
X032126Y003657D02*
X031977Y003657D01*
X031980Y003663D02*
X032124Y003663D01*
X032121Y003670D02*
X031982Y003670D01*
X031986Y003676D02*
X032117Y003676D01*
X032112Y003682D02*
X031991Y003682D01*
X031996Y003689D02*
X032012Y003701D01*
X032031Y003709D01*
X032052Y003712D01*
X032072Y003709D01*
X032091Y003701D01*
X032107Y003689D01*
X032099Y003695D02*
X032004Y003695D01*
X032013Y003702D02*
X032090Y003702D01*
X032075Y003708D02*
X032028Y003708D01*
X031974Y003644D02*
X032129Y003644D01*
X032130Y003638D02*
X031973Y003638D01*
X031973Y003631D02*
X032130Y003631D01*
X032130Y003625D02*
X031973Y003625D01*
X031973Y003619D02*
X032130Y003619D01*
X032130Y003612D02*
X031973Y003612D01*
X031973Y003606D02*
X032130Y003606D01*
X032130Y003600D02*
X031973Y003600D01*
X031973Y003593D02*
X032130Y003593D01*
X032130Y003587D02*
X031973Y003587D01*
X031973Y003580D02*
X032130Y003580D01*
X032130Y003574D02*
X031973Y003574D01*
X031973Y003568D02*
X032130Y003568D01*
X032130Y003561D02*
X031973Y003561D01*
X031973Y003555D02*
X032130Y003555D01*
X032130Y003549D02*
X031973Y003549D01*
X031973Y003542D02*
X032130Y003542D01*
X032130Y003536D02*
X031973Y003536D01*
X031973Y003529D02*
X032130Y003529D01*
X032130Y003523D02*
X031973Y003523D01*
X031973Y003517D02*
X032130Y003517D01*
X032130Y003510D02*
X031973Y003510D01*
X031973Y003504D02*
X032130Y003504D01*
X032130Y003498D02*
X031973Y003498D01*
X031973Y003491D02*
X032130Y003491D01*
X032130Y003485D02*
X031973Y003485D01*
X031973Y003478D02*
X032130Y003478D01*
X032130Y003472D02*
X031973Y003472D01*
X031973Y003466D02*
X032130Y003466D01*
X032130Y003459D02*
X031973Y003459D01*
X031973Y003453D02*
X032130Y003453D01*
X032130Y003447D02*
X031973Y003447D01*
X031973Y003440D02*
X032130Y003440D01*
X032130Y003434D02*
X031973Y003434D01*
X031973Y003427D02*
X032130Y003427D01*
X032130Y003421D02*
X031973Y003421D01*
X031973Y003415D02*
X032130Y003415D01*
X032130Y003408D02*
X031973Y003408D01*
X031973Y003402D02*
X032130Y003402D01*
X032130Y003396D02*
X031973Y003396D01*
X031973Y003389D02*
X032130Y003389D01*
X032130Y003383D02*
X031973Y003383D01*
X031973Y003376D02*
X032130Y003376D01*
X032130Y003370D02*
X031973Y003370D01*
X031973Y003364D02*
X032130Y003364D01*
X032130Y003357D02*
X031973Y003357D01*
X031973Y003351D02*
X032130Y003351D01*
X032130Y003345D02*
X031973Y003345D01*
X031973Y003338D02*
X032130Y003338D01*
X032130Y003332D02*
X031973Y003332D01*
X032170Y003332D02*
X032327Y003332D01*
X032327Y003330D02*
X032170Y003330D01*
X032170Y003633D01*
X032172Y003653D01*
X032180Y003672D01*
X032193Y003689D01*
X032304Y003689D01*
X032288Y003701D01*
X032269Y003709D01*
X032248Y003712D01*
X032228Y003709D01*
X032209Y003701D01*
X032193Y003689D01*
X032188Y003682D02*
X032309Y003682D01*
X032314Y003676D02*
X032183Y003676D01*
X032179Y003670D02*
X032318Y003670D01*
X032317Y003672D02*
X032304Y003689D01*
X032296Y003695D02*
X032201Y003695D01*
X032210Y003702D02*
X032287Y003702D01*
X032272Y003708D02*
X032225Y003708D01*
X032176Y003663D02*
X032320Y003663D01*
X032323Y003657D02*
X032174Y003657D01*
X032172Y003651D02*
X032325Y003651D01*
X032324Y003653D02*
X032317Y003672D01*
X032324Y003653D02*
X032327Y003633D01*
X032327Y003330D01*
X032327Y003338D02*
X032170Y003338D01*
X032170Y003345D02*
X032327Y003345D01*
X032327Y003351D02*
X032170Y003351D01*
X032170Y003357D02*
X032327Y003357D01*
X032327Y003364D02*
X032170Y003364D01*
X032170Y003370D02*
X032327Y003370D01*
X032327Y003376D02*
X032170Y003376D01*
X032170Y003383D02*
X032327Y003383D01*
X032327Y003389D02*
X032170Y003389D01*
X032170Y003396D02*
X032327Y003396D01*
X032327Y003402D02*
X032170Y003402D01*
X032170Y003408D02*
X032327Y003408D01*
X032327Y003415D02*
X032170Y003415D01*
X032170Y003421D02*
X032327Y003421D01*
X032327Y003427D02*
X032170Y003427D01*
X032170Y003434D02*
X032327Y003434D01*
X032327Y003440D02*
X032170Y003440D01*
X032170Y003447D02*
X032327Y003447D01*
X032327Y003453D02*
X032170Y003453D01*
X032170Y003459D02*
X032327Y003459D01*
X032327Y003466D02*
X032170Y003466D01*
X032170Y003472D02*
X032327Y003472D01*
X032327Y003478D02*
X032170Y003478D01*
X032170Y003485D02*
X032327Y003485D01*
X032327Y003491D02*
X032170Y003491D01*
X032170Y003498D02*
X032327Y003498D01*
X032327Y003504D02*
X032170Y003504D01*
X032170Y003510D02*
X032327Y003510D01*
X032327Y003517D02*
X032170Y003517D01*
X032170Y003523D02*
X032327Y003523D01*
X032327Y003529D02*
X032170Y003529D01*
X032170Y003536D02*
X032327Y003536D01*
X032327Y003542D02*
X032170Y003542D01*
X032170Y003549D02*
X032327Y003549D01*
X032327Y003555D02*
X032170Y003555D01*
X032170Y003561D02*
X032327Y003561D01*
X032327Y003568D02*
X032170Y003568D01*
X032170Y003574D02*
X032327Y003574D01*
X032327Y003580D02*
X032170Y003580D01*
X032170Y003587D02*
X032327Y003587D01*
X032327Y003593D02*
X032170Y003593D01*
X032170Y003600D02*
X032327Y003600D01*
X032327Y003606D02*
X032170Y003606D01*
X032170Y003612D02*
X032327Y003612D01*
X032327Y003619D02*
X032170Y003619D01*
X032170Y003625D02*
X032327Y003625D01*
X032327Y003631D02*
X032170Y003631D01*
X032170Y003638D02*
X032327Y003638D01*
X032326Y003644D02*
X032171Y003644D01*
X032367Y003633D02*
X032367Y003330D01*
X032524Y003330D01*
X032524Y003633D01*
X032521Y003653D01*
X032513Y003672D01*
X032501Y003689D01*
X032390Y003689D01*
X032377Y003672D01*
X032369Y003653D01*
X032367Y003633D01*
X032367Y003631D02*
X032524Y003631D01*
X032524Y003625D02*
X032367Y003625D01*
X032367Y003619D02*
X032524Y003619D01*
X032524Y003612D02*
X032367Y003612D01*
X032367Y003606D02*
X032524Y003606D01*
X032524Y003600D02*
X032367Y003600D01*
X032367Y003593D02*
X032524Y003593D01*
X032524Y003587D02*
X032367Y003587D01*
X032367Y003580D02*
X032524Y003580D01*
X032524Y003574D02*
X032367Y003574D01*
X032367Y003568D02*
X032524Y003568D01*
X032524Y003561D02*
X032367Y003561D01*
X032367Y003555D02*
X032524Y003555D01*
X032524Y003549D02*
X032367Y003549D01*
X032367Y003542D02*
X032524Y003542D01*
X032524Y003536D02*
X032367Y003536D01*
X032367Y003529D02*
X032524Y003529D01*
X032524Y003523D02*
X032367Y003523D01*
X032367Y003517D02*
X032524Y003517D01*
X032524Y003510D02*
X032367Y003510D01*
X032367Y003504D02*
X032524Y003504D01*
X032524Y003498D02*
X032367Y003498D01*
X032367Y003491D02*
X032524Y003491D01*
X032524Y003485D02*
X032367Y003485D01*
X032367Y003478D02*
X032524Y003478D01*
X032524Y003472D02*
X032367Y003472D01*
X032367Y003466D02*
X032524Y003466D01*
X032524Y003459D02*
X032367Y003459D01*
X032367Y003453D02*
X032524Y003453D01*
X032524Y003447D02*
X032367Y003447D01*
X032367Y003440D02*
X032524Y003440D01*
X032524Y003434D02*
X032367Y003434D01*
X032367Y003427D02*
X032524Y003427D01*
X032524Y003421D02*
X032367Y003421D01*
X032367Y003415D02*
X032524Y003415D01*
X032524Y003408D02*
X032367Y003408D01*
X032367Y003402D02*
X032524Y003402D01*
X032524Y003396D02*
X032367Y003396D01*
X032367Y003389D02*
X032524Y003389D01*
X032524Y003383D02*
X032367Y003383D01*
X032367Y003376D02*
X032524Y003376D01*
X032524Y003370D02*
X032367Y003370D01*
X032367Y003364D02*
X032524Y003364D01*
X032524Y003357D02*
X032367Y003357D01*
X032367Y003351D02*
X032524Y003351D01*
X032524Y003345D02*
X032367Y003345D01*
X032367Y003338D02*
X032524Y003338D01*
X032524Y003332D02*
X032367Y003332D01*
X032563Y003332D02*
X032721Y003332D01*
X032721Y003330D02*
X032563Y003330D01*
X032563Y003633D01*
X032566Y003653D01*
X032574Y003672D01*
X032586Y003689D01*
X032603Y003701D01*
X032622Y003709D01*
X032642Y003712D01*
X032663Y003709D01*
X032681Y003701D01*
X032681Y003702D02*
X032603Y003702D01*
X032595Y003695D02*
X032689Y003695D01*
X032698Y003689D02*
X032681Y003701D01*
X032665Y003708D02*
X032619Y003708D01*
X032586Y003689D02*
X032698Y003689D01*
X032710Y003672D01*
X032718Y003653D01*
X032721Y003633D01*
X032721Y003330D01*
X032721Y003338D02*
X032563Y003338D01*
X032563Y003345D02*
X032721Y003345D01*
X032721Y003351D02*
X032563Y003351D01*
X032563Y003357D02*
X032721Y003357D01*
X032721Y003364D02*
X032563Y003364D01*
X032563Y003370D02*
X032721Y003370D01*
X032721Y003376D02*
X032563Y003376D01*
X032563Y003383D02*
X032721Y003383D01*
X032721Y003389D02*
X032563Y003389D01*
X032563Y003396D02*
X032721Y003396D01*
X032721Y003402D02*
X032563Y003402D01*
X032563Y003408D02*
X032721Y003408D01*
X032721Y003415D02*
X032563Y003415D01*
X032563Y003421D02*
X032721Y003421D01*
X032721Y003427D02*
X032563Y003427D01*
X032563Y003434D02*
X032721Y003434D01*
X032721Y003440D02*
X032563Y003440D01*
X032563Y003447D02*
X032721Y003447D01*
X032721Y003453D02*
X032563Y003453D01*
X032563Y003459D02*
X032721Y003459D01*
X032721Y003466D02*
X032563Y003466D01*
X032563Y003472D02*
X032721Y003472D01*
X032721Y003478D02*
X032563Y003478D01*
X032563Y003485D02*
X032721Y003485D01*
X032721Y003491D02*
X032563Y003491D01*
X032563Y003498D02*
X032721Y003498D01*
X032721Y003504D02*
X032563Y003504D01*
X032563Y003510D02*
X032721Y003510D01*
X032721Y003517D02*
X032563Y003517D01*
X032563Y003523D02*
X032721Y003523D01*
X032721Y003529D02*
X032563Y003529D01*
X032563Y003536D02*
X032721Y003536D01*
X032721Y003542D02*
X032563Y003542D01*
X032563Y003549D02*
X032721Y003549D01*
X032721Y003555D02*
X032563Y003555D01*
X032563Y003561D02*
X032721Y003561D01*
X032721Y003568D02*
X032563Y003568D01*
X032563Y003574D02*
X032721Y003574D01*
X032721Y003580D02*
X032563Y003580D01*
X032563Y003587D02*
X032721Y003587D01*
X032721Y003593D02*
X032563Y003593D01*
X032563Y003600D02*
X032721Y003600D01*
X032721Y003606D02*
X032563Y003606D01*
X032563Y003612D02*
X032721Y003612D01*
X032721Y003619D02*
X032563Y003619D01*
X032563Y003625D02*
X032721Y003625D01*
X032721Y003631D02*
X032563Y003631D01*
X032564Y003638D02*
X032720Y003638D01*
X032719Y003644D02*
X032565Y003644D01*
X032566Y003651D02*
X032719Y003651D01*
X032717Y003657D02*
X032567Y003657D01*
X032570Y003663D02*
X032714Y003663D01*
X032711Y003670D02*
X032573Y003670D01*
X032577Y003676D02*
X032708Y003676D01*
X032703Y003682D02*
X032582Y003682D01*
X032520Y003657D02*
X032371Y003657D01*
X032373Y003663D02*
X032517Y003663D01*
X032515Y003670D02*
X032376Y003670D01*
X032380Y003676D02*
X032511Y003676D01*
X032506Y003682D02*
X032385Y003682D01*
X032390Y003689D02*
X032406Y003701D01*
X032425Y003709D01*
X032445Y003712D01*
X032466Y003709D01*
X032485Y003701D01*
X032501Y003689D01*
X032493Y003695D02*
X032398Y003695D01*
X032407Y003702D02*
X032484Y003702D01*
X032469Y003708D02*
X032422Y003708D01*
X032369Y003651D02*
X032522Y003651D01*
X032523Y003644D02*
X032368Y003644D01*
X032367Y003638D02*
X032523Y003638D01*
X032760Y003633D02*
X032760Y003330D01*
X032918Y003330D01*
X032918Y003633D01*
X032915Y003653D01*
X032907Y003672D01*
X032895Y003689D01*
X032878Y003701D01*
X032859Y003709D01*
X032839Y003712D01*
X032819Y003709D01*
X032800Y003701D01*
X032783Y003689D01*
X032771Y003672D01*
X032763Y003653D01*
X032760Y003633D01*
X032760Y003631D02*
X032918Y003631D01*
X032918Y003625D02*
X032760Y003625D01*
X032760Y003619D02*
X032918Y003619D01*
X032918Y003612D02*
X032760Y003612D01*
X032760Y003606D02*
X032918Y003606D01*
X032918Y003600D02*
X032760Y003600D01*
X032760Y003593D02*
X032918Y003593D01*
X032918Y003587D02*
X032760Y003587D01*
X032760Y003580D02*
X032918Y003580D01*
X032918Y003574D02*
X032760Y003574D01*
X032760Y003568D02*
X032918Y003568D01*
X032918Y003561D02*
X032760Y003561D01*
X032760Y003555D02*
X032918Y003555D01*
X032918Y003549D02*
X032760Y003549D01*
X032760Y003542D02*
X032918Y003542D01*
X032918Y003536D02*
X032760Y003536D01*
X032760Y003529D02*
X032918Y003529D01*
X032918Y003523D02*
X032760Y003523D01*
X032760Y003517D02*
X032918Y003517D01*
X032918Y003510D02*
X032760Y003510D01*
X032760Y003504D02*
X032918Y003504D01*
X032918Y003498D02*
X032760Y003498D01*
X032760Y003491D02*
X032918Y003491D01*
X032918Y003485D02*
X032760Y003485D01*
X032760Y003478D02*
X032918Y003478D01*
X032918Y003472D02*
X032760Y003472D01*
X032760Y003466D02*
X032918Y003466D01*
X032918Y003459D02*
X032760Y003459D01*
X032760Y003453D02*
X032918Y003453D01*
X032918Y003447D02*
X032760Y003447D01*
X032760Y003440D02*
X032918Y003440D01*
X032918Y003434D02*
X032760Y003434D01*
X032760Y003427D02*
X032918Y003427D01*
X032918Y003421D02*
X032760Y003421D01*
X032760Y003415D02*
X032918Y003415D01*
X032918Y003408D02*
X032760Y003408D01*
X032760Y003402D02*
X032918Y003402D01*
X032918Y003396D02*
X032760Y003396D01*
X032760Y003389D02*
X032918Y003389D01*
X032918Y003383D02*
X032760Y003383D01*
X032760Y003376D02*
X032918Y003376D01*
X032918Y003370D02*
X032760Y003370D01*
X032760Y003364D02*
X032918Y003364D01*
X032918Y003357D02*
X032760Y003357D01*
X032760Y003351D02*
X032918Y003351D01*
X032918Y003345D02*
X032760Y003345D01*
X032760Y003338D02*
X032918Y003338D01*
X032918Y003332D02*
X032760Y003332D01*
X032957Y003332D02*
X033115Y003332D01*
X033115Y003330D02*
X032957Y003330D01*
X032957Y003633D01*
X032960Y003653D01*
X032968Y003672D01*
X032980Y003689D01*
X033091Y003689D01*
X033092Y003689D02*
X033075Y003701D01*
X033056Y003709D01*
X033036Y003712D01*
X033015Y003709D01*
X032996Y003701D01*
X032980Y003689D01*
X032975Y003682D02*
X033096Y003682D01*
X033101Y003676D02*
X032970Y003676D01*
X032966Y003670D02*
X033105Y003670D01*
X033104Y003672D02*
X033092Y003689D01*
X033083Y003695D02*
X032988Y003695D01*
X032997Y003702D02*
X033075Y003702D01*
X033059Y003708D02*
X033012Y003708D01*
X032964Y003663D02*
X033108Y003663D01*
X033110Y003657D02*
X032961Y003657D01*
X032959Y003651D02*
X033112Y003651D01*
X033112Y003653D02*
X033104Y003672D01*
X033112Y003653D02*
X033115Y003633D01*
X033115Y003330D01*
X033115Y003338D02*
X032957Y003338D01*
X032957Y003345D02*
X033115Y003345D01*
X033115Y003351D02*
X032957Y003351D01*
X032957Y003357D02*
X033115Y003357D01*
X033115Y003364D02*
X032957Y003364D01*
X032957Y003370D02*
X033115Y003370D01*
X033115Y003376D02*
X032957Y003376D01*
X032957Y003383D02*
X033115Y003383D01*
X033115Y003389D02*
X032957Y003389D01*
X032957Y003396D02*
X033115Y003396D01*
X033115Y003402D02*
X032957Y003402D01*
X032957Y003408D02*
X033115Y003408D01*
X033115Y003415D02*
X032957Y003415D01*
X032957Y003421D02*
X033115Y003421D01*
X033115Y003427D02*
X032957Y003427D01*
X032957Y003434D02*
X033115Y003434D01*
X033115Y003440D02*
X032957Y003440D01*
X032957Y003447D02*
X033115Y003447D01*
X033115Y003453D02*
X032957Y003453D01*
X032957Y003459D02*
X033115Y003459D01*
X033115Y003466D02*
X032957Y003466D01*
X032957Y003472D02*
X033115Y003472D01*
X033115Y003478D02*
X032957Y003478D01*
X032957Y003485D02*
X033115Y003485D01*
X033115Y003491D02*
X032957Y003491D01*
X032957Y003498D02*
X033115Y003498D01*
X033115Y003504D02*
X032957Y003504D01*
X032957Y003510D02*
X033115Y003510D01*
X033115Y003517D02*
X032957Y003517D01*
X032957Y003523D02*
X033115Y003523D01*
X033115Y003529D02*
X032957Y003529D01*
X032957Y003536D02*
X033115Y003536D01*
X033115Y003542D02*
X032957Y003542D01*
X032957Y003549D02*
X033115Y003549D01*
X033115Y003555D02*
X032957Y003555D01*
X032957Y003561D02*
X033115Y003561D01*
X033115Y003568D02*
X032957Y003568D01*
X032957Y003574D02*
X033115Y003574D01*
X033115Y003580D02*
X032957Y003580D01*
X032957Y003587D02*
X033115Y003587D01*
X033115Y003593D02*
X032957Y003593D01*
X032957Y003600D02*
X033115Y003600D01*
X033115Y003606D02*
X032957Y003606D01*
X032957Y003612D02*
X033115Y003612D01*
X033115Y003619D02*
X032957Y003619D01*
X032957Y003625D02*
X033115Y003625D01*
X033115Y003631D02*
X032957Y003631D01*
X032958Y003638D02*
X033114Y003638D01*
X033113Y003644D02*
X032959Y003644D01*
X032917Y003638D02*
X032761Y003638D01*
X032762Y003644D02*
X032916Y003644D01*
X032915Y003651D02*
X032763Y003651D01*
X032764Y003657D02*
X032914Y003657D01*
X032911Y003663D02*
X032767Y003663D01*
X032770Y003670D02*
X032908Y003670D01*
X032904Y003676D02*
X032774Y003676D01*
X032778Y003682D02*
X032900Y003682D01*
X032895Y003689D02*
X032783Y003689D01*
X032792Y003695D02*
X032886Y003695D01*
X032878Y003702D02*
X032800Y003702D01*
X032816Y003708D02*
X032862Y003708D01*
X033414Y004250D02*
X032144Y004250D01*
X032144Y004256D02*
X033414Y004256D01*
X033414Y004262D02*
X032144Y004262D01*
X032144Y004269D02*
X033414Y004269D01*
X033414Y004275D02*
X032144Y004275D01*
X032144Y004282D02*
X033414Y004282D01*
X033414Y004288D02*
X032144Y004288D01*
X032144Y004294D02*
X033414Y004294D01*
X033414Y004301D02*
X032144Y004301D01*
X032144Y004307D02*
X033414Y004307D01*
X033414Y004313D02*
X032144Y004313D01*
X032144Y004320D02*
X033414Y004320D01*
X033414Y004326D02*
X032144Y004326D01*
X032144Y004333D02*
X033414Y004333D01*
X033414Y004339D02*
X032144Y004339D01*
X032144Y004345D02*
X033414Y004345D01*
X033414Y004352D02*
X032144Y004352D01*
X032144Y004358D02*
X033414Y004358D01*
X033414Y004364D02*
X032144Y004364D01*
X032144Y004371D02*
X033414Y004371D01*
X033414Y004417D02*
X033414Y004574D01*
X033111Y004574D01*
X033090Y004571D01*
X033071Y004563D01*
X033055Y004551D01*
X033042Y004535D01*
X033035Y004516D01*
X033032Y004495D01*
X033035Y004475D01*
X033042Y004456D01*
X033055Y004440D01*
X033071Y004427D01*
X033090Y004419D01*
X033111Y004417D01*
X033414Y004417D01*
X033414Y004422D02*
X033084Y004422D01*
X033070Y004428D02*
X033414Y004428D01*
X033414Y004435D02*
X033062Y004435D01*
X033054Y004441D02*
X033414Y004441D01*
X033414Y004447D02*
X033049Y004447D01*
X033044Y004454D02*
X033414Y004454D01*
X033414Y004460D02*
X033041Y004460D01*
X033038Y004466D02*
X033414Y004466D01*
X033414Y004473D02*
X033035Y004473D01*
X033034Y004479D02*
X033414Y004479D01*
X033414Y004486D02*
X033033Y004486D01*
X033032Y004492D02*
X033414Y004492D01*
X033414Y004498D02*
X033032Y004498D01*
X033033Y004505D02*
X033414Y004505D01*
X033414Y004511D02*
X033034Y004511D01*
X033035Y004517D02*
X033414Y004517D01*
X033414Y004524D02*
X033038Y004524D01*
X033041Y004530D02*
X033414Y004530D01*
X033414Y004537D02*
X033044Y004537D01*
X033049Y004543D02*
X033414Y004543D01*
X033414Y004549D02*
X033054Y004549D01*
X033061Y004556D02*
X033414Y004556D01*
X033414Y004562D02*
X033069Y004562D01*
X033083Y004568D02*
X033414Y004568D01*
X033104Y004728D02*
X033112Y004747D01*
X032960Y004747D01*
X032968Y004728D01*
X033104Y004728D01*
X033092Y004711D01*
X033075Y004699D01*
X033056Y004691D01*
X033036Y004688D01*
X033015Y004691D01*
X032996Y004699D01*
X032980Y004711D01*
X032968Y004728D01*
X032965Y004734D02*
X033107Y004734D01*
X033109Y004741D02*
X032962Y004741D01*
X032960Y004747D02*
X032957Y004767D01*
X032957Y005070D01*
X033115Y005070D01*
X033115Y004767D01*
X033112Y004747D01*
X033113Y004753D02*
X032959Y004753D01*
X032958Y004760D02*
X033114Y004760D01*
X033114Y004766D02*
X032957Y004766D01*
X032957Y004772D02*
X033115Y004772D01*
X033115Y004779D02*
X032957Y004779D01*
X032957Y004785D02*
X033115Y004785D01*
X033115Y004792D02*
X032957Y004792D01*
X032957Y004798D02*
X033115Y004798D01*
X033115Y004804D02*
X032957Y004804D01*
X032957Y004811D02*
X033115Y004811D01*
X033115Y004817D02*
X032957Y004817D01*
X032957Y004823D02*
X033115Y004823D01*
X033115Y004830D02*
X032957Y004830D01*
X032957Y004836D02*
X033115Y004836D01*
X033115Y004843D02*
X032957Y004843D01*
X032957Y004849D02*
X033115Y004849D01*
X033115Y004855D02*
X032957Y004855D01*
X032957Y004862D02*
X033115Y004862D01*
X033115Y004868D02*
X032957Y004868D01*
X032957Y004874D02*
X033115Y004874D01*
X033115Y004881D02*
X032957Y004881D01*
X032957Y004887D02*
X033115Y004887D01*
X033115Y004894D02*
X032957Y004894D01*
X032957Y004900D02*
X033115Y004900D01*
X033115Y004906D02*
X032957Y004906D01*
X032957Y004913D02*
X033115Y004913D01*
X033115Y004919D02*
X032957Y004919D01*
X032957Y004925D02*
X033115Y004925D01*
X033115Y004932D02*
X032957Y004932D01*
X032957Y004938D02*
X033115Y004938D01*
X033115Y004944D02*
X032957Y004944D01*
X032957Y004951D02*
X033115Y004951D01*
X033115Y004957D02*
X032957Y004957D01*
X032957Y004964D02*
X033115Y004964D01*
X033115Y004970D02*
X032957Y004970D01*
X032957Y004976D02*
X033115Y004976D01*
X033115Y004983D02*
X032957Y004983D01*
X032957Y004989D02*
X033115Y004989D01*
X033115Y004995D02*
X032957Y004995D01*
X032957Y005002D02*
X033115Y005002D01*
X033115Y005008D02*
X032957Y005008D01*
X032957Y005015D02*
X033115Y005015D01*
X033115Y005021D02*
X032957Y005021D01*
X032957Y005027D02*
X033115Y005027D01*
X033115Y005034D02*
X032957Y005034D01*
X032957Y005040D02*
X033115Y005040D01*
X033115Y005046D02*
X032957Y005046D01*
X032957Y005053D02*
X033115Y005053D01*
X033115Y005059D02*
X032957Y005059D01*
X032957Y005066D02*
X033115Y005066D01*
X032918Y005066D02*
X032760Y005066D01*
X032760Y005070D02*
X032918Y005070D01*
X032918Y004767D01*
X032915Y004747D01*
X032763Y004747D01*
X032771Y004728D01*
X032907Y004728D01*
X032915Y004747D01*
X032916Y004753D02*
X032762Y004753D01*
X032763Y004747D02*
X032760Y004767D01*
X032760Y005070D01*
X032760Y005059D02*
X032918Y005059D01*
X032918Y005053D02*
X032760Y005053D01*
X032760Y005046D02*
X032918Y005046D01*
X032918Y005040D02*
X032760Y005040D01*
X032760Y005034D02*
X032918Y005034D01*
X032918Y005027D02*
X032760Y005027D01*
X032760Y005021D02*
X032918Y005021D01*
X032918Y005015D02*
X032760Y005015D01*
X032760Y005008D02*
X032918Y005008D01*
X032918Y005002D02*
X032760Y005002D01*
X032760Y004995D02*
X032918Y004995D01*
X032918Y004989D02*
X032760Y004989D01*
X032760Y004983D02*
X032918Y004983D01*
X032918Y004976D02*
X032760Y004976D01*
X032760Y004970D02*
X032918Y004970D01*
X032918Y004964D02*
X032760Y004964D01*
X032760Y004957D02*
X032918Y004957D01*
X032918Y004951D02*
X032760Y004951D01*
X032760Y004944D02*
X032918Y004944D01*
X032918Y004938D02*
X032760Y004938D01*
X032760Y004932D02*
X032918Y004932D01*
X032918Y004925D02*
X032760Y004925D01*
X032760Y004919D02*
X032918Y004919D01*
X032918Y004913D02*
X032760Y004913D01*
X032760Y004906D02*
X032918Y004906D01*
X032918Y004900D02*
X032760Y004900D01*
X032760Y004894D02*
X032918Y004894D01*
X032918Y004887D02*
X032760Y004887D01*
X032760Y004881D02*
X032918Y004881D01*
X032918Y004874D02*
X032760Y004874D01*
X032760Y004868D02*
X032918Y004868D01*
X032918Y004862D02*
X032760Y004862D01*
X032760Y004855D02*
X032918Y004855D01*
X032918Y004849D02*
X032760Y004849D01*
X032760Y004843D02*
X032918Y004843D01*
X032918Y004836D02*
X032760Y004836D01*
X032760Y004830D02*
X032918Y004830D01*
X032918Y004823D02*
X032760Y004823D01*
X032760Y004817D02*
X032918Y004817D01*
X032918Y004811D02*
X032760Y004811D01*
X032760Y004804D02*
X032918Y004804D01*
X032918Y004798D02*
X032760Y004798D01*
X032760Y004792D02*
X032918Y004792D01*
X032918Y004785D02*
X032760Y004785D01*
X032760Y004779D02*
X032918Y004779D01*
X032918Y004772D02*
X032760Y004772D01*
X032760Y004766D02*
X032918Y004766D01*
X032917Y004760D02*
X032761Y004760D01*
X032765Y004741D02*
X032913Y004741D01*
X032910Y004734D02*
X032768Y004734D01*
X032771Y004728D02*
X032783Y004711D01*
X032800Y004699D01*
X032819Y004691D01*
X032839Y004688D01*
X032859Y004691D01*
X032878Y004699D01*
X032895Y004711D01*
X032907Y004728D01*
X032902Y004721D02*
X032776Y004721D01*
X032780Y004715D02*
X032898Y004715D01*
X032891Y004709D02*
X032787Y004709D01*
X032795Y004702D02*
X032883Y004702D01*
X032872Y004696D02*
X032806Y004696D01*
X032829Y004690D02*
X032849Y004690D01*
X032972Y004721D02*
X033099Y004721D01*
X033094Y004715D02*
X032977Y004715D01*
X032984Y004709D02*
X033088Y004709D01*
X033080Y004702D02*
X032992Y004702D01*
X033003Y004696D02*
X033068Y004696D01*
X033046Y004690D02*
X033026Y004690D01*
X032971Y004626D02*
X032144Y004626D01*
X032144Y004619D02*
X032971Y004619D01*
X032971Y004613D02*
X032144Y004613D01*
X032144Y004607D02*
X032971Y004607D01*
X032971Y004600D02*
X032144Y004600D01*
X032144Y004594D02*
X032971Y004594D01*
X032971Y004588D02*
X032144Y004588D01*
X032144Y004581D02*
X032971Y004581D01*
X032971Y004575D02*
X032144Y004575D01*
X032144Y004568D02*
X032971Y004568D01*
X032971Y004562D02*
X032144Y004562D01*
X032144Y004556D02*
X032971Y004556D01*
X032971Y004549D02*
X032144Y004549D01*
X032144Y004543D02*
X032971Y004543D01*
X032971Y004537D02*
X032144Y004537D01*
X032144Y004530D02*
X032971Y004530D01*
X032971Y004524D02*
X032144Y004524D01*
X032144Y004517D02*
X032971Y004517D01*
X032971Y004511D02*
X032144Y004511D01*
X032144Y004505D02*
X032971Y004505D01*
X032971Y004498D02*
X032144Y004498D01*
X032144Y004492D02*
X032971Y004492D01*
X032971Y004486D02*
X032144Y004486D01*
X032144Y004479D02*
X032971Y004479D01*
X032971Y004473D02*
X032144Y004473D01*
X032144Y004466D02*
X032971Y004466D01*
X032971Y004460D02*
X032144Y004460D01*
X032144Y004454D02*
X032971Y004454D01*
X032971Y004447D02*
X032144Y004447D01*
X032144Y004441D02*
X032971Y004441D01*
X032971Y004435D02*
X032144Y004435D01*
X032144Y004428D02*
X032971Y004428D01*
X032971Y004422D02*
X032144Y004422D01*
X032144Y004415D02*
X032971Y004415D01*
X032971Y004409D02*
X032144Y004409D01*
X032144Y004403D02*
X032971Y004403D01*
X032971Y004396D02*
X032144Y004396D01*
X032144Y004390D02*
X032971Y004390D01*
X032971Y004384D02*
X032144Y004384D01*
X032144Y004377D02*
X032971Y004377D01*
X032698Y004711D02*
X032710Y004728D01*
X032574Y004728D01*
X032586Y004711D01*
X032603Y004699D01*
X032622Y004691D01*
X032642Y004688D01*
X032663Y004691D01*
X032681Y004699D01*
X032698Y004711D01*
X032694Y004709D02*
X032590Y004709D01*
X032584Y004715D02*
X032701Y004715D01*
X032706Y004721D02*
X032579Y004721D01*
X032574Y004728D02*
X032566Y004747D01*
X032718Y004747D01*
X032721Y004767D01*
X032721Y005070D01*
X032563Y005070D01*
X032563Y004767D01*
X032566Y004747D01*
X032565Y004753D02*
X032719Y004753D01*
X032718Y004747D02*
X032710Y004728D01*
X032713Y004734D02*
X032571Y004734D01*
X032569Y004741D02*
X032716Y004741D01*
X032720Y004760D02*
X032564Y004760D01*
X032564Y004766D02*
X032721Y004766D01*
X032721Y004772D02*
X032563Y004772D01*
X032563Y004779D02*
X032721Y004779D01*
X032721Y004785D02*
X032563Y004785D01*
X032563Y004792D02*
X032721Y004792D01*
X032721Y004798D02*
X032563Y004798D01*
X032563Y004804D02*
X032721Y004804D01*
X032721Y004811D02*
X032563Y004811D01*
X032563Y004817D02*
X032721Y004817D01*
X032721Y004823D02*
X032563Y004823D01*
X032563Y004830D02*
X032721Y004830D01*
X032721Y004836D02*
X032563Y004836D01*
X032563Y004843D02*
X032721Y004843D01*
X032721Y004849D02*
X032563Y004849D01*
X032563Y004855D02*
X032721Y004855D01*
X032721Y004862D02*
X032563Y004862D01*
X032563Y004868D02*
X032721Y004868D01*
X032721Y004874D02*
X032563Y004874D01*
X032563Y004881D02*
X032721Y004881D01*
X032721Y004887D02*
X032563Y004887D01*
X032563Y004894D02*
X032721Y004894D01*
X032721Y004900D02*
X032563Y004900D01*
X032563Y004906D02*
X032721Y004906D01*
X032721Y004913D02*
X032563Y004913D01*
X032563Y004919D02*
X032721Y004919D01*
X032721Y004925D02*
X032563Y004925D01*
X032563Y004932D02*
X032721Y004932D01*
X032721Y004938D02*
X032563Y004938D01*
X032563Y004944D02*
X032721Y004944D01*
X032721Y004951D02*
X032563Y004951D01*
X032563Y004957D02*
X032721Y004957D01*
X032721Y004964D02*
X032563Y004964D01*
X032563Y004970D02*
X032721Y004970D01*
X032721Y004976D02*
X032563Y004976D01*
X032563Y004983D02*
X032721Y004983D01*
X032721Y004989D02*
X032563Y004989D01*
X032563Y004995D02*
X032721Y004995D01*
X032721Y005002D02*
X032563Y005002D01*
X032563Y005008D02*
X032721Y005008D01*
X032721Y005015D02*
X032563Y005015D01*
X032563Y005021D02*
X032721Y005021D01*
X032721Y005027D02*
X032563Y005027D01*
X032563Y005034D02*
X032721Y005034D01*
X032721Y005040D02*
X032563Y005040D01*
X032563Y005046D02*
X032721Y005046D01*
X032721Y005053D02*
X032563Y005053D01*
X032563Y005059D02*
X032721Y005059D01*
X032721Y005066D02*
X032563Y005066D01*
X032524Y005066D02*
X032367Y005066D01*
X032367Y005070D02*
X032524Y005070D01*
X032524Y004767D01*
X032521Y004747D01*
X032369Y004747D01*
X032377Y004728D01*
X032514Y004728D01*
X032513Y004728D02*
X032521Y004747D01*
X032522Y004753D02*
X032368Y004753D01*
X032369Y004747D02*
X032367Y004767D01*
X032367Y005070D01*
X032367Y005059D02*
X032524Y005059D01*
X032524Y005053D02*
X032367Y005053D01*
X032367Y005046D02*
X032524Y005046D01*
X032524Y005040D02*
X032367Y005040D01*
X032367Y005034D02*
X032524Y005034D01*
X032524Y005027D02*
X032367Y005027D01*
X032367Y005021D02*
X032524Y005021D01*
X032524Y005015D02*
X032367Y005015D01*
X032367Y005008D02*
X032524Y005008D01*
X032524Y005002D02*
X032367Y005002D01*
X032367Y004995D02*
X032524Y004995D01*
X032524Y004989D02*
X032367Y004989D01*
X032367Y004983D02*
X032524Y004983D01*
X032524Y004976D02*
X032367Y004976D01*
X032367Y004970D02*
X032524Y004970D01*
X032524Y004964D02*
X032367Y004964D01*
X032367Y004957D02*
X032524Y004957D01*
X032524Y004951D02*
X032367Y004951D01*
X032367Y004944D02*
X032524Y004944D01*
X032524Y004938D02*
X032367Y004938D01*
X032367Y004932D02*
X032524Y004932D01*
X032524Y004925D02*
X032367Y004925D01*
X032367Y004919D02*
X032524Y004919D01*
X032524Y004913D02*
X032367Y004913D01*
X032367Y004906D02*
X032524Y004906D01*
X032524Y004900D02*
X032367Y004900D01*
X032367Y004894D02*
X032524Y004894D01*
X032524Y004887D02*
X032367Y004887D01*
X032367Y004881D02*
X032524Y004881D01*
X032524Y004874D02*
X032367Y004874D01*
X032367Y004868D02*
X032524Y004868D01*
X032524Y004862D02*
X032367Y004862D01*
X032367Y004855D02*
X032524Y004855D01*
X032524Y004849D02*
X032367Y004849D01*
X032367Y004843D02*
X032524Y004843D01*
X032524Y004836D02*
X032367Y004836D01*
X032367Y004830D02*
X032524Y004830D01*
X032524Y004823D02*
X032367Y004823D01*
X032367Y004817D02*
X032524Y004817D01*
X032524Y004811D02*
X032367Y004811D01*
X032367Y004804D02*
X032524Y004804D01*
X032524Y004798D02*
X032367Y004798D01*
X032367Y004792D02*
X032524Y004792D01*
X032524Y004785D02*
X032367Y004785D01*
X032367Y004779D02*
X032524Y004779D01*
X032524Y004772D02*
X032367Y004772D01*
X032367Y004766D02*
X032524Y004766D01*
X032523Y004760D02*
X032367Y004760D01*
X032372Y004741D02*
X032519Y004741D01*
X032516Y004734D02*
X032374Y004734D01*
X032377Y004728D02*
X032390Y004711D01*
X032406Y004699D01*
X032425Y004691D01*
X032445Y004688D01*
X032466Y004691D01*
X032485Y004699D01*
X032501Y004711D01*
X032513Y004728D01*
X032509Y004721D02*
X032382Y004721D01*
X032387Y004715D02*
X032504Y004715D01*
X032498Y004709D02*
X032393Y004709D01*
X032401Y004702D02*
X032489Y004702D01*
X032478Y004696D02*
X032413Y004696D01*
X032435Y004690D02*
X032455Y004690D01*
X032324Y004747D02*
X032327Y004767D01*
X032327Y005070D01*
X032170Y005070D01*
X032170Y004767D01*
X032172Y004747D01*
X032325Y004747D01*
X032324Y004747D02*
X032317Y004728D01*
X032180Y004728D01*
X032193Y004711D01*
X032209Y004699D01*
X032228Y004691D01*
X032248Y004688D01*
X032269Y004691D01*
X032288Y004699D01*
X032304Y004711D01*
X032317Y004728D01*
X032319Y004734D02*
X032178Y004734D01*
X032180Y004728D02*
X032172Y004747D01*
X032171Y004753D02*
X032325Y004753D01*
X032326Y004760D02*
X032171Y004760D01*
X032170Y004766D02*
X032327Y004766D01*
X032327Y004772D02*
X032170Y004772D01*
X032170Y004779D02*
X032327Y004779D01*
X032327Y004785D02*
X032170Y004785D01*
X032170Y004792D02*
X032327Y004792D01*
X032327Y004798D02*
X032170Y004798D01*
X032170Y004804D02*
X032327Y004804D01*
X032327Y004811D02*
X032170Y004811D01*
X032170Y004817D02*
X032327Y004817D01*
X032327Y004823D02*
X032170Y004823D01*
X032170Y004830D02*
X032327Y004830D01*
X032327Y004836D02*
X032170Y004836D01*
X032170Y004843D02*
X032327Y004843D01*
X032327Y004849D02*
X032170Y004849D01*
X032170Y004855D02*
X032327Y004855D01*
X032327Y004862D02*
X032170Y004862D01*
X032170Y004868D02*
X032327Y004868D01*
X032327Y004874D02*
X032170Y004874D01*
X032170Y004881D02*
X032327Y004881D01*
X032327Y004887D02*
X032170Y004887D01*
X032170Y004894D02*
X032327Y004894D01*
X032327Y004900D02*
X032170Y004900D01*
X032170Y004906D02*
X032327Y004906D01*
X032327Y004913D02*
X032170Y004913D01*
X032170Y004919D02*
X032327Y004919D01*
X032327Y004925D02*
X032170Y004925D01*
X032170Y004932D02*
X032327Y004932D01*
X032327Y004938D02*
X032170Y004938D01*
X032170Y004944D02*
X032327Y004944D01*
X032327Y004951D02*
X032170Y004951D01*
X032170Y004957D02*
X032327Y004957D01*
X032327Y004964D02*
X032170Y004964D01*
X032170Y004970D02*
X032327Y004970D01*
X032327Y004976D02*
X032170Y004976D01*
X032170Y004983D02*
X032327Y004983D01*
X032327Y004989D02*
X032170Y004989D01*
X032170Y004995D02*
X032327Y004995D01*
X032327Y005002D02*
X032170Y005002D01*
X032170Y005008D02*
X032327Y005008D01*
X032327Y005015D02*
X032170Y005015D01*
X032170Y005021D02*
X032327Y005021D01*
X032327Y005027D02*
X032170Y005027D01*
X032170Y005034D02*
X032327Y005034D01*
X032327Y005040D02*
X032170Y005040D01*
X032170Y005046D02*
X032327Y005046D01*
X032327Y005053D02*
X032170Y005053D01*
X032170Y005059D02*
X032327Y005059D01*
X032327Y005066D02*
X032170Y005066D01*
X032130Y005066D02*
X031973Y005066D01*
X031973Y005070D02*
X032130Y005070D01*
X032130Y004767D01*
X032128Y004747D01*
X031975Y004747D01*
X031976Y004747D02*
X031983Y004728D01*
X032120Y004728D01*
X032128Y004747D01*
X032129Y004753D02*
X031975Y004753D01*
X031976Y004747D02*
X031973Y004767D01*
X031973Y005070D01*
X031973Y005059D02*
X032130Y005059D01*
X032130Y005053D02*
X031973Y005053D01*
X031973Y005046D02*
X032130Y005046D01*
X032130Y005040D02*
X031973Y005040D01*
X031973Y005034D02*
X032130Y005034D01*
X032130Y005027D02*
X031973Y005027D01*
X031973Y005021D02*
X032130Y005021D01*
X032130Y005015D02*
X031973Y005015D01*
X031973Y005008D02*
X032130Y005008D01*
X032130Y005002D02*
X031973Y005002D01*
X031973Y004995D02*
X032130Y004995D01*
X032130Y004989D02*
X031973Y004989D01*
X031973Y004983D02*
X032130Y004983D01*
X032130Y004976D02*
X031973Y004976D01*
X031973Y004970D02*
X032130Y004970D01*
X032130Y004964D02*
X031973Y004964D01*
X031973Y004957D02*
X032130Y004957D01*
X032130Y004951D02*
X031973Y004951D01*
X031973Y004944D02*
X032130Y004944D01*
X032130Y004938D02*
X031973Y004938D01*
X031973Y004932D02*
X032130Y004932D01*
X032130Y004925D02*
X031973Y004925D01*
X031973Y004919D02*
X032130Y004919D01*
X032130Y004913D02*
X031973Y004913D01*
X031973Y004906D02*
X032130Y004906D01*
X032130Y004900D02*
X031973Y004900D01*
X031973Y004894D02*
X032130Y004894D01*
X032130Y004887D02*
X031973Y004887D01*
X031973Y004881D02*
X032130Y004881D01*
X032130Y004874D02*
X031973Y004874D01*
X031973Y004868D02*
X032130Y004868D01*
X032130Y004862D02*
X031973Y004862D01*
X031973Y004855D02*
X032130Y004855D01*
X032130Y004849D02*
X031973Y004849D01*
X031973Y004843D02*
X032130Y004843D01*
X032130Y004836D02*
X031973Y004836D01*
X031973Y004830D02*
X032130Y004830D01*
X032130Y004823D02*
X031973Y004823D01*
X031973Y004817D02*
X032130Y004817D01*
X032130Y004811D02*
X031973Y004811D01*
X031973Y004804D02*
X032130Y004804D01*
X032130Y004798D02*
X031973Y004798D01*
X031973Y004792D02*
X032130Y004792D01*
X032130Y004785D02*
X031973Y004785D01*
X031973Y004779D02*
X032130Y004779D01*
X032130Y004772D02*
X031973Y004772D01*
X031973Y004766D02*
X032130Y004766D01*
X032129Y004760D02*
X031974Y004760D01*
X031978Y004741D02*
X032125Y004741D01*
X032122Y004734D02*
X031981Y004734D01*
X031983Y004728D02*
X031996Y004711D01*
X032012Y004699D01*
X032031Y004691D01*
X032052Y004688D01*
X032072Y004691D01*
X032091Y004699D01*
X032107Y004711D01*
X032120Y004728D01*
X032115Y004721D02*
X031988Y004721D01*
X031993Y004715D02*
X032110Y004715D01*
X032104Y004709D02*
X031999Y004709D01*
X032008Y004702D02*
X032096Y004702D01*
X032084Y004696D02*
X032019Y004696D01*
X032041Y004690D02*
X032062Y004690D01*
X032175Y004741D02*
X032322Y004741D01*
X032312Y004721D02*
X032185Y004721D01*
X032190Y004715D02*
X032307Y004715D01*
X032301Y004709D02*
X032196Y004709D01*
X032204Y004702D02*
X032292Y004702D01*
X032281Y004696D02*
X032216Y004696D01*
X032238Y004690D02*
X032259Y004690D01*
X031931Y004747D02*
X031933Y004767D01*
X031933Y005070D01*
X031776Y005070D01*
X031776Y004767D01*
X031779Y004747D01*
X031931Y004747D01*
X031923Y004728D01*
X031786Y004728D01*
X031787Y004728D02*
X031799Y004711D01*
X031815Y004699D01*
X031834Y004691D01*
X031855Y004688D01*
X031875Y004691D01*
X031894Y004699D01*
X031910Y004711D01*
X031923Y004728D01*
X031926Y004734D02*
X031784Y004734D01*
X031787Y004728D02*
X031779Y004747D01*
X031778Y004753D02*
X031932Y004753D01*
X031933Y004760D02*
X031777Y004760D01*
X031776Y004766D02*
X031933Y004766D01*
X031933Y004772D02*
X031776Y004772D01*
X031776Y004779D02*
X031933Y004779D01*
X031933Y004785D02*
X031776Y004785D01*
X031776Y004792D02*
X031933Y004792D01*
X031933Y004798D02*
X031776Y004798D01*
X031776Y004804D02*
X031933Y004804D01*
X031933Y004811D02*
X031776Y004811D01*
X031776Y004817D02*
X031933Y004817D01*
X031933Y004823D02*
X031776Y004823D01*
X031776Y004830D02*
X031933Y004830D01*
X031933Y004836D02*
X031776Y004836D01*
X031776Y004843D02*
X031933Y004843D01*
X031933Y004849D02*
X031776Y004849D01*
X031776Y004855D02*
X031933Y004855D01*
X031933Y004862D02*
X031776Y004862D01*
X031776Y004868D02*
X031933Y004868D01*
X031933Y004874D02*
X031776Y004874D01*
X031776Y004881D02*
X031933Y004881D01*
X031933Y004887D02*
X031776Y004887D01*
X031776Y004894D02*
X031933Y004894D01*
X031933Y004900D02*
X031776Y004900D01*
X031776Y004906D02*
X031933Y004906D01*
X031933Y004913D02*
X031776Y004913D01*
X031776Y004919D02*
X031933Y004919D01*
X031933Y004925D02*
X031776Y004925D01*
X031776Y004932D02*
X031933Y004932D01*
X031933Y004938D02*
X031776Y004938D01*
X031776Y004944D02*
X031933Y004944D01*
X031933Y004951D02*
X031776Y004951D01*
X031776Y004957D02*
X031933Y004957D01*
X031933Y004964D02*
X031776Y004964D01*
X031776Y004970D02*
X031933Y004970D01*
X031933Y004976D02*
X031776Y004976D01*
X031776Y004983D02*
X031933Y004983D01*
X031933Y004989D02*
X031776Y004989D01*
X031776Y004995D02*
X031933Y004995D01*
X031933Y005002D02*
X031776Y005002D01*
X031776Y005008D02*
X031933Y005008D01*
X031933Y005015D02*
X031776Y005015D01*
X031776Y005021D02*
X031933Y005021D01*
X031933Y005027D02*
X031776Y005027D01*
X031776Y005034D02*
X031933Y005034D01*
X031933Y005040D02*
X031776Y005040D01*
X031776Y005046D02*
X031933Y005046D01*
X031933Y005053D02*
X031776Y005053D01*
X031776Y005059D02*
X031933Y005059D01*
X031933Y005066D02*
X031776Y005066D01*
X031737Y005066D02*
X031579Y005066D01*
X031579Y005070D02*
X031737Y005070D01*
X031737Y004767D01*
X031734Y004747D01*
X031582Y004747D01*
X031590Y004728D01*
X031726Y004728D01*
X031734Y004747D01*
X031735Y004753D02*
X031581Y004753D01*
X031582Y004747D02*
X031579Y004767D01*
X031579Y005070D01*
X031579Y005059D02*
X031737Y005059D01*
X031737Y005053D02*
X031579Y005053D01*
X031579Y005046D02*
X031737Y005046D01*
X031737Y005040D02*
X031579Y005040D01*
X031579Y005034D02*
X031737Y005034D01*
X031737Y005027D02*
X031579Y005027D01*
X031579Y005021D02*
X031737Y005021D01*
X031737Y005015D02*
X031579Y005015D01*
X031579Y005008D02*
X031737Y005008D01*
X031737Y005002D02*
X031579Y005002D01*
X031579Y004995D02*
X031737Y004995D01*
X031737Y004989D02*
X031579Y004989D01*
X031579Y004983D02*
X031737Y004983D01*
X031737Y004976D02*
X031579Y004976D01*
X031579Y004970D02*
X031737Y004970D01*
X031737Y004964D02*
X031579Y004964D01*
X031579Y004957D02*
X031737Y004957D01*
X031737Y004951D02*
X031579Y004951D01*
X031579Y004944D02*
X031737Y004944D01*
X031737Y004938D02*
X031579Y004938D01*
X031579Y004932D02*
X031737Y004932D01*
X031737Y004925D02*
X031579Y004925D01*
X031579Y004919D02*
X031737Y004919D01*
X031737Y004913D02*
X031579Y004913D01*
X031579Y004906D02*
X031737Y004906D01*
X031737Y004900D02*
X031579Y004900D01*
X031579Y004894D02*
X031737Y004894D01*
X031737Y004887D02*
X031579Y004887D01*
X031579Y004881D02*
X031737Y004881D01*
X031737Y004874D02*
X031579Y004874D01*
X031579Y004868D02*
X031737Y004868D01*
X031737Y004862D02*
X031579Y004862D01*
X031579Y004855D02*
X031737Y004855D01*
X031737Y004849D02*
X031579Y004849D01*
X031579Y004843D02*
X031737Y004843D01*
X031737Y004836D02*
X031579Y004836D01*
X031579Y004830D02*
X031737Y004830D01*
X031737Y004823D02*
X031579Y004823D01*
X031579Y004817D02*
X031737Y004817D01*
X031737Y004811D02*
X031579Y004811D01*
X031579Y004804D02*
X031737Y004804D01*
X031737Y004798D02*
X031579Y004798D01*
X031579Y004792D02*
X031737Y004792D01*
X031737Y004785D02*
X031579Y004785D01*
X031579Y004779D02*
X031737Y004779D01*
X031737Y004772D02*
X031579Y004772D01*
X031579Y004766D02*
X031736Y004766D01*
X031736Y004760D02*
X031580Y004760D01*
X031584Y004741D02*
X031731Y004741D01*
X031729Y004734D02*
X031587Y004734D01*
X031590Y004728D02*
X031602Y004711D01*
X031619Y004699D01*
X031637Y004691D01*
X031658Y004688D01*
X031678Y004691D01*
X031697Y004699D01*
X031714Y004711D01*
X031726Y004728D01*
X031721Y004721D02*
X031594Y004721D01*
X031599Y004715D02*
X031716Y004715D01*
X031710Y004709D02*
X031606Y004709D01*
X031614Y004702D02*
X031702Y004702D01*
X031690Y004696D02*
X031625Y004696D01*
X031648Y004690D02*
X031668Y004690D01*
X031781Y004741D02*
X031928Y004741D01*
X031918Y004721D02*
X031791Y004721D01*
X031796Y004715D02*
X031913Y004715D01*
X031907Y004709D02*
X031802Y004709D01*
X031811Y004702D02*
X031899Y004702D01*
X031887Y004696D02*
X031822Y004696D01*
X031845Y004690D02*
X031865Y004690D01*
X031537Y004747D02*
X031540Y004767D01*
X031540Y005070D01*
X031382Y005070D01*
X031382Y004767D01*
X031385Y004747D01*
X031537Y004747D01*
X031529Y004728D01*
X031393Y004728D01*
X031405Y004711D01*
X031422Y004699D01*
X031441Y004691D01*
X031461Y004688D01*
X031481Y004691D01*
X031500Y004699D01*
X031517Y004711D01*
X031529Y004728D01*
X031532Y004734D02*
X031390Y004734D01*
X031387Y004741D02*
X031535Y004741D01*
X031538Y004753D02*
X031384Y004753D01*
X031385Y004747D02*
X031393Y004728D01*
X031398Y004721D02*
X031524Y004721D01*
X031520Y004715D02*
X031402Y004715D01*
X031409Y004709D02*
X031513Y004709D01*
X031505Y004702D02*
X031417Y004702D01*
X031428Y004696D02*
X031494Y004696D01*
X031471Y004690D02*
X031451Y004690D01*
X031383Y004760D02*
X031539Y004760D01*
X031540Y004766D02*
X031382Y004766D01*
X031382Y004772D02*
X031540Y004772D01*
X031540Y004779D02*
X031382Y004779D01*
X031382Y004785D02*
X031540Y004785D01*
X031540Y004792D02*
X031382Y004792D01*
X031382Y004798D02*
X031540Y004798D01*
X031540Y004804D02*
X031382Y004804D01*
X031382Y004811D02*
X031540Y004811D01*
X031540Y004817D02*
X031382Y004817D01*
X031382Y004823D02*
X031540Y004823D01*
X031540Y004830D02*
X031382Y004830D01*
X031382Y004836D02*
X031540Y004836D01*
X031540Y004843D02*
X031382Y004843D01*
X031382Y004849D02*
X031540Y004849D01*
X031540Y004855D02*
X031382Y004855D01*
X031382Y004862D02*
X031540Y004862D01*
X031540Y004868D02*
X031382Y004868D01*
X031382Y004874D02*
X031540Y004874D01*
X031540Y004881D02*
X031382Y004881D01*
X031382Y004887D02*
X031540Y004887D01*
X031540Y004894D02*
X031382Y004894D01*
X031382Y004900D02*
X031540Y004900D01*
X031540Y004906D02*
X031382Y004906D01*
X031382Y004913D02*
X031540Y004913D01*
X031540Y004919D02*
X031382Y004919D01*
X031382Y004925D02*
X031540Y004925D01*
X031540Y004932D02*
X031382Y004932D01*
X031382Y004938D02*
X031540Y004938D01*
X031540Y004944D02*
X031382Y004944D01*
X031382Y004951D02*
X031540Y004951D01*
X031540Y004957D02*
X031382Y004957D01*
X031382Y004964D02*
X031540Y004964D01*
X031540Y004970D02*
X031382Y004970D01*
X031382Y004976D02*
X031540Y004976D01*
X031540Y004983D02*
X031382Y004983D01*
X031382Y004989D02*
X031540Y004989D01*
X031540Y004995D02*
X031382Y004995D01*
X031382Y005002D02*
X031540Y005002D01*
X031540Y005008D02*
X031382Y005008D01*
X031382Y005015D02*
X031540Y005015D01*
X031540Y005021D02*
X031382Y005021D01*
X031382Y005027D02*
X031540Y005027D01*
X031540Y005034D02*
X031382Y005034D01*
X031382Y005040D02*
X031540Y005040D01*
X031540Y005046D02*
X031382Y005046D01*
X031382Y005053D02*
X031540Y005053D01*
X031540Y005059D02*
X031382Y005059D01*
X031382Y005066D02*
X031540Y005066D01*
X032598Y004702D02*
X032686Y004702D01*
X032675Y004696D02*
X032610Y004696D01*
X032632Y004690D02*
X032652Y004690D01*
D39*
X013167Y016900D03*
X012733Y016900D03*
X012733Y017400D03*
X013167Y017400D03*
X012167Y017400D03*
X011733Y017400D03*
X011267Y017400D03*
X010833Y017400D03*
X010367Y017400D03*
X009933Y017400D03*
X009467Y017400D03*
X009033Y017400D03*
X007667Y017400D03*
X007233Y017400D03*
X006767Y017400D03*
X006333Y017400D03*
X005867Y017400D03*
X005433Y017400D03*
X004767Y017400D03*
X004333Y017400D03*
D40*
X004300Y016917D03*
X004800Y016917D03*
X005350Y016917D03*
X005850Y016917D03*
X005850Y016483D03*
X005350Y016483D03*
X004800Y016483D03*
X004300Y016483D03*
X006350Y016483D03*
X006850Y016483D03*
X007350Y016483D03*
X007850Y016483D03*
X007850Y016917D03*
X007350Y016917D03*
X006850Y016917D03*
X006350Y016917D03*
X008850Y016917D03*
X008850Y016483D03*
X009350Y016483D03*
X009850Y016483D03*
X010350Y016483D03*
X010850Y016483D03*
X010850Y016917D03*
X010350Y016917D03*
X009850Y016917D03*
X009350Y016917D03*
X011450Y016917D03*
X011450Y016483D03*
M02*
