G75*
%MOIN*%
%OFA0B0*%
%FSLAX24Y24*%
%IPPOS*%
%LPD*%
%AMOC8*
5,1,8,0,0,1.08239X$1,22.5*
%
%ADD10C,0.0000*%
%ADD11C,0.0050*%
%ADD12C,0.0591*%
%ADD13C,0.1005*%
%ADD14C,0.0100*%
%ADD15C,0.0317*%
%ADD16C,0.0320*%
%ADD17C,0.0160*%
%ADD18C,0.0356*%
D10*
X000702Y003000D02*
X000704Y003055D01*
X000710Y003109D01*
X000720Y003163D01*
X000734Y003215D01*
X000751Y003267D01*
X000773Y003317D01*
X000798Y003366D01*
X000826Y003413D01*
X000858Y003457D01*
X000893Y003499D01*
X000931Y003538D01*
X000972Y003575D01*
X001015Y003608D01*
X001060Y003638D01*
X001108Y003665D01*
X001157Y003688D01*
X001208Y003708D01*
X001261Y003724D01*
X001314Y003736D01*
X001368Y003744D01*
X001423Y003748D01*
X001477Y003748D01*
X001532Y003744D01*
X001586Y003736D01*
X001639Y003724D01*
X001692Y003708D01*
X001743Y003688D01*
X001792Y003665D01*
X001840Y003638D01*
X001885Y003608D01*
X001928Y003575D01*
X001969Y003538D01*
X002007Y003499D01*
X002042Y003457D01*
X002074Y003413D01*
X002102Y003366D01*
X002127Y003317D01*
X002149Y003267D01*
X002166Y003215D01*
X002180Y003163D01*
X002190Y003109D01*
X002196Y003055D01*
X002198Y003000D01*
X002196Y002945D01*
X002190Y002891D01*
X002180Y002837D01*
X002166Y002785D01*
X002149Y002733D01*
X002127Y002683D01*
X002102Y002634D01*
X002074Y002587D01*
X002042Y002543D01*
X002007Y002501D01*
X001969Y002462D01*
X001928Y002425D01*
X001885Y002392D01*
X001840Y002362D01*
X001792Y002335D01*
X001743Y002312D01*
X001692Y002292D01*
X001639Y002276D01*
X001586Y002264D01*
X001532Y002256D01*
X001477Y002252D01*
X001423Y002252D01*
X001368Y002256D01*
X001314Y002264D01*
X001261Y002276D01*
X001208Y002292D01*
X001157Y002312D01*
X001108Y002335D01*
X001060Y002362D01*
X001015Y002392D01*
X000972Y002425D01*
X000931Y002462D01*
X000893Y002501D01*
X000858Y002543D01*
X000826Y002587D01*
X000798Y002634D01*
X000773Y002683D01*
X000751Y002733D01*
X000734Y002785D01*
X000720Y002837D01*
X000710Y002891D01*
X000704Y002945D01*
X000702Y003000D01*
X027035Y009100D02*
X027037Y009135D01*
X027043Y009170D01*
X027053Y009204D01*
X027066Y009237D01*
X027083Y009268D01*
X027104Y009296D01*
X027127Y009323D01*
X027154Y009346D01*
X027182Y009367D01*
X027213Y009384D01*
X027246Y009397D01*
X027280Y009407D01*
X027315Y009413D01*
X027350Y009415D01*
X027385Y009413D01*
X027420Y009407D01*
X027454Y009397D01*
X027487Y009384D01*
X027518Y009367D01*
X027546Y009346D01*
X027573Y009323D01*
X027596Y009296D01*
X027617Y009268D01*
X027634Y009237D01*
X027647Y009204D01*
X027657Y009170D01*
X027663Y009135D01*
X027665Y009100D01*
X027663Y009065D01*
X027657Y009030D01*
X027647Y008996D01*
X027634Y008963D01*
X027617Y008932D01*
X027596Y008904D01*
X027573Y008877D01*
X027546Y008854D01*
X027518Y008833D01*
X027487Y008816D01*
X027454Y008803D01*
X027420Y008793D01*
X027385Y008787D01*
X027350Y008785D01*
X027315Y008787D01*
X027280Y008793D01*
X027246Y008803D01*
X027213Y008816D01*
X027182Y008833D01*
X027154Y008854D01*
X027127Y008877D01*
X027104Y008904D01*
X027083Y008932D01*
X027066Y008963D01*
X027053Y008996D01*
X027043Y009030D01*
X027037Y009065D01*
X027035Y009100D01*
X027035Y012100D02*
X027037Y012135D01*
X027043Y012170D01*
X027053Y012204D01*
X027066Y012237D01*
X027083Y012268D01*
X027104Y012296D01*
X027127Y012323D01*
X027154Y012346D01*
X027182Y012367D01*
X027213Y012384D01*
X027246Y012397D01*
X027280Y012407D01*
X027315Y012413D01*
X027350Y012415D01*
X027385Y012413D01*
X027420Y012407D01*
X027454Y012397D01*
X027487Y012384D01*
X027518Y012367D01*
X027546Y012346D01*
X027573Y012323D01*
X027596Y012296D01*
X027617Y012268D01*
X027634Y012237D01*
X027647Y012204D01*
X027657Y012170D01*
X027663Y012135D01*
X027665Y012100D01*
X027663Y012065D01*
X027657Y012030D01*
X027647Y011996D01*
X027634Y011963D01*
X027617Y011932D01*
X027596Y011904D01*
X027573Y011877D01*
X027546Y011854D01*
X027518Y011833D01*
X027487Y011816D01*
X027454Y011803D01*
X027420Y011793D01*
X027385Y011787D01*
X027350Y011785D01*
X027315Y011787D01*
X027280Y011793D01*
X027246Y011803D01*
X027213Y011816D01*
X027182Y011833D01*
X027154Y011854D01*
X027127Y011877D01*
X027104Y011904D01*
X027083Y011932D01*
X027066Y011963D01*
X027053Y011996D01*
X027043Y012030D01*
X027037Y012065D01*
X027035Y012100D01*
X035566Y016041D02*
X035568Y016076D01*
X035574Y016111D01*
X035584Y016145D01*
X035597Y016178D01*
X035614Y016209D01*
X035635Y016237D01*
X035658Y016264D01*
X035685Y016287D01*
X035713Y016308D01*
X035744Y016325D01*
X035777Y016338D01*
X035811Y016348D01*
X035846Y016354D01*
X035881Y016356D01*
X035916Y016354D01*
X035951Y016348D01*
X035985Y016338D01*
X036018Y016325D01*
X036049Y016308D01*
X036077Y016287D01*
X036104Y016264D01*
X036127Y016237D01*
X036148Y016209D01*
X036165Y016178D01*
X036178Y016145D01*
X036188Y016111D01*
X036194Y016076D01*
X036196Y016041D01*
X036194Y016006D01*
X036188Y015971D01*
X036178Y015937D01*
X036165Y015904D01*
X036148Y015873D01*
X036127Y015845D01*
X036104Y015818D01*
X036077Y015795D01*
X036049Y015774D01*
X036018Y015757D01*
X035985Y015744D01*
X035951Y015734D01*
X035916Y015728D01*
X035881Y015726D01*
X035846Y015728D01*
X035811Y015734D01*
X035777Y015744D01*
X035744Y015757D01*
X035713Y015774D01*
X035685Y015795D01*
X035658Y015818D01*
X035635Y015845D01*
X035614Y015873D01*
X035597Y015904D01*
X035584Y015937D01*
X035574Y015971D01*
X035568Y016006D01*
X035566Y016041D01*
X035566Y019159D02*
X035568Y019194D01*
X035574Y019229D01*
X035584Y019263D01*
X035597Y019296D01*
X035614Y019327D01*
X035635Y019355D01*
X035658Y019382D01*
X035685Y019405D01*
X035713Y019426D01*
X035744Y019443D01*
X035777Y019456D01*
X035811Y019466D01*
X035846Y019472D01*
X035881Y019474D01*
X035916Y019472D01*
X035951Y019466D01*
X035985Y019456D01*
X036018Y019443D01*
X036049Y019426D01*
X036077Y019405D01*
X036104Y019382D01*
X036127Y019355D01*
X036148Y019327D01*
X036165Y019296D01*
X036178Y019263D01*
X036188Y019229D01*
X036194Y019194D01*
X036196Y019159D01*
X036194Y019124D01*
X036188Y019089D01*
X036178Y019055D01*
X036165Y019022D01*
X036148Y018991D01*
X036127Y018963D01*
X036104Y018936D01*
X036077Y018913D01*
X036049Y018892D01*
X036018Y018875D01*
X035985Y018862D01*
X035951Y018852D01*
X035916Y018846D01*
X035881Y018844D01*
X035846Y018846D01*
X035811Y018852D01*
X035777Y018862D01*
X035744Y018875D01*
X035713Y018892D01*
X035685Y018913D01*
X035658Y018936D01*
X035635Y018963D01*
X035614Y018991D01*
X035597Y019022D01*
X035584Y019055D01*
X035574Y019089D01*
X035568Y019124D01*
X035566Y019159D01*
X040002Y020300D02*
X040004Y020355D01*
X040010Y020409D01*
X040020Y020463D01*
X040034Y020515D01*
X040051Y020567D01*
X040073Y020617D01*
X040098Y020666D01*
X040126Y020713D01*
X040158Y020757D01*
X040193Y020799D01*
X040231Y020838D01*
X040272Y020875D01*
X040315Y020908D01*
X040360Y020938D01*
X040408Y020965D01*
X040457Y020988D01*
X040508Y021008D01*
X040561Y021024D01*
X040614Y021036D01*
X040668Y021044D01*
X040723Y021048D01*
X040777Y021048D01*
X040832Y021044D01*
X040886Y021036D01*
X040939Y021024D01*
X040992Y021008D01*
X041043Y020988D01*
X041092Y020965D01*
X041140Y020938D01*
X041185Y020908D01*
X041228Y020875D01*
X041269Y020838D01*
X041307Y020799D01*
X041342Y020757D01*
X041374Y020713D01*
X041402Y020666D01*
X041427Y020617D01*
X041449Y020567D01*
X041466Y020515D01*
X041480Y020463D01*
X041490Y020409D01*
X041496Y020355D01*
X041498Y020300D01*
X041496Y020245D01*
X041490Y020191D01*
X041480Y020137D01*
X041466Y020085D01*
X041449Y020033D01*
X041427Y019983D01*
X041402Y019934D01*
X041374Y019887D01*
X041342Y019843D01*
X041307Y019801D01*
X041269Y019762D01*
X041228Y019725D01*
X041185Y019692D01*
X041140Y019662D01*
X041092Y019635D01*
X041043Y019612D01*
X040992Y019592D01*
X040939Y019576D01*
X040886Y019564D01*
X040832Y019556D01*
X040777Y019552D01*
X040723Y019552D01*
X040668Y019556D01*
X040614Y019564D01*
X040561Y019576D01*
X040508Y019592D01*
X040457Y019612D01*
X040408Y019635D01*
X040360Y019662D01*
X040315Y019692D01*
X040272Y019725D01*
X040231Y019762D01*
X040193Y019801D01*
X040158Y019843D01*
X040126Y019887D01*
X040098Y019934D01*
X040073Y019983D01*
X040051Y020033D01*
X040034Y020085D01*
X040020Y020137D01*
X040010Y020191D01*
X040004Y020245D01*
X040002Y020300D01*
X013871Y019200D02*
X013873Y019227D01*
X013879Y019254D01*
X013888Y019280D01*
X013901Y019304D01*
X013917Y019327D01*
X013936Y019346D01*
X013958Y019363D01*
X013982Y019377D01*
X014007Y019387D01*
X014034Y019394D01*
X014061Y019397D01*
X014089Y019396D01*
X014116Y019391D01*
X014142Y019383D01*
X014166Y019371D01*
X014189Y019355D01*
X014210Y019337D01*
X014227Y019316D01*
X014242Y019292D01*
X014253Y019267D01*
X014261Y019241D01*
X014265Y019214D01*
X014265Y019186D01*
X014261Y019159D01*
X014253Y019133D01*
X014242Y019108D01*
X014227Y019084D01*
X014210Y019063D01*
X014189Y019045D01*
X014167Y019029D01*
X014142Y019017D01*
X014116Y019009D01*
X014089Y019004D01*
X014061Y019003D01*
X014034Y019006D01*
X014007Y019013D01*
X013982Y019023D01*
X013958Y019037D01*
X013936Y019054D01*
X013917Y019073D01*
X013901Y019096D01*
X013888Y019120D01*
X013879Y019146D01*
X013873Y019173D01*
X013871Y019200D01*
X003635Y019200D02*
X003637Y019227D01*
X003643Y019254D01*
X003652Y019280D01*
X003665Y019304D01*
X003681Y019327D01*
X003700Y019346D01*
X003722Y019363D01*
X003746Y019377D01*
X003771Y019387D01*
X003798Y019394D01*
X003825Y019397D01*
X003853Y019396D01*
X003880Y019391D01*
X003906Y019383D01*
X003930Y019371D01*
X003953Y019355D01*
X003974Y019337D01*
X003991Y019316D01*
X004006Y019292D01*
X004017Y019267D01*
X004025Y019241D01*
X004029Y019214D01*
X004029Y019186D01*
X004025Y019159D01*
X004017Y019133D01*
X004006Y019108D01*
X003991Y019084D01*
X003974Y019063D01*
X003953Y019045D01*
X003931Y019029D01*
X003906Y019017D01*
X003880Y019009D01*
X003853Y019004D01*
X003825Y019003D01*
X003798Y019006D01*
X003771Y019013D01*
X003746Y019023D01*
X003722Y019037D01*
X003700Y019054D01*
X003681Y019073D01*
X003665Y019096D01*
X003652Y019120D01*
X003643Y019146D01*
X003637Y019173D01*
X003635Y019200D01*
X000702Y020300D02*
X000704Y020355D01*
X000710Y020409D01*
X000720Y020463D01*
X000734Y020515D01*
X000751Y020567D01*
X000773Y020617D01*
X000798Y020666D01*
X000826Y020713D01*
X000858Y020757D01*
X000893Y020799D01*
X000931Y020838D01*
X000972Y020875D01*
X001015Y020908D01*
X001060Y020938D01*
X001108Y020965D01*
X001157Y020988D01*
X001208Y021008D01*
X001261Y021024D01*
X001314Y021036D01*
X001368Y021044D01*
X001423Y021048D01*
X001477Y021048D01*
X001532Y021044D01*
X001586Y021036D01*
X001639Y021024D01*
X001692Y021008D01*
X001743Y020988D01*
X001792Y020965D01*
X001840Y020938D01*
X001885Y020908D01*
X001928Y020875D01*
X001969Y020838D01*
X002007Y020799D01*
X002042Y020757D01*
X002074Y020713D01*
X002102Y020666D01*
X002127Y020617D01*
X002149Y020567D01*
X002166Y020515D01*
X002180Y020463D01*
X002190Y020409D01*
X002196Y020355D01*
X002198Y020300D01*
X002196Y020245D01*
X002190Y020191D01*
X002180Y020137D01*
X002166Y020085D01*
X002149Y020033D01*
X002127Y019983D01*
X002102Y019934D01*
X002074Y019887D01*
X002042Y019843D01*
X002007Y019801D01*
X001969Y019762D01*
X001928Y019725D01*
X001885Y019692D01*
X001840Y019662D01*
X001792Y019635D01*
X001743Y019612D01*
X001692Y019592D01*
X001639Y019576D01*
X001586Y019564D01*
X001532Y019556D01*
X001477Y019552D01*
X001423Y019552D01*
X001368Y019556D01*
X001314Y019564D01*
X001261Y019576D01*
X001208Y019592D01*
X001157Y019612D01*
X001108Y019635D01*
X001060Y019662D01*
X001015Y019692D01*
X000972Y019725D01*
X000931Y019762D01*
X000893Y019801D01*
X000858Y019843D01*
X000826Y019887D01*
X000798Y019934D01*
X000773Y019983D01*
X000751Y020033D01*
X000734Y020085D01*
X000720Y020137D01*
X000710Y020191D01*
X000704Y020245D01*
X000702Y020300D01*
X040002Y003000D02*
X040004Y003055D01*
X040010Y003109D01*
X040020Y003163D01*
X040034Y003215D01*
X040051Y003267D01*
X040073Y003317D01*
X040098Y003366D01*
X040126Y003413D01*
X040158Y003457D01*
X040193Y003499D01*
X040231Y003538D01*
X040272Y003575D01*
X040315Y003608D01*
X040360Y003638D01*
X040408Y003665D01*
X040457Y003688D01*
X040508Y003708D01*
X040561Y003724D01*
X040614Y003736D01*
X040668Y003744D01*
X040723Y003748D01*
X040777Y003748D01*
X040832Y003744D01*
X040886Y003736D01*
X040939Y003724D01*
X040992Y003708D01*
X041043Y003688D01*
X041092Y003665D01*
X041140Y003638D01*
X041185Y003608D01*
X041228Y003575D01*
X041269Y003538D01*
X041307Y003499D01*
X041342Y003457D01*
X041374Y003413D01*
X041402Y003366D01*
X041427Y003317D01*
X041449Y003267D01*
X041466Y003215D01*
X041480Y003163D01*
X041490Y003109D01*
X041496Y003055D01*
X041498Y003000D01*
X041496Y002945D01*
X041490Y002891D01*
X041480Y002837D01*
X041466Y002785D01*
X041449Y002733D01*
X041427Y002683D01*
X041402Y002634D01*
X041374Y002587D01*
X041342Y002543D01*
X041307Y002501D01*
X041269Y002462D01*
X041228Y002425D01*
X041185Y002392D01*
X041140Y002362D01*
X041092Y002335D01*
X041043Y002312D01*
X040992Y002292D01*
X040939Y002276D01*
X040886Y002264D01*
X040832Y002256D01*
X040777Y002252D01*
X040723Y002252D01*
X040668Y002256D01*
X040614Y002264D01*
X040561Y002276D01*
X040508Y002292D01*
X040457Y002312D01*
X040408Y002335D01*
X040360Y002362D01*
X040315Y002392D01*
X040272Y002425D01*
X040231Y002462D01*
X040193Y002501D01*
X040158Y002543D01*
X040126Y002587D01*
X040098Y002634D01*
X040073Y002683D01*
X040051Y002733D01*
X040034Y002785D01*
X040020Y002837D01*
X040010Y002891D01*
X040004Y002945D01*
X040002Y003000D01*
D11*
X042150Y001700D02*
X000150Y001700D01*
X000150Y021600D01*
X042150Y021600D01*
X042150Y001700D01*
D12*
X032450Y011550D03*
X031450Y011550D03*
X030450Y011550D03*
X009050Y011900D03*
X008050Y011900D03*
X008050Y010900D03*
X009050Y010900D03*
X009050Y009900D03*
X008050Y009900D03*
X008050Y008900D03*
X009050Y008900D03*
X009050Y007900D03*
X008050Y007900D03*
X008050Y006900D03*
X009050Y006900D03*
X009050Y005900D03*
X008050Y005900D03*
X008050Y004900D03*
X009050Y004900D03*
X009050Y003900D03*
X008050Y003900D03*
X008050Y012900D03*
X009050Y012900D03*
D13*
X037550Y015261D03*
X037550Y016820D03*
X037550Y018380D03*
D14*
X036931Y018642D02*
X034978Y018642D01*
X034978Y018665D02*
X034928Y018786D01*
X034914Y018800D01*
X034928Y018814D01*
X034978Y018935D01*
X034978Y019065D01*
X034928Y019186D01*
X034914Y019200D01*
X034928Y019214D01*
X034978Y019335D01*
X034978Y019465D01*
X034928Y019586D01*
X034914Y019600D01*
X034928Y019614D01*
X034978Y019735D01*
X034978Y019865D01*
X034928Y019986D01*
X034864Y020050D01*
X034928Y020114D01*
X034978Y020235D01*
X034978Y020365D01*
X034928Y020486D01*
X034836Y020578D01*
X034715Y020628D01*
X034585Y020628D01*
X034464Y020578D01*
X034450Y020564D01*
X034436Y020578D01*
X034315Y020628D01*
X034185Y020628D01*
X034064Y020578D01*
X034050Y020564D01*
X034036Y020578D01*
X033915Y020628D01*
X033785Y020628D01*
X033664Y020578D01*
X033650Y020564D01*
X033636Y020578D01*
X033515Y020628D01*
X033385Y020628D01*
X033264Y020578D01*
X033250Y020564D01*
X033236Y020578D01*
X033115Y020628D01*
X032985Y020628D01*
X032864Y020578D01*
X032850Y020564D01*
X032836Y020578D01*
X032715Y020628D01*
X032585Y020628D01*
X032464Y020578D01*
X032450Y020564D01*
X032436Y020578D01*
X032315Y020628D01*
X032185Y020628D01*
X032064Y020578D01*
X031972Y020486D01*
X031922Y020365D01*
X031922Y020235D01*
X031972Y020114D01*
X032036Y020050D01*
X031972Y019986D01*
X031922Y019865D01*
X031922Y019735D01*
X031972Y019614D01*
X031986Y019600D01*
X031972Y019586D01*
X031922Y019465D01*
X031922Y019335D01*
X031972Y019214D01*
X031986Y019200D01*
X031972Y019186D01*
X031922Y019065D01*
X031922Y018935D01*
X031972Y018814D01*
X031986Y018800D01*
X031972Y018786D01*
X031922Y018665D01*
X031922Y018535D01*
X031972Y018414D01*
X032064Y018322D01*
X032185Y018272D01*
X032315Y018272D01*
X032436Y018322D01*
X032450Y018336D01*
X032464Y018322D01*
X032585Y018272D01*
X032715Y018272D01*
X032836Y018322D01*
X032850Y018336D01*
X032864Y018322D01*
X032985Y018272D01*
X033115Y018272D01*
X033236Y018322D01*
X033250Y018336D01*
X033264Y018322D01*
X033385Y018272D01*
X033515Y018272D01*
X033636Y018322D01*
X033650Y018336D01*
X033664Y018322D01*
X033785Y018272D01*
X033915Y018272D01*
X034036Y018322D01*
X034050Y018336D01*
X034064Y018322D01*
X034185Y018272D01*
X034315Y018272D01*
X034436Y018322D01*
X034450Y018336D01*
X034464Y018322D01*
X034585Y018272D01*
X034715Y018272D01*
X034836Y018322D01*
X034928Y018414D01*
X034978Y018535D01*
X034978Y018665D01*
X034947Y018741D02*
X035624Y018741D01*
X035606Y018748D02*
X035784Y018674D01*
X035977Y018674D01*
X036155Y018748D01*
X036292Y018884D01*
X036366Y019063D01*
X036366Y019256D01*
X036292Y019434D01*
X036155Y019570D01*
X035977Y019644D01*
X035784Y019644D01*
X035606Y019570D01*
X035470Y019434D01*
X035396Y019256D01*
X035396Y019063D01*
X035470Y018884D01*
X035606Y018748D01*
X035515Y018839D02*
X034939Y018839D01*
X034978Y018938D02*
X035448Y018938D01*
X035407Y019036D02*
X034978Y019036D01*
X034950Y019135D02*
X035396Y019135D01*
X035396Y019233D02*
X034936Y019233D01*
X034977Y019332D02*
X035427Y019332D01*
X035468Y019430D02*
X034978Y019430D01*
X034952Y019529D02*
X035564Y019529D01*
X035743Y019627D02*
X034934Y019627D01*
X034975Y019726D02*
X040026Y019726D01*
X039972Y019780D02*
X040230Y019522D01*
X040567Y019382D01*
X040933Y019382D01*
X041270Y019522D01*
X041528Y019780D01*
X041668Y020117D01*
X041668Y020483D01*
X041528Y020820D01*
X041270Y021078D01*
X040933Y021218D01*
X040567Y021218D01*
X040230Y021078D01*
X039972Y020820D01*
X039832Y020483D01*
X039832Y020117D01*
X039972Y019780D01*
X039953Y019824D02*
X034978Y019824D01*
X034955Y019923D02*
X039913Y019923D01*
X039872Y020021D02*
X034893Y020021D01*
X034931Y020120D02*
X039832Y020120D01*
X039832Y020218D02*
X034972Y020218D01*
X034978Y020317D02*
X039832Y020317D01*
X039832Y020415D02*
X034958Y020415D01*
X034901Y020514D02*
X039845Y020514D01*
X039886Y020612D02*
X034755Y020612D01*
X034545Y020612D02*
X034355Y020612D01*
X034145Y020612D02*
X033955Y020612D01*
X033745Y020612D02*
X033555Y020612D01*
X033345Y020612D02*
X033155Y020612D01*
X032945Y020612D02*
X032755Y020612D01*
X032545Y020612D02*
X032355Y020612D01*
X032145Y020612D02*
X031055Y020612D01*
X031015Y020628D02*
X030885Y020628D01*
X030764Y020578D01*
X030750Y020564D01*
X030736Y020578D01*
X030615Y020628D01*
X030485Y020628D01*
X030364Y020578D01*
X030350Y020564D01*
X030336Y020578D01*
X030215Y020628D01*
X030085Y020628D01*
X029964Y020578D01*
X029950Y020564D01*
X029936Y020578D01*
X029815Y020628D01*
X029685Y020628D01*
X029564Y020578D01*
X029550Y020564D01*
X029536Y020578D01*
X029415Y020628D01*
X029285Y020628D01*
X029164Y020578D01*
X029150Y020564D01*
X029136Y020578D01*
X029015Y020628D01*
X028885Y020628D01*
X028764Y020578D01*
X028750Y020564D01*
X028736Y020578D01*
X028615Y020628D01*
X028485Y020628D01*
X028364Y020578D01*
X028272Y020486D01*
X028222Y020365D01*
X028222Y020235D01*
X028272Y020114D01*
X028336Y020050D01*
X028272Y019986D01*
X028222Y019865D01*
X028222Y019735D01*
X028272Y019614D01*
X028286Y019600D01*
X028272Y019586D01*
X028222Y019465D01*
X028222Y019335D01*
X028272Y019214D01*
X028286Y019200D01*
X028272Y019186D01*
X028222Y019065D01*
X028222Y018935D01*
X028272Y018814D01*
X028286Y018800D01*
X028272Y018786D01*
X028222Y018665D01*
X028222Y018535D01*
X028272Y018414D01*
X028364Y018322D01*
X028485Y018272D01*
X028615Y018272D01*
X028736Y018322D01*
X028750Y018336D01*
X028764Y018322D01*
X028885Y018272D01*
X029015Y018272D01*
X029136Y018322D01*
X029150Y018336D01*
X029164Y018322D01*
X029285Y018272D01*
X029415Y018272D01*
X029536Y018322D01*
X029550Y018336D01*
X029564Y018322D01*
X029685Y018272D01*
X029815Y018272D01*
X029936Y018322D01*
X029950Y018336D01*
X029964Y018322D01*
X030085Y018272D01*
X030215Y018272D01*
X030336Y018322D01*
X030350Y018336D01*
X030364Y018322D01*
X030485Y018272D01*
X030615Y018272D01*
X030736Y018322D01*
X030750Y018336D01*
X030764Y018322D01*
X030885Y018272D01*
X031015Y018272D01*
X031136Y018322D01*
X031228Y018414D01*
X031278Y018535D01*
X031278Y018665D01*
X031228Y018786D01*
X031214Y018800D01*
X031228Y018814D01*
X031278Y018935D01*
X031278Y019065D01*
X031228Y019186D01*
X031214Y019200D01*
X031228Y019214D01*
X031278Y019335D01*
X031278Y019465D01*
X031228Y019586D01*
X031214Y019600D01*
X031228Y019614D01*
X031278Y019735D01*
X031278Y019865D01*
X031228Y019986D01*
X031164Y020050D01*
X031228Y020114D01*
X031278Y020235D01*
X031278Y020365D01*
X031228Y020486D01*
X031136Y020578D01*
X031015Y020628D01*
X030845Y020612D02*
X030655Y020612D01*
X030445Y020612D02*
X030255Y020612D01*
X030045Y020612D02*
X029855Y020612D01*
X029645Y020612D02*
X029455Y020612D01*
X029245Y020612D02*
X029055Y020612D01*
X028845Y020612D02*
X028655Y020612D01*
X028445Y020612D02*
X027355Y020612D01*
X027315Y020628D02*
X027185Y020628D01*
X027064Y020578D01*
X027050Y020564D01*
X027036Y020578D01*
X026915Y020628D01*
X026785Y020628D01*
X026664Y020578D01*
X026650Y020564D01*
X026636Y020578D01*
X026515Y020628D01*
X026385Y020628D01*
X026264Y020578D01*
X026250Y020564D01*
X026236Y020578D01*
X026115Y020628D01*
X025985Y020628D01*
X025864Y020578D01*
X025850Y020564D01*
X025836Y020578D01*
X025715Y020628D01*
X025585Y020628D01*
X025464Y020578D01*
X025450Y020564D01*
X025436Y020578D01*
X025315Y020628D01*
X025185Y020628D01*
X025064Y020578D01*
X025050Y020564D01*
X025036Y020578D01*
X024915Y020628D01*
X024785Y020628D01*
X024664Y020578D01*
X024572Y020486D01*
X024522Y020365D01*
X024522Y020235D01*
X024572Y020114D01*
X024636Y020050D01*
X024572Y019986D01*
X024522Y019865D01*
X024522Y019735D01*
X024572Y019614D01*
X024586Y019600D01*
X024572Y019586D01*
X024522Y019465D01*
X024522Y019335D01*
X024572Y019214D01*
X024586Y019200D01*
X024572Y019186D01*
X024522Y019065D01*
X024522Y018935D01*
X024572Y018814D01*
X024586Y018800D01*
X024572Y018786D01*
X024522Y018665D01*
X024522Y018535D01*
X024572Y018414D01*
X024664Y018322D01*
X024785Y018272D01*
X024915Y018272D01*
X025036Y018322D01*
X025050Y018336D01*
X025064Y018322D01*
X025185Y018272D01*
X025315Y018272D01*
X025436Y018322D01*
X025450Y018336D01*
X025464Y018322D01*
X025585Y018272D01*
X025715Y018272D01*
X025836Y018322D01*
X025850Y018336D01*
X025864Y018322D01*
X025985Y018272D01*
X026115Y018272D01*
X026236Y018322D01*
X026250Y018336D01*
X026264Y018322D01*
X026385Y018272D01*
X026515Y018272D01*
X026636Y018322D01*
X026650Y018336D01*
X026664Y018322D01*
X026785Y018272D01*
X026915Y018272D01*
X027036Y018322D01*
X027050Y018336D01*
X027064Y018322D01*
X027185Y018272D01*
X027315Y018272D01*
X027436Y018322D01*
X027528Y018414D01*
X027578Y018535D01*
X027578Y018665D01*
X027528Y018786D01*
X027514Y018800D01*
X027528Y018814D01*
X027578Y018935D01*
X027578Y019065D01*
X027528Y019186D01*
X027514Y019200D01*
X027528Y019214D01*
X027578Y019335D01*
X027578Y019465D01*
X027528Y019586D01*
X027514Y019600D01*
X027528Y019614D01*
X027578Y019735D01*
X027578Y019865D01*
X027528Y019986D01*
X027464Y020050D01*
X027528Y020114D01*
X027578Y020235D01*
X027578Y020365D01*
X027528Y020486D01*
X027436Y020578D01*
X027315Y020628D01*
X027145Y020612D02*
X026955Y020612D01*
X026745Y020612D02*
X026555Y020612D01*
X026345Y020612D02*
X026155Y020612D01*
X025945Y020612D02*
X025755Y020612D01*
X025545Y020612D02*
X025355Y020612D01*
X025145Y020612D02*
X024955Y020612D01*
X024745Y020612D02*
X014613Y020612D01*
X014636Y020622D02*
X014728Y020714D01*
X014778Y020835D01*
X014778Y020965D01*
X014728Y021086D01*
X014636Y021178D01*
X014515Y021228D01*
X014385Y021228D01*
X014264Y021178D01*
X014172Y021086D01*
X014122Y020965D01*
X014122Y020835D01*
X014172Y020714D01*
X014264Y020622D01*
X014385Y020572D01*
X014515Y020572D01*
X014636Y020622D01*
X014725Y020711D02*
X039926Y020711D01*
X039967Y020809D02*
X014768Y020809D01*
X014778Y020908D02*
X040059Y020908D01*
X040158Y021006D02*
X014762Y021006D01*
X014710Y021105D02*
X040293Y021105D01*
X040531Y021203D02*
X014577Y021203D01*
X014323Y021203D02*
X013777Y021203D01*
X013836Y021178D02*
X013715Y021228D01*
X013585Y021228D01*
X013464Y021178D01*
X013372Y021086D01*
X013322Y020965D01*
X013322Y020835D01*
X013372Y020714D01*
X013464Y020622D01*
X013585Y020572D01*
X013715Y020572D01*
X013836Y020622D01*
X013928Y020714D01*
X013978Y020835D01*
X013978Y020965D01*
X013928Y021086D01*
X013836Y021178D01*
X013910Y021105D02*
X014190Y021105D01*
X014138Y021006D02*
X013962Y021006D01*
X013978Y020908D02*
X014122Y020908D01*
X014132Y020809D02*
X013968Y020809D01*
X013925Y020711D02*
X014175Y020711D01*
X014287Y020612D02*
X013813Y020612D01*
X013487Y020612D02*
X002314Y020612D01*
X002274Y020711D02*
X013375Y020711D01*
X013332Y020809D02*
X002233Y020809D01*
X002228Y020820D02*
X001970Y021078D01*
X001633Y021218D01*
X001267Y021218D01*
X000930Y021078D01*
X000672Y020820D01*
X000532Y020483D01*
X000532Y020117D01*
X000672Y019780D01*
X000930Y019522D01*
X001267Y019382D01*
X001633Y019382D01*
X001970Y019522D01*
X002228Y019780D01*
X002368Y020117D01*
X002368Y020483D01*
X002228Y020820D01*
X002141Y020908D02*
X013322Y020908D01*
X013338Y021006D02*
X002042Y021006D01*
X001907Y021105D02*
X013390Y021105D01*
X013523Y021203D02*
X001669Y021203D01*
X001231Y021203D02*
X000345Y021203D01*
X000345Y021105D02*
X000993Y021105D01*
X000858Y021006D02*
X000345Y021006D01*
X000345Y020908D02*
X000759Y020908D01*
X000667Y020809D02*
X000345Y020809D01*
X000345Y020711D02*
X000626Y020711D01*
X000586Y020612D02*
X000345Y020612D01*
X000345Y020514D02*
X000545Y020514D01*
X000532Y020415D02*
X000345Y020415D01*
X000345Y020317D02*
X000532Y020317D01*
X000532Y020218D02*
X000345Y020218D01*
X000345Y020120D02*
X000532Y020120D01*
X000572Y020021D02*
X000345Y020021D01*
X000345Y019923D02*
X000613Y019923D01*
X000653Y019824D02*
X000345Y019824D01*
X000345Y019726D02*
X000726Y019726D01*
X000825Y019627D02*
X000345Y019627D01*
X000345Y019529D02*
X000923Y019529D01*
X001151Y019430D02*
X000345Y019430D01*
X000345Y019332D02*
X003489Y019332D01*
X003465Y019273D02*
X003465Y019127D01*
X003521Y018992D01*
X003624Y018889D01*
X003759Y018833D01*
X003905Y018833D01*
X004040Y018889D01*
X004143Y018992D01*
X004199Y019127D01*
X004199Y019273D01*
X004143Y019408D01*
X004040Y019511D01*
X003905Y019567D01*
X003759Y019567D01*
X003624Y019511D01*
X003521Y019408D01*
X003465Y019273D01*
X003465Y019233D02*
X000345Y019233D01*
X000345Y019135D02*
X003465Y019135D01*
X003503Y019036D02*
X000345Y019036D01*
X000345Y018938D02*
X003576Y018938D01*
X003745Y018839D02*
X000345Y018839D01*
X000345Y018741D02*
X024553Y018741D01*
X024561Y018839D02*
X014155Y018839D01*
X014141Y018833D02*
X014276Y018889D01*
X014379Y018992D01*
X014435Y019127D01*
X014435Y019273D01*
X014379Y019408D01*
X014276Y019511D01*
X014141Y019567D01*
X013995Y019567D01*
X013860Y019511D01*
X013757Y019408D01*
X013701Y019273D01*
X013701Y019127D01*
X013757Y018992D01*
X013860Y018889D01*
X013995Y018833D01*
X014141Y018833D01*
X013981Y018839D02*
X003919Y018839D01*
X004088Y018938D02*
X013812Y018938D01*
X013739Y019036D02*
X004161Y019036D01*
X004199Y019135D02*
X013701Y019135D01*
X013701Y019233D02*
X004199Y019233D01*
X004174Y019332D02*
X013726Y019332D01*
X013779Y019430D02*
X004121Y019430D01*
X003997Y019529D02*
X013903Y019529D01*
X014234Y019529D02*
X024548Y019529D01*
X024566Y019627D02*
X002075Y019627D01*
X001977Y019529D02*
X003666Y019529D01*
X003543Y019430D02*
X001749Y019430D01*
X002174Y019726D02*
X024525Y019726D01*
X024522Y019824D02*
X002247Y019824D01*
X002287Y019923D02*
X024545Y019923D01*
X024607Y020021D02*
X002328Y020021D01*
X002368Y020120D02*
X024569Y020120D01*
X024528Y020218D02*
X002368Y020218D01*
X002368Y020317D02*
X024522Y020317D01*
X024542Y020415D02*
X002368Y020415D01*
X002355Y020514D02*
X024599Y020514D01*
X024522Y019430D02*
X014357Y019430D01*
X014411Y019332D02*
X024523Y019332D01*
X024564Y019233D02*
X014435Y019233D01*
X014435Y019135D02*
X024550Y019135D01*
X024522Y019036D02*
X014397Y019036D01*
X014324Y018938D02*
X024522Y018938D01*
X024522Y018642D02*
X000345Y018642D01*
X000345Y018544D02*
X024522Y018544D01*
X024559Y018445D02*
X000345Y018445D01*
X000345Y018347D02*
X024639Y018347D01*
X027461Y018347D02*
X028339Y018347D01*
X028259Y018445D02*
X027541Y018445D01*
X027578Y018544D02*
X028222Y018544D01*
X028222Y018642D02*
X027578Y018642D01*
X027547Y018741D02*
X028253Y018741D01*
X028261Y018839D02*
X027539Y018839D01*
X027578Y018938D02*
X028222Y018938D01*
X028222Y019036D02*
X027578Y019036D01*
X027550Y019135D02*
X028250Y019135D01*
X028264Y019233D02*
X027536Y019233D01*
X027577Y019332D02*
X028223Y019332D01*
X028222Y019430D02*
X027578Y019430D01*
X027552Y019529D02*
X028248Y019529D01*
X028266Y019627D02*
X027534Y019627D01*
X027575Y019726D02*
X028225Y019726D01*
X028222Y019824D02*
X027578Y019824D01*
X027555Y019923D02*
X028245Y019923D01*
X028307Y020021D02*
X027493Y020021D01*
X027531Y020120D02*
X028269Y020120D01*
X028228Y020218D02*
X027572Y020218D01*
X027578Y020317D02*
X028222Y020317D01*
X028242Y020415D02*
X027558Y020415D01*
X027501Y020514D02*
X028299Y020514D01*
X031201Y020514D02*
X031999Y020514D01*
X031942Y020415D02*
X031258Y020415D01*
X031278Y020317D02*
X031922Y020317D01*
X031928Y020218D02*
X031272Y020218D01*
X031231Y020120D02*
X031969Y020120D01*
X032007Y020021D02*
X031193Y020021D01*
X031255Y019923D02*
X031945Y019923D01*
X031922Y019824D02*
X031278Y019824D01*
X031275Y019726D02*
X031925Y019726D01*
X031966Y019627D02*
X031234Y019627D01*
X031252Y019529D02*
X031948Y019529D01*
X031922Y019430D02*
X031278Y019430D01*
X031277Y019332D02*
X031923Y019332D01*
X031964Y019233D02*
X031236Y019233D01*
X031250Y019135D02*
X031950Y019135D01*
X031922Y019036D02*
X031278Y019036D01*
X031278Y018938D02*
X031922Y018938D01*
X031961Y018839D02*
X031239Y018839D01*
X031247Y018741D02*
X031953Y018741D01*
X031922Y018642D02*
X031278Y018642D01*
X031278Y018544D02*
X031922Y018544D01*
X031959Y018445D02*
X031241Y018445D01*
X031161Y018347D02*
X032039Y018347D01*
X034861Y018347D02*
X036878Y018347D01*
X036878Y018445D02*
X034941Y018445D01*
X034978Y018544D02*
X036890Y018544D01*
X036878Y018513D02*
X036878Y018246D01*
X036980Y017999D01*
X037169Y017809D01*
X037416Y017707D01*
X037684Y017707D01*
X037931Y017809D01*
X038120Y017999D01*
X038222Y018246D01*
X038222Y018513D01*
X038120Y018760D01*
X037931Y018950D01*
X037684Y019052D01*
X037416Y019052D01*
X037169Y018950D01*
X036980Y018760D01*
X036878Y018513D01*
X036972Y018741D02*
X036138Y018741D01*
X036247Y018839D02*
X037058Y018839D01*
X037157Y018938D02*
X036314Y018938D01*
X036355Y019036D02*
X037378Y019036D01*
X037722Y019036D02*
X041955Y019036D01*
X041955Y018938D02*
X037943Y018938D01*
X038042Y018839D02*
X041955Y018839D01*
X041955Y018741D02*
X038128Y018741D01*
X038169Y018642D02*
X041955Y018642D01*
X041955Y018544D02*
X038210Y018544D01*
X038222Y018445D02*
X041955Y018445D01*
X041955Y018347D02*
X038222Y018347D01*
X038222Y018248D02*
X041955Y018248D01*
X041955Y018150D02*
X038183Y018150D01*
X038142Y018051D02*
X041955Y018051D01*
X041955Y017953D02*
X038074Y017953D01*
X037976Y017854D02*
X041955Y017854D01*
X041955Y017756D02*
X037801Y017756D01*
X037684Y017493D02*
X037416Y017493D01*
X037169Y017391D01*
X036980Y017201D01*
X036878Y016954D01*
X036878Y016687D01*
X036980Y016440D01*
X037169Y016250D01*
X037416Y016148D01*
X037684Y016148D01*
X037931Y016250D01*
X038120Y016440D01*
X038222Y016687D01*
X038222Y016954D01*
X038120Y017201D01*
X037931Y017391D01*
X037684Y017493D01*
X037763Y017460D02*
X041955Y017460D01*
X041955Y017362D02*
X037960Y017362D01*
X038058Y017263D02*
X041955Y017263D01*
X041955Y017165D02*
X038135Y017165D01*
X038176Y017066D02*
X041955Y017066D01*
X041955Y016968D02*
X038217Y016968D01*
X038222Y016869D02*
X041955Y016869D01*
X041955Y016771D02*
X038222Y016771D01*
X038216Y016672D02*
X041955Y016672D01*
X041955Y016574D02*
X038176Y016574D01*
X038135Y016475D02*
X041955Y016475D01*
X041955Y016377D02*
X038057Y016377D01*
X037959Y016278D02*
X041955Y016278D01*
X041955Y016180D02*
X037760Y016180D01*
X037678Y015903D02*
X037600Y015913D01*
X037600Y015311D01*
X038202Y015311D01*
X038191Y015389D01*
X038169Y015472D01*
X038136Y015551D01*
X038094Y015625D01*
X038042Y015693D01*
X037981Y015753D01*
X037913Y015805D01*
X037839Y015848D01*
X037760Y015881D01*
X037678Y015903D01*
X037747Y015884D02*
X041955Y015884D01*
X041955Y015786D02*
X037939Y015786D01*
X038046Y015687D02*
X041955Y015687D01*
X041955Y015589D02*
X038115Y015589D01*
X038162Y015490D02*
X041955Y015490D01*
X041955Y015392D02*
X038191Y015392D01*
X038202Y015211D02*
X037600Y015211D01*
X037600Y014610D01*
X037678Y014620D01*
X037760Y014642D01*
X037839Y014675D01*
X037913Y014718D01*
X037981Y014770D01*
X038042Y014830D01*
X038094Y014898D01*
X038136Y014972D01*
X038169Y015051D01*
X038191Y015134D01*
X038202Y015211D01*
X038199Y015195D02*
X041955Y015195D01*
X041955Y015293D02*
X037600Y015293D01*
X037600Y015311D02*
X037600Y015211D01*
X037500Y015211D01*
X037500Y014610D01*
X037422Y014620D01*
X037340Y014642D01*
X037261Y014675D01*
X037187Y014718D01*
X037119Y014770D01*
X037058Y014830D01*
X037006Y014898D01*
X036964Y014972D01*
X036931Y015051D01*
X036909Y015134D01*
X036898Y015211D01*
X037500Y015211D01*
X037500Y015311D01*
X036898Y015311D01*
X036909Y015389D01*
X036931Y015472D01*
X036964Y015551D01*
X037006Y015625D01*
X037058Y015693D01*
X037119Y015753D01*
X037187Y015805D01*
X037261Y015848D01*
X037340Y015881D01*
X037422Y015903D01*
X037500Y015913D01*
X037500Y015311D01*
X037600Y015311D01*
X037600Y015392D02*
X037500Y015392D01*
X037500Y015490D02*
X037600Y015490D01*
X037600Y015589D02*
X037500Y015589D01*
X037500Y015687D02*
X037600Y015687D01*
X037600Y015786D02*
X037500Y015786D01*
X037500Y015884D02*
X037600Y015884D01*
X037353Y015884D02*
X036341Y015884D01*
X036366Y015944D02*
X036292Y015766D01*
X036155Y015630D01*
X035977Y015556D01*
X035784Y015556D01*
X035606Y015630D01*
X035470Y015766D01*
X035396Y015944D01*
X035396Y016137D01*
X035470Y016316D01*
X035606Y016452D01*
X035784Y016526D01*
X035977Y016526D01*
X036155Y016452D01*
X036292Y016316D01*
X036366Y016137D01*
X036366Y015944D01*
X036366Y015983D02*
X041955Y015983D01*
X041955Y016081D02*
X036366Y016081D01*
X036348Y016180D02*
X037340Y016180D01*
X037141Y016278D02*
X036307Y016278D01*
X036231Y016377D02*
X037043Y016377D01*
X036965Y016475D02*
X036100Y016475D01*
X035661Y016475D02*
X030074Y016475D01*
X030078Y016465D02*
X030028Y016586D01*
X029936Y016678D01*
X029815Y016728D01*
X029685Y016728D01*
X029564Y016678D01*
X029472Y016586D01*
X029422Y016465D01*
X029422Y016335D01*
X029472Y016214D01*
X029564Y016122D01*
X029685Y016072D01*
X029815Y016072D01*
X029936Y016122D01*
X030028Y016214D01*
X030078Y016335D01*
X030078Y016465D01*
X030078Y016377D02*
X035530Y016377D01*
X035454Y016278D02*
X030055Y016278D01*
X029994Y016180D02*
X035413Y016180D01*
X035396Y016081D02*
X029838Y016081D01*
X029662Y016081D02*
X000345Y016081D01*
X000345Y015983D02*
X035396Y015983D01*
X035421Y015884D02*
X000345Y015884D01*
X000345Y015786D02*
X035462Y015786D01*
X035549Y015687D02*
X000345Y015687D01*
X000345Y015589D02*
X035706Y015589D01*
X036056Y015589D02*
X036985Y015589D01*
X036938Y015490D02*
X000345Y015490D01*
X000345Y015392D02*
X036909Y015392D01*
X036901Y015195D02*
X000345Y015195D01*
X000345Y015293D02*
X037500Y015293D01*
X037500Y015195D02*
X037600Y015195D01*
X037600Y015096D02*
X037500Y015096D01*
X037500Y014998D02*
X037600Y014998D01*
X037600Y014899D02*
X037500Y014899D01*
X037500Y014801D02*
X037600Y014801D01*
X037600Y014702D02*
X037500Y014702D01*
X037214Y014702D02*
X033663Y014702D01*
X033678Y014665D02*
X033628Y014786D01*
X033536Y014878D01*
X033415Y014928D01*
X033285Y014928D01*
X033164Y014878D01*
X033072Y014786D01*
X033022Y014665D01*
X033022Y014535D01*
X033072Y014414D01*
X033164Y014322D01*
X033285Y014272D01*
X033415Y014272D01*
X033536Y014322D01*
X033628Y014414D01*
X033678Y014535D01*
X033678Y014665D01*
X033678Y014604D02*
X041955Y014604D01*
X041955Y014702D02*
X037886Y014702D01*
X038012Y014801D02*
X041955Y014801D01*
X041955Y014899D02*
X038094Y014899D01*
X038147Y014998D02*
X041955Y014998D01*
X041955Y015096D02*
X038181Y015096D01*
X037088Y014801D02*
X033614Y014801D01*
X033486Y014899D02*
X037006Y014899D01*
X036953Y014998D02*
X000345Y014998D01*
X000345Y015096D02*
X036919Y015096D01*
X037054Y015687D02*
X036213Y015687D01*
X036300Y015786D02*
X037161Y015786D01*
X036924Y016574D02*
X030034Y016574D01*
X029942Y016672D02*
X036884Y016672D01*
X036878Y016771D02*
X000345Y016771D01*
X000345Y016869D02*
X021016Y016869D01*
X020972Y016914D02*
X021064Y016822D01*
X021185Y016772D01*
X021315Y016772D01*
X021436Y016822D01*
X021528Y016914D01*
X021578Y017035D01*
X021578Y017165D01*
X021528Y017286D01*
X021436Y017378D01*
X021315Y017428D01*
X021185Y017428D01*
X021064Y017378D01*
X020972Y017286D01*
X020922Y017165D01*
X020922Y017035D01*
X020972Y016914D01*
X020949Y016968D02*
X000345Y016968D01*
X000345Y017066D02*
X020922Y017066D01*
X020922Y017165D02*
X000345Y017165D01*
X000345Y017263D02*
X020962Y017263D01*
X021047Y017362D02*
X000345Y017362D01*
X000345Y017460D02*
X037337Y017460D01*
X037140Y017362D02*
X021453Y017362D01*
X021538Y017263D02*
X037042Y017263D01*
X036965Y017165D02*
X021578Y017165D01*
X021578Y017066D02*
X036924Y017066D01*
X036883Y016968D02*
X021551Y016968D01*
X021484Y016869D02*
X036878Y016869D01*
X037299Y017756D02*
X000345Y017756D01*
X000345Y017854D02*
X037124Y017854D01*
X037026Y017953D02*
X000345Y017953D01*
X000345Y018051D02*
X036958Y018051D01*
X036917Y018150D02*
X000345Y018150D01*
X000345Y018248D02*
X036878Y018248D01*
X036366Y019135D02*
X041955Y019135D01*
X041955Y019233D02*
X036366Y019233D01*
X036334Y019332D02*
X041955Y019332D01*
X041955Y019430D02*
X041049Y019430D01*
X041277Y019529D02*
X041955Y019529D01*
X041955Y019627D02*
X041375Y019627D01*
X041474Y019726D02*
X041955Y019726D01*
X041955Y019824D02*
X041547Y019824D01*
X041587Y019923D02*
X041955Y019923D01*
X041955Y020021D02*
X041628Y020021D01*
X041668Y020120D02*
X041955Y020120D01*
X041955Y020218D02*
X041668Y020218D01*
X041668Y020317D02*
X041955Y020317D01*
X041955Y020415D02*
X041668Y020415D01*
X041655Y020514D02*
X041955Y020514D01*
X041955Y020612D02*
X041614Y020612D01*
X041574Y020711D02*
X041955Y020711D01*
X041955Y020809D02*
X041533Y020809D01*
X041441Y020908D02*
X041955Y020908D01*
X041955Y021006D02*
X041342Y021006D01*
X041207Y021105D02*
X041955Y021105D01*
X041955Y021203D02*
X040969Y021203D01*
X041955Y021302D02*
X000345Y021302D01*
X000345Y021400D02*
X041955Y021400D01*
X041955Y021405D02*
X041955Y001895D01*
X000345Y001895D01*
X000345Y021405D01*
X041955Y021405D01*
X040125Y019627D02*
X036018Y019627D01*
X036197Y019529D02*
X040223Y019529D01*
X040451Y019430D02*
X036293Y019430D01*
X041955Y017657D02*
X000345Y017657D01*
X000345Y017559D02*
X041955Y017559D01*
X041955Y014505D02*
X033666Y014505D01*
X033621Y014407D02*
X041955Y014407D01*
X041955Y014308D02*
X033503Y014308D01*
X033197Y014308D02*
X000345Y014308D01*
X000345Y014210D02*
X041955Y014210D01*
X041955Y014111D02*
X000345Y014111D01*
X000345Y014013D02*
X041955Y014013D01*
X041955Y013914D02*
X019750Y013914D01*
X019736Y013928D02*
X019828Y013836D01*
X019878Y013715D01*
X019878Y013585D01*
X019828Y013464D01*
X019736Y013372D01*
X019615Y013322D01*
X019485Y013322D01*
X019364Y013372D01*
X019272Y013464D01*
X019222Y013585D01*
X019222Y013715D01*
X019272Y013836D01*
X019364Y013928D01*
X019485Y013978D01*
X019615Y013978D01*
X019736Y013928D01*
X019837Y013816D02*
X041955Y013816D01*
X041955Y013717D02*
X023843Y013717D01*
X023815Y013728D02*
X023685Y013728D01*
X023564Y013678D01*
X023472Y013586D01*
X023422Y013465D01*
X023422Y013335D01*
X023472Y013214D01*
X023564Y013122D01*
X023685Y013072D01*
X023815Y013072D01*
X023936Y013122D01*
X024028Y013214D01*
X024078Y013335D01*
X024078Y013465D01*
X024028Y013586D01*
X023936Y013678D01*
X023815Y013728D01*
X023657Y013717D02*
X019878Y013717D01*
X019878Y013619D02*
X023504Y013619D01*
X023444Y013520D02*
X019852Y013520D01*
X019786Y013422D02*
X023422Y013422D01*
X023426Y013323D02*
X019619Y013323D01*
X019481Y013323D02*
X009245Y013323D01*
X009314Y013294D02*
X009143Y013365D01*
X008957Y013365D01*
X008786Y013294D01*
X008656Y013164D01*
X008585Y012993D01*
X008585Y012807D01*
X008656Y012636D01*
X008786Y012506D01*
X008957Y012435D01*
X009143Y012435D01*
X009314Y012506D01*
X009444Y012636D01*
X009515Y012807D01*
X009515Y012993D01*
X009444Y013164D01*
X009314Y013294D01*
X009383Y013225D02*
X023467Y013225D01*
X023560Y013126D02*
X022121Y013126D01*
X022115Y013128D02*
X021985Y013128D01*
X021864Y013078D01*
X021772Y012986D01*
X021722Y012865D01*
X021722Y012735D01*
X021772Y012614D01*
X021864Y012522D01*
X021985Y012472D01*
X022115Y012472D01*
X022236Y012522D01*
X022328Y012614D01*
X022378Y012735D01*
X022378Y012865D01*
X022328Y012986D01*
X022236Y013078D01*
X022115Y013128D01*
X021979Y013126D02*
X009460Y013126D01*
X009501Y013028D02*
X021813Y013028D01*
X021748Y012929D02*
X009515Y012929D01*
X009515Y012831D02*
X021722Y012831D01*
X021723Y012732D02*
X009484Y012732D01*
X009442Y012634D02*
X017619Y012634D01*
X017664Y012678D02*
X017572Y012586D01*
X017522Y012465D01*
X017522Y012335D01*
X017572Y012214D01*
X017664Y012122D01*
X017785Y012072D01*
X017915Y012072D01*
X018036Y012122D01*
X018128Y012214D01*
X018178Y012335D01*
X018178Y012465D01*
X018128Y012586D01*
X018036Y012678D01*
X017915Y012728D01*
X017785Y012728D01*
X017664Y012678D01*
X017550Y012535D02*
X015879Y012535D01*
X015836Y012578D02*
X015715Y012628D01*
X015585Y012628D01*
X015464Y012578D01*
X015372Y012486D01*
X015322Y012365D01*
X015322Y012235D01*
X015372Y012114D01*
X015464Y012022D01*
X015585Y011972D01*
X015715Y011972D01*
X015836Y012022D01*
X015928Y012114D01*
X015978Y012235D01*
X015978Y012365D01*
X015928Y012486D01*
X015836Y012578D01*
X015949Y012437D02*
X017522Y012437D01*
X017522Y012338D02*
X015978Y012338D01*
X015978Y012240D02*
X016525Y012240D01*
X016564Y012278D02*
X016472Y012186D01*
X016422Y012065D01*
X016422Y011935D01*
X016472Y011814D01*
X016564Y011722D01*
X016685Y011672D01*
X016815Y011672D01*
X016936Y011722D01*
X017028Y011814D01*
X017078Y011935D01*
X017078Y012065D01*
X017028Y012186D01*
X016936Y012278D01*
X016815Y012328D01*
X016685Y012328D01*
X016564Y012278D01*
X016453Y012141D02*
X015940Y012141D01*
X015857Y012043D02*
X016422Y012043D01*
X016422Y011944D02*
X009515Y011944D01*
X009515Y011993D02*
X009515Y011807D01*
X009444Y011636D01*
X009314Y011506D01*
X009143Y011435D01*
X008957Y011435D01*
X008786Y011506D01*
X008656Y011636D01*
X008585Y011807D01*
X008585Y011993D01*
X008656Y012164D01*
X008786Y012294D01*
X008957Y012365D01*
X009143Y012365D01*
X009314Y012294D01*
X009444Y012164D01*
X009515Y011993D01*
X009495Y012043D02*
X015443Y012043D01*
X015360Y012141D02*
X009454Y012141D01*
X009368Y012240D02*
X015322Y012240D01*
X015322Y012338D02*
X009208Y012338D01*
X009147Y012437D02*
X015351Y012437D01*
X015421Y012535D02*
X009343Y012535D01*
X008953Y012437D02*
X008147Y012437D01*
X008143Y012435D02*
X008314Y012506D01*
X008444Y012636D01*
X008515Y012807D01*
X008515Y012993D01*
X008444Y013164D01*
X008314Y013294D01*
X008143Y013365D01*
X007957Y013365D01*
X007786Y013294D01*
X007656Y013164D01*
X007585Y012993D01*
X007585Y012807D01*
X007656Y012636D01*
X007786Y012506D01*
X007957Y012435D01*
X008143Y012435D01*
X008143Y012365D02*
X007957Y012365D01*
X007786Y012294D01*
X007656Y012164D01*
X007585Y011993D01*
X007585Y011807D01*
X007656Y011636D01*
X007786Y011506D01*
X007957Y011435D01*
X008143Y011435D01*
X008314Y011506D01*
X008444Y011636D01*
X008515Y011807D01*
X008515Y011993D01*
X008444Y012164D01*
X008314Y012294D01*
X008143Y012365D01*
X008208Y012338D02*
X008892Y012338D01*
X008732Y012240D02*
X008368Y012240D01*
X008454Y012141D02*
X008646Y012141D01*
X008605Y012043D02*
X008495Y012043D01*
X008515Y011944D02*
X008585Y011944D01*
X008585Y011846D02*
X008515Y011846D01*
X008490Y011747D02*
X008610Y011747D01*
X008651Y011649D02*
X008449Y011649D01*
X008358Y011550D02*
X008742Y011550D01*
X008917Y011452D02*
X008183Y011452D01*
X008143Y011365D02*
X007957Y011365D01*
X007786Y011294D01*
X007656Y011164D01*
X007585Y010993D01*
X007585Y010807D01*
X007656Y010636D01*
X007786Y010506D01*
X007957Y010435D01*
X008143Y010435D01*
X008314Y010506D01*
X008444Y010636D01*
X008515Y010807D01*
X008515Y010993D01*
X008444Y011164D01*
X008314Y011294D01*
X008143Y011365D01*
X008172Y011353D02*
X008928Y011353D01*
X008957Y011365D02*
X008786Y011294D01*
X008656Y011164D01*
X008585Y010993D01*
X008585Y010807D01*
X008656Y010636D01*
X008786Y010506D01*
X008957Y010435D01*
X009143Y010435D01*
X009314Y010506D01*
X009444Y010636D01*
X009515Y010807D01*
X009515Y010993D01*
X009444Y011164D01*
X009314Y011294D01*
X009143Y011365D01*
X008957Y011365D01*
X009172Y011353D02*
X014322Y011353D01*
X014322Y011335D02*
X014372Y011214D01*
X014464Y011122D01*
X014585Y011072D01*
X014715Y011072D01*
X014836Y011122D01*
X014928Y011214D01*
X014978Y011335D01*
X014978Y011465D01*
X014928Y011586D01*
X014836Y011678D01*
X014715Y011728D01*
X014585Y011728D01*
X014464Y011678D01*
X014372Y011586D01*
X014322Y011465D01*
X014322Y011335D01*
X014355Y011255D02*
X009353Y011255D01*
X009448Y011156D02*
X014430Y011156D01*
X014415Y011028D02*
X014285Y011028D01*
X014164Y010978D01*
X014072Y010886D01*
X014022Y010765D01*
X014022Y010635D01*
X014072Y010514D01*
X014164Y010422D01*
X014285Y010372D01*
X014415Y010372D01*
X014536Y010422D01*
X014628Y010514D01*
X014678Y010635D01*
X014678Y010765D01*
X014628Y010886D01*
X014536Y010978D01*
X014415Y011028D01*
X014555Y010959D02*
X020960Y010959D01*
X020972Y010986D02*
X020922Y010865D01*
X020922Y010735D01*
X020972Y010614D01*
X021064Y010522D01*
X021185Y010472D01*
X021315Y010472D01*
X021436Y010522D01*
X021528Y010614D01*
X021578Y010735D01*
X021578Y010865D01*
X021528Y010986D01*
X021436Y011078D01*
X021315Y011128D01*
X021185Y011128D01*
X021064Y011078D01*
X020972Y010986D01*
X021043Y011058D02*
X009488Y011058D01*
X009515Y010959D02*
X014145Y010959D01*
X014061Y010861D02*
X009515Y010861D01*
X009496Y010762D02*
X014022Y010762D01*
X014022Y010664D02*
X009456Y010664D01*
X009373Y010565D02*
X014050Y010565D01*
X014119Y010467D02*
X009219Y010467D01*
X009143Y010365D02*
X008957Y010365D01*
X008786Y010294D01*
X008656Y010164D01*
X008585Y009993D01*
X008585Y009807D01*
X008656Y009636D01*
X008786Y009506D01*
X008957Y009435D01*
X009143Y009435D01*
X009314Y009506D01*
X009444Y009636D01*
X009515Y009807D01*
X009515Y009993D01*
X009444Y010164D01*
X009314Y010294D01*
X009143Y010365D01*
X009338Y010270D02*
X021365Y010270D01*
X021372Y010286D02*
X021322Y010165D01*
X021322Y010035D01*
X021372Y009914D01*
X021464Y009822D01*
X021585Y009772D01*
X021715Y009772D01*
X021836Y009822D01*
X021928Y009914D01*
X021978Y010035D01*
X021978Y010165D01*
X021928Y010286D01*
X021836Y010378D01*
X021715Y010428D01*
X021585Y010428D01*
X021464Y010378D01*
X021372Y010286D01*
X021454Y010368D02*
X000345Y010368D01*
X000345Y010270D02*
X007762Y010270D01*
X007786Y010294D02*
X007656Y010164D01*
X007585Y009993D01*
X007585Y009807D01*
X007656Y009636D01*
X007786Y009506D01*
X007957Y009435D01*
X008143Y009435D01*
X008314Y009506D01*
X008444Y009636D01*
X008515Y009807D01*
X008515Y009993D01*
X008444Y010164D01*
X008314Y010294D01*
X008143Y010365D01*
X007957Y010365D01*
X007786Y010294D01*
X007663Y010171D02*
X000345Y010171D01*
X000345Y010073D02*
X004158Y010073D01*
X004164Y010078D02*
X004072Y009986D01*
X004022Y009865D01*
X004022Y009735D01*
X004072Y009614D01*
X004164Y009522D01*
X004285Y009472D01*
X004415Y009472D01*
X004536Y009522D01*
X004628Y009614D01*
X004678Y009735D01*
X004678Y009865D01*
X004628Y009986D01*
X004536Y010078D01*
X004415Y010128D01*
X004285Y010128D01*
X004164Y010078D01*
X004067Y009974D02*
X000345Y009974D01*
X000345Y009876D02*
X004026Y009876D01*
X004022Y009777D02*
X000345Y009777D01*
X000345Y009679D02*
X004045Y009679D01*
X004106Y009580D02*
X000345Y009580D01*
X000345Y009482D02*
X004261Y009482D01*
X004439Y009482D02*
X004571Y009482D01*
X004564Y009478D02*
X004472Y009386D01*
X004422Y009265D01*
X004422Y009135D01*
X004472Y009014D01*
X004564Y008922D01*
X004685Y008872D01*
X004815Y008872D01*
X004936Y008922D01*
X005028Y009014D01*
X005078Y009135D01*
X005078Y009265D01*
X005028Y009386D01*
X004936Y009478D01*
X004815Y009528D01*
X004685Y009528D01*
X004564Y009478D01*
X004594Y009580D02*
X007712Y009580D01*
X007638Y009679D02*
X004655Y009679D01*
X004678Y009777D02*
X007597Y009777D01*
X007585Y009876D02*
X004674Y009876D01*
X004633Y009974D02*
X007585Y009974D01*
X007618Y010073D02*
X004542Y010073D01*
X003650Y009800D02*
X003450Y009800D01*
X004470Y009383D02*
X000345Y009383D01*
X000345Y009285D02*
X004430Y009285D01*
X004422Y009186D02*
X000345Y009186D01*
X000345Y009088D02*
X004441Y009088D01*
X004497Y008989D02*
X000345Y008989D01*
X000345Y008891D02*
X004639Y008891D01*
X004861Y008891D02*
X007585Y008891D01*
X007585Y008807D02*
X007656Y008636D01*
X007786Y008506D01*
X007957Y008435D01*
X008143Y008435D01*
X008314Y008506D01*
X008444Y008636D01*
X008515Y008807D01*
X008515Y008993D01*
X008444Y009164D01*
X008314Y009294D01*
X008143Y009365D01*
X007957Y009365D01*
X007786Y009294D01*
X007656Y009164D01*
X007585Y008993D01*
X007585Y008807D01*
X007591Y008792D02*
X000345Y008792D01*
X000345Y008694D02*
X007632Y008694D01*
X007697Y008595D02*
X000345Y008595D01*
X000345Y008497D02*
X007808Y008497D01*
X007799Y008300D02*
X004715Y008300D01*
X004728Y008286D02*
X004636Y008378D01*
X004515Y008428D01*
X004385Y008428D01*
X004264Y008378D01*
X004172Y008286D01*
X004122Y008165D01*
X004122Y008035D01*
X004172Y007914D01*
X004264Y007822D01*
X004385Y007772D01*
X004515Y007772D01*
X004636Y007822D01*
X004728Y007914D01*
X004778Y008035D01*
X004778Y008165D01*
X004728Y008286D01*
X004764Y008201D02*
X007693Y008201D01*
X007656Y008164D02*
X007585Y007993D01*
X007585Y007807D01*
X004601Y007807D01*
X004720Y007906D02*
X007585Y007906D01*
X007589Y008004D02*
X004766Y008004D01*
X004778Y008103D02*
X007630Y008103D01*
X007656Y008164D02*
X007786Y008294D01*
X007957Y008365D01*
X008143Y008365D01*
X008314Y008294D01*
X008444Y008164D01*
X008515Y007993D01*
X008515Y007807D01*
X008585Y007807D01*
X008656Y007636D01*
X008786Y007506D01*
X008957Y007435D01*
X009143Y007435D01*
X009314Y007506D01*
X009444Y007636D01*
X009515Y007807D01*
X013933Y007807D01*
X013922Y007835D02*
X013972Y007714D01*
X014064Y007622D01*
X014185Y007572D01*
X014315Y007572D01*
X014436Y007622D01*
X014528Y007714D01*
X014578Y007835D01*
X014578Y007965D01*
X014528Y008086D01*
X014436Y008178D01*
X014315Y008228D01*
X014185Y008228D01*
X014064Y008178D01*
X013972Y008086D01*
X013922Y007965D01*
X013922Y007835D01*
X013922Y007906D02*
X009515Y007906D01*
X009515Y007993D02*
X009444Y008164D01*
X009314Y008294D01*
X009143Y008365D01*
X008957Y008365D01*
X008786Y008294D01*
X008656Y008164D01*
X008585Y007993D01*
X008585Y007807D01*
X008515Y007807D02*
X008444Y007636D01*
X008314Y007506D01*
X008143Y007435D01*
X007957Y007435D01*
X007786Y007506D01*
X007656Y007636D01*
X007585Y007807D01*
X007626Y007709D02*
X000345Y007709D01*
X000345Y007807D02*
X004299Y007807D01*
X004180Y007906D02*
X000345Y007906D01*
X000345Y008004D02*
X004134Y008004D01*
X004122Y008103D02*
X000345Y008103D01*
X000345Y008201D02*
X004136Y008201D01*
X004185Y008300D02*
X000345Y008300D01*
X000345Y008398D02*
X004311Y008398D01*
X004589Y008398D02*
X023637Y008398D01*
X023622Y008435D02*
X023672Y008314D01*
X023764Y008222D01*
X023885Y008172D01*
X024015Y008172D01*
X024026Y008176D01*
X024022Y008165D01*
X024022Y008035D01*
X024072Y007914D01*
X024164Y007822D01*
X024285Y007772D01*
X024415Y007772D01*
X024443Y007783D01*
X024472Y007714D01*
X024564Y007622D01*
X024685Y007572D01*
X024815Y007572D01*
X024936Y007622D01*
X025028Y007714D01*
X025078Y007835D01*
X025078Y007965D01*
X025028Y008086D01*
X024936Y008178D01*
X024815Y008228D01*
X024685Y008228D01*
X024657Y008217D01*
X024628Y008286D01*
X024536Y008378D01*
X024415Y008428D01*
X024285Y008428D01*
X024274Y008424D01*
X024278Y008435D01*
X024278Y008565D01*
X024228Y008686D01*
X024136Y008778D01*
X024015Y008828D01*
X023885Y008828D01*
X023764Y008778D01*
X023672Y008686D01*
X023622Y008565D01*
X023622Y008435D01*
X023622Y008497D02*
X009292Y008497D01*
X009314Y008506D02*
X009143Y008435D01*
X008957Y008435D01*
X008786Y008506D01*
X008656Y008636D01*
X008585Y008807D01*
X008585Y008993D01*
X008656Y009164D01*
X008786Y009294D01*
X008957Y009365D01*
X009143Y009365D01*
X009314Y009294D01*
X009444Y009164D01*
X009515Y008993D01*
X009515Y008807D01*
X009444Y008636D01*
X009314Y008506D01*
X009403Y008595D02*
X023634Y008595D01*
X023679Y008694D02*
X009468Y008694D01*
X009509Y008792D02*
X023797Y008792D01*
X024103Y008792D02*
X024839Y008792D01*
X024822Y008835D02*
X024872Y008714D01*
X024964Y008622D01*
X025085Y008572D01*
X025215Y008572D01*
X025336Y008622D01*
X025428Y008714D01*
X025478Y008835D01*
X025478Y008965D01*
X025428Y009086D01*
X025336Y009178D01*
X025215Y009228D01*
X025085Y009228D01*
X024964Y009178D01*
X024872Y009086D01*
X024822Y008965D01*
X024822Y008835D01*
X024822Y008891D02*
X009515Y008891D01*
X009515Y008989D02*
X024831Y008989D01*
X024873Y009088D02*
X009476Y009088D01*
X009422Y009186D02*
X024982Y009186D01*
X025318Y009186D02*
X025530Y009186D01*
X025522Y009165D02*
X025522Y009035D01*
X025572Y008914D01*
X025664Y008822D01*
X025785Y008772D01*
X025915Y008772D01*
X026036Y008822D01*
X026128Y008914D01*
X026178Y009035D01*
X026178Y009165D01*
X026128Y009286D01*
X026036Y009378D01*
X025915Y009428D01*
X025785Y009428D01*
X025664Y009378D01*
X025572Y009286D01*
X025522Y009165D01*
X025522Y009088D02*
X025427Y009088D01*
X025469Y008989D02*
X025540Y008989D01*
X025595Y008891D02*
X025478Y008891D01*
X025461Y008792D02*
X025735Y008792D01*
X025965Y008792D02*
X026972Y008792D01*
X026939Y008825D02*
X027075Y008689D01*
X027254Y008615D01*
X027446Y008615D01*
X027625Y008689D01*
X027761Y008825D01*
X027835Y009004D01*
X027835Y009196D01*
X027761Y009375D01*
X027625Y009511D01*
X027446Y009585D01*
X027254Y009585D01*
X027075Y009511D01*
X026939Y009375D01*
X026865Y009196D01*
X026865Y009004D01*
X026939Y008825D01*
X026912Y008891D02*
X026105Y008891D01*
X026160Y008989D02*
X026871Y008989D01*
X026865Y009088D02*
X026178Y009088D01*
X026170Y009186D02*
X026865Y009186D01*
X026902Y009285D02*
X026129Y009285D01*
X026025Y009383D02*
X026947Y009383D01*
X027046Y009482D02*
X009256Y009482D01*
X009388Y009580D02*
X027242Y009580D01*
X027458Y009580D02*
X030622Y009580D01*
X030622Y009535D02*
X030622Y009665D01*
X030672Y009786D01*
X030764Y009878D01*
X030885Y009928D01*
X031015Y009928D01*
X031136Y009878D01*
X031228Y009786D01*
X031278Y009665D01*
X031278Y009535D01*
X031228Y009414D01*
X031136Y009322D01*
X031015Y009272D01*
X030885Y009272D01*
X030764Y009322D01*
X030672Y009414D01*
X030622Y009535D01*
X030644Y009482D02*
X027654Y009482D01*
X027753Y009383D02*
X030703Y009383D01*
X030853Y009285D02*
X027798Y009285D01*
X027835Y009186D02*
X041955Y009186D01*
X041955Y009088D02*
X027835Y009088D01*
X027829Y008989D02*
X041955Y008989D01*
X041955Y008891D02*
X027788Y008891D01*
X027728Y008792D02*
X041955Y008792D01*
X041955Y008694D02*
X027629Y008694D01*
X027071Y008694D02*
X025408Y008694D01*
X025272Y008595D02*
X041955Y008595D01*
X041955Y008497D02*
X024278Y008497D01*
X024266Y008595D02*
X025028Y008595D01*
X024892Y008694D02*
X024221Y008694D01*
X024489Y008398D02*
X041955Y008398D01*
X041955Y008300D02*
X024615Y008300D01*
X024881Y008201D02*
X041955Y008201D01*
X041955Y008103D02*
X025012Y008103D01*
X025062Y008004D02*
X041955Y008004D01*
X041955Y007906D02*
X025078Y007906D01*
X025067Y007807D02*
X041955Y007807D01*
X041955Y007709D02*
X025023Y007709D01*
X024908Y007610D02*
X041955Y007610D01*
X041955Y007512D02*
X009320Y007512D01*
X009418Y007610D02*
X014092Y007610D01*
X013977Y007709D02*
X009474Y007709D01*
X009515Y007807D02*
X009515Y007993D01*
X009511Y008004D02*
X013938Y008004D01*
X013988Y008103D02*
X009470Y008103D01*
X009407Y008201D02*
X014119Y008201D01*
X014381Y008201D02*
X023814Y008201D01*
X023686Y008300D02*
X009301Y008300D01*
X008799Y008300D02*
X008301Y008300D01*
X008407Y008201D02*
X008693Y008201D01*
X008630Y008103D02*
X008470Y008103D01*
X008511Y008004D02*
X008589Y008004D01*
X008585Y007906D02*
X008515Y007906D01*
X008474Y007709D02*
X008626Y007709D01*
X008682Y007610D02*
X008418Y007610D01*
X008320Y007512D02*
X008780Y007512D01*
X008835Y007315D02*
X008265Y007315D01*
X008314Y007294D02*
X008143Y007365D01*
X007957Y007365D01*
X007786Y007294D01*
X007656Y007164D01*
X007585Y006993D01*
X007585Y006807D01*
X007656Y006636D01*
X007786Y006506D01*
X007957Y006435D01*
X008143Y006435D01*
X008314Y006506D01*
X008444Y006636D01*
X008515Y006807D01*
X008515Y006993D01*
X008444Y007164D01*
X008314Y007294D01*
X008392Y007216D02*
X008708Y007216D01*
X008656Y007164D02*
X008786Y007294D01*
X008957Y007365D01*
X009143Y007365D01*
X009314Y007294D01*
X009444Y007164D01*
X009515Y006993D01*
X009515Y006807D01*
X009444Y006636D01*
X009314Y006506D01*
X009143Y006435D01*
X008957Y006435D01*
X008786Y006506D01*
X008656Y006636D01*
X008585Y006807D01*
X008585Y006993D01*
X008656Y007164D01*
X008636Y007118D02*
X008464Y007118D01*
X008504Y007019D02*
X008596Y007019D01*
X008585Y006921D02*
X008515Y006921D01*
X008515Y006822D02*
X008585Y006822D01*
X008619Y006724D02*
X008481Y006724D01*
X008433Y006625D02*
X008667Y006625D01*
X008765Y006527D02*
X008335Y006527D01*
X008229Y006330D02*
X008871Y006330D01*
X008786Y006294D02*
X008656Y006164D01*
X008585Y005993D01*
X008585Y005807D01*
X008656Y005636D01*
X008786Y005506D01*
X008957Y005435D01*
X009143Y005435D01*
X009314Y005506D01*
X009444Y005636D01*
X009515Y005807D01*
X009515Y005993D01*
X009444Y006164D01*
X009314Y006294D01*
X009143Y006365D01*
X008957Y006365D01*
X008786Y006294D01*
X008723Y006231D02*
X008377Y006231D01*
X008314Y006294D02*
X008143Y006365D01*
X007957Y006365D01*
X007786Y006294D01*
X007656Y006164D01*
X007585Y005993D01*
X007585Y005807D01*
X007656Y005636D01*
X007786Y005506D01*
X007957Y005435D01*
X008143Y005435D01*
X008314Y005506D01*
X008444Y005636D01*
X008515Y005807D01*
X008515Y005993D01*
X008444Y006164D01*
X008314Y006294D01*
X008457Y006133D02*
X008643Y006133D01*
X008602Y006034D02*
X008498Y006034D01*
X008515Y005936D02*
X008585Y005936D01*
X008585Y005837D02*
X008515Y005837D01*
X008487Y005739D02*
X008613Y005739D01*
X008654Y005640D02*
X008446Y005640D01*
X008350Y005542D02*
X008750Y005542D01*
X008937Y005443D02*
X008163Y005443D01*
X008143Y005365D02*
X007957Y005365D01*
X007786Y005294D01*
X007656Y005164D01*
X007585Y004993D01*
X007585Y004807D01*
X007656Y004636D01*
X007786Y004506D01*
X007957Y004435D01*
X008143Y004435D01*
X008314Y004506D01*
X008444Y004636D01*
X008515Y004807D01*
X008515Y004993D01*
X008444Y005164D01*
X008314Y005294D01*
X008143Y005365D01*
X008193Y005345D02*
X008907Y005345D01*
X008957Y005365D02*
X008786Y005294D01*
X008656Y005164D01*
X008585Y004993D01*
X008585Y004807D01*
X008656Y004636D01*
X008786Y004506D01*
X008957Y004435D01*
X009143Y004435D01*
X009314Y004506D01*
X009444Y004636D01*
X009515Y004807D01*
X009515Y004993D01*
X009444Y005164D01*
X009314Y005294D01*
X009143Y005365D01*
X008957Y005365D01*
X009163Y005443D02*
X011429Y005443D01*
X011464Y005478D02*
X011372Y005386D01*
X011322Y005265D01*
X011322Y005135D01*
X011372Y005014D01*
X011464Y004922D01*
X011585Y004872D01*
X011715Y004872D01*
X011836Y004922D01*
X011928Y005014D01*
X011978Y005135D01*
X011978Y005265D01*
X011928Y005386D01*
X011836Y005478D01*
X011715Y005528D01*
X011585Y005528D01*
X011464Y005478D01*
X011354Y005345D02*
X009193Y005345D01*
X009362Y005246D02*
X011322Y005246D01*
X011322Y005148D02*
X009451Y005148D01*
X009492Y005049D02*
X011357Y005049D01*
X011435Y004951D02*
X009515Y004951D01*
X009515Y004852D02*
X018156Y004852D01*
X018172Y004814D02*
X018264Y004722D01*
X018385Y004672D01*
X018515Y004672D01*
X018636Y004722D01*
X018728Y004814D01*
X018778Y004935D01*
X018778Y005065D01*
X018728Y005186D01*
X018636Y005278D01*
X018515Y005328D01*
X018385Y005328D01*
X018264Y005278D01*
X018172Y005186D01*
X018122Y005065D01*
X018122Y004935D01*
X018172Y004814D01*
X018232Y004754D02*
X009493Y004754D01*
X009452Y004655D02*
X041955Y004655D01*
X041955Y004557D02*
X009365Y004557D01*
X009199Y004458D02*
X041955Y004458D01*
X041955Y004360D02*
X009156Y004360D01*
X009143Y004365D02*
X008957Y004365D01*
X008786Y004294D01*
X008656Y004164D01*
X008585Y003993D01*
X008585Y003807D01*
X008656Y003636D01*
X008786Y003506D01*
X008957Y003435D01*
X009143Y003435D01*
X009314Y003506D01*
X009444Y003636D01*
X009515Y003807D01*
X009515Y003993D01*
X009444Y004164D01*
X009314Y004294D01*
X009143Y004365D01*
X008944Y004360D02*
X004678Y004360D01*
X004678Y004335D02*
X004678Y004465D01*
X004628Y004586D01*
X004536Y004678D01*
X004415Y004728D01*
X004285Y004728D01*
X004164Y004678D01*
X004072Y004586D01*
X004022Y004465D01*
X004022Y004335D01*
X004072Y004214D01*
X004164Y004122D01*
X004285Y004072D01*
X004415Y004072D01*
X004536Y004122D01*
X004628Y004214D01*
X004678Y004335D01*
X004648Y004261D02*
X007789Y004261D01*
X007817Y004281D02*
X007760Y004240D01*
X007710Y004190D01*
X007669Y004133D01*
X007637Y004071D01*
X007616Y004004D01*
X007607Y003948D01*
X008002Y003948D01*
X008002Y003852D01*
X007607Y003852D01*
X007616Y003796D01*
X007637Y003729D01*
X007669Y003667D01*
X007710Y003610D01*
X007760Y003560D01*
X007817Y003519D01*
X007879Y003487D01*
X007946Y003466D01*
X008002Y003457D01*
X008002Y003852D01*
X008098Y003852D01*
X008098Y003948D01*
X008002Y003948D01*
X008002Y004343D01*
X007946Y004334D01*
X007879Y004313D01*
X007817Y004281D01*
X007690Y004163D02*
X004577Y004163D01*
X004678Y004458D02*
X007901Y004458D01*
X007735Y004557D02*
X004641Y004557D01*
X004559Y004655D02*
X005331Y004655D01*
X005364Y004622D02*
X005485Y004572D01*
X005615Y004572D01*
X005736Y004622D01*
X005828Y004714D01*
X005878Y004835D01*
X005878Y004965D01*
X005828Y005086D01*
X005736Y005178D01*
X005615Y005228D01*
X005485Y005228D01*
X005364Y005178D01*
X005272Y005086D01*
X005222Y004965D01*
X005222Y004835D01*
X005272Y004714D01*
X005364Y004622D01*
X005255Y004754D02*
X005068Y004754D01*
X005036Y004722D02*
X005128Y004814D01*
X005178Y004935D01*
X005178Y005065D01*
X005128Y005186D01*
X005036Y005278D01*
X004915Y005328D01*
X004785Y005328D01*
X004664Y005278D01*
X004572Y005186D01*
X004522Y005065D01*
X004522Y004935D01*
X004572Y004814D01*
X004664Y004722D01*
X004785Y004672D01*
X004915Y004672D01*
X005036Y004722D01*
X005144Y004852D02*
X005222Y004852D01*
X005222Y004951D02*
X005178Y004951D01*
X005178Y005049D02*
X005256Y005049D01*
X005333Y005148D02*
X005144Y005148D01*
X005068Y005246D02*
X007738Y005246D01*
X007649Y005148D02*
X005767Y005148D01*
X005844Y005049D02*
X007608Y005049D01*
X007585Y004951D02*
X005878Y004951D01*
X005878Y004852D02*
X007585Y004852D01*
X007607Y004754D02*
X005845Y004754D01*
X005769Y004655D02*
X007648Y004655D01*
X008199Y004458D02*
X008901Y004458D01*
X008735Y004557D02*
X008365Y004557D01*
X008452Y004655D02*
X008648Y004655D01*
X008607Y004754D02*
X008493Y004754D01*
X008515Y004852D02*
X008585Y004852D01*
X008585Y004951D02*
X008515Y004951D01*
X008492Y005049D02*
X008608Y005049D01*
X008649Y005148D02*
X008451Y005148D01*
X008362Y005246D02*
X008738Y005246D01*
X009350Y005542D02*
X014422Y005542D01*
X014422Y005565D02*
X014422Y005435D01*
X014472Y005314D01*
X014564Y005222D01*
X014685Y005172D01*
X014815Y005172D01*
X014936Y005222D01*
X015028Y005314D01*
X015078Y005435D01*
X015078Y005565D01*
X015028Y005686D01*
X014936Y005778D01*
X014815Y005828D01*
X014685Y005828D01*
X014564Y005778D01*
X014472Y005686D01*
X014422Y005565D01*
X014453Y005640D02*
X009446Y005640D01*
X009487Y005739D02*
X014524Y005739D01*
X014250Y005600D02*
X014250Y005400D01*
X014422Y005443D02*
X011871Y005443D01*
X011946Y005345D02*
X014459Y005345D01*
X014540Y005246D02*
X011978Y005246D01*
X011978Y005148D02*
X018156Y005148D01*
X018122Y005049D02*
X011943Y005049D01*
X011865Y004951D02*
X018122Y004951D01*
X017450Y005000D02*
X017450Y005100D01*
X017436Y005222D02*
X017528Y005314D01*
X017578Y005435D01*
X017578Y005565D01*
X017528Y005686D01*
X017436Y005778D01*
X017315Y005828D01*
X017185Y005828D01*
X017064Y005778D01*
X016972Y005686D01*
X016922Y005565D01*
X016922Y005435D01*
X016972Y005314D01*
X017064Y005222D01*
X017185Y005172D01*
X017315Y005172D01*
X017436Y005222D01*
X017460Y005246D02*
X018232Y005246D01*
X018668Y005246D02*
X019240Y005246D01*
X019264Y005222D02*
X019385Y005172D01*
X019515Y005172D01*
X019636Y005222D01*
X019728Y005314D01*
X019778Y005435D01*
X019778Y005565D01*
X019728Y005686D01*
X019636Y005778D01*
X019515Y005828D01*
X019385Y005828D01*
X019264Y005778D01*
X019172Y005686D01*
X019122Y005565D01*
X019122Y005435D01*
X019172Y005314D01*
X019264Y005222D01*
X019159Y005345D02*
X017541Y005345D01*
X017578Y005443D02*
X019122Y005443D01*
X019122Y005542D02*
X017578Y005542D01*
X017547Y005640D02*
X019153Y005640D01*
X019224Y005739D02*
X017476Y005739D01*
X017024Y005739D02*
X016676Y005739D01*
X016636Y005778D02*
X016515Y005828D01*
X016385Y005828D01*
X016264Y005778D01*
X016172Y005686D01*
X016150Y005634D01*
X016128Y005686D01*
X016036Y005778D01*
X015915Y005828D01*
X015785Y005828D01*
X015664Y005778D01*
X015572Y005686D01*
X015522Y005565D01*
X015522Y005435D01*
X015572Y005314D01*
X015664Y005222D01*
X015785Y005172D01*
X015915Y005172D01*
X016036Y005222D01*
X016128Y005314D01*
X016150Y005366D01*
X016172Y005314D01*
X016264Y005222D01*
X016385Y005172D01*
X016515Y005172D01*
X016636Y005222D01*
X016728Y005314D01*
X016778Y005435D01*
X016778Y005565D01*
X016728Y005686D01*
X016636Y005778D01*
X016747Y005640D02*
X016953Y005640D01*
X016922Y005542D02*
X016778Y005542D01*
X016778Y005443D02*
X016922Y005443D01*
X016959Y005345D02*
X016741Y005345D01*
X016660Y005246D02*
X017040Y005246D01*
X016450Y005100D02*
X016450Y005000D01*
X016240Y005246D02*
X016060Y005246D01*
X016141Y005345D02*
X016159Y005345D01*
X016147Y005640D02*
X016153Y005640D01*
X016224Y005739D02*
X016076Y005739D01*
X015624Y005739D02*
X014976Y005739D01*
X015047Y005640D02*
X015553Y005640D01*
X015522Y005542D02*
X015078Y005542D01*
X015078Y005443D02*
X015522Y005443D01*
X015559Y005345D02*
X015041Y005345D01*
X014960Y005246D02*
X015640Y005246D01*
X014836Y006222D02*
X014715Y006172D01*
X014585Y006172D01*
X014464Y006222D01*
X014372Y006314D01*
X014322Y006435D01*
X014322Y006565D01*
X014372Y006686D01*
X014464Y006778D01*
X014585Y006828D01*
X014715Y006828D01*
X014836Y006778D01*
X014928Y006686D01*
X014978Y006565D01*
X014978Y006435D01*
X014928Y006314D01*
X014836Y006222D01*
X014845Y006231D02*
X020949Y006231D01*
X020972Y006286D02*
X020922Y006165D01*
X020922Y006035D01*
X020972Y005914D01*
X021064Y005822D01*
X021185Y005772D01*
X021315Y005772D01*
X021436Y005822D01*
X021528Y005914D01*
X021578Y006035D01*
X021578Y006165D01*
X021528Y006286D01*
X021436Y006378D01*
X021315Y006428D01*
X021185Y006428D01*
X021064Y006378D01*
X020972Y006286D01*
X021015Y006330D02*
X014935Y006330D01*
X014976Y006428D02*
X021184Y006428D01*
X021316Y006428D02*
X025566Y006428D01*
X025572Y006414D02*
X025664Y006322D01*
X025785Y006272D01*
X025915Y006272D01*
X026036Y006322D01*
X026128Y006414D01*
X026178Y006535D01*
X026178Y006665D01*
X026128Y006786D01*
X026036Y006878D01*
X025915Y006928D01*
X025785Y006928D01*
X025664Y006878D01*
X025572Y006786D01*
X025522Y006665D01*
X025522Y006535D01*
X025572Y006414D01*
X025615Y006328D02*
X025485Y006328D01*
X025364Y006278D01*
X025272Y006186D01*
X025222Y006065D01*
X025222Y005935D01*
X025272Y005814D01*
X025364Y005722D01*
X025485Y005672D01*
X025615Y005672D01*
X025736Y005722D01*
X025828Y005814D01*
X025878Y005935D01*
X025878Y006065D01*
X025828Y006186D01*
X025736Y006278D01*
X025615Y006328D01*
X025656Y006330D02*
X021485Y006330D01*
X021551Y006231D02*
X025317Y006231D01*
X025249Y006133D02*
X021578Y006133D01*
X021578Y006034D02*
X025222Y006034D01*
X025222Y005936D02*
X021537Y005936D01*
X021451Y005837D02*
X025262Y005837D01*
X025347Y005739D02*
X019676Y005739D01*
X019747Y005640D02*
X041955Y005640D01*
X041955Y005542D02*
X019778Y005542D01*
X019778Y005443D02*
X041955Y005443D01*
X041955Y005345D02*
X024670Y005345D01*
X024636Y005378D02*
X024515Y005428D01*
X024385Y005428D01*
X024264Y005378D01*
X024172Y005286D01*
X024122Y005165D01*
X024122Y005035D01*
X024172Y004914D01*
X024264Y004822D01*
X024385Y004772D01*
X024515Y004772D01*
X024636Y004822D01*
X024728Y004914D01*
X024778Y005035D01*
X024778Y005165D01*
X024728Y005286D01*
X024636Y005378D01*
X024745Y005246D02*
X041955Y005246D01*
X041955Y005148D02*
X024778Y005148D01*
X024778Y005049D02*
X041955Y005049D01*
X041955Y004951D02*
X024744Y004951D01*
X024666Y004852D02*
X041955Y004852D01*
X041955Y004754D02*
X020468Y004754D01*
X020436Y004722D02*
X020528Y004814D01*
X020578Y004935D01*
X020578Y005065D01*
X020528Y005186D01*
X020436Y005278D01*
X020315Y005328D01*
X020185Y005328D01*
X020064Y005278D01*
X019972Y005186D01*
X019922Y005065D01*
X019922Y004935D01*
X019972Y004814D01*
X020064Y004722D01*
X020185Y004672D01*
X020315Y004672D01*
X020436Y004722D01*
X020544Y004852D02*
X024234Y004852D01*
X024156Y004951D02*
X020578Y004951D01*
X020578Y005049D02*
X024122Y005049D01*
X024122Y005148D02*
X020544Y005148D01*
X020468Y005246D02*
X024155Y005246D01*
X024230Y005345D02*
X019741Y005345D01*
X019660Y005246D02*
X020032Y005246D01*
X019956Y005148D02*
X018744Y005148D01*
X018778Y005049D02*
X019922Y005049D01*
X019922Y004951D02*
X018778Y004951D01*
X018744Y004852D02*
X019956Y004852D01*
X020032Y004754D02*
X018668Y004754D01*
X018950Y005000D02*
X018950Y005100D01*
X020750Y005000D02*
X020750Y005300D01*
X021049Y005837D02*
X009515Y005837D01*
X009515Y005936D02*
X020963Y005936D01*
X020922Y006034D02*
X009498Y006034D01*
X009457Y006133D02*
X020922Y006133D01*
X021650Y005700D02*
X021650Y005500D01*
X023372Y006914D02*
X023464Y006822D01*
X023585Y006772D01*
X023715Y006772D01*
X023836Y006822D01*
X023928Y006914D01*
X023978Y007035D01*
X023978Y007165D01*
X023928Y007286D01*
X023836Y007378D01*
X023715Y007428D01*
X023585Y007428D01*
X023464Y007378D01*
X023372Y007286D01*
X023322Y007165D01*
X023322Y007035D01*
X023372Y006914D01*
X023369Y006921D02*
X009515Y006921D01*
X009504Y007019D02*
X023328Y007019D01*
X023322Y007118D02*
X009464Y007118D01*
X009392Y007216D02*
X023343Y007216D01*
X023400Y007315D02*
X009265Y007315D01*
X009515Y006822D02*
X014569Y006822D01*
X014731Y006822D02*
X023464Y006822D01*
X023836Y006822D02*
X025608Y006822D01*
X025546Y006724D02*
X014891Y006724D01*
X014954Y006625D02*
X025522Y006625D01*
X025525Y006527D02*
X014978Y006527D01*
X014409Y006724D02*
X009481Y006724D01*
X009433Y006625D02*
X014346Y006625D01*
X014322Y006527D02*
X009335Y006527D01*
X009229Y006330D02*
X014365Y006330D01*
X014324Y006428D02*
X004686Y006428D01*
X004728Y006386D02*
X004636Y006478D01*
X004515Y006528D01*
X004385Y006528D01*
X004264Y006478D01*
X004172Y006386D01*
X004122Y006265D01*
X004122Y006135D01*
X004172Y006014D01*
X004264Y005922D01*
X004385Y005872D01*
X004515Y005872D01*
X004636Y005922D01*
X004728Y006014D01*
X004778Y006135D01*
X004778Y006265D01*
X004728Y006386D01*
X004752Y006330D02*
X007871Y006330D01*
X007723Y006231D02*
X004778Y006231D01*
X004778Y006133D02*
X007643Y006133D01*
X007602Y006034D02*
X004737Y006034D01*
X004650Y005936D02*
X007585Y005936D01*
X007585Y005837D02*
X000345Y005837D01*
X000345Y005739D02*
X007613Y005739D01*
X007654Y005640D02*
X000345Y005640D01*
X000345Y005542D02*
X007750Y005542D01*
X007937Y005443D02*
X000345Y005443D01*
X000345Y005345D02*
X007907Y005345D01*
X009377Y006231D02*
X014455Y006231D01*
X014408Y007610D02*
X024592Y007610D01*
X024477Y007709D02*
X014523Y007709D01*
X014567Y007807D02*
X024199Y007807D01*
X024080Y007906D02*
X014578Y007906D01*
X014562Y008004D02*
X024034Y008004D01*
X024022Y008103D02*
X014512Y008103D01*
X011350Y006400D02*
X011250Y006400D01*
X007765Y006527D02*
X004520Y006527D01*
X004380Y006527D02*
X000345Y006527D01*
X000345Y006625D02*
X007667Y006625D01*
X007619Y006724D02*
X000345Y006724D01*
X000345Y006822D02*
X007585Y006822D01*
X007585Y006921D02*
X000345Y006921D01*
X000345Y007019D02*
X007596Y007019D01*
X007636Y007118D02*
X000345Y007118D01*
X000345Y007216D02*
X007708Y007216D01*
X007835Y007315D02*
X000345Y007315D01*
X000345Y007413D02*
X023547Y007413D01*
X023753Y007413D02*
X029247Y007413D01*
X029285Y007428D02*
X029164Y007378D01*
X029072Y007286D01*
X029022Y007165D01*
X029022Y007035D01*
X029072Y006914D01*
X029164Y006822D01*
X029285Y006772D01*
X029415Y006772D01*
X029536Y006822D01*
X029628Y006914D01*
X029678Y007035D01*
X029678Y007165D01*
X029628Y007286D01*
X029536Y007378D01*
X029415Y007428D01*
X029285Y007428D01*
X029453Y007413D02*
X041955Y007413D01*
X041955Y007315D02*
X029600Y007315D01*
X029657Y007216D02*
X030855Y007216D01*
X030885Y007228D02*
X030764Y007178D01*
X030672Y007086D01*
X030622Y006965D01*
X030622Y006835D01*
X030672Y006714D01*
X030764Y006622D01*
X030885Y006572D01*
X031015Y006572D01*
X031136Y006622D01*
X031228Y006714D01*
X031278Y006835D01*
X031278Y006965D01*
X031228Y007086D01*
X031136Y007178D01*
X031015Y007228D01*
X030885Y007228D01*
X031045Y007216D02*
X041955Y007216D01*
X041955Y007118D02*
X031197Y007118D01*
X031256Y007019D02*
X041955Y007019D01*
X041955Y006921D02*
X031278Y006921D01*
X031273Y006822D02*
X041955Y006822D01*
X041955Y006724D02*
X031232Y006724D01*
X031139Y006625D02*
X041955Y006625D01*
X041955Y006527D02*
X026175Y006527D01*
X026178Y006625D02*
X030761Y006625D01*
X030668Y006724D02*
X026154Y006724D01*
X026092Y006822D02*
X029164Y006822D01*
X029069Y006921D02*
X025934Y006921D01*
X025766Y006921D02*
X023931Y006921D01*
X023972Y007019D02*
X029028Y007019D01*
X029022Y007118D02*
X023978Y007118D01*
X023957Y007216D02*
X029043Y007216D01*
X029100Y007315D02*
X023900Y007315D01*
X025783Y006231D02*
X030649Y006231D01*
X030672Y006286D02*
X030622Y006165D01*
X030622Y006035D01*
X030672Y005914D01*
X030764Y005822D01*
X030885Y005772D01*
X031015Y005772D01*
X031136Y005822D01*
X031228Y005914D01*
X031278Y006035D01*
X031278Y006165D01*
X031228Y006286D01*
X031136Y006378D01*
X031015Y006428D01*
X030885Y006428D01*
X030764Y006378D01*
X030672Y006286D01*
X030715Y006330D02*
X026044Y006330D01*
X026134Y006428D02*
X030884Y006428D01*
X031016Y006428D02*
X041955Y006428D01*
X041955Y006330D02*
X031185Y006330D01*
X031251Y006231D02*
X041955Y006231D01*
X041955Y006133D02*
X031278Y006133D01*
X031278Y006034D02*
X041955Y006034D01*
X041955Y005936D02*
X031237Y005936D01*
X031151Y005837D02*
X041955Y005837D01*
X041955Y005739D02*
X025753Y005739D01*
X025838Y005837D02*
X030749Y005837D01*
X030663Y005936D02*
X025878Y005936D01*
X025878Y006034D02*
X030622Y006034D01*
X030622Y006133D02*
X025851Y006133D01*
X028950Y007700D02*
X029350Y007600D01*
X029678Y007118D02*
X030703Y007118D01*
X030644Y007019D02*
X029672Y007019D01*
X029631Y006921D02*
X030622Y006921D01*
X030627Y006822D02*
X029536Y006822D01*
X031350Y005600D02*
X031350Y005500D01*
X030050Y005400D02*
X030050Y005200D01*
X030050Y004600D02*
X030050Y004400D01*
X030272Y004186D02*
X030222Y004065D01*
X030222Y003935D01*
X030272Y003814D01*
X030364Y003722D01*
X030485Y003672D01*
X030615Y003672D01*
X030736Y003722D01*
X030828Y003814D01*
X030878Y003935D01*
X030878Y004065D01*
X030828Y004186D01*
X030736Y004278D01*
X030615Y004328D01*
X030485Y004328D01*
X030364Y004278D01*
X030272Y004186D01*
X030262Y004163D02*
X009445Y004163D01*
X009486Y004064D02*
X015050Y004064D01*
X015064Y004078D02*
X014972Y003986D01*
X014922Y003865D01*
X014922Y003735D01*
X014972Y003614D01*
X015064Y003522D01*
X015185Y003472D01*
X015315Y003472D01*
X015436Y003522D01*
X015528Y003614D01*
X015578Y003735D01*
X015578Y003865D01*
X015528Y003986D01*
X015436Y004078D01*
X015315Y004128D01*
X015185Y004128D01*
X015064Y004078D01*
X014963Y003966D02*
X009515Y003966D01*
X009515Y003867D02*
X014922Y003867D01*
X014922Y003769D02*
X009499Y003769D01*
X009458Y003670D02*
X013656Y003670D01*
X013664Y003678D02*
X013572Y003586D01*
X013522Y003465D01*
X013522Y003335D01*
X013572Y003214D01*
X013664Y003122D01*
X013785Y003072D01*
X013915Y003072D01*
X014036Y003122D01*
X014128Y003214D01*
X014178Y003335D01*
X014178Y003465D01*
X014128Y003586D01*
X014036Y003678D01*
X013915Y003728D01*
X013785Y003728D01*
X013664Y003678D01*
X013566Y003572D02*
X009380Y003572D01*
X009235Y003473D02*
X013525Y003473D01*
X013522Y003375D02*
X002289Y003375D01*
X002248Y003473D02*
X007923Y003473D01*
X008002Y003473D02*
X008098Y003473D01*
X008098Y003457D02*
X008154Y003466D01*
X008221Y003487D01*
X008283Y003519D01*
X008340Y003560D01*
X008390Y003610D01*
X008431Y003667D01*
X008463Y003729D01*
X008484Y003796D01*
X008493Y003852D01*
X008098Y003852D01*
X008098Y003457D01*
X008177Y003473D02*
X008865Y003473D01*
X008720Y003572D02*
X008351Y003572D01*
X008433Y003670D02*
X008642Y003670D01*
X008601Y003769D02*
X008475Y003769D01*
X008585Y003867D02*
X008098Y003867D01*
X008098Y003948D02*
X008493Y003948D01*
X008484Y004004D01*
X008463Y004071D01*
X008431Y004133D01*
X008390Y004190D01*
X008340Y004240D01*
X008283Y004281D01*
X008221Y004313D01*
X008154Y004334D01*
X008098Y004343D01*
X008098Y003948D01*
X008098Y003966D02*
X008002Y003966D01*
X008002Y004064D02*
X008098Y004064D01*
X008098Y004163D02*
X008002Y004163D01*
X008002Y004261D02*
X008098Y004261D01*
X008311Y004261D02*
X008753Y004261D01*
X008655Y004163D02*
X008410Y004163D01*
X008465Y004064D02*
X008614Y004064D01*
X008585Y003966D02*
X008490Y003966D01*
X008098Y003769D02*
X008002Y003769D01*
X008002Y003867D02*
X001756Y003867D01*
X001633Y003918D02*
X001970Y003778D01*
X002228Y003520D01*
X002368Y003183D01*
X002368Y002817D01*
X002228Y002480D01*
X001970Y002222D01*
X001633Y002082D01*
X001267Y002082D01*
X000930Y002222D01*
X000672Y002480D01*
X000532Y002817D01*
X000532Y003183D01*
X000672Y003520D01*
X000930Y003778D01*
X001267Y003918D01*
X001633Y003918D01*
X001980Y003769D02*
X007625Y003769D01*
X007667Y003670D02*
X002078Y003670D01*
X002177Y003572D02*
X007749Y003572D01*
X008002Y003572D02*
X008098Y003572D01*
X008098Y003670D02*
X008002Y003670D01*
X007610Y003966D02*
X000345Y003966D01*
X000345Y004064D02*
X007635Y004064D01*
X009347Y004261D02*
X030347Y004261D01*
X030222Y004064D02*
X015450Y004064D01*
X015537Y003966D02*
X030222Y003966D01*
X030250Y003867D02*
X015578Y003867D01*
X015578Y003769D02*
X030317Y003769D01*
X030550Y003500D02*
X030750Y003500D01*
X030783Y003769D02*
X040220Y003769D01*
X040230Y003778D02*
X039972Y003520D01*
X039832Y003183D01*
X039832Y002817D01*
X039972Y002480D01*
X040230Y002222D01*
X040567Y002082D01*
X040933Y002082D01*
X041270Y002222D01*
X041528Y002480D01*
X041668Y002817D01*
X041668Y003183D01*
X041528Y003520D01*
X041270Y003778D01*
X040933Y003918D01*
X040567Y003918D01*
X040230Y003778D01*
X040122Y003670D02*
X015552Y003670D01*
X015486Y003572D02*
X040023Y003572D01*
X039952Y003473D02*
X015319Y003473D01*
X015181Y003473D02*
X014834Y003473D01*
X014828Y003486D02*
X014878Y003365D01*
X014878Y003235D01*
X014828Y003114D01*
X014736Y003022D01*
X014615Y002972D01*
X014485Y002972D01*
X014364Y003022D01*
X014272Y003114D01*
X014222Y003235D01*
X014222Y003365D01*
X014272Y003486D01*
X014364Y003578D01*
X014485Y003628D01*
X014615Y003628D01*
X014736Y003578D01*
X014828Y003486D01*
X014743Y003572D02*
X015014Y003572D01*
X014948Y003670D02*
X014044Y003670D01*
X014134Y003572D02*
X014357Y003572D01*
X014266Y003473D02*
X014175Y003473D01*
X014178Y003375D02*
X014225Y003375D01*
X014222Y003276D02*
X014154Y003276D01*
X014092Y003178D02*
X014245Y003178D01*
X014307Y003079D02*
X013933Y003079D01*
X013767Y003079D02*
X002368Y003079D01*
X002368Y002981D02*
X014463Y002981D01*
X014637Y002981D02*
X039832Y002981D01*
X039832Y003079D02*
X014793Y003079D01*
X014855Y003178D02*
X039832Y003178D01*
X039871Y003276D02*
X014878Y003276D01*
X014875Y003375D02*
X039911Y003375D01*
X039832Y002882D02*
X002368Y002882D01*
X002354Y002784D02*
X039846Y002784D01*
X039887Y002685D02*
X002313Y002685D01*
X002272Y002587D02*
X039928Y002587D01*
X039968Y002488D02*
X002232Y002488D01*
X002138Y002390D02*
X040062Y002390D01*
X040161Y002291D02*
X002039Y002291D01*
X001899Y002193D02*
X040301Y002193D01*
X040538Y002094D02*
X001662Y002094D01*
X001238Y002094D02*
X000345Y002094D01*
X000345Y001996D02*
X041955Y001996D01*
X041955Y002094D02*
X040962Y002094D01*
X041199Y002193D02*
X041955Y002193D01*
X041955Y002291D02*
X041339Y002291D01*
X041438Y002390D02*
X041955Y002390D01*
X041955Y002488D02*
X041532Y002488D01*
X041572Y002587D02*
X041955Y002587D01*
X041955Y002685D02*
X041613Y002685D01*
X041654Y002784D02*
X041955Y002784D01*
X041955Y002882D02*
X041668Y002882D01*
X041668Y002981D02*
X041955Y002981D01*
X041955Y003079D02*
X041668Y003079D01*
X041668Y003178D02*
X041955Y003178D01*
X041955Y003276D02*
X041629Y003276D01*
X041589Y003375D02*
X041955Y003375D01*
X041955Y003473D02*
X041548Y003473D01*
X041477Y003572D02*
X041955Y003572D01*
X041955Y003670D02*
X041378Y003670D01*
X041280Y003769D02*
X041955Y003769D01*
X041955Y003867D02*
X041056Y003867D01*
X040444Y003867D02*
X030850Y003867D01*
X030878Y003966D02*
X041955Y003966D01*
X041955Y004064D02*
X030878Y004064D01*
X030838Y004163D02*
X041955Y004163D01*
X041955Y004261D02*
X030753Y004261D01*
X033050Y003000D02*
X033050Y002900D01*
X038750Y005800D02*
X038750Y005900D01*
X038750Y006800D02*
X038750Y006900D01*
X038750Y007800D02*
X038750Y007900D01*
X038750Y008800D02*
X038750Y008900D01*
X038750Y009800D02*
X038750Y009900D01*
X038750Y010800D02*
X038750Y010900D01*
X038750Y011800D02*
X038750Y011900D01*
X041955Y011944D02*
X032714Y011944D01*
X032543Y012015D01*
X032357Y012015D01*
X032186Y011944D01*
X031714Y011944D01*
X031543Y012015D01*
X031357Y012015D01*
X031186Y011944D01*
X030714Y011944D01*
X030543Y012015D01*
X030357Y012015D01*
X030186Y011944D01*
X027810Y011944D01*
X027835Y012004D02*
X027761Y011825D01*
X027625Y011689D01*
X027446Y011615D01*
X027254Y011615D01*
X027075Y011689D01*
X026939Y011825D01*
X026865Y012004D01*
X026865Y012196D01*
X026939Y012375D01*
X027075Y012511D01*
X027254Y012585D01*
X027446Y012585D01*
X027625Y012511D01*
X027761Y012375D01*
X027835Y012196D01*
X027835Y012004D01*
X027835Y012043D02*
X041955Y012043D01*
X041955Y012141D02*
X027835Y012141D01*
X027817Y012240D02*
X041955Y012240D01*
X041955Y012338D02*
X027776Y012338D01*
X027699Y012437D02*
X041955Y012437D01*
X041955Y012535D02*
X027567Y012535D01*
X027133Y012535D02*
X022249Y012535D01*
X022337Y012634D02*
X041955Y012634D01*
X041955Y012732D02*
X022377Y012732D01*
X022378Y012831D02*
X041955Y012831D01*
X041955Y012929D02*
X030843Y012929D01*
X030836Y012922D02*
X030928Y013014D01*
X030978Y013135D01*
X030978Y013265D01*
X030928Y013386D01*
X030836Y013478D01*
X030715Y013528D01*
X030585Y013528D01*
X030464Y013478D01*
X030372Y013386D01*
X030322Y013265D01*
X030322Y013135D01*
X030372Y013014D01*
X030464Y012922D01*
X030585Y012872D01*
X030715Y012872D01*
X030836Y012922D01*
X030934Y013028D02*
X041955Y013028D01*
X041955Y013126D02*
X030975Y013126D01*
X030978Y013225D02*
X041955Y013225D01*
X041955Y013323D02*
X030955Y013323D01*
X030893Y013422D02*
X041955Y013422D01*
X041955Y013520D02*
X030736Y013520D01*
X030564Y013520D02*
X028936Y013520D01*
X028915Y013528D02*
X028785Y013528D01*
X028664Y013478D01*
X028572Y013386D01*
X028522Y013265D01*
X028522Y013135D01*
X028572Y013014D01*
X028664Y012922D01*
X028785Y012872D01*
X028915Y012872D01*
X029036Y012922D01*
X029128Y013014D01*
X029178Y013135D01*
X029178Y013265D01*
X029128Y013386D01*
X029036Y013478D01*
X028915Y013528D01*
X028764Y013520D02*
X024056Y013520D01*
X024078Y013422D02*
X028607Y013422D01*
X028545Y013323D02*
X024074Y013323D01*
X024033Y013225D02*
X028522Y013225D01*
X028525Y013126D02*
X023940Y013126D01*
X023650Y012900D02*
X023550Y013000D01*
X023996Y013619D02*
X041955Y013619D01*
X041955Y011846D02*
X032812Y011846D01*
X032844Y011814D02*
X032714Y011944D01*
X032844Y011814D02*
X032915Y011643D01*
X032915Y011457D01*
X032844Y011286D01*
X032714Y011156D01*
X041955Y011156D01*
X041955Y011058D02*
X028578Y011058D01*
X028578Y011035D02*
X028528Y010914D01*
X028436Y010822D01*
X028315Y010772D01*
X028185Y010772D01*
X028064Y010822D01*
X027972Y010914D01*
X027922Y011035D01*
X027922Y011165D01*
X027972Y011286D01*
X028064Y011378D01*
X028185Y011428D01*
X028315Y011428D01*
X028436Y011378D01*
X028528Y011286D01*
X028578Y011165D01*
X028578Y011035D01*
X028547Y010959D02*
X041955Y010959D01*
X041955Y010861D02*
X028475Y010861D01*
X028025Y010861D02*
X021578Y010861D01*
X021578Y010762D02*
X041955Y010762D01*
X041955Y010664D02*
X021549Y010664D01*
X021479Y010565D02*
X041955Y010565D01*
X041955Y010467D02*
X014581Y010467D01*
X014650Y010565D02*
X021021Y010565D01*
X020951Y010664D02*
X014678Y010664D01*
X014678Y010762D02*
X020922Y010762D01*
X020922Y010861D02*
X014639Y010861D01*
X014870Y011156D02*
X027922Y011156D01*
X027922Y011058D02*
X021457Y011058D01*
X021540Y010959D02*
X027953Y010959D01*
X027959Y011255D02*
X025069Y011255D01*
X025036Y011222D02*
X025128Y011314D01*
X025178Y011435D01*
X025178Y011565D01*
X025128Y011686D01*
X025036Y011778D01*
X024915Y011828D01*
X024785Y011828D01*
X024664Y011778D01*
X024572Y011686D01*
X024522Y011565D01*
X024522Y011435D01*
X024572Y011314D01*
X024664Y011222D01*
X024785Y011172D01*
X024915Y011172D01*
X025036Y011222D01*
X025145Y011353D02*
X028039Y011353D01*
X028461Y011353D02*
X030028Y011353D01*
X030056Y011286D02*
X030186Y011156D01*
X028578Y011156D01*
X028541Y011255D02*
X030087Y011255D01*
X030056Y011286D02*
X029985Y011457D01*
X029985Y011643D01*
X030056Y011814D01*
X030186Y011944D01*
X030088Y011846D02*
X027770Y011846D01*
X027683Y011747D02*
X030028Y011747D01*
X029987Y011649D02*
X027527Y011649D01*
X027173Y011649D02*
X025144Y011649D01*
X025178Y011550D02*
X029985Y011550D01*
X029987Y011452D02*
X025178Y011452D01*
X024631Y011255D02*
X014945Y011255D01*
X014978Y011353D02*
X024555Y011353D01*
X024522Y011452D02*
X014978Y011452D01*
X014943Y011550D02*
X024522Y011550D01*
X024556Y011649D02*
X014866Y011649D01*
X014434Y011649D02*
X009449Y011649D01*
X009490Y011747D02*
X016539Y011747D01*
X016459Y011846D02*
X009515Y011846D01*
X009358Y011550D02*
X014357Y011550D01*
X014322Y011452D02*
X009183Y011452D01*
X008747Y011255D02*
X008353Y011255D01*
X008448Y011156D02*
X008652Y011156D01*
X008612Y011058D02*
X008488Y011058D01*
X008515Y010959D02*
X008585Y010959D01*
X008585Y010861D02*
X008515Y010861D01*
X008496Y010762D02*
X008604Y010762D01*
X008644Y010664D02*
X008456Y010664D01*
X008373Y010565D02*
X008727Y010565D01*
X008881Y010467D02*
X008219Y010467D01*
X008338Y010270D02*
X008762Y010270D01*
X008663Y010171D02*
X008437Y010171D01*
X008482Y010073D02*
X008618Y010073D01*
X008585Y009974D02*
X008515Y009974D01*
X008515Y009876D02*
X008585Y009876D01*
X008597Y009777D02*
X008503Y009777D01*
X008462Y009679D02*
X008638Y009679D01*
X008712Y009580D02*
X008388Y009580D01*
X008256Y009482D02*
X008844Y009482D01*
X008777Y009285D02*
X008323Y009285D01*
X008422Y009186D02*
X008678Y009186D01*
X008624Y009088D02*
X008476Y009088D01*
X008515Y008989D02*
X008585Y008989D01*
X008585Y008891D02*
X008515Y008891D01*
X008509Y008792D02*
X008591Y008792D01*
X008632Y008694D02*
X008468Y008694D01*
X008403Y008595D02*
X008697Y008595D01*
X008808Y008497D02*
X008292Y008497D01*
X007585Y008989D02*
X005003Y008989D01*
X005059Y009088D02*
X007624Y009088D01*
X007678Y009186D02*
X005078Y009186D01*
X005070Y009285D02*
X007777Y009285D01*
X007844Y009482D02*
X004929Y009482D01*
X005030Y009383D02*
X025675Y009383D01*
X025571Y009285D02*
X009323Y009285D01*
X009462Y009679D02*
X030627Y009679D01*
X030668Y009777D02*
X021728Y009777D01*
X021572Y009777D02*
X009503Y009777D01*
X009515Y009876D02*
X021410Y009876D01*
X021347Y009974D02*
X009515Y009974D01*
X009482Y010073D02*
X021322Y010073D01*
X021324Y010171D02*
X009437Y010171D01*
X007881Y010467D02*
X000345Y010467D01*
X000345Y010565D02*
X007727Y010565D01*
X007644Y010664D02*
X000345Y010664D01*
X000345Y010762D02*
X007604Y010762D01*
X007585Y010861D02*
X000345Y010861D01*
X000345Y010959D02*
X007585Y010959D01*
X007612Y011058D02*
X000345Y011058D01*
X000345Y011156D02*
X007652Y011156D01*
X007747Y011255D02*
X000345Y011255D01*
X000345Y011353D02*
X007928Y011353D01*
X007917Y011452D02*
X004566Y011452D01*
X004536Y011422D02*
X004628Y011514D01*
X004678Y011635D01*
X004678Y011765D01*
X004628Y011886D01*
X004536Y011978D01*
X004415Y012028D01*
X004285Y012028D01*
X004164Y011978D01*
X004072Y011886D01*
X004022Y011765D01*
X004022Y011635D01*
X004072Y011514D01*
X004164Y011422D01*
X004285Y011372D01*
X004415Y011372D01*
X004536Y011422D01*
X004643Y011550D02*
X007742Y011550D01*
X007651Y011649D02*
X004678Y011649D01*
X004678Y011747D02*
X007610Y011747D01*
X007585Y011846D02*
X004645Y011846D01*
X004570Y011944D02*
X007585Y011944D01*
X007605Y012043D02*
X000345Y012043D01*
X000345Y012141D02*
X007646Y012141D01*
X007732Y012240D02*
X000345Y012240D01*
X000345Y012338D02*
X007892Y012338D01*
X007953Y012437D02*
X002751Y012437D01*
X002736Y012422D02*
X002828Y012514D01*
X002878Y012635D01*
X002878Y012765D01*
X002828Y012886D01*
X002736Y012978D01*
X002615Y013028D01*
X002485Y013028D01*
X002364Y012978D01*
X002272Y012886D01*
X002222Y012765D01*
X002222Y012635D01*
X002272Y012514D01*
X002364Y012422D01*
X002485Y012372D01*
X002615Y012372D01*
X002736Y012422D01*
X002837Y012535D02*
X007757Y012535D01*
X007658Y012634D02*
X002878Y012634D01*
X002878Y012732D02*
X007616Y012732D01*
X007585Y012831D02*
X002851Y012831D01*
X002785Y012929D02*
X007585Y012929D01*
X007599Y013028D02*
X002617Y013028D01*
X002483Y013028D02*
X000345Y013028D01*
X000345Y013126D02*
X007640Y013126D01*
X007717Y013225D02*
X000345Y013225D01*
X000345Y013323D02*
X007855Y013323D01*
X008245Y013323D02*
X008855Y013323D01*
X008717Y013225D02*
X008383Y013225D01*
X008460Y013126D02*
X008640Y013126D01*
X008599Y013028D02*
X008501Y013028D01*
X008515Y012929D02*
X008585Y012929D01*
X008585Y012831D02*
X008515Y012831D01*
X008484Y012732D02*
X008616Y012732D01*
X008658Y012634D02*
X008442Y012634D01*
X008343Y012535D02*
X008757Y012535D01*
X004130Y011944D02*
X000345Y011944D01*
X000345Y011846D02*
X004055Y011846D01*
X004022Y011747D02*
X000345Y011747D01*
X000345Y011649D02*
X004022Y011649D01*
X004057Y011550D02*
X000345Y011550D01*
X000345Y011452D02*
X004134Y011452D01*
X003550Y011700D02*
X003450Y011700D01*
X002349Y012437D02*
X000345Y012437D01*
X000345Y012535D02*
X002263Y012535D01*
X002222Y012634D02*
X000345Y012634D01*
X000345Y012732D02*
X002222Y012732D01*
X002249Y012831D02*
X000345Y012831D01*
X000345Y012929D02*
X002315Y012929D01*
X000345Y013422D02*
X019314Y013422D01*
X019248Y013520D02*
X000345Y013520D01*
X000345Y013619D02*
X019222Y013619D01*
X019222Y013717D02*
X000345Y013717D01*
X000345Y013816D02*
X019263Y013816D01*
X019350Y013914D02*
X000345Y013914D01*
X000345Y014407D02*
X033079Y014407D01*
X033034Y014505D02*
X000345Y014505D01*
X000345Y014604D02*
X033022Y014604D01*
X033037Y014702D02*
X000345Y014702D01*
X000345Y014801D02*
X033086Y014801D01*
X033214Y014899D02*
X000345Y014899D01*
X000345Y016180D02*
X029506Y016180D01*
X029445Y016278D02*
X000345Y016278D01*
X000345Y016377D02*
X029422Y016377D01*
X029426Y016475D02*
X000345Y016475D01*
X000345Y016574D02*
X029466Y016574D01*
X029558Y016672D02*
X000345Y016672D01*
X004950Y020900D02*
X004950Y021000D01*
X009650Y020900D02*
X009750Y021000D01*
X012750Y021000D02*
X012850Y020900D01*
X019750Y015700D02*
X019750Y015500D01*
X021650Y015400D02*
X021650Y015100D01*
X022287Y013028D02*
X028566Y013028D01*
X028657Y012929D02*
X022352Y012929D01*
X021763Y012634D02*
X021181Y012634D01*
X021136Y012678D02*
X021228Y012586D01*
X021272Y012482D01*
X021385Y012528D01*
X021515Y012528D01*
X021636Y012478D01*
X021728Y012386D01*
X021778Y012265D01*
X021778Y012135D01*
X021728Y012014D01*
X021636Y011922D01*
X021515Y011872D01*
X021385Y011872D01*
X021264Y011922D01*
X021172Y012014D01*
X021128Y012118D01*
X021015Y012072D01*
X020885Y012072D01*
X020764Y012122D01*
X020672Y012214D01*
X020622Y012335D01*
X020622Y012465D01*
X020672Y012586D01*
X020764Y012678D01*
X020885Y012728D01*
X021015Y012728D01*
X021136Y012678D01*
X021250Y012535D02*
X021851Y012535D01*
X021678Y012437D02*
X027001Y012437D01*
X026924Y012338D02*
X021748Y012338D01*
X021778Y012240D02*
X026883Y012240D01*
X026865Y012141D02*
X021778Y012141D01*
X021740Y012043D02*
X026865Y012043D01*
X026890Y011944D02*
X021658Y011944D01*
X021242Y011944D02*
X020178Y011944D01*
X020178Y011935D02*
X020128Y011814D01*
X020036Y011722D01*
X019915Y011672D01*
X019785Y011672D01*
X019664Y011722D01*
X019572Y011814D01*
X019522Y011935D01*
X019522Y012065D01*
X019572Y012186D01*
X019664Y012278D01*
X019785Y012328D01*
X019915Y012328D01*
X020036Y012278D01*
X020128Y012186D01*
X020178Y012065D01*
X020178Y011935D01*
X020141Y011846D02*
X026930Y011846D01*
X027017Y011747D02*
X025067Y011747D01*
X024633Y011747D02*
X020061Y011747D01*
X020178Y012043D02*
X021160Y012043D01*
X020745Y012141D02*
X020147Y012141D01*
X020075Y012240D02*
X020661Y012240D01*
X020622Y012338D02*
X018178Y012338D01*
X018178Y012437D02*
X020622Y012437D01*
X020650Y012535D02*
X018150Y012535D01*
X018081Y012634D02*
X020719Y012634D01*
X020450Y012400D02*
X020450Y012300D01*
X019625Y012240D02*
X018139Y012240D01*
X018055Y012141D02*
X019553Y012141D01*
X019522Y012043D02*
X017078Y012043D01*
X017078Y011944D02*
X019522Y011944D01*
X019559Y011846D02*
X017041Y011846D01*
X016961Y011747D02*
X019639Y011747D01*
X019150Y012400D02*
X018950Y012400D01*
X017645Y012141D02*
X017047Y012141D01*
X016975Y012240D02*
X017561Y012240D01*
X017250Y012300D02*
X017250Y012400D01*
X014450Y010300D02*
X014350Y010300D01*
X007780Y007512D02*
X000345Y007512D01*
X000345Y007610D02*
X007682Y007610D01*
X004250Y005936D02*
X000345Y005936D01*
X000345Y006034D02*
X004163Y006034D01*
X004122Y006133D02*
X000345Y006133D01*
X000345Y006231D02*
X004122Y006231D01*
X004148Y006330D02*
X000345Y006330D01*
X000345Y006428D02*
X004214Y006428D01*
X003650Y006200D02*
X003450Y006200D01*
X004632Y005246D02*
X000345Y005246D01*
X000345Y005148D02*
X004556Y005148D01*
X004522Y005049D02*
X000345Y005049D01*
X000345Y004951D02*
X004522Y004951D01*
X004556Y004852D02*
X000345Y004852D01*
X000345Y004754D02*
X004632Y004754D01*
X004141Y004655D02*
X000345Y004655D01*
X000345Y004557D02*
X004059Y004557D01*
X004022Y004458D02*
X000345Y004458D01*
X000345Y004360D02*
X004022Y004360D01*
X004052Y004261D02*
X000345Y004261D01*
X000345Y004163D02*
X004123Y004163D01*
X003650Y004400D02*
X003450Y004400D01*
X002329Y003276D02*
X013546Y003276D01*
X013608Y003178D02*
X002368Y003178D01*
X001144Y003867D02*
X000345Y003867D01*
X000345Y003769D02*
X000920Y003769D01*
X000822Y003670D02*
X000345Y003670D01*
X000345Y003572D02*
X000723Y003572D01*
X000652Y003473D02*
X000345Y003473D01*
X000345Y003375D02*
X000611Y003375D01*
X000571Y003276D02*
X000345Y003276D01*
X000345Y003178D02*
X000532Y003178D01*
X000532Y003079D02*
X000345Y003079D01*
X000345Y002981D02*
X000532Y002981D01*
X000532Y002882D02*
X000345Y002882D01*
X000345Y002784D02*
X000546Y002784D01*
X000587Y002685D02*
X000345Y002685D01*
X000345Y002587D02*
X000628Y002587D01*
X000668Y002488D02*
X000345Y002488D01*
X000345Y002390D02*
X000762Y002390D01*
X000861Y002291D02*
X000345Y002291D01*
X000345Y002193D02*
X001001Y002193D01*
X000345Y001897D02*
X041955Y001897D01*
X035050Y006300D02*
X035050Y006500D01*
X035050Y007300D02*
X035250Y007300D01*
X035150Y008300D02*
X035050Y008300D01*
X035050Y009300D02*
X035150Y009300D01*
X032714Y011156D02*
X032543Y011085D01*
X032357Y011085D01*
X032186Y011156D01*
X031714Y011156D01*
X031844Y011286D01*
X031915Y011457D01*
X031915Y011643D01*
X031844Y011814D01*
X031714Y011944D01*
X031812Y011846D02*
X032088Y011846D01*
X032056Y011814D02*
X031985Y011643D01*
X031985Y011457D01*
X032056Y011286D01*
X032186Y011156D01*
X032087Y011255D02*
X031813Y011255D01*
X031872Y011353D02*
X032028Y011353D01*
X031987Y011452D02*
X031913Y011452D01*
X031915Y011550D02*
X031985Y011550D01*
X031987Y011649D02*
X031913Y011649D01*
X031872Y011747D02*
X032028Y011747D01*
X032056Y011814D02*
X032186Y011944D01*
X032872Y011747D02*
X041955Y011747D01*
X041955Y011649D02*
X032913Y011649D01*
X032915Y011550D02*
X041955Y011550D01*
X041955Y011452D02*
X032913Y011452D01*
X032872Y011353D02*
X041955Y011353D01*
X041955Y011255D02*
X032813Y011255D01*
X031714Y011156D02*
X031543Y011085D01*
X031357Y011085D01*
X031186Y011156D01*
X030714Y011156D01*
X030844Y011286D01*
X030915Y011457D01*
X030915Y011643D01*
X030844Y011814D01*
X030714Y011944D01*
X030812Y011846D02*
X031088Y011846D01*
X031056Y011814D02*
X030985Y011643D01*
X030985Y011457D01*
X031056Y011286D01*
X031186Y011156D01*
X031087Y011255D02*
X030813Y011255D01*
X030872Y011353D02*
X031028Y011353D01*
X030987Y011452D02*
X030913Y011452D01*
X030915Y011550D02*
X030985Y011550D01*
X030987Y011649D02*
X030913Y011649D01*
X030872Y011747D02*
X031028Y011747D01*
X031056Y011814D02*
X031186Y011944D01*
X030714Y011156D02*
X030543Y011085D01*
X030357Y011085D01*
X030186Y011156D01*
X030761Y009876D02*
X021890Y009876D01*
X021953Y009974D02*
X041955Y009974D01*
X041955Y009876D02*
X031139Y009876D01*
X031232Y009777D02*
X041955Y009777D01*
X041955Y009679D02*
X031273Y009679D01*
X031278Y009580D02*
X041955Y009580D01*
X041955Y009482D02*
X031256Y009482D01*
X031197Y009383D02*
X041955Y009383D01*
X041955Y009285D02*
X031047Y009285D01*
X030950Y008800D02*
X030950Y008600D01*
X035050Y011300D02*
X035150Y011300D01*
X035150Y012300D02*
X035050Y012300D01*
X030457Y012929D02*
X029043Y012929D01*
X029134Y013028D02*
X030366Y013028D01*
X030325Y013126D02*
X029175Y013126D01*
X029178Y013225D02*
X030322Y013225D01*
X030345Y013323D02*
X029155Y013323D01*
X029093Y013422D02*
X030407Y013422D01*
X027050Y013400D02*
X027050Y013300D01*
X026350Y012100D02*
X026150Y012100D01*
X021935Y010270D02*
X041955Y010270D01*
X041955Y010368D02*
X021846Y010368D01*
X021750Y010500D02*
X021650Y010490D01*
X021976Y010171D02*
X041955Y010171D01*
X041955Y010073D02*
X021978Y010073D01*
X023850Y009200D02*
X023850Y009100D01*
X017950Y003200D02*
X017950Y003000D01*
X011450Y003900D02*
X011450Y004000D01*
X003550Y008000D02*
X003450Y008000D01*
D15*
X003450Y008000D03*
X004450Y008100D03*
X004750Y009200D03*
X004350Y009800D03*
X003450Y009800D03*
X003450Y011700D03*
X004350Y011700D03*
X002550Y012700D03*
X014350Y011100D03*
X014650Y011400D03*
X014350Y010700D03*
X014350Y010300D03*
X016550Y010100D03*
X017250Y010100D03*
X017950Y010100D03*
X018650Y010100D03*
X019350Y010100D03*
X019350Y009400D03*
X019350Y008700D03*
X019350Y008000D03*
X019350Y007300D03*
X018650Y007300D03*
X017950Y007300D03*
X017250Y007300D03*
X016550Y007300D03*
X016550Y008000D03*
X016550Y008700D03*
X016550Y009400D03*
X014250Y007900D03*
X014250Y007300D03*
X014650Y006500D03*
X014750Y005500D03*
X014250Y005400D03*
X015850Y005500D03*
X016450Y005500D03*
X017250Y005500D03*
X017450Y005000D03*
X018450Y005000D03*
X018950Y005000D03*
X019450Y005500D03*
X020250Y005000D03*
X020750Y005000D03*
X021650Y005700D03*
X021250Y006100D03*
X023650Y007100D03*
X024750Y007900D03*
X024350Y008100D03*
X023950Y008500D03*
X023850Y009100D03*
X025150Y008900D03*
X025850Y009100D03*
X026350Y009100D03*
X029350Y007600D03*
X029350Y007100D03*
X030950Y006900D03*
X030950Y006100D03*
X031350Y005500D03*
X030050Y005200D03*
X030050Y004400D03*
X030550Y004000D03*
X030750Y003500D03*
X033050Y003000D03*
X033750Y003900D03*
X033750Y004500D03*
X035050Y006300D03*
X035050Y007300D03*
X035050Y008300D03*
X035050Y009300D03*
X035050Y010300D03*
X035050Y011300D03*
X035050Y012300D03*
X032450Y014100D03*
X032750Y014600D03*
X033350Y014600D03*
X032550Y016300D03*
X031250Y016300D03*
X029750Y016400D03*
X028850Y016300D03*
X027550Y016300D03*
X028650Y015100D03*
X025150Y016300D03*
X024850Y015100D03*
X021650Y015100D03*
X019750Y015500D03*
X021250Y017100D03*
X024850Y018600D03*
X025250Y018600D03*
X025650Y018600D03*
X026050Y018600D03*
X026450Y018600D03*
X026850Y018600D03*
X027250Y018600D03*
X027250Y019000D03*
X027250Y019400D03*
X027250Y019800D03*
X027250Y020300D03*
X026850Y020300D03*
X026450Y020300D03*
X026050Y020300D03*
X025650Y020300D03*
X025250Y020300D03*
X024850Y020300D03*
X024850Y019800D03*
X024850Y019400D03*
X024850Y019000D03*
X028550Y019000D03*
X028550Y018600D03*
X028950Y018600D03*
X029350Y018600D03*
X029750Y018600D03*
X030150Y018600D03*
X030550Y018600D03*
X030950Y018600D03*
X030950Y019000D03*
X030950Y019400D03*
X030950Y019800D03*
X030950Y020300D03*
X030550Y020300D03*
X030150Y020300D03*
X029750Y020300D03*
X029350Y020300D03*
X028950Y020300D03*
X028550Y020300D03*
X028550Y019800D03*
X028550Y019400D03*
X032250Y019400D03*
X032250Y019000D03*
X032250Y018600D03*
X032650Y018600D03*
X033050Y018600D03*
X033450Y018600D03*
X033850Y018600D03*
X034250Y018600D03*
X034650Y018600D03*
X034650Y019000D03*
X034650Y019400D03*
X034650Y019800D03*
X034650Y020300D03*
X034250Y020300D03*
X033850Y020300D03*
X033450Y020300D03*
X033050Y020300D03*
X032650Y020300D03*
X032250Y020300D03*
X032250Y019800D03*
X034950Y016300D03*
X030650Y013200D03*
X028850Y013200D03*
X026350Y012100D03*
X024850Y011500D03*
X024450Y011500D03*
X022050Y012800D03*
X021450Y012200D03*
X020950Y012400D03*
X020450Y012400D03*
X019850Y012000D03*
X019150Y012400D03*
X017850Y012400D03*
X017250Y012400D03*
X016750Y012000D03*
X016050Y012400D03*
X015650Y012300D03*
X019550Y013650D03*
X023550Y013000D03*
X023750Y013400D03*
X028250Y011100D03*
X030950Y009600D03*
X030950Y008600D03*
X025850Y006600D03*
X025550Y006000D03*
X025150Y005100D03*
X024450Y005100D03*
X016450Y005000D03*
X015250Y003800D03*
X014550Y003300D03*
X013850Y003400D03*
X011450Y003900D03*
X011650Y005200D03*
X011350Y006400D03*
X005550Y004900D03*
X004850Y005000D03*
X004350Y004400D03*
X003450Y004400D03*
X003450Y006200D03*
X004450Y006200D03*
X021250Y010800D03*
X021650Y010490D03*
X021650Y010100D03*
X038750Y009800D03*
X038750Y010800D03*
X038750Y011800D03*
X038750Y008800D03*
X038750Y007800D03*
X038750Y006800D03*
X038750Y005800D03*
X012650Y019200D03*
X009550Y019200D03*
X009650Y020900D03*
X012850Y020900D03*
X013650Y020900D03*
X014450Y020900D03*
X004950Y020900D03*
X004850Y019200D03*
D16*
X025150Y016300D02*
X025450Y016300D01*
X028850Y016300D02*
X029050Y016300D01*
X032550Y016300D02*
X032750Y016300D01*
X032450Y014400D02*
X032450Y014100D01*
D17*
X032750Y014500D02*
X032850Y014400D01*
X032750Y014500D02*
X032750Y014600D01*
X031250Y016300D02*
X031250Y016400D01*
X031350Y016500D01*
X028650Y015100D02*
X028850Y014600D01*
X027750Y016300D02*
X027550Y016300D01*
X024850Y015100D02*
X025250Y014400D01*
X034950Y016300D02*
X034950Y016400D01*
X035050Y016500D01*
D18*
X018850Y020700D03*
M02*
