G75*
%MOIN*%
%OFA0B0*%
%FSLAX24Y24*%
%IPPOS*%
%LPD*%
%AMOC8*
5,1,8,0,0,1.08239X$1,22.5*
%
%ADD10C,0.0000*%
%ADD11C,0.0050*%
D10*
X000702Y003000D02*
X000704Y003055D01*
X000710Y003109D01*
X000720Y003163D01*
X000734Y003215D01*
X000751Y003267D01*
X000773Y003317D01*
X000798Y003366D01*
X000826Y003413D01*
X000858Y003457D01*
X000893Y003499D01*
X000931Y003538D01*
X000972Y003575D01*
X001015Y003608D01*
X001060Y003638D01*
X001108Y003665D01*
X001157Y003688D01*
X001208Y003708D01*
X001261Y003724D01*
X001314Y003736D01*
X001368Y003744D01*
X001423Y003748D01*
X001477Y003748D01*
X001532Y003744D01*
X001586Y003736D01*
X001639Y003724D01*
X001692Y003708D01*
X001743Y003688D01*
X001792Y003665D01*
X001840Y003638D01*
X001885Y003608D01*
X001928Y003575D01*
X001969Y003538D01*
X002007Y003499D01*
X002042Y003457D01*
X002074Y003413D01*
X002102Y003366D01*
X002127Y003317D01*
X002149Y003267D01*
X002166Y003215D01*
X002180Y003163D01*
X002190Y003109D01*
X002196Y003055D01*
X002198Y003000D01*
X002196Y002945D01*
X002190Y002891D01*
X002180Y002837D01*
X002166Y002785D01*
X002149Y002733D01*
X002127Y002683D01*
X002102Y002634D01*
X002074Y002587D01*
X002042Y002543D01*
X002007Y002501D01*
X001969Y002462D01*
X001928Y002425D01*
X001885Y002392D01*
X001840Y002362D01*
X001792Y002335D01*
X001743Y002312D01*
X001692Y002292D01*
X001639Y002276D01*
X001586Y002264D01*
X001532Y002256D01*
X001477Y002252D01*
X001423Y002252D01*
X001368Y002256D01*
X001314Y002264D01*
X001261Y002276D01*
X001208Y002292D01*
X001157Y002312D01*
X001108Y002335D01*
X001060Y002362D01*
X001015Y002392D01*
X000972Y002425D01*
X000931Y002462D01*
X000893Y002501D01*
X000858Y002543D01*
X000826Y002587D01*
X000798Y002634D01*
X000773Y002683D01*
X000751Y002733D01*
X000734Y002785D01*
X000720Y002837D01*
X000710Y002891D01*
X000704Y002945D01*
X000702Y003000D01*
X027035Y009100D02*
X027037Y009135D01*
X027043Y009170D01*
X027053Y009204D01*
X027066Y009237D01*
X027083Y009268D01*
X027104Y009296D01*
X027127Y009323D01*
X027154Y009346D01*
X027182Y009367D01*
X027213Y009384D01*
X027246Y009397D01*
X027280Y009407D01*
X027315Y009413D01*
X027350Y009415D01*
X027385Y009413D01*
X027420Y009407D01*
X027454Y009397D01*
X027487Y009384D01*
X027518Y009367D01*
X027546Y009346D01*
X027573Y009323D01*
X027596Y009296D01*
X027617Y009268D01*
X027634Y009237D01*
X027647Y009204D01*
X027657Y009170D01*
X027663Y009135D01*
X027665Y009100D01*
X027663Y009065D01*
X027657Y009030D01*
X027647Y008996D01*
X027634Y008963D01*
X027617Y008932D01*
X027596Y008904D01*
X027573Y008877D01*
X027546Y008854D01*
X027518Y008833D01*
X027487Y008816D01*
X027454Y008803D01*
X027420Y008793D01*
X027385Y008787D01*
X027350Y008785D01*
X027315Y008787D01*
X027280Y008793D01*
X027246Y008803D01*
X027213Y008816D01*
X027182Y008833D01*
X027154Y008854D01*
X027127Y008877D01*
X027104Y008904D01*
X027083Y008932D01*
X027066Y008963D01*
X027053Y008996D01*
X027043Y009030D01*
X027037Y009065D01*
X027035Y009100D01*
X027035Y012100D02*
X027037Y012135D01*
X027043Y012170D01*
X027053Y012204D01*
X027066Y012237D01*
X027083Y012268D01*
X027104Y012296D01*
X027127Y012323D01*
X027154Y012346D01*
X027182Y012367D01*
X027213Y012384D01*
X027246Y012397D01*
X027280Y012407D01*
X027315Y012413D01*
X027350Y012415D01*
X027385Y012413D01*
X027420Y012407D01*
X027454Y012397D01*
X027487Y012384D01*
X027518Y012367D01*
X027546Y012346D01*
X027573Y012323D01*
X027596Y012296D01*
X027617Y012268D01*
X027634Y012237D01*
X027647Y012204D01*
X027657Y012170D01*
X027663Y012135D01*
X027665Y012100D01*
X027663Y012065D01*
X027657Y012030D01*
X027647Y011996D01*
X027634Y011963D01*
X027617Y011932D01*
X027596Y011904D01*
X027573Y011877D01*
X027546Y011854D01*
X027518Y011833D01*
X027487Y011816D01*
X027454Y011803D01*
X027420Y011793D01*
X027385Y011787D01*
X027350Y011785D01*
X027315Y011787D01*
X027280Y011793D01*
X027246Y011803D01*
X027213Y011816D01*
X027182Y011833D01*
X027154Y011854D01*
X027127Y011877D01*
X027104Y011904D01*
X027083Y011932D01*
X027066Y011963D01*
X027053Y011996D01*
X027043Y012030D01*
X027037Y012065D01*
X027035Y012100D01*
X035566Y016041D02*
X035568Y016076D01*
X035574Y016111D01*
X035584Y016145D01*
X035597Y016178D01*
X035614Y016209D01*
X035635Y016237D01*
X035658Y016264D01*
X035685Y016287D01*
X035713Y016308D01*
X035744Y016325D01*
X035777Y016338D01*
X035811Y016348D01*
X035846Y016354D01*
X035881Y016356D01*
X035916Y016354D01*
X035951Y016348D01*
X035985Y016338D01*
X036018Y016325D01*
X036049Y016308D01*
X036077Y016287D01*
X036104Y016264D01*
X036127Y016237D01*
X036148Y016209D01*
X036165Y016178D01*
X036178Y016145D01*
X036188Y016111D01*
X036194Y016076D01*
X036196Y016041D01*
X036194Y016006D01*
X036188Y015971D01*
X036178Y015937D01*
X036165Y015904D01*
X036148Y015873D01*
X036127Y015845D01*
X036104Y015818D01*
X036077Y015795D01*
X036049Y015774D01*
X036018Y015757D01*
X035985Y015744D01*
X035951Y015734D01*
X035916Y015728D01*
X035881Y015726D01*
X035846Y015728D01*
X035811Y015734D01*
X035777Y015744D01*
X035744Y015757D01*
X035713Y015774D01*
X035685Y015795D01*
X035658Y015818D01*
X035635Y015845D01*
X035614Y015873D01*
X035597Y015904D01*
X035584Y015937D01*
X035574Y015971D01*
X035568Y016006D01*
X035566Y016041D01*
X035566Y019159D02*
X035568Y019194D01*
X035574Y019229D01*
X035584Y019263D01*
X035597Y019296D01*
X035614Y019327D01*
X035635Y019355D01*
X035658Y019382D01*
X035685Y019405D01*
X035713Y019426D01*
X035744Y019443D01*
X035777Y019456D01*
X035811Y019466D01*
X035846Y019472D01*
X035881Y019474D01*
X035916Y019472D01*
X035951Y019466D01*
X035985Y019456D01*
X036018Y019443D01*
X036049Y019426D01*
X036077Y019405D01*
X036104Y019382D01*
X036127Y019355D01*
X036148Y019327D01*
X036165Y019296D01*
X036178Y019263D01*
X036188Y019229D01*
X036194Y019194D01*
X036196Y019159D01*
X036194Y019124D01*
X036188Y019089D01*
X036178Y019055D01*
X036165Y019022D01*
X036148Y018991D01*
X036127Y018963D01*
X036104Y018936D01*
X036077Y018913D01*
X036049Y018892D01*
X036018Y018875D01*
X035985Y018862D01*
X035951Y018852D01*
X035916Y018846D01*
X035881Y018844D01*
X035846Y018846D01*
X035811Y018852D01*
X035777Y018862D01*
X035744Y018875D01*
X035713Y018892D01*
X035685Y018913D01*
X035658Y018936D01*
X035635Y018963D01*
X035614Y018991D01*
X035597Y019022D01*
X035584Y019055D01*
X035574Y019089D01*
X035568Y019124D01*
X035566Y019159D01*
X040002Y020300D02*
X040004Y020355D01*
X040010Y020409D01*
X040020Y020463D01*
X040034Y020515D01*
X040051Y020567D01*
X040073Y020617D01*
X040098Y020666D01*
X040126Y020713D01*
X040158Y020757D01*
X040193Y020799D01*
X040231Y020838D01*
X040272Y020875D01*
X040315Y020908D01*
X040360Y020938D01*
X040408Y020965D01*
X040457Y020988D01*
X040508Y021008D01*
X040561Y021024D01*
X040614Y021036D01*
X040668Y021044D01*
X040723Y021048D01*
X040777Y021048D01*
X040832Y021044D01*
X040886Y021036D01*
X040939Y021024D01*
X040992Y021008D01*
X041043Y020988D01*
X041092Y020965D01*
X041140Y020938D01*
X041185Y020908D01*
X041228Y020875D01*
X041269Y020838D01*
X041307Y020799D01*
X041342Y020757D01*
X041374Y020713D01*
X041402Y020666D01*
X041427Y020617D01*
X041449Y020567D01*
X041466Y020515D01*
X041480Y020463D01*
X041490Y020409D01*
X041496Y020355D01*
X041498Y020300D01*
X041496Y020245D01*
X041490Y020191D01*
X041480Y020137D01*
X041466Y020085D01*
X041449Y020033D01*
X041427Y019983D01*
X041402Y019934D01*
X041374Y019887D01*
X041342Y019843D01*
X041307Y019801D01*
X041269Y019762D01*
X041228Y019725D01*
X041185Y019692D01*
X041140Y019662D01*
X041092Y019635D01*
X041043Y019612D01*
X040992Y019592D01*
X040939Y019576D01*
X040886Y019564D01*
X040832Y019556D01*
X040777Y019552D01*
X040723Y019552D01*
X040668Y019556D01*
X040614Y019564D01*
X040561Y019576D01*
X040508Y019592D01*
X040457Y019612D01*
X040408Y019635D01*
X040360Y019662D01*
X040315Y019692D01*
X040272Y019725D01*
X040231Y019762D01*
X040193Y019801D01*
X040158Y019843D01*
X040126Y019887D01*
X040098Y019934D01*
X040073Y019983D01*
X040051Y020033D01*
X040034Y020085D01*
X040020Y020137D01*
X040010Y020191D01*
X040004Y020245D01*
X040002Y020300D01*
X013871Y019200D02*
X013873Y019227D01*
X013879Y019254D01*
X013888Y019280D01*
X013901Y019304D01*
X013917Y019327D01*
X013936Y019346D01*
X013958Y019363D01*
X013982Y019377D01*
X014007Y019387D01*
X014034Y019394D01*
X014061Y019397D01*
X014089Y019396D01*
X014116Y019391D01*
X014142Y019383D01*
X014166Y019371D01*
X014189Y019355D01*
X014210Y019337D01*
X014227Y019316D01*
X014242Y019292D01*
X014253Y019267D01*
X014261Y019241D01*
X014265Y019214D01*
X014265Y019186D01*
X014261Y019159D01*
X014253Y019133D01*
X014242Y019108D01*
X014227Y019084D01*
X014210Y019063D01*
X014189Y019045D01*
X014167Y019029D01*
X014142Y019017D01*
X014116Y019009D01*
X014089Y019004D01*
X014061Y019003D01*
X014034Y019006D01*
X014007Y019013D01*
X013982Y019023D01*
X013958Y019037D01*
X013936Y019054D01*
X013917Y019073D01*
X013901Y019096D01*
X013888Y019120D01*
X013879Y019146D01*
X013873Y019173D01*
X013871Y019200D01*
X003635Y019200D02*
X003637Y019227D01*
X003643Y019254D01*
X003652Y019280D01*
X003665Y019304D01*
X003681Y019327D01*
X003700Y019346D01*
X003722Y019363D01*
X003746Y019377D01*
X003771Y019387D01*
X003798Y019394D01*
X003825Y019397D01*
X003853Y019396D01*
X003880Y019391D01*
X003906Y019383D01*
X003930Y019371D01*
X003953Y019355D01*
X003974Y019337D01*
X003991Y019316D01*
X004006Y019292D01*
X004017Y019267D01*
X004025Y019241D01*
X004029Y019214D01*
X004029Y019186D01*
X004025Y019159D01*
X004017Y019133D01*
X004006Y019108D01*
X003991Y019084D01*
X003974Y019063D01*
X003953Y019045D01*
X003931Y019029D01*
X003906Y019017D01*
X003880Y019009D01*
X003853Y019004D01*
X003825Y019003D01*
X003798Y019006D01*
X003771Y019013D01*
X003746Y019023D01*
X003722Y019037D01*
X003700Y019054D01*
X003681Y019073D01*
X003665Y019096D01*
X003652Y019120D01*
X003643Y019146D01*
X003637Y019173D01*
X003635Y019200D01*
X000702Y020300D02*
X000704Y020355D01*
X000710Y020409D01*
X000720Y020463D01*
X000734Y020515D01*
X000751Y020567D01*
X000773Y020617D01*
X000798Y020666D01*
X000826Y020713D01*
X000858Y020757D01*
X000893Y020799D01*
X000931Y020838D01*
X000972Y020875D01*
X001015Y020908D01*
X001060Y020938D01*
X001108Y020965D01*
X001157Y020988D01*
X001208Y021008D01*
X001261Y021024D01*
X001314Y021036D01*
X001368Y021044D01*
X001423Y021048D01*
X001477Y021048D01*
X001532Y021044D01*
X001586Y021036D01*
X001639Y021024D01*
X001692Y021008D01*
X001743Y020988D01*
X001792Y020965D01*
X001840Y020938D01*
X001885Y020908D01*
X001928Y020875D01*
X001969Y020838D01*
X002007Y020799D01*
X002042Y020757D01*
X002074Y020713D01*
X002102Y020666D01*
X002127Y020617D01*
X002149Y020567D01*
X002166Y020515D01*
X002180Y020463D01*
X002190Y020409D01*
X002196Y020355D01*
X002198Y020300D01*
X002196Y020245D01*
X002190Y020191D01*
X002180Y020137D01*
X002166Y020085D01*
X002149Y020033D01*
X002127Y019983D01*
X002102Y019934D01*
X002074Y019887D01*
X002042Y019843D01*
X002007Y019801D01*
X001969Y019762D01*
X001928Y019725D01*
X001885Y019692D01*
X001840Y019662D01*
X001792Y019635D01*
X001743Y019612D01*
X001692Y019592D01*
X001639Y019576D01*
X001586Y019564D01*
X001532Y019556D01*
X001477Y019552D01*
X001423Y019552D01*
X001368Y019556D01*
X001314Y019564D01*
X001261Y019576D01*
X001208Y019592D01*
X001157Y019612D01*
X001108Y019635D01*
X001060Y019662D01*
X001015Y019692D01*
X000972Y019725D01*
X000931Y019762D01*
X000893Y019801D01*
X000858Y019843D01*
X000826Y019887D01*
X000798Y019934D01*
X000773Y019983D01*
X000751Y020033D01*
X000734Y020085D01*
X000720Y020137D01*
X000710Y020191D01*
X000704Y020245D01*
X000702Y020300D01*
X040002Y003000D02*
X040004Y003055D01*
X040010Y003109D01*
X040020Y003163D01*
X040034Y003215D01*
X040051Y003267D01*
X040073Y003317D01*
X040098Y003366D01*
X040126Y003413D01*
X040158Y003457D01*
X040193Y003499D01*
X040231Y003538D01*
X040272Y003575D01*
X040315Y003608D01*
X040360Y003638D01*
X040408Y003665D01*
X040457Y003688D01*
X040508Y003708D01*
X040561Y003724D01*
X040614Y003736D01*
X040668Y003744D01*
X040723Y003748D01*
X040777Y003748D01*
X040832Y003744D01*
X040886Y003736D01*
X040939Y003724D01*
X040992Y003708D01*
X041043Y003688D01*
X041092Y003665D01*
X041140Y003638D01*
X041185Y003608D01*
X041228Y003575D01*
X041269Y003538D01*
X041307Y003499D01*
X041342Y003457D01*
X041374Y003413D01*
X041402Y003366D01*
X041427Y003317D01*
X041449Y003267D01*
X041466Y003215D01*
X041480Y003163D01*
X041490Y003109D01*
X041496Y003055D01*
X041498Y003000D01*
X041496Y002945D01*
X041490Y002891D01*
X041480Y002837D01*
X041466Y002785D01*
X041449Y002733D01*
X041427Y002683D01*
X041402Y002634D01*
X041374Y002587D01*
X041342Y002543D01*
X041307Y002501D01*
X041269Y002462D01*
X041228Y002425D01*
X041185Y002392D01*
X041140Y002362D01*
X041092Y002335D01*
X041043Y002312D01*
X040992Y002292D01*
X040939Y002276D01*
X040886Y002264D01*
X040832Y002256D01*
X040777Y002252D01*
X040723Y002252D01*
X040668Y002256D01*
X040614Y002264D01*
X040561Y002276D01*
X040508Y002292D01*
X040457Y002312D01*
X040408Y002335D01*
X040360Y002362D01*
X040315Y002392D01*
X040272Y002425D01*
X040231Y002462D01*
X040193Y002501D01*
X040158Y002543D01*
X040126Y002587D01*
X040098Y002634D01*
X040073Y002683D01*
X040051Y002733D01*
X040034Y002785D01*
X040020Y002837D01*
X040010Y002891D01*
X040004Y002945D01*
X040002Y003000D01*
D11*
X042150Y001700D02*
X000150Y001700D01*
X000150Y021600D01*
X042150Y021600D01*
X042150Y001700D01*
M02*
