%
M48
M72
T01C0.0197
T02C0.0236
T03C0.0394
T04C0.0630
T05C0.0670
T06C0.1496
%
T01
X3450Y4400
X4350Y4400
X4850Y5000
X5550Y4900
X4450Y6200
X3450Y6200
X3450Y8000
X4450Y8100
X4750Y9200
X4350Y9800
X3450Y9800
X3450Y11700
X4350Y11700
X2550Y12700
X14350Y11100
X14650Y11400
X14350Y10700
X14350Y10300
X16550Y10100
X17250Y10100
X17950Y10100
X18650Y10100
X19350Y10100
X19350Y9400
X19350Y8700
X19350Y8000
X19350Y7300
X18650Y7300
X17950Y7300
X17250Y7300
X16550Y7300
X16550Y8000
X16550Y8700
X16550Y9400
X14250Y7900
X14250Y7300
X14650Y6500
X14750Y5500
X14250Y5400
X15850Y5500
X16450Y5500
X17250Y5500
X17450Y5000
X18450Y5000
X18950Y5000
X19450Y5500
X20250Y5000
X20750Y5000
X21650Y5700
X21250Y6100
X23650Y7100
X24750Y7900
X24350Y8100
X23950Y8500
X23850Y9100
X25150Y8900
X25850Y9100
X26350Y9100
X29350Y7600
X29350Y7100
X30950Y6900
X30950Y6100
X31350Y5500
X30050Y5200
X30050Y4400
X30550Y4000
X30750Y3500
X33050Y3000
X33750Y3900
X33750Y4500
X35050Y6300
X35050Y7300
X35050Y8300
X35050Y9300
X35050Y10300
X35050Y11300
X35050Y12300
X32450Y14100
X32750Y14600
X33350Y14600
X34950Y16300
X32550Y16300
X31250Y16300
X29750Y16400
X28850Y16300
X27550Y16300
X28650Y15100
X25150Y16300
X24850Y15100
X21650Y15100
X19750Y15500
X21250Y17100
X24850Y18600
X25250Y18600
X25650Y18600
X26050Y18600
X26450Y18600
X26850Y18600
X27250Y18600
X27250Y19000
X27250Y19400
X27250Y19800
X27250Y20300
X26850Y20300
X26450Y20300
X26050Y20300
X25650Y20300
X25250Y20300
X24850Y20300
X24850Y19800
X24850Y19400
X24850Y19000
X28550Y19000
X28550Y18600
X28950Y18600
X29350Y18600
X29750Y18600
X30150Y18600
X30550Y18600
X30950Y18600
X30950Y19000
X30950Y19400
X30950Y19800
X30950Y20300
X30550Y20300
X30150Y20300
X29750Y20300
X29350Y20300
X28950Y20300
X28550Y20300
X28550Y19800
X28550Y19400
X32250Y19400
X32250Y19000
X32250Y18600
X32650Y18600
X33050Y18600
X33450Y18600
X33850Y18600
X34250Y18600
X34650Y18600
X34650Y19000
X34650Y19400
X34650Y19800
X34650Y20300
X34250Y20300
X33850Y20300
X33450Y20300
X33050Y20300
X32650Y20300
X32250Y20300
X32250Y19800
X30650Y13200
X28850Y13200
X26350Y12100
X24850Y11500
X24450Y11500
X22050Y12800
X21450Y12200
X20950Y12400
X20450Y12400
X19850Y12000
X19150Y12400
X17850Y12400
X17250Y12400
X16750Y12000
X16050Y12400
X15650Y12300
X19550Y13650
X23550Y13000
X23750Y13400
X28250Y11100
X30950Y9600
X30950Y8600
X25850Y6600
X25550Y6000
X25150Y5100
X24450Y5100
X16450Y5000
X15250Y3800
X14550Y3300
X13850Y3400
X11450Y3900
X11650Y5200
X11350Y6400
X21250Y10800
X21650Y10490
X21650Y10100
X38750Y9800
X38750Y10800
X38750Y11800
X38750Y8800
X38750Y7800
X38750Y6800
X38750Y5800
X12650Y19200
X9550Y19200
X9650Y20900
X12850Y20900
X13650Y20900
X14450Y20900
X4950Y20900
X4850Y19200
T02
X18850Y20700
T03
X8050Y3900
X9050Y3900
X9050Y4900
X8050Y4900
X8050Y5900
X9050Y5900
X9050Y6900
X8050Y6900
X8050Y7900
X9050Y7900
X9050Y8900
X8050Y8900
X8050Y9900
X9050Y9900
X9050Y10900
X8050Y10900
X8050Y11900
X9050Y11900
X9050Y12900
X8050Y12900
X3832Y19200
X14068Y19200
X30450Y11550
X31450Y11550
X32450Y11550
T04
X27350Y9100
X27350Y12100
X35881Y16041
X35881Y19159
T05
X37550Y16820
X37550Y15261
X37550Y18380
T06
X1450Y3000
X40750Y20300
X1450Y20300
X40750Y3000
M30
