G75*
%MOIN*%
%OFA0B0*%
%FSLAX24Y24*%
%IPPOS*%
%LPD*%
%AMOC8*
5,1,8,0,0,1.08239X$1,22.5*
%
%ADD10C,0.0000*%
%ADD11C,0.0050*%
%ADD12R,0.0591X0.0118*%
%ADD13R,0.0118X0.0591*%
%ADD14R,0.2126X0.2126*%
%ADD15R,0.0197X0.0197*%
%ADD16R,0.1449X0.0500*%
%ADD17C,0.0004*%
%ADD18R,0.0236X0.0354*%
%ADD19R,0.0354X0.0236*%
%ADD20R,0.0433X0.0787*%
%ADD21R,0.1299X0.0787*%
%ADD22R,0.0787X0.0197*%
%ADD23R,0.0256X0.0335*%
%ADD24R,0.0394X0.1083*%
%ADD25R,0.0413X0.0256*%
%ADD26R,0.2000X0.0500*%
%ADD27R,0.1260X0.0630*%
%ADD28C,0.0591*%
%ADD29R,0.0433X0.0492*%
%ADD30C,0.0500*%
%ADD31C,0.0197*%
%ADD32C,0.1005*%
%ADD33R,0.0394X0.2441*%
%ADD34R,0.0630X0.1181*%
%ADD35R,0.0079X0.0079*%
%ADD36C,0.0008*%
%ADD37R,0.0197X0.0236*%
%ADD38R,0.0236X0.0197*%
%ADD39C,0.0100*%
%ADD40C,0.0317*%
%ADD41C,0.0320*%
%ADD42C,0.0160*%
%ADD43C,0.0240*%
%ADD44C,0.0356*%
D10*
X000702Y003000D02*
X000704Y003055D01*
X000710Y003109D01*
X000720Y003163D01*
X000734Y003215D01*
X000751Y003267D01*
X000773Y003317D01*
X000798Y003366D01*
X000826Y003413D01*
X000858Y003457D01*
X000893Y003499D01*
X000931Y003538D01*
X000972Y003575D01*
X001015Y003608D01*
X001060Y003638D01*
X001108Y003665D01*
X001157Y003688D01*
X001208Y003708D01*
X001261Y003724D01*
X001314Y003736D01*
X001368Y003744D01*
X001423Y003748D01*
X001477Y003748D01*
X001532Y003744D01*
X001586Y003736D01*
X001639Y003724D01*
X001692Y003708D01*
X001743Y003688D01*
X001792Y003665D01*
X001840Y003638D01*
X001885Y003608D01*
X001928Y003575D01*
X001969Y003538D01*
X002007Y003499D01*
X002042Y003457D01*
X002074Y003413D01*
X002102Y003366D01*
X002127Y003317D01*
X002149Y003267D01*
X002166Y003215D01*
X002180Y003163D01*
X002190Y003109D01*
X002196Y003055D01*
X002198Y003000D01*
X002196Y002945D01*
X002190Y002891D01*
X002180Y002837D01*
X002166Y002785D01*
X002149Y002733D01*
X002127Y002683D01*
X002102Y002634D01*
X002074Y002587D01*
X002042Y002543D01*
X002007Y002501D01*
X001969Y002462D01*
X001928Y002425D01*
X001885Y002392D01*
X001840Y002362D01*
X001792Y002335D01*
X001743Y002312D01*
X001692Y002292D01*
X001639Y002276D01*
X001586Y002264D01*
X001532Y002256D01*
X001477Y002252D01*
X001423Y002252D01*
X001368Y002256D01*
X001314Y002264D01*
X001261Y002276D01*
X001208Y002292D01*
X001157Y002312D01*
X001108Y002335D01*
X001060Y002362D01*
X001015Y002392D01*
X000972Y002425D01*
X000931Y002462D01*
X000893Y002501D01*
X000858Y002543D01*
X000826Y002587D01*
X000798Y002634D01*
X000773Y002683D01*
X000751Y002733D01*
X000734Y002785D01*
X000720Y002837D01*
X000710Y002891D01*
X000704Y002945D01*
X000702Y003000D01*
X027035Y009100D02*
X027037Y009135D01*
X027043Y009170D01*
X027053Y009204D01*
X027066Y009237D01*
X027083Y009268D01*
X027104Y009296D01*
X027127Y009323D01*
X027154Y009346D01*
X027182Y009367D01*
X027213Y009384D01*
X027246Y009397D01*
X027280Y009407D01*
X027315Y009413D01*
X027350Y009415D01*
X027385Y009413D01*
X027420Y009407D01*
X027454Y009397D01*
X027487Y009384D01*
X027518Y009367D01*
X027546Y009346D01*
X027573Y009323D01*
X027596Y009296D01*
X027617Y009268D01*
X027634Y009237D01*
X027647Y009204D01*
X027657Y009170D01*
X027663Y009135D01*
X027665Y009100D01*
X027663Y009065D01*
X027657Y009030D01*
X027647Y008996D01*
X027634Y008963D01*
X027617Y008932D01*
X027596Y008904D01*
X027573Y008877D01*
X027546Y008854D01*
X027518Y008833D01*
X027487Y008816D01*
X027454Y008803D01*
X027420Y008793D01*
X027385Y008787D01*
X027350Y008785D01*
X027315Y008787D01*
X027280Y008793D01*
X027246Y008803D01*
X027213Y008816D01*
X027182Y008833D01*
X027154Y008854D01*
X027127Y008877D01*
X027104Y008904D01*
X027083Y008932D01*
X027066Y008963D01*
X027053Y008996D01*
X027043Y009030D01*
X027037Y009065D01*
X027035Y009100D01*
X027035Y012100D02*
X027037Y012135D01*
X027043Y012170D01*
X027053Y012204D01*
X027066Y012237D01*
X027083Y012268D01*
X027104Y012296D01*
X027127Y012323D01*
X027154Y012346D01*
X027182Y012367D01*
X027213Y012384D01*
X027246Y012397D01*
X027280Y012407D01*
X027315Y012413D01*
X027350Y012415D01*
X027385Y012413D01*
X027420Y012407D01*
X027454Y012397D01*
X027487Y012384D01*
X027518Y012367D01*
X027546Y012346D01*
X027573Y012323D01*
X027596Y012296D01*
X027617Y012268D01*
X027634Y012237D01*
X027647Y012204D01*
X027657Y012170D01*
X027663Y012135D01*
X027665Y012100D01*
X027663Y012065D01*
X027657Y012030D01*
X027647Y011996D01*
X027634Y011963D01*
X027617Y011932D01*
X027596Y011904D01*
X027573Y011877D01*
X027546Y011854D01*
X027518Y011833D01*
X027487Y011816D01*
X027454Y011803D01*
X027420Y011793D01*
X027385Y011787D01*
X027350Y011785D01*
X027315Y011787D01*
X027280Y011793D01*
X027246Y011803D01*
X027213Y011816D01*
X027182Y011833D01*
X027154Y011854D01*
X027127Y011877D01*
X027104Y011904D01*
X027083Y011932D01*
X027066Y011963D01*
X027053Y011996D01*
X027043Y012030D01*
X027037Y012065D01*
X027035Y012100D01*
X035566Y016041D02*
X035568Y016076D01*
X035574Y016111D01*
X035584Y016145D01*
X035597Y016178D01*
X035614Y016209D01*
X035635Y016237D01*
X035658Y016264D01*
X035685Y016287D01*
X035713Y016308D01*
X035744Y016325D01*
X035777Y016338D01*
X035811Y016348D01*
X035846Y016354D01*
X035881Y016356D01*
X035916Y016354D01*
X035951Y016348D01*
X035985Y016338D01*
X036018Y016325D01*
X036049Y016308D01*
X036077Y016287D01*
X036104Y016264D01*
X036127Y016237D01*
X036148Y016209D01*
X036165Y016178D01*
X036178Y016145D01*
X036188Y016111D01*
X036194Y016076D01*
X036196Y016041D01*
X036194Y016006D01*
X036188Y015971D01*
X036178Y015937D01*
X036165Y015904D01*
X036148Y015873D01*
X036127Y015845D01*
X036104Y015818D01*
X036077Y015795D01*
X036049Y015774D01*
X036018Y015757D01*
X035985Y015744D01*
X035951Y015734D01*
X035916Y015728D01*
X035881Y015726D01*
X035846Y015728D01*
X035811Y015734D01*
X035777Y015744D01*
X035744Y015757D01*
X035713Y015774D01*
X035685Y015795D01*
X035658Y015818D01*
X035635Y015845D01*
X035614Y015873D01*
X035597Y015904D01*
X035584Y015937D01*
X035574Y015971D01*
X035568Y016006D01*
X035566Y016041D01*
X035566Y019159D02*
X035568Y019194D01*
X035574Y019229D01*
X035584Y019263D01*
X035597Y019296D01*
X035614Y019327D01*
X035635Y019355D01*
X035658Y019382D01*
X035685Y019405D01*
X035713Y019426D01*
X035744Y019443D01*
X035777Y019456D01*
X035811Y019466D01*
X035846Y019472D01*
X035881Y019474D01*
X035916Y019472D01*
X035951Y019466D01*
X035985Y019456D01*
X036018Y019443D01*
X036049Y019426D01*
X036077Y019405D01*
X036104Y019382D01*
X036127Y019355D01*
X036148Y019327D01*
X036165Y019296D01*
X036178Y019263D01*
X036188Y019229D01*
X036194Y019194D01*
X036196Y019159D01*
X036194Y019124D01*
X036188Y019089D01*
X036178Y019055D01*
X036165Y019022D01*
X036148Y018991D01*
X036127Y018963D01*
X036104Y018936D01*
X036077Y018913D01*
X036049Y018892D01*
X036018Y018875D01*
X035985Y018862D01*
X035951Y018852D01*
X035916Y018846D01*
X035881Y018844D01*
X035846Y018846D01*
X035811Y018852D01*
X035777Y018862D01*
X035744Y018875D01*
X035713Y018892D01*
X035685Y018913D01*
X035658Y018936D01*
X035635Y018963D01*
X035614Y018991D01*
X035597Y019022D01*
X035584Y019055D01*
X035574Y019089D01*
X035568Y019124D01*
X035566Y019159D01*
X040002Y020300D02*
X040004Y020355D01*
X040010Y020409D01*
X040020Y020463D01*
X040034Y020515D01*
X040051Y020567D01*
X040073Y020617D01*
X040098Y020666D01*
X040126Y020713D01*
X040158Y020757D01*
X040193Y020799D01*
X040231Y020838D01*
X040272Y020875D01*
X040315Y020908D01*
X040360Y020938D01*
X040408Y020965D01*
X040457Y020988D01*
X040508Y021008D01*
X040561Y021024D01*
X040614Y021036D01*
X040668Y021044D01*
X040723Y021048D01*
X040777Y021048D01*
X040832Y021044D01*
X040886Y021036D01*
X040939Y021024D01*
X040992Y021008D01*
X041043Y020988D01*
X041092Y020965D01*
X041140Y020938D01*
X041185Y020908D01*
X041228Y020875D01*
X041269Y020838D01*
X041307Y020799D01*
X041342Y020757D01*
X041374Y020713D01*
X041402Y020666D01*
X041427Y020617D01*
X041449Y020567D01*
X041466Y020515D01*
X041480Y020463D01*
X041490Y020409D01*
X041496Y020355D01*
X041498Y020300D01*
X041496Y020245D01*
X041490Y020191D01*
X041480Y020137D01*
X041466Y020085D01*
X041449Y020033D01*
X041427Y019983D01*
X041402Y019934D01*
X041374Y019887D01*
X041342Y019843D01*
X041307Y019801D01*
X041269Y019762D01*
X041228Y019725D01*
X041185Y019692D01*
X041140Y019662D01*
X041092Y019635D01*
X041043Y019612D01*
X040992Y019592D01*
X040939Y019576D01*
X040886Y019564D01*
X040832Y019556D01*
X040777Y019552D01*
X040723Y019552D01*
X040668Y019556D01*
X040614Y019564D01*
X040561Y019576D01*
X040508Y019592D01*
X040457Y019612D01*
X040408Y019635D01*
X040360Y019662D01*
X040315Y019692D01*
X040272Y019725D01*
X040231Y019762D01*
X040193Y019801D01*
X040158Y019843D01*
X040126Y019887D01*
X040098Y019934D01*
X040073Y019983D01*
X040051Y020033D01*
X040034Y020085D01*
X040020Y020137D01*
X040010Y020191D01*
X040004Y020245D01*
X040002Y020300D01*
X013871Y019200D02*
X013873Y019227D01*
X013879Y019254D01*
X013888Y019280D01*
X013901Y019304D01*
X013917Y019327D01*
X013936Y019346D01*
X013958Y019363D01*
X013982Y019377D01*
X014007Y019387D01*
X014034Y019394D01*
X014061Y019397D01*
X014089Y019396D01*
X014116Y019391D01*
X014142Y019383D01*
X014166Y019371D01*
X014189Y019355D01*
X014210Y019337D01*
X014227Y019316D01*
X014242Y019292D01*
X014253Y019267D01*
X014261Y019241D01*
X014265Y019214D01*
X014265Y019186D01*
X014261Y019159D01*
X014253Y019133D01*
X014242Y019108D01*
X014227Y019084D01*
X014210Y019063D01*
X014189Y019045D01*
X014167Y019029D01*
X014142Y019017D01*
X014116Y019009D01*
X014089Y019004D01*
X014061Y019003D01*
X014034Y019006D01*
X014007Y019013D01*
X013982Y019023D01*
X013958Y019037D01*
X013936Y019054D01*
X013917Y019073D01*
X013901Y019096D01*
X013888Y019120D01*
X013879Y019146D01*
X013873Y019173D01*
X013871Y019200D01*
X003635Y019200D02*
X003637Y019227D01*
X003643Y019254D01*
X003652Y019280D01*
X003665Y019304D01*
X003681Y019327D01*
X003700Y019346D01*
X003722Y019363D01*
X003746Y019377D01*
X003771Y019387D01*
X003798Y019394D01*
X003825Y019397D01*
X003853Y019396D01*
X003880Y019391D01*
X003906Y019383D01*
X003930Y019371D01*
X003953Y019355D01*
X003974Y019337D01*
X003991Y019316D01*
X004006Y019292D01*
X004017Y019267D01*
X004025Y019241D01*
X004029Y019214D01*
X004029Y019186D01*
X004025Y019159D01*
X004017Y019133D01*
X004006Y019108D01*
X003991Y019084D01*
X003974Y019063D01*
X003953Y019045D01*
X003931Y019029D01*
X003906Y019017D01*
X003880Y019009D01*
X003853Y019004D01*
X003825Y019003D01*
X003798Y019006D01*
X003771Y019013D01*
X003746Y019023D01*
X003722Y019037D01*
X003700Y019054D01*
X003681Y019073D01*
X003665Y019096D01*
X003652Y019120D01*
X003643Y019146D01*
X003637Y019173D01*
X003635Y019200D01*
X000702Y020300D02*
X000704Y020355D01*
X000710Y020409D01*
X000720Y020463D01*
X000734Y020515D01*
X000751Y020567D01*
X000773Y020617D01*
X000798Y020666D01*
X000826Y020713D01*
X000858Y020757D01*
X000893Y020799D01*
X000931Y020838D01*
X000972Y020875D01*
X001015Y020908D01*
X001060Y020938D01*
X001108Y020965D01*
X001157Y020988D01*
X001208Y021008D01*
X001261Y021024D01*
X001314Y021036D01*
X001368Y021044D01*
X001423Y021048D01*
X001477Y021048D01*
X001532Y021044D01*
X001586Y021036D01*
X001639Y021024D01*
X001692Y021008D01*
X001743Y020988D01*
X001792Y020965D01*
X001840Y020938D01*
X001885Y020908D01*
X001928Y020875D01*
X001969Y020838D01*
X002007Y020799D01*
X002042Y020757D01*
X002074Y020713D01*
X002102Y020666D01*
X002127Y020617D01*
X002149Y020567D01*
X002166Y020515D01*
X002180Y020463D01*
X002190Y020409D01*
X002196Y020355D01*
X002198Y020300D01*
X002196Y020245D01*
X002190Y020191D01*
X002180Y020137D01*
X002166Y020085D01*
X002149Y020033D01*
X002127Y019983D01*
X002102Y019934D01*
X002074Y019887D01*
X002042Y019843D01*
X002007Y019801D01*
X001969Y019762D01*
X001928Y019725D01*
X001885Y019692D01*
X001840Y019662D01*
X001792Y019635D01*
X001743Y019612D01*
X001692Y019592D01*
X001639Y019576D01*
X001586Y019564D01*
X001532Y019556D01*
X001477Y019552D01*
X001423Y019552D01*
X001368Y019556D01*
X001314Y019564D01*
X001261Y019576D01*
X001208Y019592D01*
X001157Y019612D01*
X001108Y019635D01*
X001060Y019662D01*
X001015Y019692D01*
X000972Y019725D01*
X000931Y019762D01*
X000893Y019801D01*
X000858Y019843D01*
X000826Y019887D01*
X000798Y019934D01*
X000773Y019983D01*
X000751Y020033D01*
X000734Y020085D01*
X000720Y020137D01*
X000710Y020191D01*
X000704Y020245D01*
X000702Y020300D01*
X040002Y003000D02*
X040004Y003055D01*
X040010Y003109D01*
X040020Y003163D01*
X040034Y003215D01*
X040051Y003267D01*
X040073Y003317D01*
X040098Y003366D01*
X040126Y003413D01*
X040158Y003457D01*
X040193Y003499D01*
X040231Y003538D01*
X040272Y003575D01*
X040315Y003608D01*
X040360Y003638D01*
X040408Y003665D01*
X040457Y003688D01*
X040508Y003708D01*
X040561Y003724D01*
X040614Y003736D01*
X040668Y003744D01*
X040723Y003748D01*
X040777Y003748D01*
X040832Y003744D01*
X040886Y003736D01*
X040939Y003724D01*
X040992Y003708D01*
X041043Y003688D01*
X041092Y003665D01*
X041140Y003638D01*
X041185Y003608D01*
X041228Y003575D01*
X041269Y003538D01*
X041307Y003499D01*
X041342Y003457D01*
X041374Y003413D01*
X041402Y003366D01*
X041427Y003317D01*
X041449Y003267D01*
X041466Y003215D01*
X041480Y003163D01*
X041490Y003109D01*
X041496Y003055D01*
X041498Y003000D01*
X041496Y002945D01*
X041490Y002891D01*
X041480Y002837D01*
X041466Y002785D01*
X041449Y002733D01*
X041427Y002683D01*
X041402Y002634D01*
X041374Y002587D01*
X041342Y002543D01*
X041307Y002501D01*
X041269Y002462D01*
X041228Y002425D01*
X041185Y002392D01*
X041140Y002362D01*
X041092Y002335D01*
X041043Y002312D01*
X040992Y002292D01*
X040939Y002276D01*
X040886Y002264D01*
X040832Y002256D01*
X040777Y002252D01*
X040723Y002252D01*
X040668Y002256D01*
X040614Y002264D01*
X040561Y002276D01*
X040508Y002292D01*
X040457Y002312D01*
X040408Y002335D01*
X040360Y002362D01*
X040315Y002392D01*
X040272Y002425D01*
X040231Y002462D01*
X040193Y002501D01*
X040158Y002543D01*
X040126Y002587D01*
X040098Y002634D01*
X040073Y002683D01*
X040051Y002733D01*
X040034Y002785D01*
X040020Y002837D01*
X040010Y002891D01*
X040004Y002945D01*
X040002Y003000D01*
D11*
X042150Y001700D02*
X000150Y001700D01*
X000150Y021600D01*
X042150Y021600D01*
X042150Y001700D01*
D12*
X022281Y005255D03*
X022281Y005452D03*
X022281Y005649D03*
X022281Y005846D03*
X022281Y006043D03*
X022281Y006239D03*
X022281Y006436D03*
X022281Y006633D03*
X022281Y006830D03*
X022281Y007027D03*
X022281Y007224D03*
X022281Y007420D03*
X022281Y007617D03*
X022281Y007814D03*
X022281Y008011D03*
X022281Y008208D03*
X022281Y008405D03*
X022281Y008602D03*
X022281Y008798D03*
X022281Y008995D03*
X022281Y009192D03*
X022281Y009389D03*
X022281Y009586D03*
X022281Y009783D03*
X022281Y009980D03*
X022281Y010176D03*
X022281Y010373D03*
X022281Y010570D03*
X022281Y010767D03*
X022281Y010964D03*
X022281Y011161D03*
X022281Y011357D03*
X022281Y011554D03*
X022281Y011751D03*
X022281Y011948D03*
X022281Y012145D03*
X013619Y012145D03*
X013619Y011948D03*
X013619Y011751D03*
X013619Y011554D03*
X013619Y011357D03*
X013619Y011161D03*
X013619Y010964D03*
X013619Y010767D03*
X013619Y010570D03*
X013619Y010373D03*
X013619Y010176D03*
X013619Y009980D03*
X013619Y009783D03*
X013619Y009586D03*
X013619Y009389D03*
X013619Y009192D03*
X013619Y008995D03*
X013619Y008798D03*
X013619Y008602D03*
X013619Y008405D03*
X013619Y008208D03*
X013619Y008011D03*
X013619Y007814D03*
X013619Y007617D03*
X013619Y007420D03*
X013619Y007224D03*
X013619Y007027D03*
X013619Y006830D03*
X013619Y006633D03*
X013619Y006436D03*
X013619Y006239D03*
X013619Y006043D03*
X013619Y005846D03*
X013619Y005649D03*
X013619Y005452D03*
X013619Y005255D03*
D13*
X014505Y004369D03*
X014702Y004369D03*
X014899Y004369D03*
X015096Y004369D03*
X015293Y004369D03*
X015489Y004369D03*
X015686Y004369D03*
X015883Y004369D03*
X016080Y004369D03*
X016277Y004369D03*
X016474Y004369D03*
X016670Y004369D03*
X016867Y004369D03*
X017064Y004369D03*
X017261Y004369D03*
X017458Y004369D03*
X017655Y004369D03*
X017852Y004369D03*
X018048Y004369D03*
X018245Y004369D03*
X018442Y004369D03*
X018639Y004369D03*
X018836Y004369D03*
X019033Y004369D03*
X019230Y004369D03*
X019426Y004369D03*
X019623Y004369D03*
X019820Y004369D03*
X020017Y004369D03*
X020214Y004369D03*
X020411Y004369D03*
X020607Y004369D03*
X020804Y004369D03*
X021001Y004369D03*
X021198Y004369D03*
X021395Y004369D03*
X021395Y013031D03*
X021198Y013031D03*
X021001Y013031D03*
X020804Y013031D03*
X020607Y013031D03*
X020411Y013031D03*
X020214Y013031D03*
X020017Y013031D03*
X019820Y013031D03*
X019623Y013031D03*
X019426Y013031D03*
X019230Y013031D03*
X019033Y013031D03*
X018836Y013031D03*
X018639Y013031D03*
X018442Y013031D03*
X018245Y013031D03*
X018048Y013031D03*
X017852Y013031D03*
X017655Y013031D03*
X017458Y013031D03*
X017261Y013031D03*
X017064Y013031D03*
X016867Y013031D03*
X016670Y013031D03*
X016474Y013031D03*
X016277Y013031D03*
X016080Y013031D03*
X015883Y013031D03*
X015686Y013031D03*
X015489Y013031D03*
X015293Y013031D03*
X015096Y013031D03*
X014899Y013031D03*
X014702Y013031D03*
X014505Y013031D03*
D14*
X017950Y008700D03*
D15*
X026476Y008600D03*
X028224Y008600D03*
X028224Y009600D03*
X026476Y009600D03*
X026476Y011600D03*
X026476Y012600D03*
X028224Y012600D03*
X028224Y011600D03*
D16*
X028224Y010600D03*
X026476Y010600D03*
D17*
X027200Y009850D02*
X025752Y009850D01*
X025752Y009350D01*
X026931Y009350D01*
X027200Y009619D01*
X025752Y009619D01*
X025752Y009621D02*
X027200Y009621D01*
X027200Y009619D02*
X027200Y009850D01*
X027200Y009848D02*
X025752Y009848D01*
X025752Y009845D02*
X027200Y009845D01*
X027200Y009843D02*
X025752Y009843D01*
X025752Y009840D02*
X027200Y009840D01*
X027200Y009838D02*
X025752Y009838D01*
X025752Y009836D02*
X027200Y009836D01*
X027200Y009833D02*
X025752Y009833D01*
X025752Y009831D02*
X027200Y009831D01*
X027200Y009828D02*
X025752Y009828D01*
X025752Y009826D02*
X027200Y009826D01*
X027200Y009823D02*
X025752Y009823D01*
X025752Y009821D02*
X027200Y009821D01*
X027200Y009818D02*
X025752Y009818D01*
X025752Y009816D02*
X027200Y009816D01*
X027200Y009814D02*
X025752Y009814D01*
X025752Y009811D02*
X027200Y009811D01*
X027200Y009809D02*
X025752Y009809D01*
X025752Y009806D02*
X027200Y009806D01*
X027200Y009804D02*
X025752Y009804D01*
X025752Y009801D02*
X027200Y009801D01*
X027200Y009799D02*
X025752Y009799D01*
X025752Y009797D02*
X027200Y009797D01*
X027200Y009794D02*
X025752Y009794D01*
X025752Y009792D02*
X027200Y009792D01*
X027200Y009789D02*
X025752Y009789D01*
X025752Y009787D02*
X027200Y009787D01*
X027200Y009784D02*
X025752Y009784D01*
X025752Y009782D02*
X027200Y009782D01*
X027200Y009779D02*
X025752Y009779D01*
X025752Y009777D02*
X027200Y009777D01*
X027200Y009775D02*
X025752Y009775D01*
X025752Y009772D02*
X027200Y009772D01*
X027200Y009770D02*
X025752Y009770D01*
X025752Y009767D02*
X027200Y009767D01*
X027200Y009765D02*
X025752Y009765D01*
X025752Y009762D02*
X027200Y009762D01*
X027200Y009760D02*
X025752Y009760D01*
X025752Y009758D02*
X027200Y009758D01*
X027200Y009755D02*
X025752Y009755D01*
X025752Y009753D02*
X027200Y009753D01*
X027200Y009750D02*
X025752Y009750D01*
X025752Y009748D02*
X027200Y009748D01*
X027200Y009745D02*
X025752Y009745D01*
X025752Y009743D02*
X027200Y009743D01*
X027200Y009741D02*
X025752Y009741D01*
X025752Y009738D02*
X027200Y009738D01*
X027200Y009736D02*
X025752Y009736D01*
X025752Y009733D02*
X027200Y009733D01*
X027200Y009731D02*
X025752Y009731D01*
X025752Y009728D02*
X027200Y009728D01*
X027200Y009726D02*
X025752Y009726D01*
X025752Y009723D02*
X027200Y009723D01*
X027200Y009721D02*
X025752Y009721D01*
X025752Y009719D02*
X027200Y009719D01*
X027200Y009716D02*
X025752Y009716D01*
X025752Y009714D02*
X027200Y009714D01*
X027200Y009711D02*
X025752Y009711D01*
X025752Y009709D02*
X027200Y009709D01*
X027200Y009706D02*
X025752Y009706D01*
X025752Y009704D02*
X027200Y009704D01*
X027200Y009702D02*
X025752Y009702D01*
X025752Y009699D02*
X027200Y009699D01*
X027200Y009697D02*
X025752Y009697D01*
X025752Y009694D02*
X027200Y009694D01*
X027200Y009692D02*
X025752Y009692D01*
X025752Y009689D02*
X027200Y009689D01*
X027200Y009687D02*
X025752Y009687D01*
X025752Y009684D02*
X027200Y009684D01*
X027200Y009682D02*
X025752Y009682D01*
X025752Y009680D02*
X027200Y009680D01*
X027200Y009677D02*
X025752Y009677D01*
X025752Y009675D02*
X027200Y009675D01*
X027200Y009672D02*
X025752Y009672D01*
X025752Y009670D02*
X027200Y009670D01*
X027200Y009667D02*
X025752Y009667D01*
X025752Y009665D02*
X027200Y009665D01*
X027200Y009663D02*
X025752Y009663D01*
X025752Y009660D02*
X027200Y009660D01*
X027200Y009658D02*
X025752Y009658D01*
X025752Y009655D02*
X027200Y009655D01*
X027200Y009653D02*
X025752Y009653D01*
X025752Y009650D02*
X027200Y009650D01*
X027200Y009648D02*
X025752Y009648D01*
X025752Y009645D02*
X027200Y009645D01*
X027200Y009643D02*
X025752Y009643D01*
X025752Y009641D02*
X027200Y009641D01*
X027200Y009638D02*
X025752Y009638D01*
X025752Y009636D02*
X027200Y009636D01*
X027200Y009633D02*
X025752Y009633D01*
X025752Y009631D02*
X027200Y009631D01*
X027200Y009628D02*
X025752Y009628D01*
X025752Y009626D02*
X027200Y009626D01*
X027200Y009624D02*
X025752Y009624D01*
X025752Y009616D02*
X027197Y009616D01*
X027195Y009614D02*
X025752Y009614D01*
X025752Y009611D02*
X027192Y009611D01*
X027190Y009609D02*
X025752Y009609D01*
X025752Y009606D02*
X027187Y009606D01*
X027185Y009604D02*
X025752Y009604D01*
X025752Y009602D02*
X027183Y009602D01*
X027180Y009599D02*
X025752Y009599D01*
X025752Y009597D02*
X027178Y009597D01*
X027175Y009594D02*
X025752Y009594D01*
X025752Y009592D02*
X027173Y009592D01*
X027170Y009589D02*
X025752Y009589D01*
X025752Y009587D02*
X027168Y009587D01*
X027166Y009585D02*
X025752Y009585D01*
X025752Y009582D02*
X027163Y009582D01*
X027161Y009580D02*
X025752Y009580D01*
X025752Y009577D02*
X027158Y009577D01*
X027156Y009575D02*
X025752Y009575D01*
X025752Y009572D02*
X027153Y009572D01*
X027151Y009570D02*
X025752Y009570D01*
X025752Y009567D02*
X027148Y009567D01*
X027146Y009565D02*
X025752Y009565D01*
X025752Y009563D02*
X027144Y009563D01*
X027141Y009560D02*
X025752Y009560D01*
X025752Y009558D02*
X027139Y009558D01*
X027136Y009555D02*
X025752Y009555D01*
X025752Y009553D02*
X027134Y009553D01*
X027131Y009550D02*
X025752Y009550D01*
X025752Y009548D02*
X027129Y009548D01*
X027127Y009546D02*
X025752Y009546D01*
X025752Y009543D02*
X027124Y009543D01*
X027122Y009541D02*
X025752Y009541D01*
X025752Y009538D02*
X027119Y009538D01*
X027117Y009536D02*
X025752Y009536D01*
X025752Y009533D02*
X027114Y009533D01*
X027112Y009531D02*
X025752Y009531D01*
X025752Y009528D02*
X027109Y009528D01*
X027107Y009526D02*
X025752Y009526D01*
X025752Y009524D02*
X027105Y009524D01*
X027102Y009521D02*
X025752Y009521D01*
X025752Y009519D02*
X027100Y009519D01*
X027097Y009516D02*
X025752Y009516D01*
X025752Y009514D02*
X027095Y009514D01*
X027092Y009511D02*
X025752Y009511D01*
X025752Y009509D02*
X027090Y009509D01*
X027088Y009507D02*
X025752Y009507D01*
X025752Y009504D02*
X027085Y009504D01*
X027083Y009502D02*
X025752Y009502D01*
X025752Y009499D02*
X027080Y009499D01*
X027078Y009497D02*
X025752Y009497D01*
X025752Y009494D02*
X027075Y009494D01*
X027073Y009492D02*
X025752Y009492D01*
X025752Y009489D02*
X027070Y009489D01*
X027068Y009487D02*
X025752Y009487D01*
X025752Y009485D02*
X027066Y009485D01*
X027063Y009482D02*
X025752Y009482D01*
X025752Y009480D02*
X027061Y009480D01*
X027058Y009477D02*
X025752Y009477D01*
X025752Y009475D02*
X027056Y009475D01*
X027053Y009472D02*
X025752Y009472D01*
X025752Y009470D02*
X027051Y009470D01*
X027049Y009468D02*
X025752Y009468D01*
X025752Y009465D02*
X027046Y009465D01*
X027044Y009463D02*
X025752Y009463D01*
X025752Y009460D02*
X027041Y009460D01*
X027039Y009458D02*
X025752Y009458D01*
X025752Y009455D02*
X027036Y009455D01*
X027034Y009453D02*
X025752Y009453D01*
X025752Y009450D02*
X027031Y009450D01*
X027029Y009448D02*
X025752Y009448D01*
X025752Y009446D02*
X027027Y009446D01*
X027024Y009443D02*
X025752Y009443D01*
X025752Y009441D02*
X027022Y009441D01*
X027019Y009438D02*
X025752Y009438D01*
X025752Y009436D02*
X027017Y009436D01*
X027014Y009433D02*
X025752Y009433D01*
X025752Y009431D02*
X027012Y009431D01*
X027010Y009429D02*
X025752Y009429D01*
X025752Y009426D02*
X027007Y009426D01*
X027005Y009424D02*
X025752Y009424D01*
X025752Y009421D02*
X027002Y009421D01*
X027000Y009419D02*
X025752Y009419D01*
X025752Y009416D02*
X026997Y009416D01*
X026995Y009414D02*
X025752Y009414D01*
X025752Y009411D02*
X026992Y009411D01*
X026990Y009409D02*
X025752Y009409D01*
X025752Y009407D02*
X026988Y009407D01*
X026985Y009404D02*
X025752Y009404D01*
X025752Y009402D02*
X026983Y009402D01*
X026980Y009399D02*
X025752Y009399D01*
X025752Y009397D02*
X026978Y009397D01*
X026975Y009394D02*
X025752Y009394D01*
X025752Y009392D02*
X026973Y009392D01*
X026971Y009390D02*
X025752Y009390D01*
X025752Y009387D02*
X026968Y009387D01*
X026966Y009385D02*
X025752Y009385D01*
X025752Y009382D02*
X026963Y009382D01*
X026961Y009380D02*
X025752Y009380D01*
X025752Y009377D02*
X026958Y009377D01*
X026956Y009375D02*
X025752Y009375D01*
X025752Y009372D02*
X026953Y009372D01*
X026951Y009370D02*
X025752Y009370D01*
X025752Y009368D02*
X026949Y009368D01*
X026946Y009365D02*
X025752Y009365D01*
X025752Y009363D02*
X026944Y009363D01*
X026941Y009360D02*
X025752Y009360D01*
X025752Y009358D02*
X026939Y009358D01*
X026936Y009355D02*
X025752Y009355D01*
X025752Y009353D02*
X026934Y009353D01*
X026932Y009351D02*
X025752Y009351D01*
X025752Y008850D02*
X026931Y008850D01*
X027200Y008581D01*
X027200Y008350D01*
X025752Y008350D01*
X025752Y008850D01*
X025752Y008848D02*
X026933Y008848D01*
X026935Y008846D02*
X025752Y008846D01*
X025752Y008844D02*
X026937Y008844D01*
X026940Y008841D02*
X025752Y008841D01*
X025752Y008839D02*
X026942Y008839D01*
X026945Y008836D02*
X025752Y008836D01*
X025752Y008834D02*
X026947Y008834D01*
X026950Y008831D02*
X025752Y008831D01*
X025752Y008829D02*
X026952Y008829D01*
X026954Y008827D02*
X025752Y008827D01*
X025752Y008824D02*
X026957Y008824D01*
X026959Y008822D02*
X025752Y008822D01*
X025752Y008819D02*
X026962Y008819D01*
X026964Y008817D02*
X025752Y008817D01*
X025752Y008814D02*
X026967Y008814D01*
X026969Y008812D02*
X025752Y008812D01*
X025752Y008809D02*
X026972Y008809D01*
X026974Y008807D02*
X025752Y008807D01*
X025752Y008805D02*
X026976Y008805D01*
X026979Y008802D02*
X025752Y008802D01*
X025752Y008800D02*
X026981Y008800D01*
X026984Y008797D02*
X025752Y008797D01*
X025752Y008795D02*
X026986Y008795D01*
X026989Y008792D02*
X025752Y008792D01*
X025752Y008790D02*
X026991Y008790D01*
X026993Y008788D02*
X025752Y008788D01*
X025752Y008785D02*
X026996Y008785D01*
X026998Y008783D02*
X025752Y008783D01*
X025752Y008780D02*
X027001Y008780D01*
X027003Y008778D02*
X025752Y008778D01*
X025752Y008775D02*
X027006Y008775D01*
X027008Y008773D02*
X025752Y008773D01*
X025752Y008770D02*
X027011Y008770D01*
X027013Y008768D02*
X025752Y008768D01*
X025752Y008766D02*
X027015Y008766D01*
X027018Y008763D02*
X025752Y008763D01*
X025752Y008761D02*
X027020Y008761D01*
X027023Y008758D02*
X025752Y008758D01*
X025752Y008756D02*
X027025Y008756D01*
X027028Y008753D02*
X025752Y008753D01*
X025752Y008751D02*
X027030Y008751D01*
X027032Y008749D02*
X025752Y008749D01*
X025752Y008746D02*
X027035Y008746D01*
X027037Y008744D02*
X025752Y008744D01*
X025752Y008741D02*
X027040Y008741D01*
X027042Y008739D02*
X025752Y008739D01*
X025752Y008736D02*
X027045Y008736D01*
X027047Y008734D02*
X025752Y008734D01*
X025752Y008731D02*
X027050Y008731D01*
X027052Y008729D02*
X025752Y008729D01*
X025752Y008727D02*
X027054Y008727D01*
X027057Y008724D02*
X025752Y008724D01*
X025752Y008722D02*
X027059Y008722D01*
X027062Y008719D02*
X025752Y008719D01*
X025752Y008717D02*
X027064Y008717D01*
X027067Y008714D02*
X025752Y008714D01*
X025752Y008712D02*
X027069Y008712D01*
X027071Y008710D02*
X025752Y008710D01*
X025752Y008707D02*
X027074Y008707D01*
X027076Y008705D02*
X025752Y008705D01*
X025752Y008702D02*
X027079Y008702D01*
X027081Y008700D02*
X025752Y008700D01*
X025752Y008697D02*
X027084Y008697D01*
X027086Y008695D02*
X025752Y008695D01*
X025752Y008692D02*
X027089Y008692D01*
X027091Y008690D02*
X025752Y008690D01*
X025752Y008688D02*
X027093Y008688D01*
X027096Y008685D02*
X025752Y008685D01*
X025752Y008683D02*
X027098Y008683D01*
X027101Y008680D02*
X025752Y008680D01*
X025752Y008678D02*
X027103Y008678D01*
X027106Y008675D02*
X025752Y008675D01*
X025752Y008673D02*
X027108Y008673D01*
X027110Y008671D02*
X025752Y008671D01*
X025752Y008668D02*
X027113Y008668D01*
X027115Y008666D02*
X025752Y008666D01*
X025752Y008663D02*
X027118Y008663D01*
X027120Y008661D02*
X025752Y008661D01*
X025752Y008658D02*
X027123Y008658D01*
X027125Y008656D02*
X025752Y008656D01*
X025752Y008653D02*
X027128Y008653D01*
X027130Y008651D02*
X025752Y008651D01*
X025752Y008649D02*
X027132Y008649D01*
X027135Y008646D02*
X025752Y008646D01*
X025752Y008644D02*
X027137Y008644D01*
X027140Y008641D02*
X025752Y008641D01*
X025752Y008639D02*
X027142Y008639D01*
X027145Y008636D02*
X025752Y008636D01*
X025752Y008634D02*
X027147Y008634D01*
X027149Y008632D02*
X025752Y008632D01*
X025752Y008629D02*
X027152Y008629D01*
X027154Y008627D02*
X025752Y008627D01*
X025752Y008624D02*
X027157Y008624D01*
X027159Y008622D02*
X025752Y008622D01*
X025752Y008619D02*
X027162Y008619D01*
X027164Y008617D02*
X025752Y008617D01*
X025752Y008614D02*
X027166Y008614D01*
X027169Y008612D02*
X025752Y008612D01*
X025752Y008610D02*
X027171Y008610D01*
X027174Y008607D02*
X025752Y008607D01*
X025752Y008605D02*
X027176Y008605D01*
X027179Y008602D02*
X025752Y008602D01*
X025752Y008600D02*
X027181Y008600D01*
X027184Y008597D02*
X025752Y008597D01*
X025752Y008595D02*
X027186Y008595D01*
X027188Y008593D02*
X025752Y008593D01*
X025752Y008590D02*
X027191Y008590D01*
X027193Y008588D02*
X025752Y008588D01*
X025752Y008585D02*
X027196Y008585D01*
X027198Y008583D02*
X025752Y008583D01*
X025752Y008580D02*
X027200Y008580D01*
X027200Y008578D02*
X025752Y008578D01*
X025752Y008575D02*
X027200Y008575D01*
X027200Y008573D02*
X025752Y008573D01*
X025752Y008571D02*
X027200Y008571D01*
X027200Y008568D02*
X025752Y008568D01*
X025752Y008566D02*
X027200Y008566D01*
X027200Y008563D02*
X025752Y008563D01*
X025752Y008561D02*
X027200Y008561D01*
X027200Y008558D02*
X025752Y008558D01*
X025752Y008556D02*
X027200Y008556D01*
X027200Y008554D02*
X025752Y008554D01*
X025752Y008551D02*
X027200Y008551D01*
X027200Y008549D02*
X025752Y008549D01*
X025752Y008546D02*
X027200Y008546D01*
X027200Y008544D02*
X025752Y008544D01*
X025752Y008541D02*
X027200Y008541D01*
X027200Y008539D02*
X025752Y008539D01*
X025752Y008536D02*
X027200Y008536D01*
X027200Y008534D02*
X025752Y008534D01*
X025752Y008532D02*
X027200Y008532D01*
X027200Y008529D02*
X025752Y008529D01*
X025752Y008527D02*
X027200Y008527D01*
X027200Y008524D02*
X025752Y008524D01*
X025752Y008522D02*
X027200Y008522D01*
X027200Y008519D02*
X025752Y008519D01*
X025752Y008517D02*
X027200Y008517D01*
X027200Y008515D02*
X025752Y008515D01*
X025752Y008512D02*
X027200Y008512D01*
X027200Y008510D02*
X025752Y008510D01*
X025752Y008507D02*
X027200Y008507D01*
X027200Y008505D02*
X025752Y008505D01*
X025752Y008502D02*
X027200Y008502D01*
X027200Y008500D02*
X025752Y008500D01*
X025752Y008498D02*
X027200Y008498D01*
X027200Y008495D02*
X025752Y008495D01*
X025752Y008493D02*
X027200Y008493D01*
X027200Y008490D02*
X025752Y008490D01*
X025752Y008488D02*
X027200Y008488D01*
X027200Y008485D02*
X025752Y008485D01*
X025752Y008483D02*
X027200Y008483D01*
X027200Y008480D02*
X025752Y008480D01*
X025752Y008478D02*
X027200Y008478D01*
X027200Y008476D02*
X025752Y008476D01*
X025752Y008473D02*
X027200Y008473D01*
X027200Y008471D02*
X025752Y008471D01*
X025752Y008468D02*
X027200Y008468D01*
X027200Y008466D02*
X025752Y008466D01*
X025752Y008463D02*
X027200Y008463D01*
X027200Y008461D02*
X025752Y008461D01*
X025752Y008459D02*
X027200Y008459D01*
X027200Y008456D02*
X025752Y008456D01*
X025752Y008454D02*
X027200Y008454D01*
X027200Y008451D02*
X025752Y008451D01*
X025752Y008449D02*
X027200Y008449D01*
X027200Y008446D02*
X025752Y008446D01*
X025752Y008444D02*
X027200Y008444D01*
X027200Y008441D02*
X025752Y008441D01*
X025752Y008439D02*
X027200Y008439D01*
X027200Y008437D02*
X025752Y008437D01*
X025752Y008434D02*
X027200Y008434D01*
X027200Y008432D02*
X025752Y008432D01*
X025752Y008429D02*
X027200Y008429D01*
X027200Y008427D02*
X025752Y008427D01*
X025752Y008424D02*
X027200Y008424D01*
X027200Y008422D02*
X025752Y008422D01*
X025752Y008420D02*
X027200Y008420D01*
X027200Y008417D02*
X025752Y008417D01*
X025752Y008415D02*
X027200Y008415D01*
X027200Y008412D02*
X025752Y008412D01*
X025752Y008410D02*
X027200Y008410D01*
X027200Y008407D02*
X025752Y008407D01*
X025752Y008405D02*
X027200Y008405D01*
X027200Y008402D02*
X025752Y008402D01*
X025752Y008400D02*
X027200Y008400D01*
X027200Y008398D02*
X025752Y008398D01*
X025752Y008395D02*
X027200Y008395D01*
X027200Y008393D02*
X025752Y008393D01*
X025752Y008390D02*
X027200Y008390D01*
X027200Y008388D02*
X025752Y008388D01*
X025752Y008385D02*
X027200Y008385D01*
X027200Y008383D02*
X025752Y008383D01*
X025752Y008381D02*
X027200Y008381D01*
X027200Y008378D02*
X025752Y008378D01*
X025752Y008376D02*
X027200Y008376D01*
X027200Y008373D02*
X025752Y008373D01*
X025752Y008371D02*
X027200Y008371D01*
X027200Y008368D02*
X025752Y008368D01*
X025752Y008366D02*
X027200Y008366D01*
X027200Y008363D02*
X025752Y008363D01*
X025752Y008361D02*
X027200Y008361D01*
X027200Y008359D02*
X025752Y008359D01*
X025752Y008356D02*
X027200Y008356D01*
X027200Y008354D02*
X025752Y008354D01*
X025752Y008351D02*
X027200Y008351D01*
X027500Y008351D02*
X028948Y008351D01*
X028948Y008350D02*
X027500Y008350D01*
X027500Y008581D01*
X027769Y008850D01*
X028948Y008850D01*
X028948Y008350D01*
X028948Y008354D02*
X027500Y008354D01*
X027500Y008356D02*
X028948Y008356D01*
X028948Y008359D02*
X027500Y008359D01*
X027500Y008361D02*
X028948Y008361D01*
X028948Y008363D02*
X027500Y008363D01*
X027500Y008366D02*
X028948Y008366D01*
X028948Y008368D02*
X027500Y008368D01*
X027500Y008371D02*
X028948Y008371D01*
X028948Y008373D02*
X027500Y008373D01*
X027500Y008376D02*
X028948Y008376D01*
X028948Y008378D02*
X027500Y008378D01*
X027500Y008381D02*
X028948Y008381D01*
X028948Y008383D02*
X027500Y008383D01*
X027500Y008385D02*
X028948Y008385D01*
X028948Y008388D02*
X027500Y008388D01*
X027500Y008390D02*
X028948Y008390D01*
X028948Y008393D02*
X027500Y008393D01*
X027500Y008395D02*
X028948Y008395D01*
X028948Y008398D02*
X027500Y008398D01*
X027500Y008400D02*
X028948Y008400D01*
X028948Y008402D02*
X027500Y008402D01*
X027500Y008405D02*
X028948Y008405D01*
X028948Y008407D02*
X027500Y008407D01*
X027500Y008410D02*
X028948Y008410D01*
X028948Y008412D02*
X027500Y008412D01*
X027500Y008415D02*
X028948Y008415D01*
X028948Y008417D02*
X027500Y008417D01*
X027500Y008420D02*
X028948Y008420D01*
X028948Y008422D02*
X027500Y008422D01*
X027500Y008424D02*
X028948Y008424D01*
X028948Y008427D02*
X027500Y008427D01*
X027500Y008429D02*
X028948Y008429D01*
X028948Y008432D02*
X027500Y008432D01*
X027500Y008434D02*
X028948Y008434D01*
X028948Y008437D02*
X027500Y008437D01*
X027500Y008439D02*
X028948Y008439D01*
X028948Y008441D02*
X027500Y008441D01*
X027500Y008444D02*
X028948Y008444D01*
X028948Y008446D02*
X027500Y008446D01*
X027500Y008449D02*
X028948Y008449D01*
X028948Y008451D02*
X027500Y008451D01*
X027500Y008454D02*
X028948Y008454D01*
X028948Y008456D02*
X027500Y008456D01*
X027500Y008459D02*
X028948Y008459D01*
X028948Y008461D02*
X027500Y008461D01*
X027500Y008463D02*
X028948Y008463D01*
X028948Y008466D02*
X027500Y008466D01*
X027500Y008468D02*
X028948Y008468D01*
X028948Y008471D02*
X027500Y008471D01*
X027500Y008473D02*
X028948Y008473D01*
X028948Y008476D02*
X027500Y008476D01*
X027500Y008478D02*
X028948Y008478D01*
X028948Y008480D02*
X027500Y008480D01*
X027500Y008483D02*
X028948Y008483D01*
X028948Y008485D02*
X027500Y008485D01*
X027500Y008488D02*
X028948Y008488D01*
X028948Y008490D02*
X027500Y008490D01*
X027500Y008493D02*
X028948Y008493D01*
X028948Y008495D02*
X027500Y008495D01*
X027500Y008498D02*
X028948Y008498D01*
X028948Y008500D02*
X027500Y008500D01*
X027500Y008502D02*
X028948Y008502D01*
X028948Y008505D02*
X027500Y008505D01*
X027500Y008507D02*
X028948Y008507D01*
X028948Y008510D02*
X027500Y008510D01*
X027500Y008512D02*
X028948Y008512D01*
X028948Y008515D02*
X027500Y008515D01*
X027500Y008517D02*
X028948Y008517D01*
X028948Y008519D02*
X027500Y008519D01*
X027500Y008522D02*
X028948Y008522D01*
X028948Y008524D02*
X027500Y008524D01*
X027500Y008527D02*
X028948Y008527D01*
X028948Y008529D02*
X027500Y008529D01*
X027500Y008532D02*
X028948Y008532D01*
X028948Y008534D02*
X027500Y008534D01*
X027500Y008536D02*
X028948Y008536D01*
X028948Y008539D02*
X027500Y008539D01*
X027500Y008541D02*
X028948Y008541D01*
X028948Y008544D02*
X027500Y008544D01*
X027500Y008546D02*
X028948Y008546D01*
X028948Y008549D02*
X027500Y008549D01*
X027500Y008551D02*
X028948Y008551D01*
X028948Y008554D02*
X027500Y008554D01*
X027500Y008556D02*
X028948Y008556D01*
X028948Y008558D02*
X027500Y008558D01*
X027500Y008561D02*
X028948Y008561D01*
X028948Y008563D02*
X027500Y008563D01*
X027500Y008566D02*
X028948Y008566D01*
X028948Y008568D02*
X027500Y008568D01*
X027500Y008571D02*
X028948Y008571D01*
X028948Y008573D02*
X027500Y008573D01*
X027500Y008575D02*
X028948Y008575D01*
X028948Y008578D02*
X027500Y008578D01*
X027500Y008580D02*
X028948Y008580D01*
X028948Y008583D02*
X027502Y008583D01*
X027504Y008585D02*
X028948Y008585D01*
X028948Y008588D02*
X027507Y008588D01*
X027509Y008590D02*
X028948Y008590D01*
X028948Y008593D02*
X027512Y008593D01*
X027514Y008595D02*
X028948Y008595D01*
X028948Y008597D02*
X027516Y008597D01*
X027519Y008600D02*
X028948Y008600D01*
X028948Y008602D02*
X027521Y008602D01*
X027524Y008605D02*
X028948Y008605D01*
X028948Y008607D02*
X027526Y008607D01*
X027529Y008610D02*
X028948Y008610D01*
X028948Y008612D02*
X027531Y008612D01*
X027534Y008614D02*
X028948Y008614D01*
X028948Y008617D02*
X027536Y008617D01*
X027538Y008619D02*
X028948Y008619D01*
X028948Y008622D02*
X027541Y008622D01*
X027543Y008624D02*
X028948Y008624D01*
X028948Y008627D02*
X027546Y008627D01*
X027548Y008629D02*
X028948Y008629D01*
X028948Y008632D02*
X027551Y008632D01*
X027553Y008634D02*
X028948Y008634D01*
X028948Y008636D02*
X027555Y008636D01*
X027558Y008639D02*
X028948Y008639D01*
X028948Y008641D02*
X027560Y008641D01*
X027563Y008644D02*
X028948Y008644D01*
X028948Y008646D02*
X027565Y008646D01*
X027568Y008649D02*
X028948Y008649D01*
X028948Y008651D02*
X027570Y008651D01*
X027572Y008653D02*
X028948Y008653D01*
X028948Y008656D02*
X027575Y008656D01*
X027577Y008658D02*
X028948Y008658D01*
X028948Y008661D02*
X027580Y008661D01*
X027582Y008663D02*
X028948Y008663D01*
X028948Y008666D02*
X027585Y008666D01*
X027587Y008668D02*
X028948Y008668D01*
X028948Y008671D02*
X027590Y008671D01*
X027592Y008673D02*
X028948Y008673D01*
X028948Y008675D02*
X027594Y008675D01*
X027597Y008678D02*
X028948Y008678D01*
X028948Y008680D02*
X027599Y008680D01*
X027602Y008683D02*
X028948Y008683D01*
X028948Y008685D02*
X027604Y008685D01*
X027607Y008688D02*
X028948Y008688D01*
X028948Y008690D02*
X027609Y008690D01*
X027611Y008692D02*
X028948Y008692D01*
X028948Y008695D02*
X027614Y008695D01*
X027616Y008697D02*
X028948Y008697D01*
X028948Y008700D02*
X027619Y008700D01*
X027621Y008702D02*
X028948Y008702D01*
X028948Y008705D02*
X027624Y008705D01*
X027626Y008707D02*
X028948Y008707D01*
X028948Y008710D02*
X027629Y008710D01*
X027631Y008712D02*
X028948Y008712D01*
X028948Y008714D02*
X027633Y008714D01*
X027636Y008717D02*
X028948Y008717D01*
X028948Y008719D02*
X027638Y008719D01*
X027641Y008722D02*
X028948Y008722D01*
X028948Y008724D02*
X027643Y008724D01*
X027646Y008727D02*
X028948Y008727D01*
X028948Y008729D02*
X027648Y008729D01*
X027650Y008731D02*
X028948Y008731D01*
X028948Y008734D02*
X027653Y008734D01*
X027655Y008736D02*
X028948Y008736D01*
X028948Y008739D02*
X027658Y008739D01*
X027660Y008741D02*
X028948Y008741D01*
X028948Y008744D02*
X027663Y008744D01*
X027665Y008746D02*
X028948Y008746D01*
X028948Y008749D02*
X027668Y008749D01*
X027670Y008751D02*
X028948Y008751D01*
X028948Y008753D02*
X027672Y008753D01*
X027675Y008756D02*
X028948Y008756D01*
X028948Y008758D02*
X027677Y008758D01*
X027680Y008761D02*
X028948Y008761D01*
X028948Y008763D02*
X027682Y008763D01*
X027685Y008766D02*
X028948Y008766D01*
X028948Y008768D02*
X027687Y008768D01*
X027689Y008770D02*
X028948Y008770D01*
X028948Y008773D02*
X027692Y008773D01*
X027694Y008775D02*
X028948Y008775D01*
X028948Y008778D02*
X027697Y008778D01*
X027699Y008780D02*
X028948Y008780D01*
X028948Y008783D02*
X027702Y008783D01*
X027704Y008785D02*
X028948Y008785D01*
X028948Y008788D02*
X027707Y008788D01*
X027709Y008790D02*
X028948Y008790D01*
X028948Y008792D02*
X027711Y008792D01*
X027714Y008795D02*
X028948Y008795D01*
X028948Y008797D02*
X027716Y008797D01*
X027719Y008800D02*
X028948Y008800D01*
X028948Y008802D02*
X027721Y008802D01*
X027724Y008805D02*
X028948Y008805D01*
X028948Y008807D02*
X027726Y008807D01*
X027728Y008809D02*
X028948Y008809D01*
X028948Y008812D02*
X027731Y008812D01*
X027733Y008814D02*
X028948Y008814D01*
X028948Y008817D02*
X027736Y008817D01*
X027738Y008819D02*
X028948Y008819D01*
X028948Y008822D02*
X027741Y008822D01*
X027743Y008824D02*
X028948Y008824D01*
X028948Y008827D02*
X027746Y008827D01*
X027748Y008829D02*
X028948Y008829D01*
X028948Y008831D02*
X027750Y008831D01*
X027753Y008834D02*
X028948Y008834D01*
X028948Y008836D02*
X027755Y008836D01*
X027758Y008839D02*
X028948Y008839D01*
X028948Y008841D02*
X027760Y008841D01*
X027763Y008844D02*
X028948Y008844D01*
X028948Y008846D02*
X027765Y008846D01*
X027767Y008848D02*
X028948Y008848D01*
X028948Y009350D02*
X027769Y009350D01*
X027500Y009619D01*
X028948Y009619D01*
X028948Y009621D02*
X027500Y009621D01*
X027500Y009619D02*
X027500Y009850D01*
X028948Y009850D01*
X028948Y009350D01*
X028948Y009351D02*
X027768Y009351D01*
X027766Y009353D02*
X028948Y009353D01*
X028948Y009355D02*
X027764Y009355D01*
X027761Y009358D02*
X028948Y009358D01*
X028948Y009360D02*
X027759Y009360D01*
X027756Y009363D02*
X028948Y009363D01*
X028948Y009365D02*
X027754Y009365D01*
X027751Y009368D02*
X028948Y009368D01*
X028948Y009370D02*
X027749Y009370D01*
X027747Y009372D02*
X028948Y009372D01*
X028948Y009375D02*
X027744Y009375D01*
X027742Y009377D02*
X028948Y009377D01*
X028948Y009380D02*
X027739Y009380D01*
X027737Y009382D02*
X028948Y009382D01*
X028948Y009385D02*
X027734Y009385D01*
X027732Y009387D02*
X028948Y009387D01*
X028948Y009390D02*
X027729Y009390D01*
X027727Y009392D02*
X028948Y009392D01*
X028948Y009394D02*
X027725Y009394D01*
X027722Y009397D02*
X028948Y009397D01*
X028948Y009399D02*
X027720Y009399D01*
X027717Y009402D02*
X028948Y009402D01*
X028948Y009404D02*
X027715Y009404D01*
X027712Y009407D02*
X028948Y009407D01*
X028948Y009409D02*
X027710Y009409D01*
X027708Y009411D02*
X028948Y009411D01*
X028948Y009414D02*
X027705Y009414D01*
X027703Y009416D02*
X028948Y009416D01*
X028948Y009419D02*
X027700Y009419D01*
X027698Y009421D02*
X028948Y009421D01*
X028948Y009424D02*
X027695Y009424D01*
X027693Y009426D02*
X028948Y009426D01*
X028948Y009429D02*
X027690Y009429D01*
X027688Y009431D02*
X028948Y009431D01*
X028948Y009433D02*
X027686Y009433D01*
X027683Y009436D02*
X028948Y009436D01*
X028948Y009438D02*
X027681Y009438D01*
X027678Y009441D02*
X028948Y009441D01*
X028948Y009443D02*
X027676Y009443D01*
X027673Y009446D02*
X028948Y009446D01*
X028948Y009448D02*
X027671Y009448D01*
X027669Y009450D02*
X028948Y009450D01*
X028948Y009453D02*
X027666Y009453D01*
X027664Y009455D02*
X028948Y009455D01*
X028948Y009458D02*
X027661Y009458D01*
X027659Y009460D02*
X028948Y009460D01*
X028948Y009463D02*
X027656Y009463D01*
X027654Y009465D02*
X028948Y009465D01*
X028948Y009468D02*
X027651Y009468D01*
X027649Y009470D02*
X028948Y009470D01*
X028948Y009472D02*
X027647Y009472D01*
X027644Y009475D02*
X028948Y009475D01*
X028948Y009477D02*
X027642Y009477D01*
X027639Y009480D02*
X028948Y009480D01*
X028948Y009482D02*
X027637Y009482D01*
X027634Y009485D02*
X028948Y009485D01*
X028948Y009487D02*
X027632Y009487D01*
X027630Y009489D02*
X028948Y009489D01*
X028948Y009492D02*
X027627Y009492D01*
X027625Y009494D02*
X028948Y009494D01*
X028948Y009497D02*
X027622Y009497D01*
X027620Y009499D02*
X028948Y009499D01*
X028948Y009502D02*
X027617Y009502D01*
X027615Y009504D02*
X028948Y009504D01*
X028948Y009507D02*
X027612Y009507D01*
X027610Y009509D02*
X028948Y009509D01*
X028948Y009511D02*
X027608Y009511D01*
X027605Y009514D02*
X028948Y009514D01*
X028948Y009516D02*
X027603Y009516D01*
X027600Y009519D02*
X028948Y009519D01*
X028948Y009521D02*
X027598Y009521D01*
X027595Y009524D02*
X028948Y009524D01*
X028948Y009526D02*
X027593Y009526D01*
X027591Y009528D02*
X028948Y009528D01*
X028948Y009531D02*
X027588Y009531D01*
X027586Y009533D02*
X028948Y009533D01*
X028948Y009536D02*
X027583Y009536D01*
X027581Y009538D02*
X028948Y009538D01*
X028948Y009541D02*
X027578Y009541D01*
X027576Y009543D02*
X028948Y009543D01*
X028948Y009546D02*
X027573Y009546D01*
X027571Y009548D02*
X028948Y009548D01*
X028948Y009550D02*
X027569Y009550D01*
X027566Y009553D02*
X028948Y009553D01*
X028948Y009555D02*
X027564Y009555D01*
X027561Y009558D02*
X028948Y009558D01*
X028948Y009560D02*
X027559Y009560D01*
X027556Y009563D02*
X028948Y009563D01*
X028948Y009565D02*
X027554Y009565D01*
X027552Y009567D02*
X028948Y009567D01*
X028948Y009570D02*
X027549Y009570D01*
X027547Y009572D02*
X028948Y009572D01*
X028948Y009575D02*
X027544Y009575D01*
X027542Y009577D02*
X028948Y009577D01*
X028948Y009580D02*
X027539Y009580D01*
X027537Y009582D02*
X028948Y009582D01*
X028948Y009585D02*
X027534Y009585D01*
X027532Y009587D02*
X028948Y009587D01*
X028948Y009589D02*
X027530Y009589D01*
X027527Y009592D02*
X028948Y009592D01*
X028948Y009594D02*
X027525Y009594D01*
X027522Y009597D02*
X028948Y009597D01*
X028948Y009599D02*
X027520Y009599D01*
X027517Y009602D02*
X028948Y009602D01*
X028948Y009604D02*
X027515Y009604D01*
X027513Y009606D02*
X028948Y009606D01*
X028948Y009609D02*
X027510Y009609D01*
X027508Y009611D02*
X028948Y009611D01*
X028948Y009614D02*
X027505Y009614D01*
X027503Y009616D02*
X028948Y009616D01*
X028948Y009624D02*
X027500Y009624D01*
X027500Y009626D02*
X028948Y009626D01*
X028948Y009628D02*
X027500Y009628D01*
X027500Y009631D02*
X028948Y009631D01*
X028948Y009633D02*
X027500Y009633D01*
X027500Y009636D02*
X028948Y009636D01*
X028948Y009638D02*
X027500Y009638D01*
X027500Y009641D02*
X028948Y009641D01*
X028948Y009643D02*
X027500Y009643D01*
X027500Y009645D02*
X028948Y009645D01*
X028948Y009648D02*
X027500Y009648D01*
X027500Y009650D02*
X028948Y009650D01*
X028948Y009653D02*
X027500Y009653D01*
X027500Y009655D02*
X028948Y009655D01*
X028948Y009658D02*
X027500Y009658D01*
X027500Y009660D02*
X028948Y009660D01*
X028948Y009663D02*
X027500Y009663D01*
X027500Y009665D02*
X028948Y009665D01*
X028948Y009667D02*
X027500Y009667D01*
X027500Y009670D02*
X028948Y009670D01*
X028948Y009672D02*
X027500Y009672D01*
X027500Y009675D02*
X028948Y009675D01*
X028948Y009677D02*
X027500Y009677D01*
X027500Y009680D02*
X028948Y009680D01*
X028948Y009682D02*
X027500Y009682D01*
X027500Y009684D02*
X028948Y009684D01*
X028948Y009687D02*
X027500Y009687D01*
X027500Y009689D02*
X028948Y009689D01*
X028948Y009692D02*
X027500Y009692D01*
X027500Y009694D02*
X028948Y009694D01*
X028948Y009697D02*
X027500Y009697D01*
X027500Y009699D02*
X028948Y009699D01*
X028948Y009702D02*
X027500Y009702D01*
X027500Y009704D02*
X028948Y009704D01*
X028948Y009706D02*
X027500Y009706D01*
X027500Y009709D02*
X028948Y009709D01*
X028948Y009711D02*
X027500Y009711D01*
X027500Y009714D02*
X028948Y009714D01*
X028948Y009716D02*
X027500Y009716D01*
X027500Y009719D02*
X028948Y009719D01*
X028948Y009721D02*
X027500Y009721D01*
X027500Y009723D02*
X028948Y009723D01*
X028948Y009726D02*
X027500Y009726D01*
X027500Y009728D02*
X028948Y009728D01*
X028948Y009731D02*
X027500Y009731D01*
X027500Y009733D02*
X028948Y009733D01*
X028948Y009736D02*
X027500Y009736D01*
X027500Y009738D02*
X028948Y009738D01*
X028948Y009741D02*
X027500Y009741D01*
X027500Y009743D02*
X028948Y009743D01*
X028948Y009745D02*
X027500Y009745D01*
X027500Y009748D02*
X028948Y009748D01*
X028948Y009750D02*
X027500Y009750D01*
X027500Y009753D02*
X028948Y009753D01*
X028948Y009755D02*
X027500Y009755D01*
X027500Y009758D02*
X028948Y009758D01*
X028948Y009760D02*
X027500Y009760D01*
X027500Y009762D02*
X028948Y009762D01*
X028948Y009765D02*
X027500Y009765D01*
X027500Y009767D02*
X028948Y009767D01*
X028948Y009770D02*
X027500Y009770D01*
X027500Y009772D02*
X028948Y009772D01*
X028948Y009775D02*
X027500Y009775D01*
X027500Y009777D02*
X028948Y009777D01*
X028948Y009779D02*
X027500Y009779D01*
X027500Y009782D02*
X028948Y009782D01*
X028948Y009784D02*
X027500Y009784D01*
X027500Y009787D02*
X028948Y009787D01*
X028948Y009789D02*
X027500Y009789D01*
X027500Y009792D02*
X028948Y009792D01*
X028948Y009794D02*
X027500Y009794D01*
X027500Y009797D02*
X028948Y009797D01*
X028948Y009799D02*
X027500Y009799D01*
X027500Y009801D02*
X028948Y009801D01*
X028948Y009804D02*
X027500Y009804D01*
X027500Y009806D02*
X028948Y009806D01*
X028948Y009809D02*
X027500Y009809D01*
X027500Y009811D02*
X028948Y009811D01*
X028948Y009814D02*
X027500Y009814D01*
X027500Y009816D02*
X028948Y009816D01*
X028948Y009818D02*
X027500Y009818D01*
X027500Y009821D02*
X028948Y009821D01*
X028948Y009823D02*
X027500Y009823D01*
X027500Y009826D02*
X028948Y009826D01*
X028948Y009828D02*
X027500Y009828D01*
X027500Y009831D02*
X028948Y009831D01*
X028948Y009833D02*
X027500Y009833D01*
X027500Y009836D02*
X028948Y009836D01*
X028948Y009838D02*
X027500Y009838D01*
X027500Y009840D02*
X028948Y009840D01*
X028948Y009843D02*
X027500Y009843D01*
X027500Y009845D02*
X028948Y009845D01*
X028948Y009848D02*
X027500Y009848D01*
X027500Y011350D02*
X028948Y011350D01*
X028948Y011850D01*
X027769Y011850D01*
X027500Y011581D01*
X028948Y011581D01*
X028948Y011583D02*
X027502Y011583D01*
X027500Y011581D02*
X027500Y011350D01*
X027500Y011352D02*
X028948Y011352D01*
X028948Y011354D02*
X027500Y011354D01*
X027500Y011356D02*
X028948Y011356D01*
X028948Y011359D02*
X027500Y011359D01*
X027500Y011361D02*
X028948Y011361D01*
X028948Y011364D02*
X027500Y011364D01*
X027500Y011366D02*
X028948Y011366D01*
X028948Y011369D02*
X027500Y011369D01*
X027500Y011371D02*
X028948Y011371D01*
X028948Y011373D02*
X027500Y011373D01*
X027500Y011376D02*
X028948Y011376D01*
X028948Y011378D02*
X027500Y011378D01*
X027500Y011381D02*
X028948Y011381D01*
X028948Y011383D02*
X027500Y011383D01*
X027500Y011386D02*
X028948Y011386D01*
X028948Y011388D02*
X027500Y011388D01*
X027500Y011391D02*
X028948Y011391D01*
X028948Y011393D02*
X027500Y011393D01*
X027500Y011395D02*
X028948Y011395D01*
X028948Y011398D02*
X027500Y011398D01*
X027500Y011400D02*
X028948Y011400D01*
X028948Y011403D02*
X027500Y011403D01*
X027500Y011405D02*
X028948Y011405D01*
X028948Y011408D02*
X027500Y011408D01*
X027500Y011410D02*
X028948Y011410D01*
X028948Y011412D02*
X027500Y011412D01*
X027500Y011415D02*
X028948Y011415D01*
X028948Y011417D02*
X027500Y011417D01*
X027500Y011420D02*
X028948Y011420D01*
X028948Y011422D02*
X027500Y011422D01*
X027500Y011425D02*
X028948Y011425D01*
X028948Y011427D02*
X027500Y011427D01*
X027500Y011430D02*
X028948Y011430D01*
X028948Y011432D02*
X027500Y011432D01*
X027500Y011434D02*
X028948Y011434D01*
X028948Y011437D02*
X027500Y011437D01*
X027500Y011439D02*
X028948Y011439D01*
X028948Y011442D02*
X027500Y011442D01*
X027500Y011444D02*
X028948Y011444D01*
X028948Y011447D02*
X027500Y011447D01*
X027500Y011449D02*
X028948Y011449D01*
X028948Y011451D02*
X027500Y011451D01*
X027500Y011454D02*
X028948Y011454D01*
X028948Y011456D02*
X027500Y011456D01*
X027500Y011459D02*
X028948Y011459D01*
X028948Y011461D02*
X027500Y011461D01*
X027500Y011464D02*
X028948Y011464D01*
X028948Y011466D02*
X027500Y011466D01*
X027500Y011469D02*
X028948Y011469D01*
X028948Y011471D02*
X027500Y011471D01*
X027500Y011473D02*
X028948Y011473D01*
X028948Y011476D02*
X027500Y011476D01*
X027500Y011478D02*
X028948Y011478D01*
X028948Y011481D02*
X027500Y011481D01*
X027500Y011483D02*
X028948Y011483D01*
X028948Y011486D02*
X027500Y011486D01*
X027500Y011488D02*
X028948Y011488D01*
X028948Y011490D02*
X027500Y011490D01*
X027500Y011493D02*
X028948Y011493D01*
X028948Y011495D02*
X027500Y011495D01*
X027500Y011498D02*
X028948Y011498D01*
X028948Y011500D02*
X027500Y011500D01*
X027500Y011503D02*
X028948Y011503D01*
X028948Y011505D02*
X027500Y011505D01*
X027500Y011508D02*
X028948Y011508D01*
X028948Y011510D02*
X027500Y011510D01*
X027500Y011512D02*
X028948Y011512D01*
X028948Y011515D02*
X027500Y011515D01*
X027500Y011517D02*
X028948Y011517D01*
X028948Y011520D02*
X027500Y011520D01*
X027500Y011522D02*
X028948Y011522D01*
X028948Y011525D02*
X027500Y011525D01*
X027500Y011527D02*
X028948Y011527D01*
X028948Y011529D02*
X027500Y011529D01*
X027500Y011532D02*
X028948Y011532D01*
X028948Y011534D02*
X027500Y011534D01*
X027500Y011537D02*
X028948Y011537D01*
X028948Y011539D02*
X027500Y011539D01*
X027500Y011542D02*
X028948Y011542D01*
X028948Y011544D02*
X027500Y011544D01*
X027500Y011547D02*
X028948Y011547D01*
X028948Y011549D02*
X027500Y011549D01*
X027500Y011551D02*
X028948Y011551D01*
X028948Y011554D02*
X027500Y011554D01*
X027500Y011556D02*
X028948Y011556D01*
X028948Y011559D02*
X027500Y011559D01*
X027500Y011561D02*
X028948Y011561D01*
X028948Y011564D02*
X027500Y011564D01*
X027500Y011566D02*
X028948Y011566D01*
X028948Y011568D02*
X027500Y011568D01*
X027500Y011571D02*
X028948Y011571D01*
X028948Y011573D02*
X027500Y011573D01*
X027500Y011576D02*
X028948Y011576D01*
X028948Y011578D02*
X027500Y011578D01*
X027505Y011586D02*
X028948Y011586D01*
X028948Y011588D02*
X027507Y011588D01*
X027509Y011590D02*
X028948Y011590D01*
X028948Y011593D02*
X027512Y011593D01*
X027514Y011595D02*
X028948Y011595D01*
X028948Y011598D02*
X027517Y011598D01*
X027519Y011600D02*
X028948Y011600D01*
X028948Y011603D02*
X027522Y011603D01*
X027524Y011605D02*
X028948Y011605D01*
X028948Y011607D02*
X027526Y011607D01*
X027529Y011610D02*
X028948Y011610D01*
X028948Y011612D02*
X027531Y011612D01*
X027534Y011615D02*
X028948Y011615D01*
X028948Y011617D02*
X027536Y011617D01*
X027539Y011620D02*
X028948Y011620D01*
X028948Y011622D02*
X027541Y011622D01*
X027544Y011624D02*
X028948Y011624D01*
X028948Y011627D02*
X027546Y011627D01*
X027548Y011629D02*
X028948Y011629D01*
X028948Y011632D02*
X027551Y011632D01*
X027553Y011634D02*
X028948Y011634D01*
X028948Y011637D02*
X027556Y011637D01*
X027558Y011639D02*
X028948Y011639D01*
X028948Y011642D02*
X027561Y011642D01*
X027563Y011644D02*
X028948Y011644D01*
X028948Y011646D02*
X027565Y011646D01*
X027568Y011649D02*
X028948Y011649D01*
X028948Y011651D02*
X027570Y011651D01*
X027573Y011654D02*
X028948Y011654D01*
X028948Y011656D02*
X027575Y011656D01*
X027578Y011659D02*
X028948Y011659D01*
X028948Y011661D02*
X027580Y011661D01*
X027583Y011663D02*
X028948Y011663D01*
X028948Y011666D02*
X027585Y011666D01*
X027587Y011668D02*
X028948Y011668D01*
X028948Y011671D02*
X027590Y011671D01*
X027592Y011673D02*
X028948Y011673D01*
X028948Y011676D02*
X027595Y011676D01*
X027597Y011678D02*
X028948Y011678D01*
X028948Y011681D02*
X027600Y011681D01*
X027602Y011683D02*
X028948Y011683D01*
X028948Y011685D02*
X027604Y011685D01*
X027607Y011688D02*
X028948Y011688D01*
X028948Y011690D02*
X027609Y011690D01*
X027612Y011693D02*
X028948Y011693D01*
X028948Y011695D02*
X027614Y011695D01*
X027617Y011698D02*
X028948Y011698D01*
X028948Y011700D02*
X027619Y011700D01*
X027622Y011702D02*
X028948Y011702D01*
X028948Y011705D02*
X027624Y011705D01*
X027626Y011707D02*
X028948Y011707D01*
X028948Y011710D02*
X027629Y011710D01*
X027631Y011712D02*
X028948Y011712D01*
X028948Y011715D02*
X027634Y011715D01*
X027636Y011717D02*
X028948Y011717D01*
X028948Y011720D02*
X027639Y011720D01*
X027641Y011722D02*
X028948Y011722D01*
X028948Y011724D02*
X027643Y011724D01*
X027646Y011727D02*
X028948Y011727D01*
X028948Y011729D02*
X027648Y011729D01*
X027651Y011732D02*
X028948Y011732D01*
X028948Y011734D02*
X027653Y011734D01*
X027656Y011737D02*
X028948Y011737D01*
X028948Y011739D02*
X027658Y011739D01*
X027660Y011741D02*
X028948Y011741D01*
X028948Y011744D02*
X027663Y011744D01*
X027665Y011746D02*
X028948Y011746D01*
X028948Y011749D02*
X027668Y011749D01*
X027670Y011751D02*
X028948Y011751D01*
X028948Y011754D02*
X027673Y011754D01*
X027675Y011756D02*
X028948Y011756D01*
X028948Y011759D02*
X027678Y011759D01*
X027680Y011761D02*
X028948Y011761D01*
X028948Y011763D02*
X027682Y011763D01*
X027685Y011766D02*
X028948Y011766D01*
X028948Y011768D02*
X027687Y011768D01*
X027690Y011771D02*
X028948Y011771D01*
X028948Y011773D02*
X027692Y011773D01*
X027695Y011776D02*
X028948Y011776D01*
X028948Y011778D02*
X027697Y011778D01*
X027699Y011780D02*
X028948Y011780D01*
X028948Y011783D02*
X027702Y011783D01*
X027704Y011785D02*
X028948Y011785D01*
X028948Y011788D02*
X027707Y011788D01*
X027709Y011790D02*
X028948Y011790D01*
X028948Y011793D02*
X027712Y011793D01*
X027714Y011795D02*
X028948Y011795D01*
X028948Y011798D02*
X027717Y011798D01*
X027719Y011800D02*
X028948Y011800D01*
X028948Y011802D02*
X027721Y011802D01*
X027724Y011805D02*
X028948Y011805D01*
X028948Y011807D02*
X027726Y011807D01*
X027729Y011810D02*
X028948Y011810D01*
X028948Y011812D02*
X027731Y011812D01*
X027734Y011815D02*
X028948Y011815D01*
X028948Y011817D02*
X027736Y011817D01*
X027738Y011819D02*
X028948Y011819D01*
X028948Y011822D02*
X027741Y011822D01*
X027743Y011824D02*
X028948Y011824D01*
X028948Y011827D02*
X027746Y011827D01*
X027748Y011829D02*
X028948Y011829D01*
X028948Y011832D02*
X027751Y011832D01*
X027753Y011834D02*
X028948Y011834D01*
X028948Y011837D02*
X027756Y011837D01*
X027758Y011839D02*
X028948Y011839D01*
X028948Y011841D02*
X027760Y011841D01*
X027763Y011844D02*
X028948Y011844D01*
X028948Y011846D02*
X027765Y011846D01*
X027768Y011849D02*
X028948Y011849D01*
X028948Y012350D02*
X027769Y012350D01*
X027500Y012619D01*
X028948Y012619D01*
X028948Y012621D02*
X027500Y012621D01*
X027500Y012619D02*
X027500Y012850D01*
X028948Y012850D01*
X028948Y012350D01*
X028948Y012351D02*
X027768Y012351D01*
X027766Y012353D02*
X028948Y012353D01*
X028948Y012356D02*
X027763Y012356D01*
X027761Y012358D02*
X028948Y012358D01*
X028948Y012361D02*
X027758Y012361D01*
X027756Y012363D02*
X028948Y012363D01*
X028948Y012365D02*
X027754Y012365D01*
X027751Y012368D02*
X028948Y012368D01*
X028948Y012370D02*
X027749Y012370D01*
X027746Y012373D02*
X028948Y012373D01*
X028948Y012375D02*
X027744Y012375D01*
X027741Y012378D02*
X028948Y012378D01*
X028948Y012380D02*
X027739Y012380D01*
X027737Y012382D02*
X028948Y012382D01*
X028948Y012385D02*
X027734Y012385D01*
X027732Y012387D02*
X028948Y012387D01*
X028948Y012390D02*
X027729Y012390D01*
X027727Y012392D02*
X028948Y012392D01*
X028948Y012395D02*
X027724Y012395D01*
X027722Y012397D02*
X028948Y012397D01*
X028948Y012400D02*
X027719Y012400D01*
X027717Y012402D02*
X028948Y012402D01*
X028948Y012404D02*
X027715Y012404D01*
X027712Y012407D02*
X028948Y012407D01*
X028948Y012409D02*
X027710Y012409D01*
X027707Y012412D02*
X028948Y012412D01*
X028948Y012414D02*
X027705Y012414D01*
X027702Y012417D02*
X028948Y012417D01*
X028948Y012419D02*
X027700Y012419D01*
X027698Y012421D02*
X028948Y012421D01*
X028948Y012424D02*
X027695Y012424D01*
X027693Y012426D02*
X028948Y012426D01*
X028948Y012429D02*
X027690Y012429D01*
X027688Y012431D02*
X028948Y012431D01*
X028948Y012434D02*
X027685Y012434D01*
X027683Y012436D02*
X028948Y012436D01*
X028948Y012439D02*
X027680Y012439D01*
X027678Y012441D02*
X028948Y012441D01*
X028948Y012443D02*
X027676Y012443D01*
X027673Y012446D02*
X028948Y012446D01*
X028948Y012448D02*
X027671Y012448D01*
X027668Y012451D02*
X028948Y012451D01*
X028948Y012453D02*
X027666Y012453D01*
X027663Y012456D02*
X028948Y012456D01*
X028948Y012458D02*
X027661Y012458D01*
X027659Y012460D02*
X028948Y012460D01*
X028948Y012463D02*
X027656Y012463D01*
X027654Y012465D02*
X028948Y012465D01*
X028948Y012468D02*
X027651Y012468D01*
X027649Y012470D02*
X028948Y012470D01*
X028948Y012473D02*
X027646Y012473D01*
X027644Y012475D02*
X028948Y012475D01*
X028948Y012478D02*
X027641Y012478D01*
X027639Y012480D02*
X028948Y012480D01*
X028948Y012482D02*
X027637Y012482D01*
X027634Y012485D02*
X028948Y012485D01*
X028948Y012487D02*
X027632Y012487D01*
X027629Y012490D02*
X028948Y012490D01*
X028948Y012492D02*
X027627Y012492D01*
X027624Y012495D02*
X028948Y012495D01*
X028948Y012497D02*
X027622Y012497D01*
X027620Y012499D02*
X028948Y012499D01*
X028948Y012502D02*
X027617Y012502D01*
X027615Y012504D02*
X028948Y012504D01*
X028948Y012507D02*
X027612Y012507D01*
X027610Y012509D02*
X028948Y012509D01*
X028948Y012512D02*
X027607Y012512D01*
X027605Y012514D02*
X028948Y012514D01*
X028948Y012517D02*
X027602Y012517D01*
X027600Y012519D02*
X028948Y012519D01*
X028948Y012521D02*
X027598Y012521D01*
X027595Y012524D02*
X028948Y012524D01*
X028948Y012526D02*
X027593Y012526D01*
X027590Y012529D02*
X028948Y012529D01*
X028948Y012531D02*
X027588Y012531D01*
X027585Y012534D02*
X028948Y012534D01*
X028948Y012536D02*
X027583Y012536D01*
X027581Y012538D02*
X028948Y012538D01*
X028948Y012541D02*
X027578Y012541D01*
X027576Y012543D02*
X028948Y012543D01*
X028948Y012546D02*
X027573Y012546D01*
X027571Y012548D02*
X028948Y012548D01*
X028948Y012551D02*
X027568Y012551D01*
X027566Y012553D02*
X028948Y012553D01*
X028948Y012556D02*
X027563Y012556D01*
X027561Y012558D02*
X028948Y012558D01*
X028948Y012560D02*
X027559Y012560D01*
X027556Y012563D02*
X028948Y012563D01*
X028948Y012565D02*
X027554Y012565D01*
X027551Y012568D02*
X028948Y012568D01*
X028948Y012570D02*
X027549Y012570D01*
X027546Y012573D02*
X028948Y012573D01*
X028948Y012575D02*
X027544Y012575D01*
X027542Y012577D02*
X028948Y012577D01*
X028948Y012580D02*
X027539Y012580D01*
X027537Y012582D02*
X028948Y012582D01*
X028948Y012585D02*
X027534Y012585D01*
X027532Y012587D02*
X028948Y012587D01*
X028948Y012590D02*
X027529Y012590D01*
X027527Y012592D02*
X028948Y012592D01*
X028948Y012595D02*
X027524Y012595D01*
X027522Y012597D02*
X028948Y012597D01*
X028948Y012599D02*
X027520Y012599D01*
X027517Y012602D02*
X028948Y012602D01*
X028948Y012604D02*
X027515Y012604D01*
X027512Y012607D02*
X028948Y012607D01*
X028948Y012609D02*
X027510Y012609D01*
X027507Y012612D02*
X028948Y012612D01*
X028948Y012614D02*
X027505Y012614D01*
X027503Y012616D02*
X028948Y012616D01*
X028948Y012624D02*
X027500Y012624D01*
X027500Y012626D02*
X028948Y012626D01*
X028948Y012629D02*
X027500Y012629D01*
X027500Y012631D02*
X028948Y012631D01*
X028948Y012634D02*
X027500Y012634D01*
X027500Y012636D02*
X028948Y012636D01*
X028948Y012638D02*
X027500Y012638D01*
X027500Y012641D02*
X028948Y012641D01*
X028948Y012643D02*
X027500Y012643D01*
X027500Y012646D02*
X028948Y012646D01*
X028948Y012648D02*
X027500Y012648D01*
X027500Y012651D02*
X028948Y012651D01*
X028948Y012653D02*
X027500Y012653D01*
X027500Y012655D02*
X028948Y012655D01*
X028948Y012658D02*
X027500Y012658D01*
X027500Y012660D02*
X028948Y012660D01*
X028948Y012663D02*
X027500Y012663D01*
X027500Y012665D02*
X028948Y012665D01*
X028948Y012668D02*
X027500Y012668D01*
X027500Y012670D02*
X028948Y012670D01*
X028948Y012673D02*
X027500Y012673D01*
X027500Y012675D02*
X028948Y012675D01*
X028948Y012677D02*
X027500Y012677D01*
X027500Y012680D02*
X028948Y012680D01*
X028948Y012682D02*
X027500Y012682D01*
X027500Y012685D02*
X028948Y012685D01*
X028948Y012687D02*
X027500Y012687D01*
X027500Y012690D02*
X028948Y012690D01*
X028948Y012692D02*
X027500Y012692D01*
X027500Y012694D02*
X028948Y012694D01*
X028948Y012697D02*
X027500Y012697D01*
X027500Y012699D02*
X028948Y012699D01*
X028948Y012702D02*
X027500Y012702D01*
X027500Y012704D02*
X028948Y012704D01*
X028948Y012707D02*
X027500Y012707D01*
X027500Y012709D02*
X028948Y012709D01*
X028948Y012712D02*
X027500Y012712D01*
X027500Y012714D02*
X028948Y012714D01*
X028948Y012716D02*
X027500Y012716D01*
X027500Y012719D02*
X028948Y012719D01*
X028948Y012721D02*
X027500Y012721D01*
X027500Y012724D02*
X028948Y012724D01*
X028948Y012726D02*
X027500Y012726D01*
X027500Y012729D02*
X028948Y012729D01*
X028948Y012731D02*
X027500Y012731D01*
X027500Y012733D02*
X028948Y012733D01*
X028948Y012736D02*
X027500Y012736D01*
X027500Y012738D02*
X028948Y012738D01*
X028948Y012741D02*
X027500Y012741D01*
X027500Y012743D02*
X028948Y012743D01*
X028948Y012746D02*
X027500Y012746D01*
X027500Y012748D02*
X028948Y012748D01*
X028948Y012751D02*
X027500Y012751D01*
X027500Y012753D02*
X028948Y012753D01*
X028948Y012755D02*
X027500Y012755D01*
X027500Y012758D02*
X028948Y012758D01*
X028948Y012760D02*
X027500Y012760D01*
X027500Y012763D02*
X028948Y012763D01*
X028948Y012765D02*
X027500Y012765D01*
X027500Y012768D02*
X028948Y012768D01*
X028948Y012770D02*
X027500Y012770D01*
X027500Y012772D02*
X028948Y012772D01*
X028948Y012775D02*
X027500Y012775D01*
X027500Y012777D02*
X028948Y012777D01*
X028948Y012780D02*
X027500Y012780D01*
X027500Y012782D02*
X028948Y012782D01*
X028948Y012785D02*
X027500Y012785D01*
X027500Y012787D02*
X028948Y012787D01*
X028948Y012790D02*
X027500Y012790D01*
X027500Y012792D02*
X028948Y012792D01*
X028948Y012794D02*
X027500Y012794D01*
X027500Y012797D02*
X028948Y012797D01*
X028948Y012799D02*
X027500Y012799D01*
X027500Y012802D02*
X028948Y012802D01*
X028948Y012804D02*
X027500Y012804D01*
X027500Y012807D02*
X028948Y012807D01*
X028948Y012809D02*
X027500Y012809D01*
X027500Y012811D02*
X028948Y012811D01*
X028948Y012814D02*
X027500Y012814D01*
X027500Y012816D02*
X028948Y012816D01*
X028948Y012819D02*
X027500Y012819D01*
X027500Y012821D02*
X028948Y012821D01*
X028948Y012824D02*
X027500Y012824D01*
X027500Y012826D02*
X028948Y012826D01*
X028948Y012829D02*
X027500Y012829D01*
X027500Y012831D02*
X028948Y012831D01*
X028948Y012833D02*
X027500Y012833D01*
X027500Y012836D02*
X028948Y012836D01*
X028948Y012838D02*
X027500Y012838D01*
X027500Y012841D02*
X028948Y012841D01*
X028948Y012843D02*
X027500Y012843D01*
X027500Y012846D02*
X028948Y012846D01*
X028948Y012848D02*
X027500Y012848D01*
X027200Y012848D02*
X025752Y012848D01*
X025752Y012850D02*
X027200Y012850D01*
X027200Y012619D01*
X025752Y012619D01*
X025752Y012621D02*
X027200Y012621D01*
X027200Y012619D02*
X026931Y012350D01*
X025752Y012350D01*
X025752Y012850D01*
X025752Y012846D02*
X027200Y012846D01*
X027200Y012843D02*
X025752Y012843D01*
X025752Y012841D02*
X027200Y012841D01*
X027200Y012838D02*
X025752Y012838D01*
X025752Y012836D02*
X027200Y012836D01*
X027200Y012833D02*
X025752Y012833D01*
X025752Y012831D02*
X027200Y012831D01*
X027200Y012829D02*
X025752Y012829D01*
X025752Y012826D02*
X027200Y012826D01*
X027200Y012824D02*
X025752Y012824D01*
X025752Y012821D02*
X027200Y012821D01*
X027200Y012819D02*
X025752Y012819D01*
X025752Y012816D02*
X027200Y012816D01*
X027200Y012814D02*
X025752Y012814D01*
X025752Y012811D02*
X027200Y012811D01*
X027200Y012809D02*
X025752Y012809D01*
X025752Y012807D02*
X027200Y012807D01*
X027200Y012804D02*
X025752Y012804D01*
X025752Y012802D02*
X027200Y012802D01*
X027200Y012799D02*
X025752Y012799D01*
X025752Y012797D02*
X027200Y012797D01*
X027200Y012794D02*
X025752Y012794D01*
X025752Y012792D02*
X027200Y012792D01*
X027200Y012790D02*
X025752Y012790D01*
X025752Y012787D02*
X027200Y012787D01*
X027200Y012785D02*
X025752Y012785D01*
X025752Y012782D02*
X027200Y012782D01*
X027200Y012780D02*
X025752Y012780D01*
X025752Y012777D02*
X027200Y012777D01*
X027200Y012775D02*
X025752Y012775D01*
X025752Y012772D02*
X027200Y012772D01*
X027200Y012770D02*
X025752Y012770D01*
X025752Y012768D02*
X027200Y012768D01*
X027200Y012765D02*
X025752Y012765D01*
X025752Y012763D02*
X027200Y012763D01*
X027200Y012760D02*
X025752Y012760D01*
X025752Y012758D02*
X027200Y012758D01*
X027200Y012755D02*
X025752Y012755D01*
X025752Y012753D02*
X027200Y012753D01*
X027200Y012751D02*
X025752Y012751D01*
X025752Y012748D02*
X027200Y012748D01*
X027200Y012746D02*
X025752Y012746D01*
X025752Y012743D02*
X027200Y012743D01*
X027200Y012741D02*
X025752Y012741D01*
X025752Y012738D02*
X027200Y012738D01*
X027200Y012736D02*
X025752Y012736D01*
X025752Y012733D02*
X027200Y012733D01*
X027200Y012731D02*
X025752Y012731D01*
X025752Y012729D02*
X027200Y012729D01*
X027200Y012726D02*
X025752Y012726D01*
X025752Y012724D02*
X027200Y012724D01*
X027200Y012721D02*
X025752Y012721D01*
X025752Y012719D02*
X027200Y012719D01*
X027200Y012716D02*
X025752Y012716D01*
X025752Y012714D02*
X027200Y012714D01*
X027200Y012712D02*
X025752Y012712D01*
X025752Y012709D02*
X027200Y012709D01*
X027200Y012707D02*
X025752Y012707D01*
X025752Y012704D02*
X027200Y012704D01*
X027200Y012702D02*
X025752Y012702D01*
X025752Y012699D02*
X027200Y012699D01*
X027200Y012697D02*
X025752Y012697D01*
X025752Y012694D02*
X027200Y012694D01*
X027200Y012692D02*
X025752Y012692D01*
X025752Y012690D02*
X027200Y012690D01*
X027200Y012687D02*
X025752Y012687D01*
X025752Y012685D02*
X027200Y012685D01*
X027200Y012682D02*
X025752Y012682D01*
X025752Y012680D02*
X027200Y012680D01*
X027200Y012677D02*
X025752Y012677D01*
X025752Y012675D02*
X027200Y012675D01*
X027200Y012673D02*
X025752Y012673D01*
X025752Y012670D02*
X027200Y012670D01*
X027200Y012668D02*
X025752Y012668D01*
X025752Y012665D02*
X027200Y012665D01*
X027200Y012663D02*
X025752Y012663D01*
X025752Y012660D02*
X027200Y012660D01*
X027200Y012658D02*
X025752Y012658D01*
X025752Y012655D02*
X027200Y012655D01*
X027200Y012653D02*
X025752Y012653D01*
X025752Y012651D02*
X027200Y012651D01*
X027200Y012648D02*
X025752Y012648D01*
X025752Y012646D02*
X027200Y012646D01*
X027200Y012643D02*
X025752Y012643D01*
X025752Y012641D02*
X027200Y012641D01*
X027200Y012638D02*
X025752Y012638D01*
X025752Y012636D02*
X027200Y012636D01*
X027200Y012634D02*
X025752Y012634D01*
X025752Y012631D02*
X027200Y012631D01*
X027200Y012629D02*
X025752Y012629D01*
X025752Y012626D02*
X027200Y012626D01*
X027200Y012624D02*
X025752Y012624D01*
X025752Y012616D02*
X027197Y012616D01*
X027195Y012614D02*
X025752Y012614D01*
X025752Y012612D02*
X027193Y012612D01*
X027190Y012609D02*
X025752Y012609D01*
X025752Y012607D02*
X027188Y012607D01*
X027185Y012604D02*
X025752Y012604D01*
X025752Y012602D02*
X027183Y012602D01*
X027180Y012599D02*
X025752Y012599D01*
X025752Y012597D02*
X027178Y012597D01*
X027176Y012595D02*
X025752Y012595D01*
X025752Y012592D02*
X027173Y012592D01*
X027171Y012590D02*
X025752Y012590D01*
X025752Y012587D02*
X027168Y012587D01*
X027166Y012585D02*
X025752Y012585D01*
X025752Y012582D02*
X027163Y012582D01*
X027161Y012580D02*
X025752Y012580D01*
X025752Y012577D02*
X027158Y012577D01*
X027156Y012575D02*
X025752Y012575D01*
X025752Y012573D02*
X027154Y012573D01*
X027151Y012570D02*
X025752Y012570D01*
X025752Y012568D02*
X027149Y012568D01*
X027146Y012565D02*
X025752Y012565D01*
X025752Y012563D02*
X027144Y012563D01*
X027141Y012560D02*
X025752Y012560D01*
X025752Y012558D02*
X027139Y012558D01*
X027137Y012556D02*
X025752Y012556D01*
X025752Y012553D02*
X027134Y012553D01*
X027132Y012551D02*
X025752Y012551D01*
X025752Y012548D02*
X027129Y012548D01*
X027127Y012546D02*
X025752Y012546D01*
X025752Y012543D02*
X027124Y012543D01*
X027122Y012541D02*
X025752Y012541D01*
X025752Y012538D02*
X027119Y012538D01*
X027117Y012536D02*
X025752Y012536D01*
X025752Y012534D02*
X027115Y012534D01*
X027112Y012531D02*
X025752Y012531D01*
X025752Y012529D02*
X027110Y012529D01*
X027107Y012526D02*
X025752Y012526D01*
X025752Y012524D02*
X027105Y012524D01*
X027102Y012521D02*
X025752Y012521D01*
X025752Y012519D02*
X027100Y012519D01*
X027098Y012517D02*
X025752Y012517D01*
X025752Y012514D02*
X027095Y012514D01*
X027093Y012512D02*
X025752Y012512D01*
X025752Y012509D02*
X027090Y012509D01*
X027088Y012507D02*
X025752Y012507D01*
X025752Y012504D02*
X027085Y012504D01*
X027083Y012502D02*
X025752Y012502D01*
X025752Y012499D02*
X027080Y012499D01*
X027078Y012497D02*
X025752Y012497D01*
X025752Y012495D02*
X027076Y012495D01*
X027073Y012492D02*
X025752Y012492D01*
X025752Y012490D02*
X027071Y012490D01*
X027068Y012487D02*
X025752Y012487D01*
X025752Y012485D02*
X027066Y012485D01*
X027063Y012482D02*
X025752Y012482D01*
X025752Y012480D02*
X027061Y012480D01*
X027059Y012478D02*
X025752Y012478D01*
X025752Y012475D02*
X027056Y012475D01*
X027054Y012473D02*
X025752Y012473D01*
X025752Y012470D02*
X027051Y012470D01*
X027049Y012468D02*
X025752Y012468D01*
X025752Y012465D02*
X027046Y012465D01*
X027044Y012463D02*
X025752Y012463D01*
X025752Y012460D02*
X027041Y012460D01*
X027039Y012458D02*
X025752Y012458D01*
X025752Y012456D02*
X027037Y012456D01*
X027034Y012453D02*
X025752Y012453D01*
X025752Y012451D02*
X027032Y012451D01*
X027029Y012448D02*
X025752Y012448D01*
X025752Y012446D02*
X027027Y012446D01*
X027024Y012443D02*
X025752Y012443D01*
X025752Y012441D02*
X027022Y012441D01*
X027020Y012439D02*
X025752Y012439D01*
X025752Y012436D02*
X027017Y012436D01*
X027015Y012434D02*
X025752Y012434D01*
X025752Y012431D02*
X027012Y012431D01*
X027010Y012429D02*
X025752Y012429D01*
X025752Y012426D02*
X027007Y012426D01*
X027005Y012424D02*
X025752Y012424D01*
X025752Y012421D02*
X027002Y012421D01*
X027000Y012419D02*
X025752Y012419D01*
X025752Y012417D02*
X026998Y012417D01*
X026995Y012414D02*
X025752Y012414D01*
X025752Y012412D02*
X026993Y012412D01*
X026990Y012409D02*
X025752Y012409D01*
X025752Y012407D02*
X026988Y012407D01*
X026985Y012404D02*
X025752Y012404D01*
X025752Y012402D02*
X026983Y012402D01*
X026981Y012400D02*
X025752Y012400D01*
X025752Y012397D02*
X026978Y012397D01*
X026976Y012395D02*
X025752Y012395D01*
X025752Y012392D02*
X026973Y012392D01*
X026971Y012390D02*
X025752Y012390D01*
X025752Y012387D02*
X026968Y012387D01*
X026966Y012385D02*
X025752Y012385D01*
X025752Y012382D02*
X026963Y012382D01*
X026961Y012380D02*
X025752Y012380D01*
X025752Y012378D02*
X026959Y012378D01*
X026956Y012375D02*
X025752Y012375D01*
X025752Y012373D02*
X026954Y012373D01*
X026951Y012370D02*
X025752Y012370D01*
X025752Y012368D02*
X026949Y012368D01*
X026946Y012365D02*
X025752Y012365D01*
X025752Y012363D02*
X026944Y012363D01*
X026942Y012361D02*
X025752Y012361D01*
X025752Y012358D02*
X026939Y012358D01*
X026937Y012356D02*
X025752Y012356D01*
X025752Y012353D02*
X026934Y012353D01*
X026932Y012351D02*
X025752Y012351D01*
X025752Y011850D02*
X026931Y011850D01*
X027200Y011581D01*
X025752Y011581D01*
X025752Y011583D02*
X027198Y011583D01*
X027200Y011581D02*
X027200Y011350D01*
X025752Y011350D01*
X025752Y011850D01*
X025752Y011849D02*
X026932Y011849D01*
X026935Y011846D02*
X025752Y011846D01*
X025752Y011844D02*
X026937Y011844D01*
X026940Y011841D02*
X025752Y011841D01*
X025752Y011839D02*
X026942Y011839D01*
X026944Y011837D02*
X025752Y011837D01*
X025752Y011834D02*
X026947Y011834D01*
X026949Y011832D02*
X025752Y011832D01*
X025752Y011829D02*
X026952Y011829D01*
X026954Y011827D02*
X025752Y011827D01*
X025752Y011824D02*
X026957Y011824D01*
X026959Y011822D02*
X025752Y011822D01*
X025752Y011819D02*
X026962Y011819D01*
X026964Y011817D02*
X025752Y011817D01*
X025752Y011815D02*
X026966Y011815D01*
X026969Y011812D02*
X025752Y011812D01*
X025752Y011810D02*
X026971Y011810D01*
X026974Y011807D02*
X025752Y011807D01*
X025752Y011805D02*
X026976Y011805D01*
X026979Y011802D02*
X025752Y011802D01*
X025752Y011800D02*
X026981Y011800D01*
X026983Y011798D02*
X025752Y011798D01*
X025752Y011795D02*
X026986Y011795D01*
X026988Y011793D02*
X025752Y011793D01*
X025752Y011790D02*
X026991Y011790D01*
X026993Y011788D02*
X025752Y011788D01*
X025752Y011785D02*
X026996Y011785D01*
X026998Y011783D02*
X025752Y011783D01*
X025752Y011780D02*
X027001Y011780D01*
X027003Y011778D02*
X025752Y011778D01*
X025752Y011776D02*
X027005Y011776D01*
X027008Y011773D02*
X025752Y011773D01*
X025752Y011771D02*
X027010Y011771D01*
X027013Y011768D02*
X025752Y011768D01*
X025752Y011766D02*
X027015Y011766D01*
X027018Y011763D02*
X025752Y011763D01*
X025752Y011761D02*
X027020Y011761D01*
X027022Y011759D02*
X025752Y011759D01*
X025752Y011756D02*
X027025Y011756D01*
X027027Y011754D02*
X025752Y011754D01*
X025752Y011751D02*
X027030Y011751D01*
X027032Y011749D02*
X025752Y011749D01*
X025752Y011746D02*
X027035Y011746D01*
X027037Y011744D02*
X025752Y011744D01*
X025752Y011741D02*
X027040Y011741D01*
X027042Y011739D02*
X025752Y011739D01*
X025752Y011737D02*
X027044Y011737D01*
X027047Y011734D02*
X025752Y011734D01*
X025752Y011732D02*
X027049Y011732D01*
X027052Y011729D02*
X025752Y011729D01*
X025752Y011727D02*
X027054Y011727D01*
X027057Y011724D02*
X025752Y011724D01*
X025752Y011722D02*
X027059Y011722D01*
X027061Y011720D02*
X025752Y011720D01*
X025752Y011717D02*
X027064Y011717D01*
X027066Y011715D02*
X025752Y011715D01*
X025752Y011712D02*
X027069Y011712D01*
X027071Y011710D02*
X025752Y011710D01*
X025752Y011707D02*
X027074Y011707D01*
X027076Y011705D02*
X025752Y011705D01*
X025752Y011702D02*
X027078Y011702D01*
X027081Y011700D02*
X025752Y011700D01*
X025752Y011698D02*
X027083Y011698D01*
X027086Y011695D02*
X025752Y011695D01*
X025752Y011693D02*
X027088Y011693D01*
X027091Y011690D02*
X025752Y011690D01*
X025752Y011688D02*
X027093Y011688D01*
X027096Y011685D02*
X025752Y011685D01*
X025752Y011683D02*
X027098Y011683D01*
X027100Y011681D02*
X025752Y011681D01*
X025752Y011678D02*
X027103Y011678D01*
X027105Y011676D02*
X025752Y011676D01*
X025752Y011673D02*
X027108Y011673D01*
X027110Y011671D02*
X025752Y011671D01*
X025752Y011668D02*
X027113Y011668D01*
X027115Y011666D02*
X025752Y011666D01*
X025752Y011663D02*
X027117Y011663D01*
X027120Y011661D02*
X025752Y011661D01*
X025752Y011659D02*
X027122Y011659D01*
X027125Y011656D02*
X025752Y011656D01*
X025752Y011654D02*
X027127Y011654D01*
X027130Y011651D02*
X025752Y011651D01*
X025752Y011649D02*
X027132Y011649D01*
X027135Y011646D02*
X025752Y011646D01*
X025752Y011644D02*
X027137Y011644D01*
X027139Y011642D02*
X025752Y011642D01*
X025752Y011639D02*
X027142Y011639D01*
X027144Y011637D02*
X025752Y011637D01*
X025752Y011634D02*
X027147Y011634D01*
X027149Y011632D02*
X025752Y011632D01*
X025752Y011629D02*
X027152Y011629D01*
X027154Y011627D02*
X025752Y011627D01*
X025752Y011624D02*
X027156Y011624D01*
X027159Y011622D02*
X025752Y011622D01*
X025752Y011620D02*
X027161Y011620D01*
X027164Y011617D02*
X025752Y011617D01*
X025752Y011615D02*
X027166Y011615D01*
X027169Y011612D02*
X025752Y011612D01*
X025752Y011610D02*
X027171Y011610D01*
X027174Y011607D02*
X025752Y011607D01*
X025752Y011605D02*
X027176Y011605D01*
X027178Y011603D02*
X025752Y011603D01*
X025752Y011600D02*
X027181Y011600D01*
X027183Y011598D02*
X025752Y011598D01*
X025752Y011595D02*
X027186Y011595D01*
X027188Y011593D02*
X025752Y011593D01*
X025752Y011590D02*
X027191Y011590D01*
X027193Y011588D02*
X025752Y011588D01*
X025752Y011586D02*
X027195Y011586D01*
X027200Y011578D02*
X025752Y011578D01*
X025752Y011576D02*
X027200Y011576D01*
X027200Y011573D02*
X025752Y011573D01*
X025752Y011571D02*
X027200Y011571D01*
X027200Y011568D02*
X025752Y011568D01*
X025752Y011566D02*
X027200Y011566D01*
X027200Y011564D02*
X025752Y011564D01*
X025752Y011561D02*
X027200Y011561D01*
X027200Y011559D02*
X025752Y011559D01*
X025752Y011556D02*
X027200Y011556D01*
X027200Y011554D02*
X025752Y011554D01*
X025752Y011551D02*
X027200Y011551D01*
X027200Y011549D02*
X025752Y011549D01*
X025752Y011547D02*
X027200Y011547D01*
X027200Y011544D02*
X025752Y011544D01*
X025752Y011542D02*
X027200Y011542D01*
X027200Y011539D02*
X025752Y011539D01*
X025752Y011537D02*
X027200Y011537D01*
X027200Y011534D02*
X025752Y011534D01*
X025752Y011532D02*
X027200Y011532D01*
X027200Y011529D02*
X025752Y011529D01*
X025752Y011527D02*
X027200Y011527D01*
X027200Y011525D02*
X025752Y011525D01*
X025752Y011522D02*
X027200Y011522D01*
X027200Y011520D02*
X025752Y011520D01*
X025752Y011517D02*
X027200Y011517D01*
X027200Y011515D02*
X025752Y011515D01*
X025752Y011512D02*
X027200Y011512D01*
X027200Y011510D02*
X025752Y011510D01*
X025752Y011508D02*
X027200Y011508D01*
X027200Y011505D02*
X025752Y011505D01*
X025752Y011503D02*
X027200Y011503D01*
X027200Y011500D02*
X025752Y011500D01*
X025752Y011498D02*
X027200Y011498D01*
X027200Y011495D02*
X025752Y011495D01*
X025752Y011493D02*
X027200Y011493D01*
X027200Y011490D02*
X025752Y011490D01*
X025752Y011488D02*
X027200Y011488D01*
X027200Y011486D02*
X025752Y011486D01*
X025752Y011483D02*
X027200Y011483D01*
X027200Y011481D02*
X025752Y011481D01*
X025752Y011478D02*
X027200Y011478D01*
X027200Y011476D02*
X025752Y011476D01*
X025752Y011473D02*
X027200Y011473D01*
X027200Y011471D02*
X025752Y011471D01*
X025752Y011469D02*
X027200Y011469D01*
X027200Y011466D02*
X025752Y011466D01*
X025752Y011464D02*
X027200Y011464D01*
X027200Y011461D02*
X025752Y011461D01*
X025752Y011459D02*
X027200Y011459D01*
X027200Y011456D02*
X025752Y011456D01*
X025752Y011454D02*
X027200Y011454D01*
X027200Y011451D02*
X025752Y011451D01*
X025752Y011449D02*
X027200Y011449D01*
X027200Y011447D02*
X025752Y011447D01*
X025752Y011444D02*
X027200Y011444D01*
X027200Y011442D02*
X025752Y011442D01*
X025752Y011439D02*
X027200Y011439D01*
X027200Y011437D02*
X025752Y011437D01*
X025752Y011434D02*
X027200Y011434D01*
X027200Y011432D02*
X025752Y011432D01*
X025752Y011430D02*
X027200Y011430D01*
X027200Y011427D02*
X025752Y011427D01*
X025752Y011425D02*
X027200Y011425D01*
X027200Y011422D02*
X025752Y011422D01*
X025752Y011420D02*
X027200Y011420D01*
X027200Y011417D02*
X025752Y011417D01*
X025752Y011415D02*
X027200Y011415D01*
X027200Y011412D02*
X025752Y011412D01*
X025752Y011410D02*
X027200Y011410D01*
X027200Y011408D02*
X025752Y011408D01*
X025752Y011405D02*
X027200Y011405D01*
X027200Y011403D02*
X025752Y011403D01*
X025752Y011400D02*
X027200Y011400D01*
X027200Y011398D02*
X025752Y011398D01*
X025752Y011395D02*
X027200Y011395D01*
X027200Y011393D02*
X025752Y011393D01*
X025752Y011391D02*
X027200Y011391D01*
X027200Y011388D02*
X025752Y011388D01*
X025752Y011386D02*
X027200Y011386D01*
X027200Y011383D02*
X025752Y011383D01*
X025752Y011381D02*
X027200Y011381D01*
X027200Y011378D02*
X025752Y011378D01*
X025752Y011376D02*
X027200Y011376D01*
X027200Y011373D02*
X025752Y011373D01*
X025752Y011371D02*
X027200Y011371D01*
X027200Y011369D02*
X025752Y011369D01*
X025752Y011366D02*
X027200Y011366D01*
X027200Y011364D02*
X025752Y011364D01*
X025752Y011361D02*
X027200Y011361D01*
X027200Y011359D02*
X025752Y011359D01*
X025752Y011356D02*
X027200Y011356D01*
X027200Y011354D02*
X025752Y011354D01*
X025752Y011352D02*
X027200Y011352D01*
D18*
X025045Y011100D03*
X024455Y011100D03*
X023945Y011100D03*
X023355Y011100D03*
X023355Y010500D03*
X023945Y010500D03*
X024045Y012400D03*
X023455Y012400D03*
X025255Y015100D03*
X025845Y015100D03*
X026955Y015100D03*
X027545Y015100D03*
X027545Y015800D03*
X026955Y015800D03*
X025845Y015800D03*
X025255Y015800D03*
X029055Y015800D03*
X029645Y015800D03*
X030655Y015800D03*
X031245Y015800D03*
X031245Y015100D03*
X030655Y015100D03*
X029645Y015100D03*
X029055Y015100D03*
X029655Y013200D03*
X030245Y013200D03*
X033555Y011800D03*
X034145Y011800D03*
X034755Y011800D03*
X035345Y011800D03*
X035345Y010800D03*
X034755Y010800D03*
X034145Y010800D03*
X033555Y010800D03*
X033555Y009800D03*
X034145Y009800D03*
X034755Y009800D03*
X035345Y009800D03*
X035345Y008800D03*
X034755Y008800D03*
X034145Y008800D03*
X033555Y008800D03*
X033555Y007800D03*
X034145Y007800D03*
X034755Y007800D03*
X035345Y007800D03*
X035345Y006800D03*
X034755Y006800D03*
X034145Y006800D03*
X033555Y006800D03*
X033555Y005800D03*
X034145Y005800D03*
X034755Y005800D03*
X035345Y005800D03*
X030545Y006100D03*
X029955Y006100D03*
X029955Y006900D03*
X030545Y006900D03*
X030545Y008600D03*
X029955Y008600D03*
X029955Y009600D03*
X030545Y009600D03*
X024845Y007000D03*
X024255Y007000D03*
X026755Y005200D03*
X027345Y005200D03*
X027345Y004400D03*
X026755Y004400D03*
X029555Y003600D03*
X030145Y003600D03*
X020645Y003200D03*
X020055Y003200D03*
X017245Y003200D03*
X016655Y003200D03*
X015845Y003200D03*
X015255Y003200D03*
X012545Y003900D03*
X011955Y003900D03*
X011955Y004900D03*
X012545Y004900D03*
X012545Y006400D03*
X011955Y006400D03*
X011955Y008000D03*
X012545Y008000D03*
X012545Y008600D03*
X011955Y008600D03*
X011955Y010600D03*
X012545Y010600D03*
X012545Y011300D03*
X011955Y011300D03*
X032755Y015100D03*
X033345Y015100D03*
X033345Y015800D03*
X032755Y015800D03*
X034355Y015800D03*
X034945Y015800D03*
X034945Y015100D03*
X034355Y015100D03*
D19*
X023450Y009095D03*
X023450Y008505D03*
X024450Y006095D03*
X025150Y006095D03*
X025150Y005505D03*
X024450Y005505D03*
X023450Y005305D03*
X023450Y005895D03*
X018750Y003295D03*
X018150Y003295D03*
X018150Y002705D03*
X018750Y002705D03*
X004250Y005005D03*
X004250Y005595D03*
X004250Y006805D03*
X004250Y007395D03*
X004250Y008605D03*
X004250Y009195D03*
X004250Y010505D03*
X004250Y011095D03*
X004250Y012405D03*
X004250Y012995D03*
X015850Y014005D03*
X016450Y014005D03*
X016450Y014595D03*
X015850Y014595D03*
X017650Y014595D03*
X017650Y014005D03*
X019550Y014005D03*
X020150Y014005D03*
X020750Y014005D03*
X021650Y014005D03*
X021650Y014595D03*
X020750Y014595D03*
X020150Y014595D03*
X019550Y014595D03*
D20*
X025144Y017100D03*
X026050Y017100D03*
X026956Y017100D03*
X028844Y017100D03*
X029750Y017100D03*
X030656Y017100D03*
X032544Y017100D03*
X033450Y017100D03*
X034356Y017100D03*
D21*
X033450Y019423D03*
X029750Y019423D03*
X026050Y019423D03*
D22*
X026546Y007550D03*
X026546Y007050D03*
X026546Y006550D03*
X026546Y006050D03*
X028554Y006050D03*
X028554Y006550D03*
X028554Y007050D03*
X028554Y007550D03*
D23*
X025075Y009795D03*
X025075Y010405D03*
X024425Y010405D03*
X024425Y009795D03*
D24*
X014462Y018363D03*
X013674Y018363D03*
X012887Y018363D03*
X012100Y018363D03*
X011312Y018363D03*
X010525Y018363D03*
X009737Y018363D03*
X008950Y018363D03*
X008163Y018363D03*
X007375Y018363D03*
X006588Y018363D03*
X005800Y018363D03*
X005013Y018363D03*
X004226Y018363D03*
X003438Y018363D03*
X003438Y020037D03*
X004226Y020037D03*
X005013Y020037D03*
X005800Y020037D03*
X006588Y020037D03*
X007375Y020037D03*
X008163Y020037D03*
X008950Y020037D03*
X009737Y020037D03*
X010525Y020037D03*
X011312Y020037D03*
X012100Y020037D03*
X012887Y020037D03*
X013674Y020037D03*
X014462Y020037D03*
D25*
X003367Y013123D03*
X001733Y013123D03*
X001733Y012277D03*
X003367Y012277D03*
X003367Y011223D03*
X001733Y011223D03*
X001733Y010377D03*
X003367Y010377D03*
X003367Y009323D03*
X001733Y009323D03*
X001733Y008477D03*
X003367Y008477D03*
X003367Y007523D03*
X001733Y007523D03*
X001733Y006677D03*
X003367Y006677D03*
X003367Y005723D03*
X001733Y005723D03*
X001733Y004877D03*
X003367Y004877D03*
D26*
X037400Y005800D03*
X037400Y006800D03*
X037400Y007800D03*
X037400Y008800D03*
X037400Y009800D03*
X037400Y010800D03*
X037400Y011800D03*
X040100Y011800D03*
X040100Y010800D03*
X040100Y009800D03*
X040100Y008800D03*
X040100Y007800D03*
X040100Y006800D03*
X040100Y005800D03*
D27*
X034413Y013450D03*
X032287Y013450D03*
D28*
X032450Y011550D03*
X031450Y011550D03*
X030450Y011550D03*
X009050Y011900D03*
X008050Y011900D03*
X008050Y010900D03*
X009050Y010900D03*
X009050Y009900D03*
X008050Y009900D03*
X008050Y008900D03*
X009050Y008900D03*
X009050Y007900D03*
X008050Y007900D03*
X008050Y006900D03*
X009050Y006900D03*
X009050Y005900D03*
X008050Y005900D03*
X008050Y004900D03*
X009050Y004900D03*
X009050Y003900D03*
X008050Y003900D03*
X008050Y012900D03*
X009050Y012900D03*
D29*
X028058Y005200D03*
X029042Y005200D03*
X029042Y004400D03*
X028058Y004400D03*
D30*
X040750Y004700D03*
X001450Y018600D03*
D31*
X021950Y004700D03*
D32*
X037048Y015261D02*
X038053Y015261D01*
X038053Y016820D02*
X037048Y016820D01*
X037048Y018380D02*
X038053Y018380D01*
D33*
X022419Y019000D03*
X021631Y019000D03*
X020844Y019000D03*
X020056Y019000D03*
X019269Y019000D03*
X018481Y019000D03*
D34*
X017537Y019945D03*
X023363Y019945D03*
D35*
X031264Y004889D03*
X031461Y004889D03*
X031658Y004889D03*
X031855Y004889D03*
X032052Y004889D03*
X032248Y004889D03*
X032445Y004889D03*
X032642Y004889D03*
X032839Y004889D03*
X033036Y004889D03*
X033233Y004495D03*
X032150Y004200D03*
X033233Y003905D03*
X033036Y003511D03*
X032839Y003511D03*
X032642Y003511D03*
X032445Y003511D03*
X032248Y003511D03*
X032052Y003511D03*
X031855Y003511D03*
X031658Y003511D03*
X031461Y003511D03*
X031264Y003511D03*
X031067Y003905D03*
X031067Y004495D03*
D36*
X031189Y004444D02*
X030914Y004444D01*
X030914Y004546D01*
X031189Y004546D01*
X031205Y004544D01*
X031219Y004537D01*
X031231Y004525D01*
X031238Y004511D01*
X030914Y004511D01*
X030914Y004505D02*
X031239Y004505D01*
X031238Y004511D02*
X031241Y004495D01*
X031238Y004479D01*
X030914Y004479D01*
X030914Y004473D02*
X031235Y004473D01*
X031238Y004479D02*
X031231Y004465D01*
X031219Y004454D01*
X030914Y004454D01*
X030914Y004460D02*
X031226Y004460D01*
X031231Y004466D02*
X030914Y004466D01*
X030914Y004447D02*
X031207Y004447D01*
X031205Y004447D02*
X031189Y004444D01*
X031205Y004447D02*
X031219Y004454D01*
X031239Y004486D02*
X030914Y004486D01*
X030914Y004492D02*
X031240Y004492D01*
X031240Y004498D02*
X030914Y004498D01*
X030914Y004517D02*
X031235Y004517D01*
X031232Y004524D02*
X030914Y004524D01*
X030914Y004530D02*
X031226Y004530D01*
X031220Y004537D02*
X030914Y004537D01*
X030914Y004543D02*
X031207Y004543D01*
X031357Y004543D02*
X032156Y004543D01*
X032156Y004549D02*
X031357Y004549D01*
X031357Y004556D02*
X032156Y004556D01*
X032156Y004562D02*
X031357Y004562D01*
X031357Y004568D02*
X032156Y004568D01*
X032156Y004575D02*
X031357Y004575D01*
X031357Y004581D02*
X032156Y004581D01*
X032156Y004588D02*
X031357Y004588D01*
X031357Y004594D02*
X032156Y004594D01*
X032156Y004600D02*
X032156Y003800D01*
X031357Y003800D01*
X031357Y004050D01*
X030914Y004050D01*
X030914Y004133D01*
X031199Y004133D01*
X031199Y004267D01*
X030914Y004267D01*
X030914Y004350D01*
X031357Y004350D01*
X031357Y004600D01*
X032156Y004600D01*
X032144Y004600D02*
X032144Y003800D01*
X032943Y003800D01*
X032943Y004050D01*
X033386Y004050D01*
X033386Y004133D01*
X033101Y004133D01*
X033101Y004267D01*
X033386Y004267D01*
X033386Y004350D01*
X032943Y004350D01*
X032943Y004600D01*
X032144Y004600D01*
X032144Y004594D02*
X032943Y004594D01*
X032943Y004588D02*
X032144Y004588D01*
X032144Y004581D02*
X032943Y004581D01*
X032943Y004575D02*
X032144Y004575D01*
X032144Y004568D02*
X032943Y004568D01*
X032943Y004562D02*
X032144Y004562D01*
X032144Y004556D02*
X032943Y004556D01*
X032943Y004549D02*
X032144Y004549D01*
X032144Y004543D02*
X032943Y004543D01*
X032943Y004537D02*
X032144Y004537D01*
X032144Y004530D02*
X032943Y004530D01*
X032943Y004524D02*
X032144Y004524D01*
X032144Y004517D02*
X032943Y004517D01*
X032943Y004511D02*
X032144Y004511D01*
X032144Y004505D02*
X032943Y004505D01*
X032943Y004498D02*
X032144Y004498D01*
X032144Y004492D02*
X032943Y004492D01*
X032943Y004486D02*
X032144Y004486D01*
X032144Y004479D02*
X032943Y004479D01*
X032943Y004473D02*
X032144Y004473D01*
X032144Y004466D02*
X032943Y004466D01*
X032943Y004460D02*
X032144Y004460D01*
X032144Y004454D02*
X032943Y004454D01*
X032943Y004447D02*
X032144Y004447D01*
X032144Y004441D02*
X032943Y004441D01*
X032943Y004435D02*
X032144Y004435D01*
X032144Y004428D02*
X032943Y004428D01*
X032943Y004422D02*
X032144Y004422D01*
X032144Y004415D02*
X032943Y004415D01*
X032943Y004409D02*
X032144Y004409D01*
X032144Y004403D02*
X032943Y004403D01*
X032943Y004396D02*
X032144Y004396D01*
X032144Y004390D02*
X032943Y004390D01*
X032943Y004384D02*
X032144Y004384D01*
X032144Y004377D02*
X032943Y004377D01*
X032943Y004371D02*
X032144Y004371D01*
X032144Y004364D02*
X032943Y004364D01*
X032943Y004358D02*
X032144Y004358D01*
X032144Y004352D02*
X032943Y004352D01*
X033069Y004465D02*
X033062Y004479D01*
X033386Y004479D01*
X033386Y004473D02*
X033065Y004473D01*
X033062Y004479D02*
X033059Y004495D01*
X033062Y004511D01*
X033386Y004511D01*
X033386Y004505D02*
X033061Y004505D01*
X033062Y004511D02*
X033069Y004525D01*
X033081Y004537D01*
X033095Y004544D01*
X033111Y004546D01*
X033386Y004546D01*
X033386Y004444D01*
X033111Y004444D01*
X033095Y004447D01*
X033081Y004454D01*
X033386Y004454D01*
X033386Y004460D02*
X033074Y004460D01*
X033069Y004465D02*
X033081Y004454D01*
X033093Y004447D02*
X033386Y004447D01*
X033386Y004466D02*
X033069Y004466D01*
X033061Y004486D02*
X033386Y004486D01*
X033386Y004492D02*
X033060Y004492D01*
X033060Y004498D02*
X033386Y004498D01*
X033386Y004517D02*
X033065Y004517D01*
X033068Y004524D02*
X033386Y004524D01*
X033386Y004530D02*
X033074Y004530D01*
X033080Y004537D02*
X033386Y004537D01*
X033386Y004543D02*
X033093Y004543D01*
X033052Y004718D02*
X033036Y004716D01*
X033020Y004718D01*
X033006Y004726D01*
X032994Y004737D01*
X032987Y004751D01*
X032985Y004767D01*
X032985Y005043D01*
X033087Y005043D01*
X033087Y004767D01*
X033085Y004751D01*
X033077Y004737D01*
X033066Y004726D01*
X033052Y004718D01*
X033058Y004721D02*
X033014Y004721D01*
X033003Y004728D02*
X033068Y004728D01*
X033075Y004734D02*
X032997Y004734D01*
X032993Y004741D02*
X033079Y004741D01*
X033082Y004747D02*
X032989Y004747D01*
X032987Y004753D02*
X033085Y004753D01*
X033086Y004760D02*
X032986Y004760D01*
X032985Y004766D02*
X033087Y004766D01*
X033087Y004772D02*
X032985Y004772D01*
X032985Y004779D02*
X033087Y004779D01*
X033087Y004785D02*
X032985Y004785D01*
X032985Y004792D02*
X033087Y004792D01*
X033087Y004798D02*
X032985Y004798D01*
X032985Y004804D02*
X033087Y004804D01*
X033087Y004811D02*
X032985Y004811D01*
X032985Y004817D02*
X033087Y004817D01*
X033087Y004823D02*
X032985Y004823D01*
X032985Y004830D02*
X033087Y004830D01*
X033087Y004836D02*
X032985Y004836D01*
X032985Y004843D02*
X033087Y004843D01*
X033087Y004849D02*
X032985Y004849D01*
X032985Y004855D02*
X033087Y004855D01*
X033087Y004862D02*
X032985Y004862D01*
X032985Y004868D02*
X033087Y004868D01*
X033087Y004874D02*
X032985Y004874D01*
X032985Y004881D02*
X033087Y004881D01*
X033087Y004887D02*
X032985Y004887D01*
X032985Y004894D02*
X033087Y004894D01*
X033087Y004900D02*
X032985Y004900D01*
X032985Y004906D02*
X033087Y004906D01*
X033087Y004913D02*
X032985Y004913D01*
X032985Y004919D02*
X033087Y004919D01*
X033087Y004925D02*
X032985Y004925D01*
X032985Y004932D02*
X033087Y004932D01*
X033087Y004938D02*
X032985Y004938D01*
X032985Y004944D02*
X033087Y004944D01*
X033087Y004951D02*
X032985Y004951D01*
X032985Y004957D02*
X033087Y004957D01*
X033087Y004964D02*
X032985Y004964D01*
X032985Y004970D02*
X033087Y004970D01*
X033087Y004976D02*
X032985Y004976D01*
X032985Y004983D02*
X033087Y004983D01*
X033087Y004989D02*
X032985Y004989D01*
X032985Y004995D02*
X033087Y004995D01*
X033087Y005002D02*
X032985Y005002D01*
X032985Y005008D02*
X033087Y005008D01*
X033087Y005015D02*
X032985Y005015D01*
X032985Y005021D02*
X033087Y005021D01*
X033087Y005027D02*
X032985Y005027D01*
X032985Y005034D02*
X033087Y005034D01*
X033087Y005040D02*
X032985Y005040D01*
X032890Y005040D02*
X032788Y005040D01*
X032788Y005043D02*
X032788Y004767D01*
X032790Y004751D01*
X032798Y004737D01*
X032809Y004726D01*
X032823Y004718D01*
X032839Y004716D01*
X032855Y004718D01*
X032869Y004726D01*
X032880Y004737D01*
X032888Y004751D01*
X032890Y004767D01*
X032890Y005043D01*
X032788Y005043D01*
X032788Y005034D02*
X032890Y005034D01*
X032890Y005027D02*
X032788Y005027D01*
X032788Y005021D02*
X032890Y005021D01*
X032890Y005015D02*
X032788Y005015D01*
X032788Y005008D02*
X032890Y005008D01*
X032890Y005002D02*
X032788Y005002D01*
X032788Y004995D02*
X032890Y004995D01*
X032890Y004989D02*
X032788Y004989D01*
X032788Y004983D02*
X032890Y004983D01*
X032890Y004976D02*
X032788Y004976D01*
X032788Y004970D02*
X032890Y004970D01*
X032890Y004964D02*
X032788Y004964D01*
X032788Y004957D02*
X032890Y004957D01*
X032890Y004951D02*
X032788Y004951D01*
X032788Y004944D02*
X032890Y004944D01*
X032890Y004938D02*
X032788Y004938D01*
X032788Y004932D02*
X032890Y004932D01*
X032890Y004925D02*
X032788Y004925D01*
X032788Y004919D02*
X032890Y004919D01*
X032890Y004913D02*
X032788Y004913D01*
X032788Y004906D02*
X032890Y004906D01*
X032890Y004900D02*
X032788Y004900D01*
X032788Y004894D02*
X032890Y004894D01*
X032890Y004887D02*
X032788Y004887D01*
X032788Y004881D02*
X032890Y004881D01*
X032890Y004874D02*
X032788Y004874D01*
X032788Y004868D02*
X032890Y004868D01*
X032890Y004862D02*
X032788Y004862D01*
X032788Y004855D02*
X032890Y004855D01*
X032890Y004849D02*
X032788Y004849D01*
X032788Y004843D02*
X032890Y004843D01*
X032890Y004836D02*
X032788Y004836D01*
X032788Y004830D02*
X032890Y004830D01*
X032890Y004823D02*
X032788Y004823D01*
X032788Y004817D02*
X032890Y004817D01*
X032890Y004811D02*
X032788Y004811D01*
X032788Y004804D02*
X032890Y004804D01*
X032890Y004798D02*
X032788Y004798D01*
X032788Y004792D02*
X032890Y004792D01*
X032890Y004785D02*
X032788Y004785D01*
X032788Y004779D02*
X032890Y004779D01*
X032890Y004772D02*
X032788Y004772D01*
X032788Y004766D02*
X032890Y004766D01*
X032889Y004760D02*
X032789Y004760D01*
X032790Y004753D02*
X032888Y004753D01*
X032886Y004747D02*
X032792Y004747D01*
X032796Y004741D02*
X032882Y004741D01*
X032878Y004734D02*
X032800Y004734D01*
X032807Y004728D02*
X032871Y004728D01*
X032861Y004721D02*
X032817Y004721D01*
X032691Y004751D02*
X032684Y004737D01*
X032672Y004726D01*
X032658Y004718D01*
X032642Y004716D01*
X032626Y004718D01*
X032612Y004726D01*
X032601Y004737D01*
X032593Y004751D01*
X032591Y004767D01*
X032591Y005043D01*
X032693Y005043D01*
X032693Y004767D01*
X032691Y004751D01*
X032691Y004753D02*
X032593Y004753D01*
X032596Y004747D02*
X032689Y004747D01*
X032685Y004741D02*
X032599Y004741D01*
X032603Y004734D02*
X032681Y004734D01*
X032674Y004728D02*
X032610Y004728D01*
X032620Y004721D02*
X032664Y004721D01*
X032692Y004760D02*
X032592Y004760D01*
X032591Y004766D02*
X032693Y004766D01*
X032693Y004772D02*
X032591Y004772D01*
X032591Y004779D02*
X032693Y004779D01*
X032693Y004785D02*
X032591Y004785D01*
X032591Y004792D02*
X032693Y004792D01*
X032693Y004798D02*
X032591Y004798D01*
X032591Y004804D02*
X032693Y004804D01*
X032693Y004811D02*
X032591Y004811D01*
X032591Y004817D02*
X032693Y004817D01*
X032693Y004823D02*
X032591Y004823D01*
X032591Y004830D02*
X032693Y004830D01*
X032693Y004836D02*
X032591Y004836D01*
X032591Y004843D02*
X032693Y004843D01*
X032693Y004849D02*
X032591Y004849D01*
X032591Y004855D02*
X032693Y004855D01*
X032693Y004862D02*
X032591Y004862D01*
X032591Y004868D02*
X032693Y004868D01*
X032693Y004874D02*
X032591Y004874D01*
X032591Y004881D02*
X032693Y004881D01*
X032693Y004887D02*
X032591Y004887D01*
X032591Y004894D02*
X032693Y004894D01*
X032693Y004900D02*
X032591Y004900D01*
X032591Y004906D02*
X032693Y004906D01*
X032693Y004913D02*
X032591Y004913D01*
X032591Y004919D02*
X032693Y004919D01*
X032693Y004925D02*
X032591Y004925D01*
X032591Y004932D02*
X032693Y004932D01*
X032693Y004938D02*
X032591Y004938D01*
X032591Y004944D02*
X032693Y004944D01*
X032693Y004951D02*
X032591Y004951D01*
X032591Y004957D02*
X032693Y004957D01*
X032693Y004964D02*
X032591Y004964D01*
X032591Y004970D02*
X032693Y004970D01*
X032693Y004976D02*
X032591Y004976D01*
X032591Y004983D02*
X032693Y004983D01*
X032693Y004989D02*
X032591Y004989D01*
X032591Y004995D02*
X032693Y004995D01*
X032693Y005002D02*
X032591Y005002D01*
X032591Y005008D02*
X032693Y005008D01*
X032693Y005015D02*
X032591Y005015D01*
X032591Y005021D02*
X032693Y005021D01*
X032693Y005027D02*
X032591Y005027D01*
X032591Y005034D02*
X032693Y005034D01*
X032693Y005040D02*
X032591Y005040D01*
X032496Y005040D02*
X032394Y005040D01*
X032394Y005043D02*
X032394Y004767D01*
X032397Y004751D01*
X032404Y004737D01*
X032415Y004726D01*
X032429Y004718D01*
X032445Y004716D01*
X032461Y004718D01*
X032475Y004726D01*
X032487Y004737D01*
X032494Y004751D01*
X032496Y004767D01*
X032496Y005043D01*
X032394Y005043D01*
X032394Y005034D02*
X032496Y005034D01*
X032496Y005027D02*
X032394Y005027D01*
X032394Y005021D02*
X032496Y005021D01*
X032496Y005015D02*
X032394Y005015D01*
X032394Y005008D02*
X032496Y005008D01*
X032496Y005002D02*
X032394Y005002D01*
X032394Y004995D02*
X032496Y004995D01*
X032496Y004989D02*
X032394Y004989D01*
X032394Y004983D02*
X032496Y004983D01*
X032496Y004976D02*
X032394Y004976D01*
X032394Y004970D02*
X032496Y004970D01*
X032496Y004964D02*
X032394Y004964D01*
X032394Y004957D02*
X032496Y004957D01*
X032496Y004951D02*
X032394Y004951D01*
X032394Y004944D02*
X032496Y004944D01*
X032496Y004938D02*
X032394Y004938D01*
X032394Y004932D02*
X032496Y004932D01*
X032496Y004925D02*
X032394Y004925D01*
X032394Y004919D02*
X032496Y004919D01*
X032496Y004913D02*
X032394Y004913D01*
X032394Y004906D02*
X032496Y004906D01*
X032496Y004900D02*
X032394Y004900D01*
X032394Y004894D02*
X032496Y004894D01*
X032496Y004887D02*
X032394Y004887D01*
X032394Y004881D02*
X032496Y004881D01*
X032496Y004874D02*
X032394Y004874D01*
X032394Y004868D02*
X032496Y004868D01*
X032496Y004862D02*
X032394Y004862D01*
X032394Y004855D02*
X032496Y004855D01*
X032496Y004849D02*
X032394Y004849D01*
X032394Y004843D02*
X032496Y004843D01*
X032496Y004836D02*
X032394Y004836D01*
X032394Y004830D02*
X032496Y004830D01*
X032496Y004823D02*
X032394Y004823D01*
X032394Y004817D02*
X032496Y004817D01*
X032496Y004811D02*
X032394Y004811D01*
X032394Y004804D02*
X032496Y004804D01*
X032496Y004798D02*
X032394Y004798D01*
X032394Y004792D02*
X032496Y004792D01*
X032496Y004785D02*
X032394Y004785D01*
X032394Y004779D02*
X032496Y004779D01*
X032496Y004772D02*
X032394Y004772D01*
X032394Y004766D02*
X032496Y004766D01*
X032495Y004760D02*
X032395Y004760D01*
X032396Y004753D02*
X032494Y004753D01*
X032492Y004747D02*
X032399Y004747D01*
X032402Y004741D02*
X032489Y004741D01*
X032484Y004734D02*
X032407Y004734D01*
X032413Y004728D02*
X032478Y004728D01*
X032467Y004721D02*
X032423Y004721D01*
X032297Y004751D02*
X032290Y004737D01*
X032279Y004726D01*
X032264Y004718D01*
X032248Y004716D01*
X032233Y004718D01*
X032218Y004726D01*
X032207Y004737D01*
X032200Y004751D01*
X032197Y004767D01*
X032197Y005043D01*
X032300Y005043D01*
X032300Y004767D01*
X032297Y004751D01*
X032297Y004753D02*
X032199Y004753D01*
X032198Y004760D02*
X032298Y004760D01*
X032299Y004766D02*
X032197Y004766D01*
X032197Y004772D02*
X032300Y004772D01*
X032300Y004779D02*
X032197Y004779D01*
X032197Y004785D02*
X032300Y004785D01*
X032300Y004792D02*
X032197Y004792D01*
X032197Y004798D02*
X032300Y004798D01*
X032300Y004804D02*
X032197Y004804D01*
X032197Y004811D02*
X032300Y004811D01*
X032300Y004817D02*
X032197Y004817D01*
X032197Y004823D02*
X032300Y004823D01*
X032300Y004830D02*
X032197Y004830D01*
X032197Y004836D02*
X032300Y004836D01*
X032300Y004843D02*
X032197Y004843D01*
X032197Y004849D02*
X032300Y004849D01*
X032300Y004855D02*
X032197Y004855D01*
X032197Y004862D02*
X032300Y004862D01*
X032300Y004868D02*
X032197Y004868D01*
X032197Y004874D02*
X032300Y004874D01*
X032300Y004881D02*
X032197Y004881D01*
X032197Y004887D02*
X032300Y004887D01*
X032300Y004894D02*
X032197Y004894D01*
X032197Y004900D02*
X032300Y004900D01*
X032300Y004906D02*
X032197Y004906D01*
X032197Y004913D02*
X032300Y004913D01*
X032300Y004919D02*
X032197Y004919D01*
X032197Y004925D02*
X032300Y004925D01*
X032300Y004932D02*
X032197Y004932D01*
X032197Y004938D02*
X032300Y004938D01*
X032300Y004944D02*
X032197Y004944D01*
X032197Y004951D02*
X032300Y004951D01*
X032300Y004957D02*
X032197Y004957D01*
X032197Y004964D02*
X032300Y004964D01*
X032300Y004970D02*
X032197Y004970D01*
X032197Y004976D02*
X032300Y004976D01*
X032300Y004983D02*
X032197Y004983D01*
X032197Y004989D02*
X032300Y004989D01*
X032300Y004995D02*
X032197Y004995D01*
X032197Y005002D02*
X032300Y005002D01*
X032300Y005008D02*
X032197Y005008D01*
X032197Y005015D02*
X032300Y005015D01*
X032300Y005021D02*
X032197Y005021D01*
X032197Y005027D02*
X032300Y005027D01*
X032300Y005034D02*
X032197Y005034D01*
X032197Y005040D02*
X032300Y005040D01*
X032103Y005040D02*
X032000Y005040D01*
X032000Y005043D02*
X032000Y004767D01*
X032003Y004751D01*
X032010Y004737D01*
X032021Y004726D01*
X032036Y004718D01*
X032052Y004716D01*
X032067Y004718D01*
X032082Y004726D01*
X032093Y004737D01*
X032100Y004751D01*
X032103Y004767D01*
X032103Y005043D01*
X032000Y005043D01*
X032000Y005034D02*
X032103Y005034D01*
X032103Y005027D02*
X032000Y005027D01*
X032000Y005021D02*
X032103Y005021D01*
X032103Y005015D02*
X032000Y005015D01*
X032000Y005008D02*
X032103Y005008D01*
X032103Y005002D02*
X032000Y005002D01*
X032000Y004995D02*
X032103Y004995D01*
X032103Y004989D02*
X032000Y004989D01*
X032000Y004983D02*
X032103Y004983D01*
X032103Y004976D02*
X032000Y004976D01*
X032000Y004970D02*
X032103Y004970D01*
X032103Y004964D02*
X032000Y004964D01*
X032000Y004957D02*
X032103Y004957D01*
X032103Y004951D02*
X032000Y004951D01*
X032000Y004944D02*
X032103Y004944D01*
X032103Y004938D02*
X032000Y004938D01*
X032000Y004932D02*
X032103Y004932D01*
X032103Y004925D02*
X032000Y004925D01*
X032000Y004919D02*
X032103Y004919D01*
X032103Y004913D02*
X032000Y004913D01*
X032000Y004906D02*
X032103Y004906D01*
X032103Y004900D02*
X032000Y004900D01*
X032000Y004894D02*
X032103Y004894D01*
X032103Y004887D02*
X032000Y004887D01*
X032000Y004881D02*
X032103Y004881D01*
X032103Y004874D02*
X032000Y004874D01*
X032000Y004868D02*
X032103Y004868D01*
X032103Y004862D02*
X032000Y004862D01*
X032000Y004855D02*
X032103Y004855D01*
X032103Y004849D02*
X032000Y004849D01*
X032000Y004843D02*
X032103Y004843D01*
X032103Y004836D02*
X032000Y004836D01*
X032000Y004830D02*
X032103Y004830D01*
X032103Y004823D02*
X032000Y004823D01*
X032000Y004817D02*
X032103Y004817D01*
X032103Y004811D02*
X032000Y004811D01*
X032000Y004804D02*
X032103Y004804D01*
X032103Y004798D02*
X032000Y004798D01*
X032000Y004792D02*
X032103Y004792D01*
X032103Y004785D02*
X032000Y004785D01*
X032000Y004779D02*
X032103Y004779D01*
X032103Y004772D02*
X032000Y004772D01*
X032001Y004766D02*
X032103Y004766D01*
X032102Y004760D02*
X032002Y004760D01*
X032003Y004753D02*
X032101Y004753D01*
X032098Y004747D02*
X032005Y004747D01*
X032008Y004741D02*
X032095Y004741D01*
X032090Y004734D02*
X032013Y004734D01*
X032019Y004728D02*
X032084Y004728D01*
X032074Y004721D02*
X032030Y004721D01*
X031903Y004751D02*
X031896Y004737D01*
X031885Y004726D01*
X031871Y004718D01*
X031855Y004716D01*
X031839Y004718D01*
X031825Y004726D01*
X031813Y004737D01*
X031806Y004751D01*
X031804Y004767D01*
X031804Y005043D01*
X031906Y005043D01*
X031906Y004767D01*
X031903Y004751D01*
X031904Y004753D02*
X031806Y004753D01*
X031808Y004747D02*
X031901Y004747D01*
X031898Y004741D02*
X031811Y004741D01*
X031816Y004734D02*
X031893Y004734D01*
X031887Y004728D02*
X031822Y004728D01*
X031833Y004721D02*
X031877Y004721D01*
X031905Y004760D02*
X031805Y004760D01*
X031804Y004766D02*
X031906Y004766D01*
X031906Y004772D02*
X031804Y004772D01*
X031804Y004779D02*
X031906Y004779D01*
X031906Y004785D02*
X031804Y004785D01*
X031804Y004792D02*
X031906Y004792D01*
X031906Y004798D02*
X031804Y004798D01*
X031804Y004804D02*
X031906Y004804D01*
X031906Y004811D02*
X031804Y004811D01*
X031804Y004817D02*
X031906Y004817D01*
X031906Y004823D02*
X031804Y004823D01*
X031804Y004830D02*
X031906Y004830D01*
X031906Y004836D02*
X031804Y004836D01*
X031804Y004843D02*
X031906Y004843D01*
X031906Y004849D02*
X031804Y004849D01*
X031804Y004855D02*
X031906Y004855D01*
X031906Y004862D02*
X031804Y004862D01*
X031804Y004868D02*
X031906Y004868D01*
X031906Y004874D02*
X031804Y004874D01*
X031804Y004881D02*
X031906Y004881D01*
X031906Y004887D02*
X031804Y004887D01*
X031804Y004894D02*
X031906Y004894D01*
X031906Y004900D02*
X031804Y004900D01*
X031804Y004906D02*
X031906Y004906D01*
X031906Y004913D02*
X031804Y004913D01*
X031804Y004919D02*
X031906Y004919D01*
X031906Y004925D02*
X031804Y004925D01*
X031804Y004932D02*
X031906Y004932D01*
X031906Y004938D02*
X031804Y004938D01*
X031804Y004944D02*
X031906Y004944D01*
X031906Y004951D02*
X031804Y004951D01*
X031804Y004957D02*
X031906Y004957D01*
X031906Y004964D02*
X031804Y004964D01*
X031804Y004970D02*
X031906Y004970D01*
X031906Y004976D02*
X031804Y004976D01*
X031804Y004983D02*
X031906Y004983D01*
X031906Y004989D02*
X031804Y004989D01*
X031804Y004995D02*
X031906Y004995D01*
X031906Y005002D02*
X031804Y005002D01*
X031804Y005008D02*
X031906Y005008D01*
X031906Y005015D02*
X031804Y005015D01*
X031804Y005021D02*
X031906Y005021D01*
X031906Y005027D02*
X031804Y005027D01*
X031804Y005034D02*
X031906Y005034D01*
X031906Y005040D02*
X031804Y005040D01*
X031709Y005040D02*
X031607Y005040D01*
X031607Y005043D02*
X031607Y004767D01*
X031609Y004751D01*
X031616Y004737D01*
X031628Y004726D01*
X031642Y004718D01*
X031658Y004716D01*
X031674Y004718D01*
X031688Y004726D01*
X031699Y004737D01*
X031707Y004751D01*
X031709Y004767D01*
X031709Y005043D01*
X031607Y005043D01*
X031607Y005034D02*
X031709Y005034D01*
X031709Y005027D02*
X031607Y005027D01*
X031607Y005021D02*
X031709Y005021D01*
X031709Y005015D02*
X031607Y005015D01*
X031607Y005008D02*
X031709Y005008D01*
X031709Y005002D02*
X031607Y005002D01*
X031607Y004995D02*
X031709Y004995D01*
X031709Y004989D02*
X031607Y004989D01*
X031607Y004983D02*
X031709Y004983D01*
X031709Y004976D02*
X031607Y004976D01*
X031607Y004970D02*
X031709Y004970D01*
X031709Y004964D02*
X031607Y004964D01*
X031607Y004957D02*
X031709Y004957D01*
X031709Y004951D02*
X031607Y004951D01*
X031607Y004944D02*
X031709Y004944D01*
X031709Y004938D02*
X031607Y004938D01*
X031607Y004932D02*
X031709Y004932D01*
X031709Y004925D02*
X031607Y004925D01*
X031607Y004919D02*
X031709Y004919D01*
X031709Y004913D02*
X031607Y004913D01*
X031607Y004906D02*
X031709Y004906D01*
X031709Y004900D02*
X031607Y004900D01*
X031607Y004894D02*
X031709Y004894D01*
X031709Y004887D02*
X031607Y004887D01*
X031607Y004881D02*
X031709Y004881D01*
X031709Y004874D02*
X031607Y004874D01*
X031607Y004868D02*
X031709Y004868D01*
X031709Y004862D02*
X031607Y004862D01*
X031607Y004855D02*
X031709Y004855D01*
X031709Y004849D02*
X031607Y004849D01*
X031607Y004843D02*
X031709Y004843D01*
X031709Y004836D02*
X031607Y004836D01*
X031607Y004830D02*
X031709Y004830D01*
X031709Y004823D02*
X031607Y004823D01*
X031607Y004817D02*
X031709Y004817D01*
X031709Y004811D02*
X031607Y004811D01*
X031607Y004804D02*
X031709Y004804D01*
X031709Y004798D02*
X031607Y004798D01*
X031607Y004792D02*
X031709Y004792D01*
X031709Y004785D02*
X031607Y004785D01*
X031607Y004779D02*
X031709Y004779D01*
X031709Y004772D02*
X031607Y004772D01*
X031607Y004766D02*
X031709Y004766D01*
X031708Y004760D02*
X031608Y004760D01*
X031609Y004753D02*
X031707Y004753D01*
X031704Y004747D02*
X031611Y004747D01*
X031615Y004741D02*
X031701Y004741D01*
X031697Y004734D02*
X031619Y004734D01*
X031626Y004728D02*
X031690Y004728D01*
X031680Y004721D02*
X031636Y004721D01*
X031510Y004751D02*
X031502Y004737D01*
X031491Y004726D01*
X031477Y004718D01*
X031461Y004716D01*
X031445Y004718D01*
X031431Y004726D01*
X031420Y004737D01*
X031412Y004751D01*
X031410Y004767D01*
X031410Y005043D01*
X031512Y005043D01*
X031512Y004767D01*
X031510Y004751D01*
X031510Y004753D02*
X031412Y004753D01*
X031414Y004747D02*
X031508Y004747D01*
X031504Y004741D02*
X031418Y004741D01*
X031422Y004734D02*
X031500Y004734D01*
X031493Y004728D02*
X031429Y004728D01*
X031439Y004721D02*
X031483Y004721D01*
X031511Y004760D02*
X031411Y004760D01*
X031410Y004766D02*
X031512Y004766D01*
X031512Y004772D02*
X031410Y004772D01*
X031410Y004779D02*
X031512Y004779D01*
X031512Y004785D02*
X031410Y004785D01*
X031410Y004792D02*
X031512Y004792D01*
X031512Y004798D02*
X031410Y004798D01*
X031410Y004804D02*
X031512Y004804D01*
X031512Y004811D02*
X031410Y004811D01*
X031410Y004817D02*
X031512Y004817D01*
X031512Y004823D02*
X031410Y004823D01*
X031410Y004830D02*
X031512Y004830D01*
X031512Y004836D02*
X031410Y004836D01*
X031410Y004843D02*
X031512Y004843D01*
X031512Y004849D02*
X031410Y004849D01*
X031410Y004855D02*
X031512Y004855D01*
X031512Y004862D02*
X031410Y004862D01*
X031410Y004868D02*
X031512Y004868D01*
X031512Y004874D02*
X031410Y004874D01*
X031410Y004881D02*
X031512Y004881D01*
X031512Y004887D02*
X031410Y004887D01*
X031410Y004894D02*
X031512Y004894D01*
X031512Y004900D02*
X031410Y004900D01*
X031410Y004906D02*
X031512Y004906D01*
X031512Y004913D02*
X031410Y004913D01*
X031410Y004919D02*
X031512Y004919D01*
X031512Y004925D02*
X031410Y004925D01*
X031410Y004932D02*
X031512Y004932D01*
X031512Y004938D02*
X031410Y004938D01*
X031410Y004944D02*
X031512Y004944D01*
X031512Y004951D02*
X031410Y004951D01*
X031410Y004957D02*
X031512Y004957D01*
X031512Y004964D02*
X031410Y004964D01*
X031410Y004970D02*
X031512Y004970D01*
X031512Y004976D02*
X031410Y004976D01*
X031410Y004983D02*
X031512Y004983D01*
X031512Y004989D02*
X031410Y004989D01*
X031410Y004995D02*
X031512Y004995D01*
X031512Y005002D02*
X031410Y005002D01*
X031410Y005008D02*
X031512Y005008D01*
X031512Y005015D02*
X031410Y005015D01*
X031410Y005021D02*
X031512Y005021D01*
X031512Y005027D02*
X031410Y005027D01*
X031410Y005034D02*
X031512Y005034D01*
X031512Y005040D02*
X031410Y005040D01*
X031315Y005040D02*
X031213Y005040D01*
X031213Y005043D02*
X031213Y004767D01*
X031215Y004751D01*
X031223Y004737D01*
X031234Y004726D01*
X031248Y004718D01*
X031264Y004716D01*
X031280Y004718D01*
X031294Y004726D01*
X031306Y004737D01*
X031313Y004751D01*
X031315Y004767D01*
X031315Y005043D01*
X031213Y005043D01*
X031213Y005034D02*
X031315Y005034D01*
X031315Y005027D02*
X031213Y005027D01*
X031213Y005021D02*
X031315Y005021D01*
X031315Y005015D02*
X031213Y005015D01*
X031213Y005008D02*
X031315Y005008D01*
X031315Y005002D02*
X031213Y005002D01*
X031213Y004995D02*
X031315Y004995D01*
X031315Y004989D02*
X031213Y004989D01*
X031213Y004983D02*
X031315Y004983D01*
X031315Y004976D02*
X031213Y004976D01*
X031213Y004970D02*
X031315Y004970D01*
X031315Y004964D02*
X031213Y004964D01*
X031213Y004957D02*
X031315Y004957D01*
X031315Y004951D02*
X031213Y004951D01*
X031213Y004944D02*
X031315Y004944D01*
X031315Y004938D02*
X031213Y004938D01*
X031213Y004932D02*
X031315Y004932D01*
X031315Y004925D02*
X031213Y004925D01*
X031213Y004919D02*
X031315Y004919D01*
X031315Y004913D02*
X031213Y004913D01*
X031213Y004906D02*
X031315Y004906D01*
X031315Y004900D02*
X031213Y004900D01*
X031213Y004894D02*
X031315Y004894D01*
X031315Y004887D02*
X031213Y004887D01*
X031213Y004881D02*
X031315Y004881D01*
X031315Y004874D02*
X031213Y004874D01*
X031213Y004868D02*
X031315Y004868D01*
X031315Y004862D02*
X031213Y004862D01*
X031213Y004855D02*
X031315Y004855D01*
X031315Y004849D02*
X031213Y004849D01*
X031213Y004843D02*
X031315Y004843D01*
X031315Y004836D02*
X031213Y004836D01*
X031213Y004830D02*
X031315Y004830D01*
X031315Y004823D02*
X031213Y004823D01*
X031213Y004817D02*
X031315Y004817D01*
X031315Y004811D02*
X031213Y004811D01*
X031213Y004804D02*
X031315Y004804D01*
X031315Y004798D02*
X031213Y004798D01*
X031213Y004792D02*
X031315Y004792D01*
X031315Y004785D02*
X031213Y004785D01*
X031213Y004779D02*
X031315Y004779D01*
X031315Y004772D02*
X031213Y004772D01*
X031213Y004766D02*
X031315Y004766D01*
X031314Y004760D02*
X031214Y004760D01*
X031215Y004753D02*
X031313Y004753D01*
X031311Y004747D02*
X031218Y004747D01*
X031221Y004741D02*
X031307Y004741D01*
X031303Y004734D02*
X031225Y004734D01*
X031232Y004728D02*
X031297Y004728D01*
X031286Y004721D02*
X031242Y004721D01*
X031357Y004537D02*
X032156Y004537D01*
X032156Y004530D02*
X031357Y004530D01*
X031357Y004524D02*
X032156Y004524D01*
X032156Y004517D02*
X031357Y004517D01*
X031357Y004511D02*
X032156Y004511D01*
X032156Y004505D02*
X031357Y004505D01*
X031357Y004498D02*
X032156Y004498D01*
X032156Y004492D02*
X031357Y004492D01*
X031357Y004486D02*
X032156Y004486D01*
X032156Y004479D02*
X031357Y004479D01*
X031357Y004473D02*
X032156Y004473D01*
X032156Y004466D02*
X031357Y004466D01*
X031357Y004460D02*
X032156Y004460D01*
X032156Y004454D02*
X031357Y004454D01*
X031357Y004447D02*
X032156Y004447D01*
X032156Y004441D02*
X031357Y004441D01*
X031357Y004435D02*
X032156Y004435D01*
X032156Y004428D02*
X031357Y004428D01*
X031357Y004422D02*
X032156Y004422D01*
X032156Y004415D02*
X031357Y004415D01*
X031357Y004409D02*
X032156Y004409D01*
X032156Y004403D02*
X031357Y004403D01*
X031357Y004396D02*
X032156Y004396D01*
X032156Y004390D02*
X031357Y004390D01*
X031357Y004384D02*
X032156Y004384D01*
X032156Y004377D02*
X031357Y004377D01*
X031357Y004371D02*
X032156Y004371D01*
X032156Y004364D02*
X031357Y004364D01*
X031357Y004358D02*
X032156Y004358D01*
X032156Y004352D02*
X031357Y004352D01*
X031199Y004262D02*
X032156Y004262D01*
X032156Y004256D02*
X031199Y004256D01*
X031199Y004250D02*
X032156Y004250D01*
X032156Y004243D02*
X031199Y004243D01*
X031199Y004237D02*
X032156Y004237D01*
X032156Y004231D02*
X031199Y004231D01*
X031199Y004224D02*
X032156Y004224D01*
X032156Y004218D02*
X031199Y004218D01*
X031199Y004211D02*
X032156Y004211D01*
X032156Y004205D02*
X031199Y004205D01*
X031199Y004199D02*
X032156Y004199D01*
X032156Y004192D02*
X031199Y004192D01*
X031199Y004186D02*
X032156Y004186D01*
X032156Y004180D02*
X031199Y004180D01*
X031199Y004173D02*
X032156Y004173D01*
X032156Y004167D02*
X031199Y004167D01*
X031199Y004160D02*
X032156Y004160D01*
X032156Y004154D02*
X031199Y004154D01*
X031199Y004148D02*
X032156Y004148D01*
X032156Y004141D02*
X031199Y004141D01*
X031199Y004135D02*
X032156Y004135D01*
X032156Y004129D02*
X030914Y004129D01*
X030914Y004122D02*
X032156Y004122D01*
X032156Y004116D02*
X030914Y004116D01*
X030914Y004109D02*
X032156Y004109D01*
X032156Y004103D02*
X030914Y004103D01*
X030914Y004097D02*
X032156Y004097D01*
X032156Y004090D02*
X030914Y004090D01*
X030914Y004084D02*
X032156Y004084D01*
X032156Y004078D02*
X030914Y004078D01*
X030914Y004071D02*
X032156Y004071D01*
X032156Y004065D02*
X030914Y004065D01*
X030914Y004058D02*
X032156Y004058D01*
X032156Y004052D02*
X030914Y004052D01*
X030914Y003956D02*
X031189Y003956D01*
X031205Y003953D01*
X031219Y003946D01*
X031231Y003935D01*
X031238Y003921D01*
X031241Y003905D01*
X031238Y003889D01*
X031231Y003875D01*
X031219Y003863D01*
X031205Y003856D01*
X031189Y003854D01*
X030914Y003854D01*
X030914Y003956D01*
X030914Y003950D02*
X031212Y003950D01*
X031222Y003944D02*
X030914Y003944D01*
X030914Y003937D02*
X031228Y003937D01*
X031233Y003931D02*
X030914Y003931D01*
X030914Y003925D02*
X031236Y003925D01*
X031238Y003918D02*
X030914Y003918D01*
X030914Y003912D02*
X031239Y003912D01*
X031240Y003905D02*
X030914Y003905D01*
X030914Y003899D02*
X031240Y003899D01*
X031239Y003893D02*
X030914Y003893D01*
X030914Y003886D02*
X031237Y003886D01*
X031234Y003880D02*
X030914Y003880D01*
X030914Y003874D02*
X031230Y003874D01*
X031223Y003867D02*
X030914Y003867D01*
X030914Y003861D02*
X031215Y003861D01*
X031195Y003855D02*
X030914Y003855D01*
X031223Y003663D02*
X031234Y003674D01*
X031248Y003682D01*
X031264Y003684D01*
X031280Y003682D01*
X031294Y003674D01*
X031306Y003663D01*
X031313Y003649D01*
X031315Y003633D01*
X031315Y003357D01*
X031213Y003357D01*
X031213Y003633D01*
X031215Y003649D01*
X031223Y003663D01*
X031305Y003663D01*
X031309Y003657D02*
X031220Y003657D01*
X031216Y003651D02*
X031312Y003651D01*
X031314Y003644D02*
X031215Y003644D01*
X031214Y003638D02*
X031315Y003638D01*
X031315Y003631D02*
X031213Y003631D01*
X031213Y003625D02*
X031315Y003625D01*
X031315Y003619D02*
X031213Y003619D01*
X031213Y003612D02*
X031315Y003612D01*
X031315Y003606D02*
X031213Y003606D01*
X031213Y003600D02*
X031315Y003600D01*
X031315Y003593D02*
X031213Y003593D01*
X031213Y003587D02*
X031315Y003587D01*
X031315Y003580D02*
X031213Y003580D01*
X031213Y003574D02*
X031315Y003574D01*
X031315Y003568D02*
X031213Y003568D01*
X031213Y003561D02*
X031315Y003561D01*
X031315Y003555D02*
X031213Y003555D01*
X031213Y003549D02*
X031315Y003549D01*
X031315Y003542D02*
X031213Y003542D01*
X031213Y003536D02*
X031315Y003536D01*
X031315Y003529D02*
X031213Y003529D01*
X031213Y003523D02*
X031315Y003523D01*
X031315Y003517D02*
X031213Y003517D01*
X031213Y003510D02*
X031315Y003510D01*
X031315Y003504D02*
X031213Y003504D01*
X031213Y003498D02*
X031315Y003498D01*
X031315Y003491D02*
X031213Y003491D01*
X031213Y003485D02*
X031315Y003485D01*
X031315Y003478D02*
X031213Y003478D01*
X031213Y003472D02*
X031315Y003472D01*
X031315Y003466D02*
X031213Y003466D01*
X031213Y003459D02*
X031315Y003459D01*
X031315Y003453D02*
X031213Y003453D01*
X031213Y003447D02*
X031315Y003447D01*
X031315Y003440D02*
X031213Y003440D01*
X031213Y003434D02*
X031315Y003434D01*
X031315Y003427D02*
X031213Y003427D01*
X031213Y003421D02*
X031315Y003421D01*
X031315Y003415D02*
X031213Y003415D01*
X031213Y003408D02*
X031315Y003408D01*
X031315Y003402D02*
X031213Y003402D01*
X031213Y003396D02*
X031315Y003396D01*
X031315Y003389D02*
X031213Y003389D01*
X031213Y003383D02*
X031315Y003383D01*
X031315Y003376D02*
X031213Y003376D01*
X031213Y003370D02*
X031315Y003370D01*
X031315Y003364D02*
X031213Y003364D01*
X031410Y003364D02*
X031512Y003364D01*
X031512Y003370D02*
X031410Y003370D01*
X031410Y003376D02*
X031512Y003376D01*
X031512Y003383D02*
X031410Y003383D01*
X031410Y003389D02*
X031512Y003389D01*
X031512Y003396D02*
X031410Y003396D01*
X031410Y003402D02*
X031512Y003402D01*
X031512Y003408D02*
X031410Y003408D01*
X031410Y003415D02*
X031512Y003415D01*
X031512Y003421D02*
X031410Y003421D01*
X031410Y003427D02*
X031512Y003427D01*
X031512Y003434D02*
X031410Y003434D01*
X031410Y003440D02*
X031512Y003440D01*
X031512Y003447D02*
X031410Y003447D01*
X031410Y003453D02*
X031512Y003453D01*
X031512Y003459D02*
X031410Y003459D01*
X031410Y003466D02*
X031512Y003466D01*
X031512Y003472D02*
X031410Y003472D01*
X031410Y003478D02*
X031512Y003478D01*
X031512Y003485D02*
X031410Y003485D01*
X031410Y003491D02*
X031512Y003491D01*
X031512Y003498D02*
X031410Y003498D01*
X031410Y003504D02*
X031512Y003504D01*
X031512Y003510D02*
X031410Y003510D01*
X031410Y003517D02*
X031512Y003517D01*
X031512Y003523D02*
X031410Y003523D01*
X031410Y003529D02*
X031512Y003529D01*
X031512Y003536D02*
X031410Y003536D01*
X031410Y003542D02*
X031512Y003542D01*
X031512Y003549D02*
X031410Y003549D01*
X031410Y003555D02*
X031512Y003555D01*
X031512Y003561D02*
X031410Y003561D01*
X031410Y003568D02*
X031512Y003568D01*
X031512Y003574D02*
X031410Y003574D01*
X031410Y003580D02*
X031512Y003580D01*
X031512Y003587D02*
X031410Y003587D01*
X031410Y003593D02*
X031512Y003593D01*
X031512Y003600D02*
X031410Y003600D01*
X031410Y003606D02*
X031512Y003606D01*
X031512Y003612D02*
X031410Y003612D01*
X031410Y003619D02*
X031512Y003619D01*
X031512Y003625D02*
X031410Y003625D01*
X031410Y003631D02*
X031512Y003631D01*
X031512Y003633D02*
X031512Y003357D01*
X031410Y003357D01*
X031410Y003633D01*
X031412Y003649D01*
X031420Y003663D01*
X031502Y003663D01*
X031510Y003649D01*
X031512Y003633D01*
X031511Y003638D02*
X031411Y003638D01*
X031412Y003644D02*
X031510Y003644D01*
X031509Y003651D02*
X031413Y003651D01*
X031416Y003657D02*
X031506Y003657D01*
X031502Y003663D02*
X031491Y003674D01*
X031477Y003682D01*
X031461Y003684D01*
X031445Y003682D01*
X031431Y003674D01*
X031420Y003663D01*
X031426Y003670D02*
X031496Y003670D01*
X031488Y003676D02*
X031434Y003676D01*
X031449Y003682D02*
X031473Y003682D01*
X031609Y003649D02*
X031616Y003663D01*
X031628Y003674D01*
X031642Y003682D01*
X031658Y003684D01*
X031674Y003682D01*
X031688Y003674D01*
X031699Y003663D01*
X031617Y003663D01*
X031613Y003657D02*
X031702Y003657D01*
X031699Y003663D02*
X031707Y003649D01*
X031709Y003633D01*
X031709Y003357D01*
X031607Y003357D01*
X031607Y003633D01*
X031609Y003649D01*
X031610Y003651D02*
X031706Y003651D01*
X031707Y003644D02*
X031608Y003644D01*
X031607Y003638D02*
X031708Y003638D01*
X031709Y003631D02*
X031607Y003631D01*
X031607Y003625D02*
X031709Y003625D01*
X031709Y003619D02*
X031607Y003619D01*
X031607Y003612D02*
X031709Y003612D01*
X031709Y003606D02*
X031607Y003606D01*
X031607Y003600D02*
X031709Y003600D01*
X031709Y003593D02*
X031607Y003593D01*
X031607Y003587D02*
X031709Y003587D01*
X031709Y003580D02*
X031607Y003580D01*
X031607Y003574D02*
X031709Y003574D01*
X031709Y003568D02*
X031607Y003568D01*
X031607Y003561D02*
X031709Y003561D01*
X031709Y003555D02*
X031607Y003555D01*
X031607Y003549D02*
X031709Y003549D01*
X031709Y003542D02*
X031607Y003542D01*
X031607Y003536D02*
X031709Y003536D01*
X031709Y003529D02*
X031607Y003529D01*
X031607Y003523D02*
X031709Y003523D01*
X031709Y003517D02*
X031607Y003517D01*
X031607Y003510D02*
X031709Y003510D01*
X031709Y003504D02*
X031607Y003504D01*
X031607Y003498D02*
X031709Y003498D01*
X031709Y003491D02*
X031607Y003491D01*
X031607Y003485D02*
X031709Y003485D01*
X031709Y003478D02*
X031607Y003478D01*
X031607Y003472D02*
X031709Y003472D01*
X031709Y003466D02*
X031607Y003466D01*
X031607Y003459D02*
X031709Y003459D01*
X031709Y003453D02*
X031607Y003453D01*
X031607Y003447D02*
X031709Y003447D01*
X031709Y003440D02*
X031607Y003440D01*
X031607Y003434D02*
X031709Y003434D01*
X031709Y003427D02*
X031607Y003427D01*
X031607Y003421D02*
X031709Y003421D01*
X031709Y003415D02*
X031607Y003415D01*
X031607Y003408D02*
X031709Y003408D01*
X031709Y003402D02*
X031607Y003402D01*
X031607Y003396D02*
X031709Y003396D01*
X031709Y003389D02*
X031607Y003389D01*
X031607Y003383D02*
X031709Y003383D01*
X031709Y003376D02*
X031607Y003376D01*
X031607Y003370D02*
X031709Y003370D01*
X031709Y003364D02*
X031607Y003364D01*
X031804Y003364D02*
X031906Y003364D01*
X031906Y003370D02*
X031804Y003370D01*
X031804Y003376D02*
X031906Y003376D01*
X031906Y003383D02*
X031804Y003383D01*
X031804Y003389D02*
X031906Y003389D01*
X031906Y003396D02*
X031804Y003396D01*
X031804Y003402D02*
X031906Y003402D01*
X031906Y003408D02*
X031804Y003408D01*
X031804Y003415D02*
X031906Y003415D01*
X031906Y003421D02*
X031804Y003421D01*
X031804Y003427D02*
X031906Y003427D01*
X031906Y003434D02*
X031804Y003434D01*
X031804Y003440D02*
X031906Y003440D01*
X031906Y003447D02*
X031804Y003447D01*
X031804Y003453D02*
X031906Y003453D01*
X031906Y003459D02*
X031804Y003459D01*
X031804Y003466D02*
X031906Y003466D01*
X031906Y003472D02*
X031804Y003472D01*
X031804Y003478D02*
X031906Y003478D01*
X031906Y003485D02*
X031804Y003485D01*
X031804Y003491D02*
X031906Y003491D01*
X031906Y003498D02*
X031804Y003498D01*
X031804Y003504D02*
X031906Y003504D01*
X031906Y003510D02*
X031804Y003510D01*
X031804Y003517D02*
X031906Y003517D01*
X031906Y003523D02*
X031804Y003523D01*
X031804Y003529D02*
X031906Y003529D01*
X031906Y003536D02*
X031804Y003536D01*
X031804Y003542D02*
X031906Y003542D01*
X031906Y003549D02*
X031804Y003549D01*
X031804Y003555D02*
X031906Y003555D01*
X031906Y003561D02*
X031804Y003561D01*
X031804Y003568D02*
X031906Y003568D01*
X031906Y003574D02*
X031804Y003574D01*
X031804Y003580D02*
X031906Y003580D01*
X031906Y003587D02*
X031804Y003587D01*
X031804Y003593D02*
X031906Y003593D01*
X031906Y003600D02*
X031804Y003600D01*
X031804Y003606D02*
X031906Y003606D01*
X031906Y003612D02*
X031804Y003612D01*
X031804Y003619D02*
X031906Y003619D01*
X031906Y003625D02*
X031804Y003625D01*
X031804Y003631D02*
X031906Y003631D01*
X031906Y003633D02*
X031906Y003357D01*
X031804Y003357D01*
X031804Y003633D01*
X031806Y003649D01*
X031813Y003663D01*
X031825Y003674D01*
X031839Y003682D01*
X031855Y003684D01*
X031871Y003682D01*
X031885Y003674D01*
X031896Y003663D01*
X031903Y003649D01*
X031906Y003633D01*
X031905Y003638D02*
X031804Y003638D01*
X031805Y003644D02*
X031904Y003644D01*
X031903Y003651D02*
X031807Y003651D01*
X031810Y003657D02*
X031899Y003657D01*
X031896Y003663D02*
X031813Y003663D01*
X031820Y003670D02*
X031890Y003670D01*
X031882Y003676D02*
X031828Y003676D01*
X031843Y003682D02*
X031866Y003682D01*
X032003Y003649D02*
X032010Y003663D01*
X032021Y003674D01*
X032036Y003682D01*
X032052Y003684D01*
X032067Y003682D01*
X032082Y003674D01*
X032093Y003663D01*
X032100Y003649D01*
X032103Y003633D01*
X032103Y003357D01*
X032000Y003357D01*
X032000Y003633D01*
X032003Y003649D01*
X032004Y003651D02*
X032099Y003651D01*
X032096Y003657D02*
X032007Y003657D01*
X032010Y003663D02*
X032093Y003663D01*
X032086Y003670D02*
X032017Y003670D01*
X032025Y003676D02*
X032079Y003676D01*
X032063Y003682D02*
X032040Y003682D01*
X032002Y003644D02*
X032101Y003644D01*
X032102Y003638D02*
X032001Y003638D01*
X032000Y003631D02*
X032103Y003631D01*
X032103Y003625D02*
X032000Y003625D01*
X032000Y003619D02*
X032103Y003619D01*
X032103Y003612D02*
X032000Y003612D01*
X032000Y003606D02*
X032103Y003606D01*
X032103Y003600D02*
X032000Y003600D01*
X032000Y003593D02*
X032103Y003593D01*
X032103Y003587D02*
X032000Y003587D01*
X032000Y003580D02*
X032103Y003580D01*
X032103Y003574D02*
X032000Y003574D01*
X032000Y003568D02*
X032103Y003568D01*
X032103Y003561D02*
X032000Y003561D01*
X032000Y003555D02*
X032103Y003555D01*
X032103Y003549D02*
X032000Y003549D01*
X032000Y003542D02*
X032103Y003542D01*
X032103Y003536D02*
X032000Y003536D01*
X032000Y003529D02*
X032103Y003529D01*
X032103Y003523D02*
X032000Y003523D01*
X032000Y003517D02*
X032103Y003517D01*
X032103Y003510D02*
X032000Y003510D01*
X032000Y003504D02*
X032103Y003504D01*
X032103Y003498D02*
X032000Y003498D01*
X032000Y003491D02*
X032103Y003491D01*
X032103Y003485D02*
X032000Y003485D01*
X032000Y003478D02*
X032103Y003478D01*
X032103Y003472D02*
X032000Y003472D01*
X032000Y003466D02*
X032103Y003466D01*
X032103Y003459D02*
X032000Y003459D01*
X032000Y003453D02*
X032103Y003453D01*
X032103Y003447D02*
X032000Y003447D01*
X032000Y003440D02*
X032103Y003440D01*
X032103Y003434D02*
X032000Y003434D01*
X032000Y003427D02*
X032103Y003427D01*
X032103Y003421D02*
X032000Y003421D01*
X032000Y003415D02*
X032103Y003415D01*
X032103Y003408D02*
X032000Y003408D01*
X032000Y003402D02*
X032103Y003402D01*
X032103Y003396D02*
X032000Y003396D01*
X032000Y003389D02*
X032103Y003389D01*
X032103Y003383D02*
X032000Y003383D01*
X032000Y003376D02*
X032103Y003376D01*
X032103Y003370D02*
X032000Y003370D01*
X032000Y003364D02*
X032103Y003364D01*
X032197Y003364D02*
X032300Y003364D01*
X032300Y003370D02*
X032197Y003370D01*
X032197Y003376D02*
X032300Y003376D01*
X032300Y003383D02*
X032197Y003383D01*
X032197Y003389D02*
X032300Y003389D01*
X032300Y003396D02*
X032197Y003396D01*
X032197Y003402D02*
X032300Y003402D01*
X032300Y003408D02*
X032197Y003408D01*
X032197Y003415D02*
X032300Y003415D01*
X032300Y003421D02*
X032197Y003421D01*
X032197Y003427D02*
X032300Y003427D01*
X032300Y003434D02*
X032197Y003434D01*
X032197Y003440D02*
X032300Y003440D01*
X032300Y003447D02*
X032197Y003447D01*
X032197Y003453D02*
X032300Y003453D01*
X032300Y003459D02*
X032197Y003459D01*
X032197Y003466D02*
X032300Y003466D01*
X032300Y003472D02*
X032197Y003472D01*
X032197Y003478D02*
X032300Y003478D01*
X032300Y003485D02*
X032197Y003485D01*
X032197Y003491D02*
X032300Y003491D01*
X032300Y003498D02*
X032197Y003498D01*
X032197Y003504D02*
X032300Y003504D01*
X032300Y003510D02*
X032197Y003510D01*
X032197Y003517D02*
X032300Y003517D01*
X032300Y003523D02*
X032197Y003523D01*
X032197Y003529D02*
X032300Y003529D01*
X032300Y003536D02*
X032197Y003536D01*
X032197Y003542D02*
X032300Y003542D01*
X032300Y003549D02*
X032197Y003549D01*
X032197Y003555D02*
X032300Y003555D01*
X032300Y003561D02*
X032197Y003561D01*
X032197Y003568D02*
X032300Y003568D01*
X032300Y003574D02*
X032197Y003574D01*
X032197Y003580D02*
X032300Y003580D01*
X032300Y003587D02*
X032197Y003587D01*
X032197Y003593D02*
X032300Y003593D01*
X032300Y003600D02*
X032197Y003600D01*
X032197Y003606D02*
X032300Y003606D01*
X032300Y003612D02*
X032197Y003612D01*
X032197Y003619D02*
X032300Y003619D01*
X032300Y003625D02*
X032197Y003625D01*
X032197Y003631D02*
X032300Y003631D01*
X032300Y003633D02*
X032300Y003357D01*
X032197Y003357D01*
X032197Y003633D01*
X032200Y003649D01*
X032207Y003663D01*
X032218Y003674D01*
X032233Y003682D01*
X032248Y003684D01*
X032264Y003682D01*
X032279Y003674D01*
X032290Y003663D01*
X032297Y003649D01*
X032300Y003633D01*
X032299Y003638D02*
X032198Y003638D01*
X032199Y003644D02*
X032298Y003644D01*
X032296Y003651D02*
X032201Y003651D01*
X032204Y003657D02*
X032293Y003657D01*
X032290Y003663D02*
X032207Y003663D01*
X032214Y003670D02*
X032283Y003670D01*
X032275Y003676D02*
X032221Y003676D01*
X032237Y003682D02*
X032260Y003682D01*
X032397Y003649D02*
X032404Y003663D01*
X032415Y003674D01*
X032429Y003682D01*
X032445Y003684D01*
X032461Y003682D01*
X032475Y003674D01*
X032487Y003663D01*
X032494Y003649D01*
X032496Y003633D01*
X032496Y003357D01*
X032394Y003357D01*
X032394Y003633D01*
X032397Y003649D01*
X032397Y003651D02*
X032493Y003651D01*
X032490Y003657D02*
X032401Y003657D01*
X032404Y003663D02*
X032487Y003663D01*
X032480Y003670D02*
X032410Y003670D01*
X032418Y003676D02*
X032472Y003676D01*
X032457Y003682D02*
X032434Y003682D01*
X032396Y003644D02*
X032495Y003644D01*
X032496Y003638D02*
X032395Y003638D01*
X032394Y003631D02*
X032496Y003631D01*
X032496Y003625D02*
X032394Y003625D01*
X032394Y003619D02*
X032496Y003619D01*
X032496Y003612D02*
X032394Y003612D01*
X032394Y003606D02*
X032496Y003606D01*
X032496Y003600D02*
X032394Y003600D01*
X032394Y003593D02*
X032496Y003593D01*
X032496Y003587D02*
X032394Y003587D01*
X032394Y003580D02*
X032496Y003580D01*
X032496Y003574D02*
X032394Y003574D01*
X032394Y003568D02*
X032496Y003568D01*
X032496Y003561D02*
X032394Y003561D01*
X032394Y003555D02*
X032496Y003555D01*
X032496Y003549D02*
X032394Y003549D01*
X032394Y003542D02*
X032496Y003542D01*
X032496Y003536D02*
X032394Y003536D01*
X032394Y003529D02*
X032496Y003529D01*
X032496Y003523D02*
X032394Y003523D01*
X032394Y003517D02*
X032496Y003517D01*
X032496Y003510D02*
X032394Y003510D01*
X032394Y003504D02*
X032496Y003504D01*
X032496Y003498D02*
X032394Y003498D01*
X032394Y003491D02*
X032496Y003491D01*
X032496Y003485D02*
X032394Y003485D01*
X032394Y003478D02*
X032496Y003478D01*
X032496Y003472D02*
X032394Y003472D01*
X032394Y003466D02*
X032496Y003466D01*
X032496Y003459D02*
X032394Y003459D01*
X032394Y003453D02*
X032496Y003453D01*
X032496Y003447D02*
X032394Y003447D01*
X032394Y003440D02*
X032496Y003440D01*
X032496Y003434D02*
X032394Y003434D01*
X032394Y003427D02*
X032496Y003427D01*
X032496Y003421D02*
X032394Y003421D01*
X032394Y003415D02*
X032496Y003415D01*
X032496Y003408D02*
X032394Y003408D01*
X032394Y003402D02*
X032496Y003402D01*
X032496Y003396D02*
X032394Y003396D01*
X032394Y003389D02*
X032496Y003389D01*
X032496Y003383D02*
X032394Y003383D01*
X032394Y003376D02*
X032496Y003376D01*
X032496Y003370D02*
X032394Y003370D01*
X032394Y003364D02*
X032496Y003364D01*
X032591Y003364D02*
X032693Y003364D01*
X032693Y003370D02*
X032591Y003370D01*
X032591Y003376D02*
X032693Y003376D01*
X032693Y003383D02*
X032591Y003383D01*
X032591Y003389D02*
X032693Y003389D01*
X032693Y003396D02*
X032591Y003396D01*
X032591Y003402D02*
X032693Y003402D01*
X032693Y003408D02*
X032591Y003408D01*
X032591Y003415D02*
X032693Y003415D01*
X032693Y003421D02*
X032591Y003421D01*
X032591Y003427D02*
X032693Y003427D01*
X032693Y003434D02*
X032591Y003434D01*
X032591Y003440D02*
X032693Y003440D01*
X032693Y003447D02*
X032591Y003447D01*
X032591Y003453D02*
X032693Y003453D01*
X032693Y003459D02*
X032591Y003459D01*
X032591Y003466D02*
X032693Y003466D01*
X032693Y003472D02*
X032591Y003472D01*
X032591Y003478D02*
X032693Y003478D01*
X032693Y003485D02*
X032591Y003485D01*
X032591Y003491D02*
X032693Y003491D01*
X032693Y003498D02*
X032591Y003498D01*
X032591Y003504D02*
X032693Y003504D01*
X032693Y003510D02*
X032591Y003510D01*
X032591Y003517D02*
X032693Y003517D01*
X032693Y003523D02*
X032591Y003523D01*
X032591Y003529D02*
X032693Y003529D01*
X032693Y003536D02*
X032591Y003536D01*
X032591Y003542D02*
X032693Y003542D01*
X032693Y003549D02*
X032591Y003549D01*
X032591Y003555D02*
X032693Y003555D01*
X032693Y003561D02*
X032591Y003561D01*
X032591Y003568D02*
X032693Y003568D01*
X032693Y003574D02*
X032591Y003574D01*
X032591Y003580D02*
X032693Y003580D01*
X032693Y003587D02*
X032591Y003587D01*
X032591Y003593D02*
X032693Y003593D01*
X032693Y003600D02*
X032591Y003600D01*
X032591Y003606D02*
X032693Y003606D01*
X032693Y003612D02*
X032591Y003612D01*
X032591Y003619D02*
X032693Y003619D01*
X032693Y003625D02*
X032591Y003625D01*
X032591Y003631D02*
X032693Y003631D01*
X032693Y003633D02*
X032693Y003357D01*
X032591Y003357D01*
X032591Y003633D01*
X032593Y003649D01*
X032601Y003663D01*
X032683Y003663D01*
X032684Y003663D02*
X032691Y003649D01*
X032693Y003633D01*
X032693Y003638D02*
X032592Y003638D01*
X032593Y003644D02*
X032692Y003644D01*
X032690Y003651D02*
X032594Y003651D01*
X032598Y003657D02*
X032687Y003657D01*
X032684Y003663D02*
X032672Y003674D01*
X032658Y003682D01*
X032642Y003684D01*
X032626Y003682D01*
X032612Y003674D01*
X032601Y003663D01*
X032607Y003670D02*
X032677Y003670D01*
X032669Y003676D02*
X032615Y003676D01*
X032630Y003682D02*
X032654Y003682D01*
X032790Y003649D02*
X032798Y003663D01*
X032880Y003663D01*
X032888Y003649D01*
X032890Y003633D01*
X032890Y003357D01*
X032788Y003357D01*
X032788Y003633D01*
X032790Y003649D01*
X032791Y003651D02*
X032887Y003651D01*
X032884Y003657D02*
X032794Y003657D01*
X032798Y003663D02*
X032809Y003674D01*
X032823Y003682D01*
X032839Y003684D01*
X032855Y003682D01*
X032869Y003674D01*
X032880Y003663D01*
X032874Y003670D02*
X032804Y003670D01*
X032812Y003676D02*
X032866Y003676D01*
X032851Y003682D02*
X032827Y003682D01*
X032790Y003644D02*
X032888Y003644D01*
X032889Y003638D02*
X032789Y003638D01*
X032788Y003631D02*
X032890Y003631D01*
X032890Y003625D02*
X032788Y003625D01*
X032788Y003619D02*
X032890Y003619D01*
X032890Y003612D02*
X032788Y003612D01*
X032788Y003606D02*
X032890Y003606D01*
X032890Y003600D02*
X032788Y003600D01*
X032788Y003593D02*
X032890Y003593D01*
X032890Y003587D02*
X032788Y003587D01*
X032788Y003580D02*
X032890Y003580D01*
X032890Y003574D02*
X032788Y003574D01*
X032788Y003568D02*
X032890Y003568D01*
X032890Y003561D02*
X032788Y003561D01*
X032788Y003555D02*
X032890Y003555D01*
X032890Y003549D02*
X032788Y003549D01*
X032788Y003542D02*
X032890Y003542D01*
X032890Y003536D02*
X032788Y003536D01*
X032788Y003529D02*
X032890Y003529D01*
X032890Y003523D02*
X032788Y003523D01*
X032788Y003517D02*
X032890Y003517D01*
X032890Y003510D02*
X032788Y003510D01*
X032788Y003504D02*
X032890Y003504D01*
X032890Y003498D02*
X032788Y003498D01*
X032788Y003491D02*
X032890Y003491D01*
X032890Y003485D02*
X032788Y003485D01*
X032788Y003478D02*
X032890Y003478D01*
X032890Y003472D02*
X032788Y003472D01*
X032788Y003466D02*
X032890Y003466D01*
X032890Y003459D02*
X032788Y003459D01*
X032788Y003453D02*
X032890Y003453D01*
X032890Y003447D02*
X032788Y003447D01*
X032788Y003440D02*
X032890Y003440D01*
X032890Y003434D02*
X032788Y003434D01*
X032788Y003427D02*
X032890Y003427D01*
X032890Y003421D02*
X032788Y003421D01*
X032788Y003415D02*
X032890Y003415D01*
X032890Y003408D02*
X032788Y003408D01*
X032788Y003402D02*
X032890Y003402D01*
X032890Y003396D02*
X032788Y003396D01*
X032788Y003389D02*
X032890Y003389D01*
X032890Y003383D02*
X032788Y003383D01*
X032788Y003376D02*
X032890Y003376D01*
X032890Y003370D02*
X032788Y003370D01*
X032788Y003364D02*
X032890Y003364D01*
X032985Y003364D02*
X033087Y003364D01*
X033087Y003370D02*
X032985Y003370D01*
X032985Y003376D02*
X033087Y003376D01*
X033087Y003383D02*
X032985Y003383D01*
X032985Y003389D02*
X033087Y003389D01*
X033087Y003396D02*
X032985Y003396D01*
X032985Y003402D02*
X033087Y003402D01*
X033087Y003408D02*
X032985Y003408D01*
X032985Y003415D02*
X033087Y003415D01*
X033087Y003421D02*
X032985Y003421D01*
X032985Y003427D02*
X033087Y003427D01*
X033087Y003434D02*
X032985Y003434D01*
X032985Y003440D02*
X033087Y003440D01*
X033087Y003447D02*
X032985Y003447D01*
X032985Y003453D02*
X033087Y003453D01*
X033087Y003459D02*
X032985Y003459D01*
X032985Y003466D02*
X033087Y003466D01*
X033087Y003472D02*
X032985Y003472D01*
X032985Y003478D02*
X033087Y003478D01*
X033087Y003485D02*
X032985Y003485D01*
X032985Y003491D02*
X033087Y003491D01*
X033087Y003498D02*
X032985Y003498D01*
X032985Y003504D02*
X033087Y003504D01*
X033087Y003510D02*
X032985Y003510D01*
X032985Y003517D02*
X033087Y003517D01*
X033087Y003523D02*
X032985Y003523D01*
X032985Y003529D02*
X033087Y003529D01*
X033087Y003536D02*
X032985Y003536D01*
X032985Y003542D02*
X033087Y003542D01*
X033087Y003549D02*
X032985Y003549D01*
X032985Y003555D02*
X033087Y003555D01*
X033087Y003561D02*
X032985Y003561D01*
X032985Y003568D02*
X033087Y003568D01*
X033087Y003574D02*
X032985Y003574D01*
X032985Y003580D02*
X033087Y003580D01*
X033087Y003587D02*
X032985Y003587D01*
X032985Y003593D02*
X033087Y003593D01*
X033087Y003600D02*
X032985Y003600D01*
X032985Y003606D02*
X033087Y003606D01*
X033087Y003612D02*
X032985Y003612D01*
X032985Y003619D02*
X033087Y003619D01*
X033087Y003625D02*
X032985Y003625D01*
X032985Y003631D02*
X033087Y003631D01*
X033087Y003633D02*
X033087Y003357D01*
X032985Y003357D01*
X032985Y003633D01*
X032987Y003649D01*
X032994Y003663D01*
X033006Y003674D01*
X033020Y003682D01*
X033036Y003684D01*
X033052Y003682D01*
X033066Y003674D01*
X033077Y003663D01*
X033085Y003649D01*
X033087Y003633D01*
X033086Y003638D02*
X032985Y003638D01*
X032986Y003644D02*
X033085Y003644D01*
X033084Y003651D02*
X032988Y003651D01*
X032991Y003657D02*
X033080Y003657D01*
X033077Y003663D02*
X032995Y003663D01*
X033001Y003670D02*
X033071Y003670D01*
X033063Y003676D02*
X033009Y003676D01*
X033024Y003682D02*
X033048Y003682D01*
X032943Y003804D02*
X032144Y003804D01*
X032144Y003810D02*
X032943Y003810D01*
X032943Y003816D02*
X032144Y003816D01*
X032144Y003823D02*
X032943Y003823D01*
X032943Y003829D02*
X032144Y003829D01*
X032144Y003835D02*
X032943Y003835D01*
X032943Y003842D02*
X032144Y003842D01*
X032144Y003848D02*
X032943Y003848D01*
X032943Y003855D02*
X032144Y003855D01*
X032144Y003861D02*
X032943Y003861D01*
X032943Y003867D02*
X032144Y003867D01*
X032144Y003874D02*
X032943Y003874D01*
X032943Y003880D02*
X032144Y003880D01*
X032144Y003886D02*
X032943Y003886D01*
X032943Y003893D02*
X032144Y003893D01*
X032144Y003899D02*
X032943Y003899D01*
X032943Y003905D02*
X032144Y003905D01*
X032144Y003912D02*
X032943Y003912D01*
X032943Y003918D02*
X032144Y003918D01*
X032144Y003925D02*
X032943Y003925D01*
X032943Y003931D02*
X032144Y003931D01*
X032144Y003937D02*
X032943Y003937D01*
X032943Y003944D02*
X032144Y003944D01*
X032144Y003950D02*
X032943Y003950D01*
X032943Y003956D02*
X032144Y003956D01*
X032144Y003963D02*
X032943Y003963D01*
X032943Y003969D02*
X032144Y003969D01*
X032144Y003976D02*
X032943Y003976D01*
X032943Y003982D02*
X032144Y003982D01*
X032144Y003988D02*
X032943Y003988D01*
X032943Y003995D02*
X032144Y003995D01*
X032144Y004001D02*
X032943Y004001D01*
X032943Y004007D02*
X032144Y004007D01*
X032144Y004014D02*
X032943Y004014D01*
X032943Y004020D02*
X032144Y004020D01*
X032144Y004027D02*
X032943Y004027D01*
X032943Y004033D02*
X032144Y004033D01*
X032144Y004039D02*
X032943Y004039D01*
X032943Y004046D02*
X032144Y004046D01*
X032144Y004052D02*
X033386Y004052D01*
X033386Y004058D02*
X032144Y004058D01*
X032144Y004065D02*
X033386Y004065D01*
X033386Y004071D02*
X032144Y004071D01*
X032144Y004078D02*
X033386Y004078D01*
X033386Y004084D02*
X032144Y004084D01*
X032144Y004090D02*
X033386Y004090D01*
X033386Y004097D02*
X032144Y004097D01*
X032144Y004103D02*
X033386Y004103D01*
X033386Y004109D02*
X032144Y004109D01*
X032144Y004116D02*
X033386Y004116D01*
X033386Y004122D02*
X032144Y004122D01*
X032144Y004129D02*
X033386Y004129D01*
X033386Y004269D02*
X032144Y004269D01*
X032144Y004275D02*
X033386Y004275D01*
X033386Y004282D02*
X032144Y004282D01*
X032144Y004288D02*
X033386Y004288D01*
X033386Y004294D02*
X032144Y004294D01*
X032144Y004301D02*
X033386Y004301D01*
X033386Y004307D02*
X032144Y004307D01*
X032144Y004313D02*
X033386Y004313D01*
X033386Y004320D02*
X032144Y004320D01*
X032144Y004326D02*
X033386Y004326D01*
X033386Y004333D02*
X032144Y004333D01*
X032144Y004339D02*
X033386Y004339D01*
X033386Y004345D02*
X032144Y004345D01*
X032156Y004345D02*
X030914Y004345D01*
X030914Y004339D02*
X032156Y004339D01*
X032156Y004333D02*
X030914Y004333D01*
X030914Y004326D02*
X032156Y004326D01*
X032156Y004320D02*
X030914Y004320D01*
X030914Y004313D02*
X032156Y004313D01*
X032156Y004307D02*
X030914Y004307D01*
X030914Y004301D02*
X032156Y004301D01*
X032156Y004294D02*
X030914Y004294D01*
X030914Y004288D02*
X032156Y004288D01*
X032156Y004282D02*
X030914Y004282D01*
X030914Y004275D02*
X032156Y004275D01*
X032156Y004269D02*
X030914Y004269D01*
X031357Y004046D02*
X032156Y004046D01*
X032156Y004039D02*
X031357Y004039D01*
X031357Y004033D02*
X032156Y004033D01*
X032156Y004027D02*
X031357Y004027D01*
X031357Y004020D02*
X032156Y004020D01*
X032156Y004014D02*
X031357Y004014D01*
X031357Y004007D02*
X032156Y004007D01*
X032156Y004001D02*
X031357Y004001D01*
X031357Y003995D02*
X032156Y003995D01*
X032156Y003988D02*
X031357Y003988D01*
X031357Y003982D02*
X032156Y003982D01*
X032156Y003976D02*
X031357Y003976D01*
X031357Y003969D02*
X032156Y003969D01*
X032156Y003963D02*
X031357Y003963D01*
X031357Y003956D02*
X032156Y003956D01*
X032156Y003950D02*
X031357Y003950D01*
X031357Y003944D02*
X032156Y003944D01*
X032156Y003937D02*
X031357Y003937D01*
X031357Y003931D02*
X032156Y003931D01*
X032156Y003925D02*
X031357Y003925D01*
X031357Y003918D02*
X032156Y003918D01*
X032156Y003912D02*
X031357Y003912D01*
X031357Y003905D02*
X032156Y003905D01*
X032156Y003899D02*
X031357Y003899D01*
X031357Y003893D02*
X032156Y003893D01*
X032156Y003886D02*
X031357Y003886D01*
X031357Y003880D02*
X032156Y003880D01*
X032156Y003874D02*
X031357Y003874D01*
X031357Y003867D02*
X032156Y003867D01*
X032156Y003861D02*
X031357Y003861D01*
X031357Y003855D02*
X032156Y003855D01*
X032156Y003848D02*
X031357Y003848D01*
X031357Y003842D02*
X032156Y003842D01*
X032156Y003835D02*
X031357Y003835D01*
X031357Y003829D02*
X032156Y003829D01*
X032156Y003823D02*
X031357Y003823D01*
X031357Y003816D02*
X032156Y003816D01*
X032156Y003810D02*
X031357Y003810D01*
X031357Y003804D02*
X032156Y003804D01*
X032144Y004135D02*
X033101Y004135D01*
X033101Y004141D02*
X032144Y004141D01*
X032144Y004148D02*
X033101Y004148D01*
X033101Y004154D02*
X032144Y004154D01*
X032144Y004160D02*
X033101Y004160D01*
X033101Y004167D02*
X032144Y004167D01*
X032144Y004173D02*
X033101Y004173D01*
X033101Y004180D02*
X032144Y004180D01*
X032144Y004186D02*
X033101Y004186D01*
X033101Y004192D02*
X032144Y004192D01*
X032144Y004199D02*
X033101Y004199D01*
X033101Y004205D02*
X032144Y004205D01*
X032144Y004211D02*
X033101Y004211D01*
X033101Y004218D02*
X032144Y004218D01*
X032144Y004224D02*
X033101Y004224D01*
X033101Y004231D02*
X032144Y004231D01*
X032144Y004237D02*
X033101Y004237D01*
X033101Y004243D02*
X032144Y004243D01*
X032144Y004250D02*
X033101Y004250D01*
X033101Y004256D02*
X032144Y004256D01*
X032144Y004262D02*
X033101Y004262D01*
X033111Y003956D02*
X033386Y003956D01*
X033386Y003854D01*
X033111Y003854D01*
X033095Y003856D01*
X033081Y003863D01*
X033069Y003875D01*
X033062Y003889D01*
X033059Y003905D01*
X033062Y003921D01*
X033069Y003935D01*
X033081Y003946D01*
X033095Y003953D01*
X033111Y003956D01*
X033088Y003950D02*
X033386Y003950D01*
X033386Y003944D02*
X033078Y003944D01*
X033072Y003937D02*
X033386Y003937D01*
X033386Y003931D02*
X033067Y003931D01*
X033064Y003925D02*
X033386Y003925D01*
X033386Y003918D02*
X033062Y003918D01*
X033061Y003912D02*
X033386Y003912D01*
X033386Y003905D02*
X033060Y003905D01*
X033060Y003899D02*
X033386Y003899D01*
X033386Y003893D02*
X033061Y003893D01*
X033063Y003886D02*
X033386Y003886D01*
X033386Y003880D02*
X033066Y003880D01*
X033070Y003874D02*
X033386Y003874D01*
X033386Y003867D02*
X033077Y003867D01*
X033085Y003861D02*
X033386Y003861D01*
X033386Y003855D02*
X033105Y003855D01*
X032281Y004728D02*
X032216Y004728D01*
X032210Y004734D02*
X032287Y004734D01*
X032292Y004741D02*
X032205Y004741D01*
X032202Y004747D02*
X032295Y004747D01*
X032270Y004721D02*
X032226Y004721D01*
X031685Y003676D02*
X031631Y003676D01*
X031623Y003670D02*
X031693Y003670D01*
X031670Y003682D02*
X031646Y003682D01*
X031299Y003670D02*
X031229Y003670D01*
X031237Y003676D02*
X031291Y003676D01*
X031276Y003682D02*
X031252Y003682D01*
D37*
X013167Y016900D03*
X012733Y016900D03*
X012733Y017400D03*
X013167Y017400D03*
X012167Y017400D03*
X011733Y017400D03*
X011267Y017400D03*
X010833Y017400D03*
X010367Y017400D03*
X009933Y017400D03*
X009467Y017400D03*
X009033Y017400D03*
X007667Y017400D03*
X007233Y017400D03*
X006767Y017400D03*
X006333Y017400D03*
X005867Y017400D03*
X005433Y017400D03*
X004767Y017400D03*
X004333Y017400D03*
D38*
X004300Y016917D03*
X004800Y016917D03*
X005350Y016917D03*
X005850Y016917D03*
X005850Y016483D03*
X005350Y016483D03*
X004800Y016483D03*
X004300Y016483D03*
X006350Y016483D03*
X006850Y016483D03*
X007350Y016483D03*
X007850Y016483D03*
X007850Y016917D03*
X007350Y016917D03*
X006850Y016917D03*
X006350Y016917D03*
X008850Y016917D03*
X008850Y016483D03*
X009350Y016483D03*
X009850Y016483D03*
X010350Y016483D03*
X010850Y016483D03*
X010850Y016917D03*
X010350Y016917D03*
X009850Y016917D03*
X009350Y016917D03*
X011450Y016917D03*
X011450Y016483D03*
D39*
X011450Y016350D01*
X011500Y016300D01*
X018250Y016300D01*
X019050Y015500D01*
X019050Y013400D01*
X019033Y013383D01*
X019033Y013031D01*
X019230Y013031D02*
X019230Y014480D01*
X019350Y014600D01*
X019545Y014600D01*
X020150Y014595D02*
X020150Y015100D01*
X019750Y015500D01*
X018850Y015400D02*
X018850Y013500D01*
X018836Y013486D01*
X018836Y013031D01*
X019230Y013031D02*
X019230Y012480D01*
X019150Y012400D01*
X019426Y013031D02*
X019426Y013526D01*
X019550Y013650D01*
X019550Y014005D01*
X019820Y013470D02*
X020150Y013800D01*
X020150Y014005D01*
X020450Y013700D02*
X020607Y013543D01*
X020607Y013031D01*
X020607Y012557D01*
X020450Y012400D01*
X020804Y012546D02*
X020950Y012400D01*
X020804Y012546D02*
X020804Y013031D01*
X020804Y014005D01*
X020750Y014005D01*
X021001Y013651D02*
X021150Y013800D01*
X021150Y015400D01*
X019650Y016900D01*
X013167Y016900D01*
X012733Y016900D02*
X011950Y016900D01*
X011733Y017117D01*
X011733Y017400D01*
X011733Y018983D01*
X012100Y019350D01*
X012100Y020037D01*
X012887Y020037D02*
X012887Y020863D01*
X012850Y020900D01*
X013650Y020900D02*
X013674Y020876D01*
X013674Y020037D01*
X014462Y020037D02*
X014462Y018363D01*
X013350Y017400D02*
X013650Y017100D01*
X019750Y017100D01*
X021350Y015500D01*
X021350Y013700D01*
X021198Y013548D01*
X021198Y013031D01*
X021001Y013031D02*
X021001Y013651D01*
X021395Y013345D02*
X021395Y013031D01*
X021395Y012255D01*
X021450Y012200D01*
X022281Y012145D02*
X023200Y012145D01*
X023455Y012400D01*
X023455Y012905D01*
X023550Y013000D01*
X023750Y013400D02*
X023950Y013600D01*
X024050Y013600D01*
X024045Y013595D01*
X024045Y012400D01*
X023593Y011948D01*
X022281Y011948D01*
X023150Y011100D02*
X023355Y011100D01*
X023150Y011100D02*
X022817Y010767D01*
X022281Y010767D01*
X021283Y010767D01*
X021250Y010800D01*
X021650Y010490D02*
X021777Y010373D01*
X022281Y010373D01*
X022723Y010373D01*
X023150Y010800D01*
X023645Y010800D01*
X023945Y010500D01*
X023645Y010800D02*
X023945Y011100D01*
X024455Y011100D02*
X024455Y011405D01*
X024450Y011500D01*
X024850Y011500D02*
X025045Y011305D01*
X025045Y011100D01*
X024750Y010805D01*
X024750Y010120D01*
X025075Y009795D01*
X025450Y009900D02*
X025650Y010100D01*
X028050Y010100D01*
X028224Y009926D01*
X028224Y009600D01*
X028224Y010600D02*
X029550Y010600D01*
X029950Y010200D01*
X029950Y009605D01*
X029955Y009600D01*
X030545Y009600D02*
X030950Y009600D01*
X031658Y009908D02*
X031658Y004889D01*
X031855Y004889D02*
X031855Y009105D01*
X033050Y010300D01*
X033645Y010300D01*
X034145Y010800D01*
X034755Y010800D01*
X035345Y010800D02*
X037400Y010800D01*
X038750Y010800D02*
X040100Y010800D01*
X040100Y009800D02*
X038750Y009800D01*
X037400Y009800D02*
X035345Y009800D01*
X034850Y010100D02*
X035050Y010300D01*
X034850Y010100D02*
X033855Y010100D01*
X033555Y009800D01*
X033645Y009300D02*
X034145Y009800D01*
X034755Y009800D01*
X035050Y009300D02*
X034850Y009100D01*
X033855Y009100D01*
X033555Y008800D01*
X033645Y008300D02*
X034145Y008800D01*
X034755Y008800D01*
X035345Y008800D02*
X037400Y008800D01*
X038750Y008800D02*
X040100Y008800D01*
X040100Y007800D02*
X038750Y007800D01*
X037400Y007800D02*
X035345Y007800D01*
X034755Y007800D02*
X034145Y007800D01*
X033645Y007300D01*
X033050Y007300D01*
X032445Y006695D01*
X032445Y004889D01*
X032248Y004889D02*
X032248Y007498D01*
X033050Y008300D01*
X033645Y008300D01*
X033855Y008100D02*
X034850Y008100D01*
X035050Y008300D01*
X033855Y008100D02*
X033555Y007800D01*
X033855Y007100D02*
X033555Y006800D01*
X033855Y007100D02*
X034850Y007100D01*
X035050Y007300D01*
X034755Y006800D02*
X034145Y006800D01*
X033645Y006300D01*
X033050Y006300D01*
X032642Y005892D01*
X032642Y004889D01*
X032839Y004889D02*
X032839Y005089D01*
X033050Y005300D01*
X033645Y005300D01*
X034145Y005800D01*
X034755Y005800D01*
X035345Y005800D02*
X037400Y005800D01*
X038750Y005800D02*
X040100Y005800D01*
X040100Y006800D02*
X038750Y006800D01*
X037400Y006800D02*
X036850Y006800D01*
X037400Y006800D02*
X035345Y006800D01*
X035050Y006300D02*
X034850Y006100D01*
X033855Y006100D01*
X033555Y005800D01*
X032052Y004889D02*
X032052Y008302D01*
X033050Y009300D01*
X033645Y009300D01*
X031658Y009908D02*
X033050Y011300D01*
X033645Y011300D01*
X034145Y011800D01*
X034755Y011800D01*
X034850Y012100D02*
X035050Y012300D01*
X034850Y012100D02*
X033855Y012100D01*
X033555Y011800D01*
X033350Y012450D02*
X033350Y013100D01*
X033700Y013450D01*
X034413Y013450D01*
X033350Y012450D02*
X032450Y011550D01*
X031450Y011550D02*
X031450Y006100D01*
X031050Y005700D01*
X031050Y005400D01*
X030750Y005100D01*
X030750Y004600D01*
X030855Y004495D01*
X031067Y004495D01*
X031264Y004889D02*
X031264Y005186D01*
X031050Y005400D01*
X031350Y005500D02*
X031461Y005389D01*
X031461Y004889D01*
X030050Y005200D02*
X029042Y005200D01*
X028058Y005200D02*
X027345Y005200D01*
X026755Y005200D02*
X026350Y005200D01*
X025950Y004800D01*
X023250Y004800D01*
X023050Y005000D01*
X023050Y005201D01*
X022799Y005452D01*
X022281Y005452D01*
X022281Y005255D02*
X022695Y005255D01*
X022850Y005100D01*
X022850Y004900D01*
X023150Y004600D01*
X025950Y004600D01*
X026150Y004400D01*
X026755Y004400D01*
X027345Y004400D02*
X028058Y004400D01*
X029042Y004400D02*
X030050Y004400D01*
X029955Y004000D02*
X030550Y004000D01*
X030645Y003905D01*
X031067Y003905D01*
X031264Y003511D02*
X030761Y003511D01*
X030750Y003500D01*
X031264Y003511D02*
X030234Y003511D01*
X030145Y003600D01*
X029955Y004000D02*
X029555Y003600D01*
X031350Y003200D02*
X031461Y003311D01*
X031461Y003511D01*
X031658Y003511D02*
X031658Y003108D01*
X031550Y003000D01*
X022150Y003000D01*
X021198Y003952D01*
X021198Y004369D01*
X021001Y004369D02*
X021001Y003849D01*
X022050Y002800D01*
X031750Y002800D01*
X031855Y002905D01*
X031855Y003511D01*
X032052Y003511D02*
X032052Y002802D01*
X031850Y002600D01*
X021950Y002600D01*
X020804Y003746D01*
X020804Y004369D01*
X020607Y004369D02*
X020607Y003238D01*
X020645Y003200D01*
X020411Y003556D02*
X020055Y003200D01*
X019550Y003200D02*
X019550Y002761D01*
X019911Y002400D01*
X032050Y002400D01*
X032250Y002600D01*
X032250Y003409D01*
X032248Y003511D01*
X032445Y003511D02*
X032445Y002495D01*
X032150Y002200D01*
X019850Y002200D01*
X019350Y002700D01*
X019350Y003300D01*
X020017Y003967D01*
X020017Y004369D01*
X020214Y004369D02*
X020214Y003864D01*
X019550Y003200D01*
X019150Y003400D02*
X019150Y002640D01*
X019790Y002000D01*
X032250Y002000D01*
X032642Y002392D01*
X032642Y003511D01*
X032445Y003511D02*
X032450Y003406D01*
X033036Y003511D02*
X033036Y003014D01*
X033050Y003000D01*
X033233Y003905D02*
X033745Y003905D01*
X033748Y003904D01*
X033749Y003903D01*
X033750Y003900D01*
X033745Y004495D02*
X033233Y004495D01*
X033745Y004495D02*
X033748Y004496D01*
X033749Y004498D01*
X033750Y004500D01*
X031350Y003200D02*
X022250Y003200D01*
X021395Y004055D01*
X021395Y004369D01*
X020607Y004369D02*
X020607Y004857D01*
X020750Y005000D01*
X020411Y004839D02*
X020250Y005000D01*
X020411Y004839D02*
X020411Y004369D01*
X020411Y003556D01*
X019623Y003873D02*
X019150Y003400D01*
X018950Y003700D02*
X018750Y003500D01*
X018750Y003295D01*
X018450Y003500D02*
X018836Y003886D01*
X018836Y004369D01*
X018836Y004886D01*
X018950Y005000D01*
X018639Y004811D02*
X018450Y005000D01*
X018639Y004811D02*
X018639Y004369D01*
X018650Y004358D01*
X018650Y004024D01*
X018426Y003800D01*
X018350Y003800D01*
X018150Y003600D01*
X018150Y003295D01*
X018450Y003500D02*
X018450Y003005D01*
X018750Y002705D01*
X018450Y003005D02*
X018150Y002705D01*
X017650Y003083D02*
X017067Y002500D01*
X004190Y002500D01*
X002550Y004140D01*
X002550Y010800D01*
X002973Y011223D01*
X003367Y011223D01*
X004122Y011223D01*
X004250Y011095D01*
X004350Y011700D02*
X004250Y011800D01*
X004250Y012405D01*
X004250Y012995D02*
X004122Y013123D01*
X003367Y013123D01*
X002973Y013123D01*
X002550Y012700D01*
X003367Y012277D02*
X003367Y011783D01*
X003450Y011700D01*
X004250Y010505D02*
X004250Y009900D01*
X004350Y009800D01*
X003450Y009800D02*
X003367Y009883D01*
X003367Y010377D01*
X003367Y009323D02*
X004122Y009323D01*
X004250Y009195D01*
X004745Y009195D01*
X004750Y009200D01*
X004250Y008605D02*
X004250Y008300D01*
X004450Y008100D01*
X003450Y008000D02*
X003367Y008083D01*
X003367Y008477D01*
X003367Y007523D02*
X004122Y007523D01*
X004250Y007395D01*
X004555Y007395D01*
X004950Y007000D01*
X004950Y005500D01*
X005550Y004900D01*
X004850Y005000D02*
X004850Y005100D01*
X004650Y005300D01*
X004650Y005500D01*
X004550Y005600D01*
X004255Y005600D01*
X004250Y005595D01*
X004122Y005723D01*
X003367Y005723D01*
X003450Y006200D02*
X003367Y006283D01*
X003367Y006677D01*
X004250Y006805D02*
X004250Y006400D01*
X004450Y006200D01*
X005150Y005761D02*
X008211Y002700D01*
X016150Y002700D01*
X016350Y002900D01*
X016350Y003476D01*
X016574Y003700D01*
X016750Y003700D01*
X016867Y003817D01*
X016867Y004369D01*
X016670Y004369D02*
X016670Y004020D01*
X016550Y003900D01*
X016511Y003900D01*
X016150Y003539D01*
X016150Y003000D01*
X016050Y002900D01*
X008320Y002900D01*
X005350Y005870D01*
X005350Y015600D01*
X004800Y016150D01*
X004800Y016483D01*
X004300Y016483D02*
X004300Y016350D01*
X005150Y015500D01*
X005150Y005761D01*
X004250Y005005D02*
X004250Y004500D01*
X004350Y004400D01*
X003450Y004400D02*
X003367Y004483D01*
X003367Y004877D01*
X004250Y007395D02*
X004255Y007400D01*
X008050Y006900D02*
X008550Y006400D01*
X009850Y006400D01*
X010150Y006700D01*
X012750Y006700D01*
X012817Y006633D01*
X013619Y006633D01*
X013619Y006436D02*
X012581Y006436D01*
X012545Y006400D01*
X012750Y006100D02*
X009250Y006100D01*
X009050Y005900D01*
X008550Y005400D02*
X008050Y005900D01*
X008550Y005400D02*
X009850Y005400D01*
X010350Y005900D01*
X012850Y005900D01*
X012993Y006043D01*
X013619Y006043D01*
X013619Y006239D02*
X012889Y006239D01*
X012750Y006100D01*
X013096Y005846D02*
X012950Y005700D01*
X010750Y005700D01*
X009950Y004900D01*
X009050Y004900D01*
X008550Y004400D02*
X008050Y004900D01*
X008550Y004400D02*
X009850Y004400D01*
X010950Y005500D01*
X013050Y005500D01*
X013199Y005649D01*
X013619Y005649D01*
X013619Y005846D02*
X013096Y005846D01*
X013302Y005452D02*
X013150Y005300D01*
X012050Y005300D01*
X011950Y005200D01*
X011950Y004905D01*
X011955Y004900D01*
X011750Y004900D01*
X011650Y005000D01*
X011650Y005200D01*
X012545Y004900D02*
X012650Y004900D01*
X012850Y005100D01*
X013250Y005100D01*
X013405Y005255D01*
X013619Y005255D01*
X014105Y005255D01*
X014250Y005400D01*
X014505Y005255D02*
X014750Y005500D01*
X014505Y005255D02*
X014505Y004369D01*
X014505Y003985D01*
X014321Y003800D01*
X012645Y003800D01*
X012545Y003900D01*
X011955Y003900D02*
X011450Y003900D01*
X013850Y003400D02*
X014250Y003400D01*
X014702Y003852D01*
X014702Y004369D01*
X014899Y004369D02*
X014899Y003649D01*
X014550Y003300D01*
X015255Y003200D02*
X016080Y004025D01*
X016080Y004369D01*
X016080Y005130D01*
X016450Y005500D01*
X015883Y005467D02*
X015850Y005500D01*
X015883Y005467D02*
X015883Y004369D01*
X016277Y004369D02*
X016277Y003927D01*
X015850Y003500D01*
X015850Y003205D01*
X016655Y003200D02*
X017064Y003609D01*
X017064Y004369D01*
X017064Y005314D01*
X017250Y005500D01*
X017450Y005000D02*
X017261Y004811D01*
X017261Y004369D01*
X017261Y003200D01*
X017650Y003083D02*
X017650Y003700D01*
X017655Y003705D01*
X017655Y004369D01*
X016450Y005000D02*
X016277Y004827D01*
X016277Y004369D01*
X015250Y003800D02*
X015096Y003954D01*
X015096Y004369D01*
X013619Y005452D02*
X013302Y005452D01*
X013619Y006436D02*
X014586Y006436D01*
X014650Y006500D01*
X013619Y006830D02*
X012920Y006830D01*
X012850Y006900D01*
X009050Y006900D01*
X008550Y007400D02*
X008050Y007900D01*
X008550Y007400D02*
X011150Y007400D01*
X011450Y007100D01*
X012950Y007100D01*
X013023Y007027D01*
X013619Y007027D01*
X013619Y007224D02*
X013126Y007224D01*
X013050Y007300D01*
X011650Y007300D01*
X011050Y007900D01*
X009050Y007900D01*
X008550Y008400D02*
X008050Y008900D01*
X008550Y008400D02*
X009850Y008400D01*
X010445Y008995D01*
X013619Y008995D01*
X013619Y009192D02*
X009342Y009192D01*
X009050Y008900D01*
X008561Y009389D02*
X013619Y009389D01*
X013619Y009586D02*
X011864Y009586D01*
X011550Y009900D01*
X009050Y009900D01*
X008550Y010400D02*
X011550Y010400D01*
X011950Y010000D01*
X012950Y010000D01*
X013126Y010176D01*
X013619Y010176D01*
X013619Y009980D02*
X014450Y009980D01*
X014980Y010510D01*
X014980Y011570D01*
X013750Y012800D01*
X013750Y013800D01*
X013450Y014100D01*
X007250Y014100D01*
X005350Y016000D01*
X005350Y016483D01*
X005850Y016483D02*
X005850Y015800D01*
X007350Y014300D01*
X013550Y014300D01*
X013950Y013900D01*
X013950Y012900D01*
X015209Y011641D01*
X015209Y010426D01*
X014566Y009783D01*
X013619Y009783D01*
X013023Y010373D02*
X012850Y010200D01*
X012350Y010200D01*
X011955Y010595D01*
X012545Y010600D02*
X012575Y010570D01*
X013619Y010570D01*
X014220Y010570D01*
X014350Y010700D01*
X014186Y010964D02*
X013619Y010964D01*
X012291Y010964D01*
X011955Y011300D01*
X012545Y011300D02*
X012685Y011161D01*
X013619Y011161D01*
X014011Y011161D01*
X014250Y011400D01*
X014650Y011400D01*
X014350Y011100D02*
X014186Y010964D01*
X013619Y011357D02*
X012993Y011357D01*
X012750Y011600D01*
X009850Y011600D01*
X009150Y010900D01*
X009050Y010900D01*
X009350Y011400D02*
X008550Y011400D01*
X008050Y011900D01*
X009050Y011900D02*
X009150Y012000D01*
X012950Y012000D01*
X013199Y011751D01*
X013619Y011751D01*
X013619Y011554D02*
X013096Y011554D01*
X012850Y011800D01*
X009750Y011800D01*
X009350Y011400D01*
X008550Y010400D02*
X008050Y010900D01*
X008050Y009900D02*
X008561Y009389D01*
X011955Y008600D02*
X011955Y008591D01*
X012545Y008000D01*
X012545Y008091D01*
X012663Y008208D01*
X013619Y008208D01*
X014042Y008208D01*
X014250Y008000D01*
X014250Y007800D01*
X014067Y007617D01*
X013619Y007617D01*
X013619Y007420D02*
X013230Y007420D01*
X013050Y007600D01*
X012850Y007600D01*
X012355Y007600D01*
X011955Y008000D01*
X012550Y008500D02*
X012645Y008405D01*
X013619Y008405D01*
X013619Y008011D02*
X012951Y008011D01*
X012850Y007910D01*
X012850Y007814D01*
X012850Y007600D01*
X012850Y007814D02*
X013619Y007814D01*
X013619Y007420D02*
X014130Y007420D01*
X014250Y007300D01*
X016350Y007315D02*
X019550Y007315D01*
X019550Y007413D02*
X016350Y007413D01*
X016350Y007512D02*
X016804Y007512D01*
X016795Y007517D02*
X016829Y007497D01*
X016867Y007487D01*
X017900Y007487D01*
X017900Y008650D01*
X016737Y008650D01*
X016737Y007617D01*
X016747Y007579D01*
X016767Y007545D01*
X016795Y007517D01*
X016739Y007610D02*
X016350Y007610D01*
X016350Y007709D02*
X016737Y007709D01*
X016737Y007807D02*
X016350Y007807D01*
X016350Y007906D02*
X016737Y007906D01*
X016737Y008004D02*
X016350Y008004D01*
X016350Y008103D02*
X016737Y008103D01*
X016737Y008201D02*
X016350Y008201D01*
X016350Y008300D02*
X016737Y008300D01*
X016737Y008398D02*
X016350Y008398D01*
X016350Y008497D02*
X016737Y008497D01*
X016737Y008595D02*
X016350Y008595D01*
X016350Y008694D02*
X017900Y008694D01*
X017900Y008650D02*
X017900Y008750D01*
X017900Y009913D01*
X016867Y009913D01*
X016829Y009903D01*
X016795Y009883D01*
X016767Y009855D01*
X016747Y009821D01*
X016737Y009783D01*
X016737Y008750D01*
X017900Y008750D01*
X018000Y008750D01*
X018000Y009913D01*
X019033Y009913D01*
X019071Y009903D01*
X019105Y009883D01*
X019133Y009855D01*
X019153Y009821D01*
X019163Y009783D01*
X019163Y008750D01*
X018000Y008750D01*
X018000Y008650D01*
X019163Y008650D01*
X019163Y007617D01*
X019153Y007579D01*
X019133Y007545D01*
X019105Y007517D01*
X019071Y007497D01*
X019033Y007487D01*
X018000Y007487D01*
X018000Y008650D01*
X017900Y008650D01*
X017900Y008595D02*
X018000Y008595D01*
X018000Y008497D02*
X017900Y008497D01*
X017900Y008398D02*
X018000Y008398D01*
X018000Y008300D02*
X017900Y008300D01*
X017900Y008201D02*
X018000Y008201D01*
X018000Y008103D02*
X017900Y008103D01*
X017900Y008004D02*
X018000Y008004D01*
X018000Y007906D02*
X017900Y007906D01*
X017900Y007807D02*
X018000Y007807D01*
X018000Y007709D02*
X017900Y007709D01*
X017900Y007610D02*
X018000Y007610D01*
X018000Y007512D02*
X017900Y007512D01*
X019096Y007512D02*
X019550Y007512D01*
X019550Y007610D02*
X019161Y007610D01*
X019163Y007709D02*
X019550Y007709D01*
X019550Y007807D02*
X019163Y007807D01*
X019163Y007906D02*
X019550Y007906D01*
X019550Y008004D02*
X019163Y008004D01*
X019163Y008103D02*
X019550Y008103D01*
X019550Y008201D02*
X019163Y008201D01*
X019163Y008300D02*
X019550Y008300D01*
X019550Y008398D02*
X019163Y008398D01*
X019163Y008497D02*
X019550Y008497D01*
X019550Y008595D02*
X019163Y008595D01*
X019163Y008792D02*
X019550Y008792D01*
X019550Y008694D02*
X018000Y008694D01*
X018000Y008792D02*
X017900Y008792D01*
X017900Y008891D02*
X018000Y008891D01*
X018000Y008989D02*
X017900Y008989D01*
X017900Y009088D02*
X018000Y009088D01*
X018000Y009186D02*
X017900Y009186D01*
X017900Y009285D02*
X018000Y009285D01*
X018000Y009383D02*
X017900Y009383D01*
X017900Y009482D02*
X018000Y009482D01*
X018000Y009580D02*
X017900Y009580D01*
X017900Y009679D02*
X018000Y009679D01*
X018000Y009777D02*
X017900Y009777D01*
X017900Y009876D02*
X018000Y009876D01*
X019113Y009876D02*
X019550Y009876D01*
X019550Y009974D02*
X016350Y009974D01*
X016350Y009876D02*
X016787Y009876D01*
X016737Y009777D02*
X016350Y009777D01*
X016350Y009679D02*
X016737Y009679D01*
X016737Y009580D02*
X016350Y009580D01*
X016350Y009482D02*
X016737Y009482D01*
X016737Y009383D02*
X016350Y009383D01*
X016350Y009285D02*
X016737Y009285D01*
X016737Y009186D02*
X016350Y009186D01*
X016350Y009088D02*
X016737Y009088D01*
X016737Y008989D02*
X016350Y008989D01*
X016350Y008891D02*
X016737Y008891D01*
X016737Y008792D02*
X016350Y008792D01*
X016350Y010073D02*
X019550Y010073D01*
X019550Y010171D02*
X016350Y010171D01*
X016350Y010270D02*
X019550Y010270D01*
X019550Y010300D02*
X019550Y007100D01*
X016350Y007100D01*
X016350Y010300D01*
X019550Y010300D01*
X019550Y009777D02*
X019163Y009777D01*
X019163Y009679D02*
X019550Y009679D01*
X019550Y009580D02*
X019163Y009580D01*
X019163Y009482D02*
X019550Y009482D01*
X019550Y009383D02*
X019163Y009383D01*
X019163Y009285D02*
X019550Y009285D01*
X019550Y009186D02*
X019163Y009186D01*
X019163Y009088D02*
X019550Y009088D01*
X019550Y008989D02*
X019163Y008989D01*
X019163Y008891D02*
X019550Y008891D01*
X021750Y008900D02*
X021852Y008798D01*
X022281Y008798D01*
X022848Y008798D01*
X023145Y009095D01*
X023450Y009095D01*
X023845Y009095D01*
X023850Y009100D01*
X023955Y008505D02*
X023450Y008505D01*
X023350Y008405D01*
X022281Y008405D01*
X022282Y008600D02*
X023050Y008600D01*
X023250Y008800D01*
X025050Y008800D01*
X025150Y008900D01*
X025150Y008400D02*
X024250Y008400D01*
X024058Y008208D01*
X022281Y008208D01*
X022281Y008011D02*
X024339Y008011D01*
X024350Y008022D01*
X024350Y008100D01*
X024664Y007814D02*
X024750Y007900D01*
X024664Y007814D02*
X022281Y007814D01*
X022281Y007617D02*
X025867Y007617D01*
X026050Y007800D01*
X027210Y007800D01*
X027650Y007360D01*
X027650Y007000D01*
X028100Y006550D01*
X028554Y006550D01*
X029300Y006550D01*
X029650Y006900D01*
X029955Y006900D01*
X029350Y007100D02*
X029300Y007050D01*
X028554Y007050D01*
X028554Y007550D02*
X029300Y007550D01*
X029350Y007600D01*
X029250Y008100D02*
X028224Y008100D01*
X028224Y008600D01*
X028224Y008100D02*
X028050Y008100D01*
X025450Y008100D01*
X025150Y008400D01*
X025850Y009100D02*
X025850Y009600D01*
X026476Y009600D01*
X025450Y009500D02*
X025450Y009900D01*
X025450Y009500D02*
X025350Y009400D01*
X023150Y009400D01*
X022745Y008995D01*
X022281Y008995D01*
X022281Y009192D02*
X021750Y009192D01*
X021750Y009300D01*
X021839Y009389D01*
X022281Y009389D01*
X021750Y009192D02*
X021750Y008900D01*
X022281Y008602D02*
X022282Y008600D01*
X023950Y008500D02*
X023955Y008505D01*
X022281Y007420D02*
X025630Y007420D01*
X026000Y007050D01*
X026546Y007050D01*
X026546Y006550D02*
X025900Y006550D01*
X025850Y006600D01*
X025450Y007000D01*
X024845Y007000D01*
X024255Y007000D02*
X023950Y007000D01*
X023780Y006830D01*
X022281Y006830D01*
X022281Y007027D02*
X023577Y007027D01*
X023650Y007100D01*
X024450Y006633D02*
X024450Y006095D01*
X024050Y005800D02*
X023611Y006239D01*
X022281Y006239D01*
X022281Y006043D02*
X023007Y006043D01*
X023150Y005900D01*
X023445Y005900D01*
X023450Y005895D01*
X024050Y005800D02*
X025350Y005800D01*
X025450Y005700D01*
X029109Y005700D01*
X029250Y005841D01*
X029250Y006000D01*
X029855Y006000D01*
X029955Y006100D01*
X029250Y006159D02*
X029250Y006000D01*
X029250Y006159D02*
X029109Y006300D01*
X027850Y006300D01*
X027350Y006800D01*
X027350Y007300D01*
X027100Y007550D01*
X026546Y007550D01*
X025417Y006633D02*
X025750Y006300D01*
X027550Y006300D01*
X027800Y006050D01*
X028554Y006050D01*
X030545Y006100D02*
X030950Y006100D01*
X030950Y006900D02*
X030545Y006900D01*
X029250Y008100D02*
X029750Y008600D01*
X029955Y008600D01*
X030545Y008600D02*
X030950Y008600D01*
X028250Y010600D02*
X028224Y010600D01*
X028250Y010600D02*
X028250Y011100D01*
X026350Y012100D02*
X026350Y012474D01*
X026476Y012600D01*
X028224Y012600D02*
X028850Y012600D01*
X028850Y013200D01*
X029655Y013200D01*
X030245Y013200D02*
X030650Y013200D01*
X029645Y014495D02*
X028750Y013600D01*
X024050Y013600D01*
X021650Y013600D02*
X021395Y013345D01*
X021650Y013600D02*
X021650Y014005D01*
X021650Y014595D02*
X021650Y015100D01*
X020545Y014595D02*
X020450Y014500D01*
X020450Y013700D01*
X019820Y013470D02*
X019820Y013031D01*
X019820Y012030D01*
X019850Y012000D01*
X018442Y013031D02*
X018442Y013392D01*
X018650Y013600D01*
X018650Y015300D01*
X018050Y015900D01*
X010450Y015900D01*
X010350Y016000D01*
X010350Y016483D01*
X010850Y016483D02*
X010850Y016200D01*
X010950Y016100D01*
X018150Y016100D01*
X018850Y015400D01*
X018450Y015200D02*
X018450Y013700D01*
X018245Y013495D01*
X018245Y013031D01*
X018048Y013031D02*
X018048Y013598D01*
X018250Y013800D01*
X018250Y015100D01*
X017850Y015500D01*
X009450Y015500D01*
X009350Y015600D01*
X009350Y016483D01*
X009850Y016483D02*
X009850Y015800D01*
X009950Y015700D01*
X017950Y015700D01*
X018450Y015200D01*
X018050Y015000D02*
X018050Y013900D01*
X017852Y013702D01*
X017852Y013031D01*
X017655Y013031D02*
X017650Y013035D01*
X017650Y012600D01*
X017850Y012400D01*
X017458Y012608D02*
X017250Y012400D01*
X017458Y012608D02*
X017458Y013031D01*
X017458Y013692D01*
X017350Y013800D01*
X017350Y014500D01*
X017450Y014600D01*
X017645Y014600D01*
X018050Y015000D02*
X017750Y015300D01*
X008950Y015300D01*
X008850Y015400D01*
X008850Y016483D01*
X008850Y016917D02*
X009033Y017100D01*
X009033Y017400D01*
X008833Y017400D01*
X008550Y017683D01*
X008550Y019000D01*
X008950Y019400D01*
X008950Y020037D01*
X009737Y020037D02*
X009737Y020813D01*
X009650Y020900D01*
X010525Y020037D02*
X010525Y019375D01*
X010150Y019000D01*
X010150Y017800D01*
X009933Y017583D01*
X009933Y017400D01*
X009933Y017000D01*
X009850Y016917D01*
X009467Y017033D02*
X009467Y017400D01*
X009450Y017417D01*
X009450Y017600D01*
X009350Y017700D01*
X009350Y018300D01*
X009287Y018363D01*
X008950Y018363D01*
X009737Y018363D02*
X009737Y019013D01*
X009550Y019200D01*
X010950Y019000D02*
X011312Y019362D01*
X011312Y020037D01*
X012650Y019200D02*
X012887Y018963D01*
X012887Y018363D01*
X012167Y018296D02*
X012167Y017400D01*
X012733Y017400D01*
X013167Y017400D02*
X013350Y017400D01*
X012167Y018296D02*
X012100Y018363D01*
X011312Y018363D02*
X011267Y018318D01*
X011267Y017400D01*
X011267Y017100D01*
X011450Y016917D01*
X010850Y016917D02*
X010833Y016933D01*
X010833Y017400D01*
X010850Y017417D01*
X010850Y017600D01*
X010950Y017700D01*
X010950Y019000D01*
X010525Y018363D02*
X010525Y017775D01*
X010367Y017617D01*
X010367Y017400D01*
X010367Y016933D01*
X010350Y016917D01*
X009467Y017033D02*
X009350Y016917D01*
X007850Y016917D02*
X007667Y017100D01*
X007667Y017400D01*
X007667Y017617D01*
X007750Y017700D01*
X007750Y018300D01*
X007687Y018363D01*
X007375Y018363D01*
X006600Y018351D02*
X006588Y018363D01*
X006600Y018351D02*
X006600Y017750D01*
X006767Y017583D01*
X006767Y017400D01*
X006767Y017000D01*
X006850Y016917D01*
X007233Y017033D02*
X007233Y017400D01*
X007100Y017400D01*
X007000Y017500D01*
X007000Y019000D01*
X007375Y019375D01*
X007375Y020037D01*
X006588Y020037D02*
X006588Y019438D01*
X006200Y019050D01*
X006200Y017750D01*
X006333Y017617D01*
X006333Y017400D01*
X006333Y016933D01*
X006350Y016917D01*
X006350Y016483D02*
X006350Y015600D01*
X007450Y014500D01*
X013650Y014500D01*
X014702Y013448D01*
X014702Y013031D01*
X014899Y013031D02*
X014899Y013551D01*
X013750Y014700D01*
X007550Y014700D01*
X006850Y015400D01*
X006850Y016483D01*
X007350Y016483D02*
X007350Y015200D01*
X007650Y014900D01*
X016750Y014900D01*
X016867Y014783D01*
X016867Y013031D01*
X016670Y013031D02*
X016670Y013680D01*
X016550Y013800D01*
X016550Y013905D01*
X016450Y014005D01*
X015950Y013700D02*
X015850Y013800D01*
X015850Y014005D01*
X015950Y013700D02*
X016350Y013700D01*
X016474Y013576D01*
X016474Y013031D01*
X016474Y012324D01*
X016250Y012100D01*
X015850Y012100D01*
X015650Y012300D01*
X016050Y012400D02*
X016277Y012627D01*
X016277Y013031D01*
X016277Y013373D01*
X016150Y013500D01*
X015750Y013500D01*
X015550Y013700D01*
X015550Y014500D01*
X015650Y014600D01*
X015845Y014600D01*
X015850Y014595D02*
X016450Y014595D01*
X016850Y015100D02*
X017064Y014886D01*
X017064Y013031D01*
X016670Y013031D02*
X016670Y012580D01*
X016750Y012500D01*
X016750Y012000D01*
X017650Y013035D02*
X017650Y014005D01*
X016850Y015100D02*
X008050Y015100D01*
X007850Y015300D01*
X007850Y016483D01*
X007350Y016917D02*
X007233Y017033D01*
X005867Y016933D02*
X005867Y017400D01*
X005850Y017417D01*
X005850Y017650D01*
X005800Y017700D01*
X005800Y018363D01*
X005013Y018363D02*
X005013Y019037D01*
X004850Y019200D01*
X004600Y019000D02*
X004226Y019374D01*
X004226Y020037D01*
X005013Y020037D02*
X005013Y020837D01*
X004950Y020900D01*
X005800Y020037D02*
X005800Y019450D01*
X005433Y019083D01*
X005433Y017400D01*
X005433Y017183D01*
X005350Y017100D01*
X005350Y016917D01*
X005850Y016917D02*
X005867Y016933D01*
X004800Y016917D02*
X004767Y016950D01*
X004767Y017400D01*
X004767Y017633D01*
X004600Y017800D01*
X004600Y019000D01*
X004226Y018363D02*
X004226Y017724D01*
X004333Y017617D01*
X004333Y017400D01*
X004333Y016950D01*
X004300Y016917D01*
X008050Y012900D02*
X008550Y012400D01*
X012850Y012400D01*
X013302Y011948D01*
X013619Y011948D01*
X013619Y012145D02*
X013405Y012145D01*
X012650Y012900D01*
X009050Y012900D01*
X013023Y010373D02*
X013619Y010373D01*
X014277Y010373D01*
X014350Y010300D01*
X012550Y008600D02*
X012550Y008500D01*
X012545Y008600D02*
X012550Y008600D01*
X016350Y007216D02*
X019550Y007216D01*
X019550Y007118D02*
X016350Y007118D01*
X019426Y005476D02*
X019450Y005500D01*
X019426Y005476D02*
X019426Y004369D01*
X019426Y003976D01*
X019150Y003700D01*
X018950Y003700D01*
X019623Y003873D02*
X019623Y004369D01*
X021650Y005700D02*
X021796Y005846D01*
X022281Y005846D01*
X022804Y005846D01*
X023345Y005305D01*
X023450Y005305D01*
X024450Y005505D02*
X024450Y005100D01*
X025150Y005100D02*
X025150Y005505D01*
X025550Y006000D02*
X025455Y006095D01*
X025150Y006095D01*
X025550Y006000D02*
X025600Y006050D01*
X026546Y006050D01*
X025417Y006633D02*
X024450Y006633D01*
X022281Y006633D01*
X021307Y006043D02*
X021250Y006100D01*
X021307Y006043D02*
X022281Y006043D01*
X026350Y008600D02*
X026350Y009100D01*
X026350Y008600D02*
X026476Y008600D01*
X024425Y009795D02*
X023055Y009795D01*
X022870Y009980D01*
X022281Y009980D01*
X022281Y010176D02*
X021726Y010176D01*
X021650Y010100D01*
X022281Y010176D02*
X022826Y010176D01*
X023150Y010500D01*
X023355Y010500D01*
X024425Y010405D02*
X024455Y010435D01*
X024455Y011100D01*
X029645Y014495D02*
X029645Y015100D01*
X024250Y017800D02*
X024250Y020810D01*
X022750Y020810D01*
X022750Y020326D01*
X022785Y020291D01*
X022785Y017800D01*
X024250Y017800D01*
X024250Y017854D02*
X022785Y017854D01*
X022785Y017953D02*
X024250Y017953D01*
X024250Y018051D02*
X022785Y018051D01*
X022785Y018150D02*
X024250Y018150D01*
X024250Y018248D02*
X022785Y018248D01*
X022785Y018347D02*
X024250Y018347D01*
X024250Y018445D02*
X022785Y018445D01*
X022785Y018544D02*
X024250Y018544D01*
X024250Y018642D02*
X022785Y018642D01*
X022785Y018741D02*
X024250Y018741D01*
X024250Y018839D02*
X022785Y018839D01*
X022785Y018938D02*
X024250Y018938D01*
X024250Y019036D02*
X022785Y019036D01*
X022785Y019135D02*
X024250Y019135D01*
X024250Y019233D02*
X023797Y019233D01*
X023749Y019184D02*
X023848Y019284D01*
X023848Y020606D01*
X023749Y020705D01*
X022978Y020705D01*
X022878Y020606D01*
X022878Y019284D01*
X022978Y019184D01*
X023749Y019184D01*
X023848Y019332D02*
X024250Y019332D01*
X024250Y019430D02*
X023848Y019430D01*
X023848Y019529D02*
X024250Y019529D01*
X024250Y019627D02*
X023848Y019627D01*
X023848Y019726D02*
X024250Y019726D01*
X024250Y019824D02*
X023848Y019824D01*
X023848Y019923D02*
X024250Y019923D01*
X024250Y020021D02*
X023848Y020021D01*
X023848Y020120D02*
X024250Y020120D01*
X024250Y020218D02*
X023848Y020218D01*
X023848Y020317D02*
X024250Y020317D01*
X024250Y020415D02*
X023848Y020415D01*
X023848Y020514D02*
X024250Y020514D01*
X024250Y020612D02*
X023842Y020612D01*
X024250Y020711D02*
X022750Y020711D01*
X022750Y020809D02*
X024250Y020809D01*
X022885Y020612D02*
X022750Y020612D01*
X022750Y020514D02*
X022878Y020514D01*
X022878Y020415D02*
X022750Y020415D01*
X022760Y020317D02*
X022878Y020317D01*
X022878Y020218D02*
X022785Y020218D01*
X022785Y020120D02*
X022878Y020120D01*
X022878Y020021D02*
X022785Y020021D01*
X022785Y019923D02*
X022878Y019923D01*
X022878Y019824D02*
X022785Y019824D01*
X022785Y019726D02*
X022878Y019726D01*
X022878Y019627D02*
X022785Y019627D01*
X022785Y019529D02*
X022878Y019529D01*
X022878Y019430D02*
X022785Y019430D01*
X022785Y019332D02*
X022878Y019332D01*
X022929Y019233D02*
X022785Y019233D01*
X020844Y019000D02*
X020844Y017506D01*
X021000Y017350D01*
X021250Y017100D01*
X018115Y017800D02*
X016650Y017800D01*
X016650Y020900D01*
X018150Y020900D01*
X018150Y020326D01*
X018115Y020291D01*
X018115Y017800D01*
X018115Y017854D02*
X016650Y017854D01*
X016650Y017953D02*
X018115Y017953D01*
X018115Y018051D02*
X016650Y018051D01*
X016650Y018150D02*
X018115Y018150D01*
X018115Y018248D02*
X016650Y018248D01*
X016650Y018347D02*
X018115Y018347D01*
X018115Y018445D02*
X016650Y018445D01*
X016650Y018544D02*
X018115Y018544D01*
X018115Y018642D02*
X016650Y018642D01*
X016650Y018741D02*
X018115Y018741D01*
X018115Y018839D02*
X016650Y018839D01*
X016650Y018938D02*
X018115Y018938D01*
X018115Y019036D02*
X016650Y019036D01*
X016650Y019135D02*
X018115Y019135D01*
X018115Y019233D02*
X017971Y019233D01*
X017922Y019184D02*
X018022Y019284D01*
X018022Y020606D01*
X017922Y020705D01*
X017151Y020705D01*
X017052Y020606D01*
X017052Y019284D01*
X017151Y019184D01*
X017922Y019184D01*
X018022Y019332D02*
X018115Y019332D01*
X018115Y019430D02*
X018022Y019430D01*
X018022Y019529D02*
X018115Y019529D01*
X018115Y019627D02*
X018022Y019627D01*
X018022Y019726D02*
X018115Y019726D01*
X018115Y019824D02*
X018022Y019824D01*
X018022Y019923D02*
X018115Y019923D01*
X018115Y020021D02*
X018022Y020021D01*
X018022Y020120D02*
X018115Y020120D01*
X018115Y020218D02*
X018022Y020218D01*
X018022Y020317D02*
X018140Y020317D01*
X018150Y020415D02*
X018022Y020415D01*
X018022Y020514D02*
X018150Y020514D01*
X018150Y020612D02*
X018015Y020612D01*
X018150Y020711D02*
X016650Y020711D01*
X016650Y020809D02*
X018150Y020809D01*
X017058Y020612D02*
X016650Y020612D01*
X016650Y020514D02*
X017052Y020514D01*
X017052Y020415D02*
X016650Y020415D01*
X016650Y020317D02*
X017052Y020317D01*
X017052Y020218D02*
X016650Y020218D01*
X016650Y020120D02*
X017052Y020120D01*
X017052Y020021D02*
X016650Y020021D01*
X016650Y019923D02*
X017052Y019923D01*
X017052Y019824D02*
X016650Y019824D01*
X016650Y019726D02*
X017052Y019726D01*
X017052Y019627D02*
X016650Y019627D01*
X016650Y019529D02*
X017052Y019529D01*
X017052Y019430D02*
X016650Y019430D01*
X016650Y019332D02*
X017052Y019332D01*
X017103Y019233D02*
X016650Y019233D01*
X014462Y020037D02*
X014462Y020888D01*
X014450Y020900D01*
X033555Y010800D02*
X033855Y011100D01*
X034850Y011100D01*
X035050Y011300D01*
X035345Y011800D02*
X037400Y011800D01*
X038750Y011800D02*
X040100Y011800D01*
X011955Y006400D02*
X011350Y006400D01*
D40*
X011350Y006400D03*
X011650Y005200D03*
X011450Y003900D03*
X013850Y003400D03*
X014550Y003300D03*
X015250Y003800D03*
X016450Y005000D03*
X016450Y005500D03*
X015850Y005500D03*
X014750Y005500D03*
X014250Y005400D03*
X014650Y006500D03*
X014250Y007300D03*
X014250Y007900D03*
X016550Y008000D03*
X016550Y007300D03*
X017250Y007300D03*
X017950Y007300D03*
X018650Y007300D03*
X019350Y007300D03*
X019350Y008000D03*
X019350Y008700D03*
X019350Y009400D03*
X019350Y010100D03*
X018650Y010100D03*
X017950Y010100D03*
X017250Y010100D03*
X016550Y010100D03*
X016550Y009400D03*
X016550Y008700D03*
X014350Y010300D03*
X014350Y010700D03*
X014350Y011100D03*
X014650Y011400D03*
X015650Y012300D03*
X016050Y012400D03*
X016750Y012000D03*
X017250Y012400D03*
X017850Y012400D03*
X019150Y012400D03*
X019850Y012000D03*
X020450Y012400D03*
X020950Y012400D03*
X021450Y012200D03*
X022050Y012800D03*
X023550Y013000D03*
X023750Y013400D03*
X026350Y012100D03*
X024850Y011500D03*
X024450Y011500D03*
X021650Y010490D03*
X021250Y010800D03*
X021650Y010100D03*
X023850Y009100D03*
X023950Y008500D03*
X024350Y008100D03*
X024750Y007900D03*
X025150Y008900D03*
X025850Y009100D03*
X026350Y009100D03*
X029350Y007600D03*
X029350Y007100D03*
X030950Y006900D03*
X030950Y006100D03*
X031350Y005500D03*
X030050Y005200D03*
X030050Y004400D03*
X030550Y004000D03*
X030750Y003500D03*
X033050Y003000D03*
X033750Y003900D03*
X033750Y004500D03*
X035050Y006300D03*
X035050Y007300D03*
X035050Y008300D03*
X035050Y009300D03*
X035050Y010300D03*
X035050Y011300D03*
X035050Y012300D03*
X032450Y014100D03*
X032750Y014600D03*
X033350Y014600D03*
X032550Y016300D03*
X031250Y016300D03*
X029750Y016400D03*
X028850Y016300D03*
X027550Y016300D03*
X028650Y015100D03*
X025150Y016300D03*
X024850Y015100D03*
X021650Y015100D03*
X019750Y015500D03*
X021250Y017100D03*
X024850Y018600D03*
X025250Y018600D03*
X025650Y018600D03*
X026050Y018600D03*
X026450Y018600D03*
X026850Y018600D03*
X027250Y018600D03*
X027250Y019000D03*
X027250Y019400D03*
X027250Y019800D03*
X027250Y020300D03*
X026850Y020300D03*
X026450Y020300D03*
X026050Y020300D03*
X025650Y020300D03*
X025250Y020300D03*
X024850Y020300D03*
X024850Y019800D03*
X024850Y019400D03*
X024850Y019000D03*
X028550Y019000D03*
X028550Y018600D03*
X028950Y018600D03*
X029350Y018600D03*
X029750Y018600D03*
X030150Y018600D03*
X030550Y018600D03*
X030950Y018600D03*
X030950Y019000D03*
X030950Y019400D03*
X030950Y019800D03*
X030950Y020300D03*
X030550Y020300D03*
X030150Y020300D03*
X029750Y020300D03*
X029350Y020300D03*
X028950Y020300D03*
X028550Y020300D03*
X028550Y019800D03*
X028550Y019400D03*
X032250Y019400D03*
X032250Y019000D03*
X032250Y018600D03*
X032650Y018600D03*
X033050Y018600D03*
X033450Y018600D03*
X033850Y018600D03*
X034250Y018600D03*
X034650Y018600D03*
X034650Y019000D03*
X034650Y019400D03*
X034650Y019800D03*
X034650Y020300D03*
X034250Y020300D03*
X033850Y020300D03*
X033450Y020300D03*
X033050Y020300D03*
X032650Y020300D03*
X032250Y020300D03*
X032250Y019800D03*
X034950Y016300D03*
X030650Y013200D03*
X028850Y013200D03*
X028250Y011100D03*
X030950Y009600D03*
X030950Y008600D03*
X025850Y006600D03*
X025550Y006000D03*
X025150Y005100D03*
X024450Y005100D03*
X021650Y005700D03*
X021250Y006100D03*
X019450Y005500D03*
X018950Y005000D03*
X018450Y005000D03*
X017450Y005000D03*
X017250Y005500D03*
X020250Y005000D03*
X020750Y005000D03*
X023650Y007100D03*
X019550Y013650D03*
X012650Y019200D03*
X009550Y019200D03*
X009650Y020900D03*
X012850Y020900D03*
X013650Y020900D03*
X014450Y020900D03*
X004950Y020900D03*
X004850Y019200D03*
X002550Y012700D03*
X003450Y011700D03*
X004350Y011700D03*
X004350Y009800D03*
X003450Y009800D03*
X004750Y009200D03*
X004450Y008100D03*
X003450Y008000D03*
X003450Y006200D03*
X004450Y006200D03*
X004850Y005000D03*
X005550Y004900D03*
X004350Y004400D03*
X003450Y004400D03*
X038750Y005800D03*
X038750Y006800D03*
X038750Y007800D03*
X038750Y008800D03*
X038750Y009800D03*
X038750Y010800D03*
X038750Y011800D03*
D41*
X038650Y013400D02*
X034455Y013400D01*
X034355Y013500D01*
X034355Y013405D01*
X034350Y013400D01*
X034355Y013500D02*
X034355Y015100D01*
X034356Y015101D01*
X034356Y015801D01*
X034355Y015800D01*
X034356Y015801D02*
X034356Y017100D01*
X034356Y017771D01*
X034127Y018000D01*
X030650Y018000D01*
X030656Y017994D01*
X030656Y017100D01*
X030650Y018000D02*
X027150Y018000D01*
X026950Y017800D01*
X026950Y017106D01*
X026956Y017100D01*
X025144Y017100D02*
X025144Y016306D01*
X025150Y016300D01*
X028844Y016306D02*
X028850Y016300D01*
X028844Y016306D02*
X028844Y017100D01*
X032544Y017100D02*
X032544Y016306D01*
X032550Y016300D01*
X032450Y014100D02*
X032450Y013563D01*
X032444Y013542D01*
X032435Y013522D01*
X032423Y013503D01*
X032409Y013487D01*
X032392Y013473D01*
X032373Y013462D01*
X032352Y013454D01*
X032331Y013449D01*
X032309Y013448D01*
X032287Y013450D01*
X038650Y013400D02*
X039150Y013900D01*
X039150Y016200D01*
X038530Y016820D01*
X037550Y016820D01*
X023850Y019900D02*
X022950Y019900D01*
X023350Y020700D02*
X023350Y019000D01*
X017950Y019900D02*
X016950Y019900D01*
X017550Y020700D02*
X017550Y019000D01*
D42*
X024550Y018977D02*
X025228Y018977D01*
X025233Y018960D02*
X025256Y018919D01*
X025290Y018885D01*
X025331Y018861D01*
X025377Y018849D01*
X025970Y018849D01*
X025970Y019343D01*
X025220Y019343D01*
X025220Y019005D01*
X025233Y018960D01*
X025220Y019135D02*
X024550Y019135D01*
X024550Y019294D02*
X025220Y019294D01*
X025220Y019503D02*
X025970Y019503D01*
X025970Y019997D01*
X025377Y019997D01*
X025331Y019984D01*
X025290Y019961D01*
X025256Y019927D01*
X025233Y019886D01*
X025220Y019840D01*
X025220Y019503D01*
X025220Y019611D02*
X024550Y019611D01*
X024550Y019769D02*
X025220Y019769D01*
X025257Y019928D02*
X024550Y019928D01*
X024550Y020086D02*
X027550Y020086D01*
X027550Y019928D02*
X026843Y019928D01*
X026844Y019927D02*
X026810Y019961D01*
X026769Y019984D01*
X026723Y019997D01*
X026130Y019997D01*
X026130Y019503D01*
X025970Y019503D01*
X025970Y019343D01*
X026130Y019343D01*
X026130Y019503D01*
X026880Y019503D01*
X026880Y019840D01*
X026867Y019886D01*
X026844Y019927D01*
X026880Y019769D02*
X027550Y019769D01*
X027550Y019611D02*
X026880Y019611D01*
X026880Y019343D02*
X026130Y019343D01*
X026130Y018849D01*
X026723Y018849D01*
X026769Y018861D01*
X026810Y018885D01*
X026844Y018919D01*
X026867Y018960D01*
X026880Y019005D01*
X026880Y019343D01*
X026880Y019294D02*
X027550Y019294D01*
X027550Y019452D02*
X026130Y019452D01*
X026130Y019294D02*
X025970Y019294D01*
X025970Y019452D02*
X024550Y019452D01*
X024550Y018818D02*
X027550Y018818D01*
X027550Y018660D02*
X024550Y018660D01*
X024550Y018501D02*
X027550Y018501D01*
X027550Y018400D02*
X024550Y018400D01*
X024550Y020600D01*
X027550Y020600D01*
X027550Y018400D01*
X028250Y018400D02*
X031250Y018400D01*
X031250Y020600D01*
X028250Y020600D01*
X028250Y018400D01*
X028250Y018501D02*
X031250Y018501D01*
X031250Y018660D02*
X028250Y018660D01*
X028250Y018818D02*
X031250Y018818D01*
X031250Y018977D02*
X030572Y018977D01*
X030567Y018960D02*
X030580Y019005D01*
X030580Y019343D01*
X029830Y019343D01*
X029830Y019503D01*
X029670Y019503D01*
X029670Y019997D01*
X029077Y019997D01*
X029031Y019984D01*
X028990Y019961D01*
X028956Y019927D01*
X028933Y019886D01*
X028920Y019840D01*
X028920Y019503D01*
X029670Y019503D01*
X029670Y019343D01*
X028920Y019343D01*
X028920Y019005D01*
X028933Y018960D01*
X028956Y018919D01*
X028990Y018885D01*
X029031Y018861D01*
X029077Y018849D01*
X029670Y018849D01*
X029670Y019343D01*
X029830Y019343D01*
X029830Y018849D01*
X030423Y018849D01*
X030469Y018861D01*
X030510Y018885D01*
X030544Y018919D01*
X030567Y018960D01*
X030580Y019135D02*
X031250Y019135D01*
X031250Y019294D02*
X030580Y019294D01*
X030580Y019503D02*
X030580Y019840D01*
X030567Y019886D01*
X030544Y019927D01*
X030510Y019961D01*
X030469Y019984D01*
X030423Y019997D01*
X029830Y019997D01*
X029830Y019503D01*
X030580Y019503D01*
X030580Y019611D02*
X031250Y019611D01*
X031250Y019769D02*
X030580Y019769D01*
X030543Y019928D02*
X031250Y019928D01*
X031250Y020086D02*
X028250Y020086D01*
X028250Y019928D02*
X028957Y019928D01*
X028920Y019769D02*
X028250Y019769D01*
X028250Y019611D02*
X028920Y019611D01*
X028920Y019294D02*
X028250Y019294D01*
X028250Y019452D02*
X029670Y019452D01*
X029670Y019294D02*
X029830Y019294D01*
X029830Y019452D02*
X031250Y019452D01*
X031950Y019452D02*
X033370Y019452D01*
X033370Y019503D02*
X033370Y019343D01*
X032620Y019343D01*
X032620Y019005D01*
X032633Y018960D01*
X032656Y018919D01*
X032690Y018885D01*
X032731Y018861D01*
X032777Y018849D01*
X033370Y018849D01*
X033370Y019343D01*
X033530Y019343D01*
X033530Y019503D01*
X033370Y019503D01*
X033370Y019997D01*
X032777Y019997D01*
X032731Y019984D01*
X032690Y019961D01*
X032656Y019927D01*
X032633Y019886D01*
X032620Y019840D01*
X032620Y019503D01*
X033370Y019503D01*
X033370Y019611D02*
X033530Y019611D01*
X033530Y019503D02*
X033530Y019997D01*
X034123Y019997D01*
X034169Y019984D01*
X034210Y019961D01*
X034244Y019927D01*
X034267Y019886D01*
X034280Y019840D01*
X034280Y019503D01*
X033530Y019503D01*
X033530Y019452D02*
X034950Y019452D01*
X034950Y019294D02*
X034280Y019294D01*
X034280Y019343D02*
X033530Y019343D01*
X033530Y018849D01*
X034123Y018849D01*
X034169Y018861D01*
X034210Y018885D01*
X034244Y018919D01*
X034267Y018960D01*
X034280Y019005D01*
X034280Y019343D01*
X034280Y019135D02*
X034950Y019135D01*
X034950Y018977D02*
X034272Y018977D01*
X034950Y018818D02*
X031950Y018818D01*
X031950Y018660D02*
X034950Y018660D01*
X034950Y018501D02*
X031950Y018501D01*
X031950Y018400D02*
X034950Y018400D01*
X034950Y020600D01*
X031950Y020600D01*
X031950Y018400D01*
X031950Y018977D02*
X032628Y018977D01*
X032620Y019135D02*
X031950Y019135D01*
X031950Y019294D02*
X032620Y019294D01*
X033370Y019294D02*
X033530Y019294D01*
X033530Y019135D02*
X033370Y019135D01*
X033370Y018977D02*
X033530Y018977D01*
X033530Y019769D02*
X033370Y019769D01*
X033370Y019928D02*
X033530Y019928D01*
X034243Y019928D02*
X034950Y019928D01*
X034950Y020086D02*
X031950Y020086D01*
X031950Y019928D02*
X032657Y019928D01*
X032620Y019769D02*
X031950Y019769D01*
X031950Y019611D02*
X032620Y019611D01*
X031950Y020245D02*
X034950Y020245D01*
X034950Y020403D02*
X031950Y020403D01*
X031950Y020562D02*
X034950Y020562D01*
X034950Y019769D02*
X034280Y019769D01*
X034280Y019611D02*
X034950Y019611D01*
X031250Y020245D02*
X028250Y020245D01*
X028250Y020403D02*
X031250Y020403D01*
X031250Y020562D02*
X028250Y020562D01*
X027550Y020562D02*
X024550Y020562D01*
X024550Y020403D02*
X027550Y020403D01*
X027550Y020245D02*
X024550Y020245D01*
X025970Y019928D02*
X026130Y019928D01*
X026130Y019769D02*
X025970Y019769D01*
X025970Y019611D02*
X026130Y019611D01*
X026130Y019135D02*
X025970Y019135D01*
X025970Y018977D02*
X026130Y018977D01*
X026050Y018600D02*
X026050Y017100D01*
X026050Y016300D01*
X025845Y016095D01*
X025845Y015800D01*
X025845Y015100D01*
X025850Y015095D01*
X025850Y014300D01*
X025650Y014100D01*
X023350Y014100D01*
X022050Y012800D01*
X024850Y015100D02*
X025245Y015100D01*
X025250Y015095D01*
X025255Y015100D01*
X025250Y015100D02*
X025250Y015795D01*
X025255Y015800D01*
X025255Y016195D01*
X025150Y016300D01*
X026955Y015800D02*
X026955Y015100D01*
X027545Y015100D02*
X027545Y015800D01*
X027545Y016295D01*
X027550Y016300D01*
X026956Y015801D02*
X026955Y015800D01*
X026956Y015801D02*
X026956Y017100D01*
X028850Y016300D02*
X029055Y016095D01*
X029055Y015800D01*
X029055Y015105D01*
X029050Y015100D01*
X028650Y015100D01*
X029055Y015100D02*
X029055Y015105D01*
X029645Y015100D02*
X029645Y015800D01*
X029650Y015805D01*
X029650Y016300D01*
X029750Y016400D01*
X029750Y017100D01*
X030656Y017100D02*
X030656Y015801D01*
X030655Y015800D01*
X030655Y015100D01*
X031245Y015100D02*
X031245Y015800D01*
X031245Y016295D01*
X031250Y016300D01*
X032550Y016300D02*
X032750Y016100D01*
X032750Y015800D01*
X032755Y015800D02*
X032755Y015100D01*
X032755Y014605D01*
X032750Y014600D01*
X033345Y014605D02*
X033350Y014600D01*
X033345Y014605D02*
X033345Y015100D01*
X033345Y015800D01*
X033350Y015805D01*
X033350Y016300D01*
X033450Y016400D01*
X033450Y017100D01*
X034945Y016295D02*
X034950Y016300D01*
X034945Y016295D02*
X034945Y015800D01*
X034945Y015100D01*
X029830Y018977D02*
X029670Y018977D01*
X029670Y019135D02*
X029830Y019135D01*
X028920Y019135D02*
X028250Y019135D01*
X028250Y018977D02*
X028928Y018977D01*
X029670Y019611D02*
X029830Y019611D01*
X029830Y019769D02*
X029670Y019769D01*
X029670Y019928D02*
X029830Y019928D01*
X027550Y019135D02*
X026880Y019135D01*
X026872Y018977D02*
X027550Y018977D01*
D43*
X022419Y019000D02*
X021631Y019000D01*
X021631Y020781D01*
X021950Y021100D01*
X036350Y021100D01*
X037550Y019900D01*
X037550Y018380D01*
X019269Y019000D02*
X019269Y020281D01*
X018850Y020700D01*
X018481Y020331D01*
X018481Y019000D01*
D44*
X018850Y020700D03*
M02*
